<svg fill="none" xmlns="http://www.w3.org/2000/svg" viewBox="0 0 24 24">
  <path fill-rule="evenodd" clip-rule="evenodd" d="M15.316 13.474H13.42a.947.947 0 0 0-.947.947v3.79c0 .523.424.947.947.947h1.895a.948.948 0 0 0 .947-.948v-3.789a.948.948 0 0 0-.947-.947Zm-.474 4.263h-.947v-2.842h.947v2.842Zm5.21-8.053h-1.894a.948.948 0 0 0-.948.948v7.579c0 .523.425.947.948.947h1.895A.947.947 0 0 0 21 18.21v-7.578a.947.947 0 0 0-.947-.948Zm-.473 8.053h-.947v-6.632h.947v6.632Zm-9-8.053H8.684a.948.948 0 0 0-.947.948v7.579c0 .523.424.947.947.947h1.895a.947.947 0 0 0 .947-.948v-7.578a.947.947 0 0 0-.947-.948Zm-.474 8.053h-.947v-6.632h.947v6.632ZM5.842 14.42H3.947a.947.947 0 0 0-.947.947v2.842c0 .524.424.948.947.948h1.895a.947.947 0 0 0 .947-.948v-2.842a.947.947 0 0 0-.947-.947Zm-.474 3.316h-.947v-1.895h.947v1.895Zm-.473-6.158c.785 0 1.42-.636 1.42-1.421 0-.127-.021-.247-.052-.364L9.268 6.79c.117.031.237.053.364.053.182 0 .354-.037.514-.1L12.97 9c-.01.07-.021.139-.021.21a1.421 1.421 0 1 0 2.842 0c0-.071-.011-.14-.021-.21l2.822-2.257c.16.062.332.1.514.1a1.421 1.421 0 1 0-1.42-1.422c0 .072.01.141.02.21l-2.822 2.258a1.41 1.41 0 0 0-.515-.1 1.41 1.41 0 0 0-.514.1l-2.822-2.258c.01-.069.02-.138.02-.21a1.421 1.421 0 1 0-2.841 0c0 .126.021.247.052.364L5.258 8.79a1.417 1.417 0 0 0-.363-.053 1.421 1.421 0 1 0 0 2.842Z" fill="#53575B"/>
</svg>