<svg fill="none" xmlns="http://www.w3.org/2000/svg" viewBox="0 0 24 24">
  <path fill-rule="evenodd" clip-rule="evenodd" d="m15.123 3.645-.975.975A4.474 4.474 0 0 1 16 8.25H7c0-1.492.728-2.805 1.838-3.622l-.983-.983a.371.371 0 0 1 0-.533c.15-.15.383-.15.532 0l1.118 1.11c.6-.3 1.275-.472 1.995-.472a4.38 4.38 0 0 1 1.98.473l1.11-1.11c.15-.15.383-.15.533 0 .15.15.15.382 0 .532ZM4 10.125C4 9.502 4.503 9 5.125 9s1.125.502 1.125 1.125v5.25c0 .623-.503 1.125-1.125 1.125A1.123 1.123 0 0 1 4 15.375v-5.25Zm3.75 7.125A.752.752 0 0 1 7 16.5V9h9v7.5c0 .413-.338.75-.75.75h-.75v2.625c0 .622-.502 1.125-1.125 1.125a1.123 1.123 0 0 1-1.125-1.125V17.25h-1.5v2.625c0 .622-.502 1.125-1.125 1.125A1.123 1.123 0 0 1 8.5 19.875V17.25h-.75ZM17.875 9c-.622 0-1.125.502-1.125 1.125v5.25c0 .623.503 1.125 1.125 1.125S19 15.998 19 15.375v-5.25C19 9.502 18.497 9 17.875 9ZM10 6.75h-.75V6H10v.75Zm3 0h.75V6H13v.75Z" fill="#53575B"/>
</svg>