<svg fill="none" xmlns="http://www.w3.org/2000/svg" viewBox="0 0 24 24">
  <g clip-path="url(#a)">
    <path d="m14.845 7.275 3.934 6.816h3.462c.97 0 1.759.789 1.759 1.759 0 .97-.79 1.76-1.76 1.76h-1.429l1.159 2.006a1.761 1.761 0 0 1-1.98 2.58 1.748 1.748 0 0 1-1.068-.82l-6.11-10.582 2.033-3.519ZM6.44 19.017l-1.362 2.359a1.76 1.76 0 0 1-2.404.644 1.761 1.761 0 0 1-.644-2.404l.346-.599H6.44ZM12.27 1.88a1.761 1.761 0 0 1 3.224.425c.122.454.06.928-.176 1.335L9.284 14.091h3.806l2.032 3.519H1.76c-.97 0-1.76-.79-1.76-1.76s.79-1.76 1.76-1.76h3.46l4.748-8.223L8.682 3.64a1.762 1.762 0 0 1 .644-2.404l.16-.082a1.762 1.762 0 0 1 2.243.726l.271.47.27-.47Z" fill="#53575B"/>
  </g>
  <defs>
    <clipPath id="a">
      <path fill="#fff" d="M0 0h24v24H0z"/>
    </clipPath>
  </defs>
</svg>