<svg fill="none" xmlns="http://www.w3.org/2000/svg" viewBox="0 0 24 24">
  <path fill-rule="evenodd" clip-rule="evenodd" d="M11 1.05v2.01c-1.73.19-3.31.88-4.61 1.92L4.97 3.56C6.64 2.17 8.71 1.25 11 1.05Zm2 0c2.29.21 4.36 1.12 6.03 2.51l-1.42 1.42A8.928 8.928 0 0 0 13 3.06V1.05ZM4.98 6.39 3.56 4.97C2.17 6.64 1.26 8.71 1.05 11h2.01c.19-1.73.88-3.31 1.92-4.61ZM22.95 11h-2.01a8.928 8.928 0 0 0-1.92-4.61l1.42-1.42c1.39 1.67 2.3 3.74 2.51 6.03ZM7 12l3.44 1.56L12 17l1.56-3.44L17 12l-3.44-1.56L12 7l-1.56 3.44L7 12Zm-2.46 5A8.96 8.96 0 0 0 12 21c3.92 0 7.25-2.52 8.48-6.01l1.96.45C21 19.83 16.87 23 12 23c-3.73 0-7.01-1.86-9-4.7V21H1v-6h6v2H4.54Z" fill="#53575B"/>
</svg>
