<svg fill="none" xmlns="http://www.w3.org/2000/svg" viewBox="0 0 24 24">
  <path fill-rule="evenodd" clip-rule="evenodd" d="M12 24c6.627 0 12-5.373 12-12S18.627 0 12 0 0 5.373 0 12s5.373 12 12 12Zm.786-16.8H9.333v9.6h3.71c.894 0 1.612-.248 2.153-.745.542-.505.813-1.15.813-1.936 0-.578-.163-1.07-.488-1.476a2.095 2.095 0 0 0-1.205-.799 1.97 1.97 0 0 0 1.002-.758c.262-.38.393-.812.393-1.3 0-.767-.262-1.39-.786-1.868-.514-.479-1.227-.718-2.139-.718Zm-1.611 3.967h1.327c.424 0 .758-.108 1.002-.325.243-.216.365-.51.365-.88s-.122-.659-.365-.866c-.235-.217-.573-.325-1.016-.325h-1.313v2.396Zm0 4.076h1.516c.452 0 .804-.108 1.056-.325.262-.226.393-.533.393-.92 0-.389-.126-.7-.379-.935-.244-.235-.591-.352-1.043-.352h-1.543v2.532Z" fill="#53575B"/>
</svg>
