<svg fill="none" xmlns="http://www.w3.org/2000/svg" viewBox="0 0 24 24">
  <circle cx="12" cy="12" r="12" fill="#4F4FF5"/>
  <path d="M9.334 7.2h3.452c.912 0 1.625.24 2.14.718.523.478.785 1.1.785 1.868 0 .488-.131.92-.393 1.3a1.97 1.97 0 0 1-1.002.758c.488.118.89.384 1.205.8.325.405.488.897.488 1.475 0 .785-.271 1.43-.813 1.936-.541.497-1.259.745-2.152.745h-3.71V7.2Zm1.841 3.967h1.327c.424 0 .758-.108 1.002-.325.244-.216.366-.51.366-.88s-.122-.659-.366-.866c-.235-.217-.573-.325-1.016-.325h-1.313v2.396Zm0 4.076h1.516c.452 0 .804-.109 1.057-.325.261-.226.392-.533.392-.92 0-.389-.126-.7-.379-.935-.244-.235-.591-.352-1.042-.352h-1.544v2.532Z" fill="#fff"/>
</svg>
