<svg fill="none" xmlns="http://www.w3.org/2000/svg" viewBox="0 0 24 24">
  <path d="M7 3h6.474c1.71 0 3.046.449 4.011 1.346.982.897 1.473 2.064 1.473 3.503 0 .914-.246 1.726-.737 2.437-.49.694-1.117 1.168-1.878 1.422.914.22 1.667.72 2.26 1.498.609.762.913 1.684.913 2.767 0 1.473-.507 2.683-1.523 3.63-1.016.932-2.361 1.397-4.037 1.397H7V3Zm3.453 7.439h2.488c.795 0 1.421-.204 1.878-.61.457-.406.686-.956.686-1.65s-.229-1.235-.686-1.625c-.44-.406-1.074-.609-1.904-.609h-2.462v4.494Zm0 7.641h2.843c.847 0 1.507-.203 1.98-.609.491-.423.737-.998.737-1.726s-.237-1.312-.711-1.752c-.457-.44-1.109-.66-1.955-.66h-2.894v4.747Z" fill="#53575B"/>
</svg>