<svg fill="none" xmlns="http://www.w3.org/2000/svg" viewBox="0 0 24 24">
  <path d="M17.739 8.72a1.707 1.707 0 0 0 .378-1.882c-.088-.21-.216-.4-.378-.558l-4.09-4.108a1.7 1.7 0 0 0-1.88-.382 1.7 1.7 0 0 0-.557.382l-.521.529 6.52 6.548.528-.529ZM2.18 11.419a1.692 1.692 0 0 0-.38 1.88c.088.209.217.398.38.556l4.109 4.127A1.685 1.685 0 0 0 7.5 18.5a1.678 1.678 0 0 0 1.213-.518l.51-.513-6.533-6.563-.51.513Z" fill="#53575B"/>
  <path fill-rule="evenodd" clip-rule="evenodd" d="m14.287 12.522 9.002 8.01c.203.176.396.38.513.625a2.012 2.012 0 0 1-.358 2.256c-.187.194-.41.346-.657.446a1.889 1.889 0 0 1-1.543-.05 1.933 1.933 0 0 1-.628-.489l-8.04-9.034-1.434 1.467a.994.994 0 0 1-.708.298.995.995 0 0 1-.708-.298L4.523 10.42a1.027 1.027 0 0 1-.294-.725 1.046 1.046 0 0 1 .294-.725l4.441-4.534a.995.995 0 0 1 .708-.298c.265 0 .52.107.708.298l5.186 5.326a1.026 1.026 0 0 1 .294.725 1.047 1.047 0 0 1-.293.724l-1.28 1.31Zm-3.08-1.343c.264-.266.425-.62.453-.997a.955.955 0 0 0 .034-.128c0-.418-.163-.82-.452-1.116a1.523 1.523 0 0 0-1.09-.462c-.114 0-.228.012-.34.035a1.548 1.548 0 0 0-.807.447c-.22.228-.366.519-.422.834-.006.085-.006.17 0 .256 0 .418.163.82.452 1.116.289.296.68.462 1.09.462h.102c.369-.023.717-.182.98-.447Z" fill="#53575B"/>
  <path d="M11.66 10.182a1.582 1.582 0 0 1-.453.997 1.513 1.513 0 0 1-.98.447h-.103c-.408 0-.8-.166-1.09-.462a1.597 1.597 0 0 1-.45-1.116 1.877 1.877 0 0 1 0-.256c.055-.315.202-.606.42-.834.22-.228.5-.384.808-.447.112-.023.226-.035.34-.035.41 0 .801.167 1.09.462.29.296.452.698.452 1.116a.955.955 0 0 1-.034.128Z" fill="#fff"/>
  <path d="M10.698 22H1.327a1.807 1.807 0 0 0-.507.068 1.45 1.45 0 0 0-.43.2.986.986 0 0 0-.289.302.698.698 0 0 0-.101.357V24h12v-1.073c0-.244-.137-.479-.38-.652a1.627 1.627 0 0 0-.922-.275ZM21.953 11.14 21.148 9l-1.007 2.055-2.141.797 2.055 1.007.797 2.141 1.007-2.055L24 12.148l-2.047-1.007ZM4.376 5l.838-1.715L7 2.624l-1.707-.846L4.623 0l-.837 1.707L2 2.377l1.715.837L4.376 5ZM2.626 5.422 2.095 4l-.673 1.365L0 5.895l1.365.674L1.895 8l.674-1.374L4 6.095l-1.374-.673Z" fill="#53575B"/>
</svg>