<svg fill="none" xmlns="http://www.w3.org/2000/svg" viewBox="0 0 24 24">
  <path fill-rule="evenodd" clip-rule="evenodd" d="M21 13.157c-.017.612-.535 1.093-1.148 1.093h-1.946v.563c0 .768-.171 1.497-.478 2.15l2.117 2.116a1.125 1.125 0 0 1-1.59 1.591l-1.925-1.924a5.041 5.041 0 0 1-3.186 1.129v-8.578a.422.422 0 0 0-.422-.422h-.844a.422.422 0 0 0-.422.422v8.578a5.041 5.041 0 0 1-3.186-1.129l-1.925 1.925a1.125 1.125 0 0 1-1.59-1.591l2.117-2.118a5.042 5.042 0 0 1-.478-2.15v-.562H4.148c-.613 0-1.13-.48-1.148-1.093A1.125 1.125 0 0 1 4.125 12h1.969V9.935l-1.64-1.64a1.125 1.125 0 0 1 1.591-1.59l1.921 1.92h8.068l1.92-1.92a1.125 1.125 0 0 1 1.591 1.59l-1.639 1.64V12h1.969c.632 0 1.142.52 1.125 1.157ZM12.035 3a3.937 3.937 0 0 0-3.937 3.938h7.875A3.937 3.937 0 0 0 12.035 3Z" fill="#53575B"/>
</svg>
