<svg fill="none" xmlns="http://www.w3.org/2000/svg" viewBox="0 0 24 24">
  <path d="M20 9.777V5c0-.273-.218-1-1-1a.998.998 0 0 0-.624.22l-2.658 2.125A7.585 7.585 0 0 1 11 8H5a2 2 0 0 0-2 2v3a2 2 0 0 0 2 2l-.015 1c0 1.243.29 2.417.799 3.467A.98.98 0 0 0 6.67 20h3.321c.815 0 1.303-.933.81-1.58A3.98 3.98 0 0 1 9.985 16c0-.347.05-.68.138-1H11c1.708 0 3.384.588 4.718 1.655l2.657 2.126A1 1 0 0 0 19 19c.778 0 1-.712 1-1v-4.777c.595-.347 1-.984 1-1.723a1.99 1.99 0 0 0-1-1.723ZM6.992 18.5a6.38 6.38 0 0 1-.507-2.5c0-.444.054-.792.081-1h2.029a5.24 5.24 0 0 0-.11 1c0 .882.205 1.731.6 2.5H6.992Zm3.508-5H5a.5.5 0 0 1-.5-.5v-3a.5.5 0 0 1 .5-.5h5.5v4Zm8 3.46-1.845-1.477A9.09 9.09 0 0 0 12 13.563V9.437a9.09 9.09 0 0 0 4.655-1.92L18.5 6.04v10.918Z" fill="#53575B"/>
</svg>
