<svg fill="none" xmlns="http://www.w3.org/2000/svg" viewBox="0 0 24 24">
  <path d="M18 11v2h4v-2h-4ZM16 17.61c.96.71 2.21 1.65 3.2 2.39.4-.53.8-1.07 1.2-1.6-.99-.74-2.24-1.68-3.2-2.4-.4.54-.8 1.08-1.2 1.61ZM20.4 5.6c-.4-.53-.8-1.07-1.2-1.6-.99.74-2.24 1.68-3.2 2.4.4.53.8 1.07 1.2 1.6.96-.72 2.21-1.65 3.2-2.4ZM4 9c-1.1 0-2 .9-2 2v2c0 1.1.9 2 2 2h1v4h2v-4h1l5 3V6L8 9H4Zm5.03 1.71L11 9.53v4.94l-1.97-1.18-.48-.29H4v-2h4.55l.48-.29ZM15.5 12c0-1.33-.58-2.53-1.5-3.35v6.69c.92-.81 1.5-2.01 1.5-3.34Z" fill="#53575B"/>
  <path opacity=".3" d="M9.03 10.71 11 9.53v4.94l-1.97-1.18-.48-.29H4v-2h4.55l.48-.29Z" fill="#53575B"/>
</svg>
