<svg fill="none" xmlns="http://www.w3.org/2000/svg" viewBox="0 0 24 24">
  <path fill-rule="evenodd" clip-rule="evenodd" d="M15.5 10h-2c-.276 0-.5.373-.5.833v8.334c0 .46.224.833.5.833h2c.276 0 .5-.373.5-.833v-8.334c0-.46-.224-.833-.5-.833Zm5-6h-2c-.276 0-.5.358-.5.8v14.4c0 .442.224.8.5.8h2c.276 0 .5-.358.5-.8V4.8c0-.442-.224-.8-.5-.8Zm-10 0h-2c-.276 0-.5.358-.5.8v14.4c0 .442.224.8.5.8h2c.276 0 .5-.358.5-.8V4.8c0-.442-.224-.8-.5-.8Zm-5 8h-2c-.276 0-.5.358-.5.8v6.4c0 .442.224.8.5.8h2c.276 0 .5-.358.5-.8v-6.4c0-.442-.224-.8-.5-.8Z" fill="#53575B"/>
</svg>
