<svg fill="none" xmlns="http://www.w3.org/2000/svg" viewBox="0 0 24 24">
  <path fill-rule="evenodd" clip-rule="evenodd" d="m19.498 5.318-1.853-1.824A1.728 1.728 0 0 0 16.433 3h-6.147c-.947 0-1.715.756-1.715 1.688v1.687H5.714C4.767 6.375 4 7.131 4 8.063v11.25C4 20.244 4.768 21 5.714 21h8c.947 0 1.715-.756 1.715-1.688v-1.687h2.857c.947 0 1.714-.756 1.714-1.688V6.511c0-.447-.18-.876-.502-1.193ZM13.5 19.313H5.929a.213.213 0 0 1-.215-.211V8.273c0-.116.096-.21.215-.21H8.57v7.874c0 .932.768 1.688 1.715 1.688h3.428v1.477c0 .116-.096.21-.214.21Zm4.571-3.375H10.5a.213.213 0 0 1-.214-.211V4.898c0-.116.096-.21.214-.21h3.786V7.78a.85.85 0 0 0 .857.844h3.143v7.102c0 .116-.096.21-.215.21Zm.215-9H16v-2.25h.344c.057 0 .111.022.151.061l1.728 1.7a.21.21 0 0 1 .063.15v.338Z" fill="#53575B"/>
</svg>
