<svg fill="none" xmlns="http://www.w3.org/2000/svg" viewBox="0 0 24 24">
  <path fill-rule="evenodd" clip-rule="evenodd" d="M7.231 11.683A4.522 4.522 0 0 1 8.44 11.4l.324-.342-.673-.716L9.97 8.345l.68.725 1.066-1.125-3.128-3.322A1.936 1.936 0 0 0 7.175 4c-.513 0-1.025.208-1.416.623L4.587 5.868A2.19 2.19 0 0 0 4 7.372c-.028 1.104.414 1.316 3.231 4.311Zm11.36 3.57-1.35-1.434-1.064 1.123 1.352 1.438c.067.07.114.16.135.259l.517 2.443c-2.521-.58-2.38-.548-2.472-.674l-1.39-1.477-.35.37a5.66 5.66 0 0 1-.272 1.223l.952 1.01c.262.279.585.472.945.562 1.192.298 3.835.894 3.835.894-.02.007.04.01.074.01.273 0 .499-.24.499-.53a.578.578 0 0 0-.01-.106l-.863-4.077a2.188 2.188 0 0 0-.538-1.034ZM18.587 4c-.645 0-1.25.264-1.705.744l-7.813 8.237a3.398 3.398 0 0 0-.208-.006c-2.317 0-3.484 2.172-3.484 3.752 0 .227.017.33.017.413 0 .484-.374.805-.95.805C3.648 17.915 3 18.63 3 19.443 3 20.316 3.648 21 4.444 21H6.03c4.43 0 6.41-1.653 6.41-4.24 0-.05-.002-.099-.004-.149l7.829-8.257A2.622 2.622 0 0 0 21 6.55C21 5.137 19.922 4 18.587 4Zm-7.63 12.773c0 1.554-1.257 2.633-4.927 2.633h-.739c.963-.32 1.604-1.2 1.604-2.264 0-.19-.017-.24-.017-.414 0-1.155.873-2.154 1.99-2.154.235 0 .435.038.578.058l1.478 1.57c.02.193.032.385.032.571Zm8.277-9.55-6.165 6.505-1.285-1.364 6.15-6.488a.898.898 0 0 1 .653-.282c.51 0 .913.43.913.956 0 .254-.122.494-.266.674Z" fill="#53575B"/>
</svg>