<svg fill="none" xmlns="http://www.w3.org/2000/svg" viewBox="0 0 24 24">
  <path fill-rule="evenodd" clip-rule="evenodd" d="M20.754 16.936 17.969 19.5c-.53.531-1.469.155-1.469-.597v-1.407h-1.09a.421.421 0 0 1-.31-.137l-3.156-3.417 1.34-1.452 2.805 3.034h.411v-1.687c0-.753.939-1.129 1.47-.598l2.784 2.496a.86.86 0 0 1 0 1.202ZM3.422 8.218h3.227l2.806 3.034 1.34-1.452-3.158-3.417a.421.421 0 0 0-.31-.138H3.423A.423.423 0 0 0 3 6.667v1.125c0 .236.19.426.422.426Zm17.332-1.473-2.785-2.496c-.53-.531-1.469-.155-1.469.594v1.406h-1.09a.421.421 0 0 0-.31.137L6.65 15.53H3.421a.423.423 0 0 0-.422.422v1.125c0 .232.19.422.422.422h3.902c.116 0 .229-.05.31-.137l8.451-9.144h.415v1.687c0 .753.939 1.129 1.47.598l2.784-2.567a.847.847 0 0 0 0-1.191Z" fill="#53575B"/>
</svg>
