<svg fill="none" xmlns="http://www.w3.org/2000/svg" viewBox="0 0 24 24">
  <path d="M12 4c-.85 0-1.539.65-1.539 1.455 0 .565.343 1.054.842 1.295l-3.15 5.977-3.437-2.704c.223-.253.36-.577.36-.932 0-.804-.687-1.455-1.538-1.455-.85 0-1.538.65-1.538 1.455 0 .804.688 1.455 1.538 1.455.106 0 .214-.003.313-.023L5 16h14l1.149-5.477c.1.02.207.023.313.023.85 0 1.538-.651 1.538-1.455s-.688-1.455-1.538-1.455c-.85 0-1.539.65-1.539 1.455 0 .355.138.679.36.932l-3.437 2.704-3.149-5.977c.499-.241.842-.73.842-1.295C13.539 4.65 12.85 4 12 4ZM5 18v.91C5 19.51 5.517 20 6.154 20h11.692c.637 0 1.154-.489 1.154-1.09V18H5Z" fill="#53575B"/>
</svg>
