
<svg fill="none" xmlns="http://www.w3.org/2000/svg" viewBox="0 0 24 24">
  <g clip-path="url(#a)">
    <g clip-path="url(#b)">
      <path d="M8.886 9.97C5.522 8.662 4.104 6.25 3.507 4.455 2.864 2.526 3.013.91 3.019.842L3.066.37h3.958v1.047H4.066a9.04 9.04 0 0 0 .465 2.752c.77 2.28 2.367 3.904 4.746 4.827l-.39.974Z" fill="#4F4FF5"/>
      <path opacity=".4" d="M8.886 9.97C5.522 8.662 4.104 6.25 3.507 4.455 2.864 2.526 3.013.91 3.019.842L3.066.37h3.958v1.047H4.066a9.04 9.04 0 0 0 .465 2.752c.77 2.28 2.367 3.904 4.746 4.827l-.39.974Z" fill="#5B5B5F" fill-opacity=".5"/>
      <path d="M11.123 11.077h1.846v4.43h-1.846v-4.43ZM16.292 17.354H7.431v-.4c0-.799.62-1.446 1.385-1.446h6.091c.765 0 1.385.648 1.385 1.447v.399Z" fill="#4F4FF5"/>
      <path d="M6.323 17.354H17.4v5.538H6.323v-5.538Z" fill="#DDDFE1"/>
      <path d="M7.43 18.83h8.493v2.955H7.431V18.83Z" fill="#fff"/>
      <path d="M5.584 22.523H17.77V24H5.584v-1.477Z" fill="#53575B"/>
      <path opacity=".4" d="M11.123 11.077h1.846v1.107h-1.846v-1.107Z" fill="#5B5B5F" fill-opacity=".5"/>
      <path d="m20.704 1.009-.045-.476h-2.793c.004-.183.006-.362.006-.533H5.954c0 4.087.997 11.815 5.959 11.815 1.496 0 2.632-.703 3.488-1.797 2.986-1.343 4.276-3.646 4.83-5.378.623-1.94.48-3.563.473-3.631Zm-1.452 3.304c-.53 1.65-1.471 2.96-2.81 3.914.883-2.02 1.262-4.55 1.383-6.642h1.867a9.357 9.357 0 0 1-.44 2.728Z" fill="#4F4FF5"/>
      <path opacity=".4" d="M16.292 17.354H7.431v-.4c0-.799.62-1.446 1.385-1.446h6.091c.765 0 1.385.648 1.385 1.447v.399Z" fill="#5B5B5F" fill-opacity=".5"/>
      <path opacity=".4" d="m20.704.998-.045-.47h-2.81c.005-.182.006-.359.006-.528h-5.994v24h6.16v-1.336h-.592v-5.26h-1.123v-.385c0-.77-.622-1.394-1.39-1.394h-2.175v-4.023c1.081-.216 1.944-.833 2.63-1.693 3.003-1.328 4.3-3.607 4.858-5.319.626-1.92.481-3.525.475-3.592Zm-1.46 3.268c-.533 1.632-1.48 2.928-2.827 3.872.888-1.999 1.27-4.5 1.391-6.57h1.878a9.113 9.113 0 0 1-.442 2.698Z" fill="#5B5B5F" fill-opacity=".5"/>
      <path d="M12.5 7.754c.509 0 .9-.122 1.17-.366.271-.243.407-.57.407-.981 0-.334-.091-.597-.275-.788a.977.977 0 0 0-.646-.315v-.029c.19-.02.37-.117.536-.294.166-.176.25-.415.25-.716 0-.397-.133-.714-.397-.953s-.615-.358-1.053-.358h-2.476v4.8H12.5Zm-.279-2.816h-1.028V3.907h1.071c.152 0 .28.045.382.136.102.09.153.21.153.358a.51.51 0 0 1-.157.39.592.592 0 0 1-.42.147Zm.072 1.863h-1.1V5.748h1.121a.59.59 0 0 1 .407.14.478.478 0 0 1 .157.376.513.513 0 0 1-.153.394c-.103.095-.247.143-.432.143Z" fill="#fff"/>
    </g>
  </g>
  <defs>
    <clipPath id="a">
      <path fill="#fff" d="M0 0h24v24H0z"/>
    </clipPath>
    <clipPath id="b">
      <path fill="#fff" transform="translate(3)" d="M0 0h17.723v24H0z"/>
    </clipPath>
  </defs>
</svg>