<svg fill="none" xmlns="http://www.w3.org/2000/svg" viewBox="0 0 24 24">
  <path fill-rule="evenodd" clip-rule="evenodd" d="M10.75 9.61v7.593a.422.422 0 0 1-.422.422h-.844a.422.422 0 0 1-.421-.422V9.61c0-.233.188-.421.421-.421h.844c.233 0 .422.188.422.421Zm3.516-.422h-.844a.422.422 0 0 0-.422.421v7.594c0 .233.189.422.422.422h.844a.422.422 0 0 0 .421-.422V9.61a.422.422 0 0 0-.421-.421Zm4.64-3.376c.466 0 .844.378.844.844v.422a.422.422 0 0 1-.422.422h-.703v11.813c0 .931-.756 1.687-1.688 1.687H6.813a1.687 1.687 0 0 1-1.687-1.688V7.5h-.703A.422.422 0 0 1 4 7.078v-.422c0-.466.378-.843.844-.843H7.46l1.196-1.994C8.96 3.311 9.51 3 10.103 3h3.544c.593 0 1.142.311 1.447.82l1.196 1.993h2.616Zm-9.478 0h4.894L13.71 4.79a.21.21 0 0 0-.181-.103h-3.306a.21.21 0 0 0-.18.103l-.614 1.022Zm7.51 1.688H6.813v11.602c0 .116.094.21.21.21h9.704a.21.21 0 0 0 .21-.21V7.5Z" fill="#53575B"/>
</svg>
