<svg fill="none" xmlns="http://www.w3.org/2000/svg" viewBox="0 0 24 24">
  <path d="M18.111 3H5.89c-.14 0-.271.07-.348.19L2.07 8.365c-.1.154-.09.358.024.499l9.584 11.98c.167.208.48.208.646 0l9.584-11.98a.427.427 0 0 0 .024-.5L18.462 3.19a.418.418 0 0 0-.35-.19Zm-.67 1.687 2.198 3.375h-2.375L15.47 4.687h1.972Zm-7.017 0h3.149l1.795 3.375H8.632l1.792-3.375Zm-3.865 0H8.53L6.736 8.062H4.36l2.198-3.375ZM5.066 9.75H6.85l2.371 5.624L5.066 9.75Zm3.573 0h6.722L12 18.303 8.639 9.75Zm6.139 5.624 2.368-5.624h1.785l-4.153 5.624Z" fill="#53575B"/>
</svg>
