<svg fill="none" xmlns="http://www.w3.org/2000/svg" viewBox="0 0 24 24">
  <path opacity=".3" d="M5 9h14V5H5v4Zm2-3.5c.83 0 1.5.67 1.5 1.5S7.83 8.5 7 8.5 5.5 7.83 5.5 7 6.17 5.5 7 5.5ZM5 19h14v-4H5v4Zm2-3.5c.83 0 1.5.67 1.5 1.5s-.67 1.5-1.5 1.5-1.5-.67-1.5-1.5.67-1.5 1.5-1.5Z" fill="#53575B"/>
  <path d="M20 13H4c-.55 0-1 .45-1 1v6c0 .55.45 1 1 1h16c.55 0 1-.45 1-1v-6c0-.55-.45-1-1-1Zm-1 6H5v-4h14v4Zm-12-.5c.83 0 1.5-.67 1.5-1.5s-.67-1.5-1.5-1.5-1.5.67-1.5 1.5.67 1.5 1.5 1.5ZM20 3H4c-.55 0-1 .45-1 1v6c0 .55.45 1 1 1h16c.55 0 1-.45 1-1V4c0-.55-.45-1-1-1Zm-1 6H5V5h14v4ZM7 8.5c.83 0 1.5-.67 1.5-1.5S7.83 5.5 7 5.5 5.5 6.17 5.5 7 6.17 8.5 7 8.5Z" fill="#53575B"/>
</svg>