<svg fill="none" xmlns="http://www.w3.org/2000/svg" viewBox="0 0 24 24">
  <path d="M19.313 5H4.688C3.756 5 3 5.756 3 6.688v10.125c0 .931.756 1.687 1.688 1.687h14.625c.931 0 1.687-.756 1.687-1.688V6.688C21 5.756 20.244 5 19.312 5Zm0 1.688v1.434c-.789.642-2.046 1.64-4.732 3.744-.592.466-1.765 1.584-2.581 1.571-.816.014-1.99-1.106-2.58-1.571-2.687-2.104-3.944-3.102-4.732-3.744V6.688h14.625ZM4.688 16.813v-6.526c.805.642 1.947 1.542 3.689 2.906.768.605 2.114 1.94 3.623 1.932 1.502.008 2.83-1.308 3.623-1.932a600.04 600.04 0 0 0 3.69-2.905v6.524H4.688Z" fill="#53575B"/>
</svg>
