<svg fill="none" xmlns="http://www.w3.org/2000/svg" viewBox="0 0 24 24">
  <path fill-rule="evenodd" clip-rule="evenodd" d="M20.388 8.784a1472.57 1472.57 0 0 0-4.755-3.82C14.856 4.343 13.527 3 12 3c-1.519 0-2.835 1.326-3.633 1.964-.86.684-4.608 3.698-4.751 3.816-.39.32-.616.799-.616 1.304v9.229C3 20.244 3.756 21 4.688 21h14.625c.931 0 1.687-.756 1.687-1.688v-9.228c0-.503-.224-.98-.612-1.3Zm-1.076 10.318a.21.21 0 0 1-.21.21H4.898a.21.21 0 0 1-.21-.21v-8.918a.21.21 0 0 1 .078-.164c.558-.45 3.825-3.078 4.653-3.737.639-.51 1.751-1.596 2.581-1.596.833 0 1.964 1.103 2.58 1.596.83.66 4.097 3.287 4.654 3.738.05.04.078.1.078.164v8.917Zm-1.124-6.6c.15.182.122.45-.061.598a943.406 943.406 0 0 1-2.494 1.999c-.798.637-2.114 1.963-3.633 1.963-1.528 0-2.858-1.344-3.633-1.963a925.86 925.86 0 0 1-2.493-2 .422.422 0 0 1-.062-.597l.537-.65a.422.422 0 0 1 .59-.062c1.006.81 2.059 1.654 2.48 1.99.617.492 1.748 1.595 2.581 1.595.83 0 1.942-1.086 2.58-1.596.422-.335 1.475-1.18 2.482-1.988a.422.422 0 0 1 .59.06l.536.652Z" fill="#53575B"/>
</svg>
