<svg fill="none" xmlns="http://www.w3.org/2000/svg" viewBox="0 0 24 24">
  <path fill-rule="evenodd" clip-rule="evenodd" d="M6.286 8.571c0 .629-.515 1.143-1.143 1.143A1.146 1.146 0 0 1 4 8.571V5.143C4 4.514 4.514 4 5.143 4H8.57c.629 0 1.143.514 1.143 1.143 0 .628-.514 1.143-1.143 1.143H6.286V8.57ZM4 15.43c0-.629.514-1.143 1.143-1.143.628 0 1.143.514 1.143 1.143v2.285H8.57c.629 0 1.143.515 1.143 1.143C9.714 19.486 9.2 20 8.571 20H5.143A1.146 1.146 0 0 1 4 18.857V15.43Zm13.715 2.285h-2.286c-.629 0-1.143.515-1.143 1.143 0 .629.514 1.143 1.143 1.143h3.428c.629 0 1.143-.514 1.143-1.143V15.43c0-.629-.514-1.143-1.143-1.143-.628 0-1.142.514-1.142 1.143v2.285ZM15.429 6.286a1.146 1.146 0 0 1-1.143-1.143c0-.629.514-1.143 1.143-1.143h3.428C19.486 4 20 4.514 20 5.143V8.57c0 .629-.514 1.143-1.143 1.143a1.146 1.146 0 0 1-1.142-1.143V6.286h-2.286Z" fill="#53575B"/>
</svg>