<svg fill="none" xmlns="http://www.w3.org/2000/svg" viewBox="0 0 24 24">
  <path fill-rule="evenodd" clip-rule="evenodd" d="M5.143 7.429h2.286V5.143C7.429 4.514 7.943 4 8.57 4c.629 0 1.143.514 1.143 1.143V8.57c0 .629-.514 1.143-1.143 1.143H5.143A1.146 1.146 0 0 1 4 8.571c0-.628.514-1.142 1.143-1.142Zm2.286 9.142H5.143A1.146 1.146 0 0 1 4 15.43c0-.629.514-1.143 1.143-1.143H8.57c.629 0 1.143.514 1.143 1.143v3.428C9.714 19.486 9.2 20 8.571 20a1.146 1.146 0 0 1-1.142-1.143v-2.286Zm8 3.429c.628 0 1.143-.514 1.143-1.143v-2.286h2.285c.629 0 1.143-.514 1.143-1.142 0-.629-.514-1.143-1.143-1.143H15.43c-.629 0-1.143.514-1.143 1.143v3.428c0 .629.514 1.143 1.143 1.143Zm1.143-14.857v2.286h2.285c.629 0 1.143.514 1.143 1.142 0 .629-.514 1.143-1.143 1.143H15.43a1.146 1.146 0 0 1-1.143-1.143V5.143c0-.629.514-1.143 1.143-1.143.628 0 1.143.514 1.143 1.143Z" fill="#53575B"/>
</svg>