<svg fill="none" xmlns="http://www.w3.org/2000/svg" viewBox="0 0 24 24">
  <path fill-rule="evenodd" clip-rule="evenodd" d="m21.672 10.62-4.165-5.231a4.008 4.008 0 0 0-4.199-1.297h-.002A22.685 22.685 0 0 0 3.82 9.57a4.006 4.006 0 0 0-.978 4.286l2.449 6.222c.649 1.737 2.707 2.47 4.32 1.54a3.425 3.425 0 0 0 1.648-3.646l-.14-.69 5.219-3.013.526.467a3.426 3.426 0 0 0 3.982.395c1.612-.93 2.006-3.08.827-4.511Zm-11.286 1.744c.104.18.05.405-.12.503l-1.338.772.813 1.408c.103.179.05.404-.121.502l-.617.357a.366.366 0 0 1-.496-.147l-.813-1.407-1.337.771a.366.366 0 0 1-.496-.146l-.375-.65a.366.366 0 0 1 .121-.503l1.337-.771-.813-1.408a.366.366 0 0 1 .122-.503l.617-.356a.366.366 0 0 1 .496.147l.812 1.407 1.337-.772a.366.366 0 0 1 .496.147l.375.65Zm5.096-.199c-.568.328-1.309.109-1.654-.489s-.164-1.348.404-1.676c.568-.328 1.308-.11 1.653.489.345.597.165 1.348-.403 1.676Zm.145-3.548c-.568.328-1.308.109-1.653-.49-.346-.597-.165-1.347.403-1.675.568-.328 1.308-.11 1.653.488.346.598.165 1.349-.403 1.677Z" fill="#53575B"/>
</svg>
