<svg fill="none" xmlns="http://www.w3.org/2000/svg" viewBox="0 0 24 24">
  <path fill-rule="evenodd" clip-rule="evenodd" d="M14.7 3.9v3.861a.434.434 0 0 1-.126.315l-2.25 2.25a.446.446 0 0 1-.639 0l-2.25-2.25a.422.422 0 0 1-.135-.315V3.9c0-.495.405-.9.9-.9h3.6c.495 0 .9.405.9.9ZM3.9 9.3h3.861c.126 0 .234.045.315.126l2.25 2.25c.18.18.18.459 0 .639l-2.25 2.25a.422.422 0 0 1-.315.135H3.9a.903.903 0 0 1-.9-.9v-3.6c0-.495.405-.9.9-.9Zm5.4 6.939V20.1c0 .495.405.9.9.9h3.6c.495 0 .9-.405.9-.9v-3.861a.422.422 0 0 0-.135-.315l-2.25-2.25a.446.446 0 0 0-.639 0l-2.25 2.25a.434.434 0 0 0-.126.315Zm4.365-4.554 2.25-2.25a.402.402 0 0 1 .324-.126H20.1c.495 0 .9.405.9.9v3.6c0 .495-.405.9-.9.9h-3.87a.458.458 0 0 1-.315-.135l-2.25-2.25a.446.446 0 0 1 0-.639Z" fill="#53575B"/>
</svg>