<svg fill="none" xmlns="http://www.w3.org/2000/svg" viewBox="0 0 24 24">
  <path fill-rule="evenodd" clip-rule="evenodd" d="m14.538 1.997 2.83 2.83c.78.78.78 2.05 0 2.83l-1.42 1.42-5.65-5.66 1.41-1.41c.78-.79 2.05-.79 2.83-.01Zm-5.66 2.83-2.83 2.83 12.73 12.73c.78.78 2.05.78 2.83 0 .78-.78.78-2.05 0-2.83L8.878 4.827Zm3.93 15.76h-10c-.55 0-1 .45-1 1s.45 1 1 1h10c.55 0 1-.45 1-1s-.45-1-1-1Zm-2.51-5.86-5.66-5.66-1.41 1.41c-.78.78-.78 2.05 0 2.83l2.83 2.83c.78.78 2.05.78 2.83 0l1.41-1.41Z" fill="#53575B"/>
</svg>