<svg fill="none" xmlns="http://www.w3.org/2000/svg" viewBox="0 0 24 24">
  <path fill-rule="evenodd" clip-rule="evenodd" d="M20.125 7.067h-1.02c.243-.48.395-1.01.395-1.584C19.5 3.563 17.957 2 16.062 2c-1.625 0-2.675.843-4.023 2.704C10.691 2.844 9.641 2 8.016 2 6.12 2 4.578 3.564 4.578 5.483c0 .574.149 1.105.395 1.584H3.875C2.84 7.067 2 7.917 2 8.967v5.066c0 .349.281.634.625.634h.625v4.25c0 1.149.922 2.083 2.055 2.083h13.39c1.133 0 2.055-.934 2.055-2.082v-4.251h.625a.631.631 0 0 0 .625-.634V8.967c0-1.05-.84-1.9-1.875-1.9ZM11.062 19.1H5.306a.18.18 0 0 1-.18-.182v-4.251H9.5v-1.9H3.875v-3.8h7.188V19.1ZM8.012 7.067a1.573 1.573 0 0 1-1.563-1.584c0-.874.7-1.583 1.563-1.583.86 0 1.465.3 3.285 3.048l.078.119H8.012Zm4.765-.12c1.82-2.746 2.426-3.047 3.286-3.047.863 0 1.562.709 1.562 1.583 0 .875-.7 1.584-1.563 1.584H12.7l.078-.12Zm7.348 5.82H14.5v1.9h4.375v4.25a.18.18 0 0 1-.18.183h-5.758V8.967h7.188v3.8Z" fill="#53575B"/>
</svg>