<svg fill="none" xmlns="http://www.w3.org/2000/svg" viewBox="0 0 24 24">
  <path fill-rule="evenodd" clip-rule="evenodd" d="M12 3a8.64 8.64 0 0 0-4.518 1.237 9.075 9.075 0 0 0-3.275 3.358C3.402 9.008 3 10.552 3 12.225c0 2.01.572 3.818 1.717 5.424 1.144 1.606 2.623 2.717 4.435 3.333.211.04.368.012.47-.084a.475.475 0 0 0 .151-.36l-.005-.655c-.004-.404-.006-.759-.006-1.063l-.27.048a3.368 3.368 0 0 1-.65.042 4.881 4.881 0 0 1-.815-.084 1.802 1.802 0 0 1-.785-.36 1.522 1.522 0 0 1-.515-.739l-.118-.276a3.018 3.018 0 0 0-.369-.613c-.168-.224-.338-.376-.51-.456l-.082-.06a.866.866 0 0 1-.152-.145.664.664 0 0 1-.105-.168c-.024-.056-.004-.102.058-.138.063-.036.176-.054.34-.054l.234.036c.157.032.35.128.58.288.231.16.42.369.569.625a2.1 2.1 0 0 0 .65.75c.254.173.51.26.768.26s.48-.021.668-.061c.187-.04.363-.1.527-.18.078-.537.27-.95.574-1.237a7.854 7.854 0 0 1-1.2-.217 4.723 4.723 0 0 1-1.102-.468 3.177 3.177 0 0 1-.944-.805c-.25-.32-.455-.74-.615-1.261-.16-.52-.24-1.121-.24-1.802 0-.953.308-1.778.926-2.475-.29-.728-.258-1.545.093-2.45.22-.072.551-.018.996.162.446.18.772.334.979.463.207.128.373.236.498.324A8.127 8.127 0 0 1 12 7.457c.773 0 1.523.104 2.25.312l.445-.288a6.248 6.248 0 0 1 1.078-.529c.415-.16.73-.204.95-.132.351.905.383 1.722.093 2.45.618.697.926 1.522.926 2.475 0 .68-.08 1.283-.24 1.808-.16.524-.367.945-.621 1.261-.254.316-.57.583-.95.799a4.724 4.724 0 0 1-1.1.468 7.856 7.856 0 0 1-1.202.217c.406.36.61.929.61 1.705a245.638 245.638 0 0 1-.012 2.535c0 .144.05.264.152.36.101.096.258.124.469.084 1.812-.616 3.29-1.727 4.435-3.333C20.428 16.043 21 14.235 21 12.225c0-1.673-.402-3.217-1.207-4.63a9.075 9.075 0 0 0-3.275-3.358A8.64 8.64 0 0 0 12 3ZM6.41 16.25c.024-.056-.004-.105-.082-.145-.078-.024-.129-.016-.152.024-.024.056.004.104.082.144.07.049.12.04.152-.023Zm.363.408c.055-.04.047-.104-.023-.192-.078-.072-.14-.084-.188-.036-.054.04-.046.104.024.192.078.08.14.092.187.036Zm.352.54c.07-.056.07-.132 0-.228-.063-.104-.129-.128-.2-.072-.07.04-.07.112 0 .216.071.104.138.133.2.084Zm.492.505c.063-.064.047-.14-.047-.228-.093-.096-.172-.108-.234-.036-.07.064-.055.14.047.228.094.096.172.108.234.036Zm.668.3c.024-.088-.027-.152-.152-.192-.117-.032-.192-.004-.223.084-.031.088.02.148.152.18.118.048.192.024.223-.072Zm.738.06c0-.104-.066-.148-.199-.132-.125 0-.187.044-.187.132 0 .105.066.149.199.133.125 0 .187-.045.187-.133Zm.68-.12c-.015-.088-.086-.124-.21-.108-.126.024-.18.084-.165.18.016.096.086.128.211.096s.18-.088.164-.168Z" fill="#53575B"/>
</svg>