<svg fill="none" xmlns="http://www.w3.org/2000/svg" viewBox="0 0 24 24">
  <path fill-rule="evenodd" clip-rule="evenodd" d="M11.315 15.375a5.626 5.626 0 1 0 0-11.25 5.626 5.626 0 1 0 0 11.25Zm0-9.563A3.938 3.938 0 1 1 7.376 9.75a3.938 3.938 0 0 1 3.939-3.938Zm4.923 13.5h-3.516v-1.249a8.374 8.374 0 0 0 4.561-2.347c2.997-2.996 3.26-7.68.806-10.982l.376-.376a.563.563 0 0 0 0-.796l-.398-.397a.563.563 0 0 0-.796 0L15.76 4.677c.111.098.224.194.33.3a6.704 6.704 0 0 1 1.978 4.773 6.703 6.703 0 0 1-1.978 4.773 6.71 6.71 0 0 1-4.774 1.977c-1.804 0-3.5-.702-4.775-1.977-.106-.106-.202-.22-.3-.331l-2.075 2.075a.563.563 0 0 0 0 .796l.397.397c.22.22.576.22.796 0l.94-.939a8.421 8.421 0 0 0 4.736 1.651v1.14H7.517c-.7 0-1.266.567-1.266 1.266 0 .233.188.422.421.422h10.41a.422.422 0 0 0 .422-.422c0-.699-.566-1.265-1.266-1.265Z" fill="#53575B"/>
</svg>