<svg fill="none" xmlns="http://www.w3.org/2000/svg" viewBox="0 0 24 24">
  <path d="m13.355 12.405 3.372 3.111-9.366 5.169a2.308 2.308 0 0 1-1.118.29c-.395 0-.788-.107-1.147-.311l8.259-8.259Zm-9.04-8.339 8.214 7.578-8.236 8.235A2.101 2.101 0 0 1 4 18.81V5.164c0-.397.115-.771.315-1.098Zm12.783 4.596 2.624 1.448c.707.39 1.128 1.09 1.13 1.875 0 .784-.423 1.485-1.128 1.876l-1.96 1.082-3.615-3.333 2.95-2.948ZM5.134 3.293a2.282 2.282 0 0 1 2.227-.006l8.714 4.81-2.752 2.751-8.19-7.555Z" fill="#53575B"/>
</svg>