<svg fill="none" xmlns="http://www.w3.org/2000/svg" viewBox="0 0 24 24">
  <path fill-rule="evenodd" clip-rule="evenodd" d="M11.403 18.531c.344.28.831.28 1.175 0l5.873-4.787a.913.913 0 0 1 1.165 0l.01.01c.486.4.486 1.17 0 1.57L13.17 20.58c-.697.56-1.662.56-2.35 0l-6.455-5.257a1.025 1.025 0 0 1 0-1.569.913.913 0 0 1 1.165 0l5.873 4.777Zm8.232-8.275-6.456 5.257a1.84 1.84 0 0 1-2.349.01l-6.455-5.257a1.036 1.036 0 0 1 0-1.58L10.83 3.42a1.853 1.853 0 0 1 2.35 0l6.455 5.257c.487.4.487 1.18 0 1.579ZM7.178 8.64a1.053 1.053 0 0 0 0 1.572l3.53 3.073c.723.63 1.774.63 2.498 0l3.53-3.073c.47-.409.47-1.163 0-1.572l-3.53-3.073a1.887 1.887 0 0 0-2.499 0L7.177 8.64Z" fill="#53575B"/>
</svg>
