<svg fill="none" xmlns="http://www.w3.org/2000/svg" viewBox="0 0 24 24">
  <path fill-rule="evenodd" clip-rule="evenodd" d="M16.592 9.306a2.312 2.312 0 0 0-2.808-.672 2.31 2.31 0 0 0-1.99-.69V5.355C11.795 4.057 10.75 3 9.465 3c-1.285 0-2.33 1.057-2.33 2.355v5.665c-.7-.26-1.521-.179-2.183.312a2.37 2.37 0 0 0-.511 3.275l3.856 5.414a2.328 2.328 0 0 0 1.892.979h6.267a2.337 2.337 0 0 0 2.27-1.821l.964-4.183c.04-.176.061-.355.061-.535v-2.953c0-1.647-1.64-2.787-3.158-2.202Zm-9.745 3.527.954 1.339c.316.444 1.02.22 1.02-.327v-8.49c0-.883 1.286-.884 1.286 0v6.153c0 .31.252.562.563.562h.24c.311 0 .563-.252.563-.562v-1.23c0-.884 1.286-.885 1.286 0v1.23c0 .31.252.562.562.562h.242c.31 0 .562-.252.562-.562v-.738c0-.884 1.286-.885 1.286 0v.738c0 .31.252.562.562.562h.241c.31 0 .563-.252.563-.562 0-.883 1.285-.885 1.285 0v2.953a.694.694 0 0 1-.017.155L17.08 18.8a.646.646 0 0 1-.625.512h-6.267a.638.638 0 0 1-.517-.27l-3.857-5.414c-.507-.711.527-1.505 1.033-.795Zm3.346 4.23v-3.375c0-.311.22-.563.492-.563h.21c.273 0 .493.252.493.563v3.374c0 .311-.22.563-.492.563h-.211c-.272 0-.492-.252-.492-.563Zm2.651 0v-3.375c0-.311.22-.563.492-.563h.211c.272 0 .493.252.493.563v3.374c0 .311-.22.563-.493.563h-.21c-.272 0-.493-.252-.493-.563Zm2.652 0v-3.375c0-.311.22-.563.492-.563h.211c.272 0 .492.252.492.563v3.374c0 .311-.22.563-.492.563h-.21c-.273 0-.493-.252-.493-.563Z" fill="#53575B"/>
</svg>