<svg fill="none" xmlns="http://www.w3.org/2000/svg" viewBox="0 0 24 24">
  <path fill-rule="evenodd" clip-rule="evenodd" d="M10.159 19a.66.66 0 0 1-.64-.51L8.04 12.24l-.685 1.466a.658.658 0 0 1-.596.381H3.659A.661.661 0 0 1 3 13.424a.66.66 0 0 1 .659-.664h2.683l1.31-2.798a.66.66 0 0 1 .663-.377.66.66 0 0 1 .572.506l1.187 5.02 1.731-9.566a.657.657 0 0 1 1.285-.05l1.53 5.818 1.13-2.855a.668.668 0 0 1 .623-.418.658.658 0 0 1 .608.438l1.287 3.586h2.073c.364 0 .659.297.659.664a.661.661 0 0 1-.659.663h-2.535a.658.658 0 0 1-.619-.438l-.856-2.383-1.227 3.1a.656.656 0 0 1-1.248-.077l-1.284-4.887-1.765 9.75a.66.66 0 0 1-.63.544h-.018Z" fill="#53575B"/>
</svg>