<svg fill="none" xmlns="http://www.w3.org/2000/svg" viewBox="0 0 24 24">
  <path d="m23.661 19.408-2.099-1.627c.017-.113.01-.225.01-.343V5.563c0-1.312-1.075-2.375-2.4-2.375H4.766c-.506 0-1.001.184-1.4.484L1.457 2.19a.907.907 0 0 0-1.264.151.885.885 0 0 0 .153 1.25l22.206 17.22c.165.126.36.189.521.189a.903.903 0 0 0 .71-.341.854.854 0 0 0-.121-1.251Zm-3.89-2.991-1.354-1.05-3.777-5.077c-.094-.17-.308-.274-.536-.274a.71.71 0 0 0-.571.274l-.596.802L9.824 8.68c.007-.145.078-.29.078-.446a1.79 1.79 0 0 0-2.658-1.556L5.04 4.968h14.164c.33 0 .6.267.6.595v10.854h-.034Zm-10.236-.75-1.391-1.71a.714.714 0 0 0-.554-.253.715.715 0 0 0-.555.253l-2.832 3.48s0 .002 0 0l-.036-8.59-1.8-1.396.033 9.986c0 1.312 1.075 2.375 2.4 2.375h13.546l-7.544-5.848-1.267 1.703Z" fill="#53575B"/>
</svg>