<svg fill="none" xmlns="http://www.w3.org/2000/svg" viewBox="0 0 24 24">
  <path d="M7.948 7.34c-1.037 0-1.878.815-1.878 1.82 0 1.007.84 1.822 1.878 1.822 1.038 0 1.879-.815 1.879-1.821s-.842-1.822-1.879-1.822ZM19.496 4H4.47C3.12 4 2 5.087 2 6.429V18.57C2 19.913 3.121 21 4.47 21h15.026C20.879 21 22 19.913 22 18.571V6.43C22 5.087 20.913 4 19.496 4Zm.626 14.317-5.353-7.054c-.098-.175-.321-.28-.56-.28a.746.746 0 0 0-.595.28L9.443 16.73 7.99 14.98a.751.751 0 0 0-.578-.258.752.752 0 0 0-.578.259L3.88 18.54s0-.002 0 0L3.878 6.429c0-.335.281-.608.626-.608h15.027c.345 0 .626.273.626.608v11.888h-.035Z" fill="#53575B"/>
</svg>