<svg fill="none" xmlns="http://www.w3.org/2000/svg" viewBox="0 0 24 24">
  <path fill-rule="evenodd" clip-rule="evenodd" d="M12 2C6.478 2 2 6.48 2 12c0 5.524 4.478 10 10 10 5.523 0 10-4.476 10-10 0-5.52-4.477-10-10-10Zm0 18.064A8.06 8.06 0 0 1 3.935 12 8.062 8.062 0 0 1 12 3.935 8.062 8.062 0 0 1 20.064 12 8.06 8.06 0 0 1 12 20.064Zm1.694-4.193c0 .934-.76 1.693-1.694 1.693-.934 0-1.694-.76-1.694-1.693 0-.934.76-1.694 1.694-1.694.934 0 1.694.76 1.694 1.694Zm-3.282-8.524.275 5.484c.013.257.225.46.483.46h1.66c.258 0 .47-.203.483-.46l.274-5.484a.484.484 0 0 0-.483-.508h-2.208a.484.484 0 0 0-.484.508Z" fill="#53575B"/>
</svg>
