<svg fill="none" xmlns="http://www.w3.org/2000/svg" viewBox="0 0 24 24">
  <path fill-rule="evenodd" clip-rule="evenodd" d="M12 2C6.478 2 2 6.48 2 12c0 5.524 4.478 10 10 10 5.523 0 10-4.476 10-10 0-5.52-4.477-10-10-10Zm0 18.064A8.06 8.06 0 0 1 3.935 12 8.062 8.062 0 0 1 12 3.935 8.062 8.062 0 0 1 20.064 12 8.06 8.06 0 0 1 12 20.064Zm0-13.629a1.694 1.694 0 1 1 0 3.388 1.694 1.694 0 0 1 0-3.388Zm2.258 10.242a.484.484 0 0 1-.484.484h-3.548a.484.484 0 0 1-.484-.484v-.967c0-.268.217-.484.484-.484h.484v-2.58h-.484a.484.484 0 0 1-.484-.485v-.967c0-.268.217-.484.484-.484h2.58c.268 0 .484.216.484.483v4.033h.484c.267 0 .484.216.484.484v.967Z" fill="#53575B"/>
</svg>