<svg fill="none" xmlns="http://www.w3.org/2000/svg" viewBox="0 0 24 24">
  <path fill-rule="evenodd" clip-rule="evenodd" d="M19.364 9.09c.9 0 1.636.737 1.636 1.637 0 1.187-1.178 1.85-2.054 1.58l-2.912 2.904c.278.883-.393 2.062-1.58 2.062-1.194 0-1.857-1.187-1.579-2.062l-2.086-2.087a1.665 1.665 0 0 1-.85 0l-3.724 3.731c.27.876-.392 2.054-1.579 2.054-.9 0-1.636-.736-1.636-1.636 0-1.187 1.178-1.85 2.054-1.58l3.73-3.722c-.278-.884.393-2.062 1.58-2.062 1.194 0 1.857 1.186 1.579 2.062l2.086 2.086c.245-.073.605-.073.851 0l2.905-2.912c-.27-.876.392-2.054 1.579-2.054ZM5.045 7.456l.41 1.636L7.09 9.5l-1.636.41-.41 1.636-.409-1.637L3 9.5l1.636-.41.41-1.635ZM14.455 5l.769 1.694 1.685.76-1.685.761-.77 1.694-.752-1.694L12 7.455l1.702-.761L14.454 5Z" fill="#53575B"/>
</svg>