<svg fill="none" xmlns="http://www.w3.org/2000/svg" viewBox="0 0 24 24">
  <path fill-rule="evenodd" clip-rule="evenodd" d="M17.377 12.325c-.008-1.508.697-2.646 2.126-3.484-.8-1.104-2.007-1.712-3.6-1.831-1.51-.115-3.16.85-3.763.85-.637 0-2.1-.81-3.247-.81C6.52 7.089 4 8.879 4 12.523c0 1.076.204 2.189.612 3.335.544 1.507 2.508 5.204 4.557 5.142 1.071-.024 1.828-.735 3.222-.735 1.352 0 2.053.735 3.248.735 2.066-.028 3.842-3.388 4.361-4.9-2.771-1.26-2.623-3.697-2.623-3.774ZM14.963 5.71C16.12 4.5 16.015 3.396 15.98 3c-1.023.052-2.207.613-2.882 1.305-.743.74-1.18 1.656-1.087 2.688 1.108.074 2.119-.427 2.95-1.283Z" fill="#53575B"/>
</svg>