<svg fill="none" xmlns="http://www.w3.org/2000/svg" viewBox="0 0 24 24">
  <path fill-rule="evenodd" clip-rule="evenodd" d="M7 2.5h10A4.5 4.5 0 0 1 21.5 7v10a4.5 4.5 0 0 1-4.5 4.5H7A4.5 4.5 0 0 1 2.5 17V7A4.5 4.5 0 0 1 7 2.5ZM1 7a6 6 0 0 1 6-6h10a6 6 0 0 1 6 6v10a6 6 0 0 1-6 6H7a6 6 0 0 1-6-6V7Zm15.687 5.675V7h-1.433l-4.144 5.45v1.463h4.048V16h1.529v-2.088H18v-1.237h-1.313Zm-1.47-3.888h-.023s-.442.738-.788 1.2L13.188 11.6c-.346.438-.955 1.113-.955 1.113v.025s.764-.063 1.242-.063h1.683v-2.55c0-.5.06-1.338.06-1.338Zm-5.67-1.762V16H7.97V9.912H6v-1.1c1.17-.037 2.125-.524 2.316-1.787h1.23Z" fill="#53575B"/>
</svg>