<svg fill="none" xmlns="http://www.w3.org/2000/svg" viewBox="0 0 98 24">
  <g clip-path="url(#a)" fill-rule="evenodd" clip-rule="evenodd">
    <path d="M20.038 8.506A8.502 8.502 0 0 0 11.537.005V.02h.062L6.785 0v5.647l7.094-.023-2.858 5.67 3.755.032-3.755 5.615c4.663-.037 9.017-3.762 9.017-8.435Z" fill="#3083FF"/>
    <path d="M6.785 13.412V5.644l-.595.01H-.273L6.785 24l4.16-10.585-4.16-.003Z" fill="#00CCD7"/>
    <path d="M34.333 16.128h-7.236V6.07h2.042v8.212h5.194v1.846ZM38.108 10.499c-.355.24-.588.58-.698 1.02h3.618c-.12-.46-.34-.805-.661-1.035-.32-.23-.69-.345-1.11-.345-.411 0-.794.12-1.15.36Zm4.946 2.417H37.35c.1.53.322.953.668 1.268.345.315.748.473 1.208.473.85 0 1.471-.33 1.862-.99l1.771.374c-.32.761-.796 1.337-1.426 1.727-.63.39-1.366.585-2.207.585-1.08 0-1.991-.37-2.732-1.11-.74-.741-1.11-1.692-1.11-2.853 0-1.16.372-2.114 1.118-2.86.745-.745 1.663-1.118 2.754-1.118 1.021 0 1.9.358 2.635 1.073.735.716 1.123 1.634 1.163 2.755v.676ZM48.653 16.128h-2.102L43.43 8.622h2.132l2.041 5.09 2.042-5.09h2.132l-3.123 7.506ZM54.875 10.499c-.355.24-.588.58-.698 1.02h3.618c-.12-.46-.34-.805-.66-1.035-.321-.23-.691-.345-1.112-.345-.41 0-.793.12-1.148.36Zm4.946 2.417h-5.704c.1.53.323.953.668 1.268.345.315.748.473 1.208.473.85 0 1.471-.33 1.862-.99l1.771.374c-.32.761-.795 1.337-1.426 1.727-.63.39-1.366.585-2.207.585-1.08 0-1.991-.37-2.732-1.11-.74-.741-1.11-1.692-1.11-2.853 0-1.16.372-2.114 1.118-2.86.745-.745 1.663-1.118 2.754-1.118 1.021 0 1.9.358 2.635 1.073.736.716 1.123 1.634 1.163 2.755v.676ZM61.322 16.128h1.982V5.32h-1.982v10.808ZM70.088 10.994c.54 0 .959-.14 1.254-.42.295-.28.443-.656.443-1.126 0-.46-.148-.83-.443-1.11-.295-.281-.713-.421-1.254-.421h-2.642v3.077h2.642Zm0-4.924c1.141 0 2.047.308 2.718.924.67.615 1.005 1.433 1.005 2.454 0 1.03-.333 1.854-.998 2.47-.666.615-1.574.923-2.725.923h-2.642v3.287h-2.041V6.07h4.683ZM75.387 16.128h1.981V5.32h-1.981v10.808ZM84.379 14.004c.43-.415.645-.953.645-1.614 0-.66-.215-1.2-.645-1.621-.43-.42-.926-.63-1.487-.63-.61 0-1.113.205-1.508.615-.395.41-.593.956-.593 1.636 0 .68.198 1.224.593 1.63.395.404.898.607 1.508.607.56 0 1.056-.208 1.487-.623Zm2.627 2.124h-1.982v-.585c-.67.54-1.496.81-2.477.81-.99 0-1.851-.375-2.582-1.126-.73-.75-1.096-1.696-1.096-2.837 0-1.14.368-2.089 1.104-2.844.735-.756 1.594-1.134 2.574-1.134.991 0 1.817.275 2.477.826v-.6h1.982v7.49ZM92.32 18.68h-2.207l1.2-2.792-3.107-7.266h2.207l1.981 4.789 2.072-4.789h2.207L92.319 18.68Z" fill="#53575B"/>
  </g>
  <defs>
    <clipPath id="a">
      <path fill="#fff" d="M0 0h97.412v24H0z"/>
    </clipPath>
  </defs>
</svg>