<svg fill="none" xmlns="http://www.w3.org/2000/svg" viewBox="0 0 24 24">
  <path fill-rule="evenodd" clip-rule="evenodd" d="M15.5 4h-7A1.5 1.5 0 0 0 7 5.5v13A1.5 1.5 0 0 0 8.5 20h7a1.5 1.5 0 0 0 1.5-1.5v-13A1.5 1.5 0 0 0 15.5 4Zm-7 15a.501.501 0 0 1-.5-.5v-13c0-.275.225-.5.5-.5h7c.275 0 .5.225.5.5v13c0 .275-.225.5-.5.5h-7Zm6.125-13h-5.25A.367.367 0 0 0 9 6.355v8.29c0 .195.169.355.375.355h5.25c.206 0 .375-.16.375-.355v-8.29A.367.367 0 0 0 14.625 6ZM12.75 17h-1.5c-.137 0-.25.169-.25.375v.25c0 .206.113.375.25.375h1.5c.137 0 .25-.169.25-.375v-.25c0-.206-.113-.375-.25-.375Z" fill="#53575B"/>
</svg>
