<svg fill="none" xmlns="http://www.w3.org/2000/svg" viewBox="0 0 24 24">
  <path fill-rule="evenodd" clip-rule="evenodd" d="M20 15.5v-7A1.5 1.5 0 0 0 18.5 7h-13A1.5 1.5 0 0 0 4 8.5v7A1.5 1.5 0 0 0 5.5 17h13a1.5 1.5 0 0 0 1.5-1.5Zm-15-7c0-.275.225-.5.5-.5h13c.275 0 .5.225.5.5v7c0 .275-.225.5-.5.5h-13a.501.501 0 0 1-.5-.5v-7Zm13 6.125v-5.25A.367.367 0 0 0 17.645 9h-8.29A.367.367 0 0 0 9 9.375v5.25c0 .206.16.375.355.375h8.29a.367.367 0 0 0 .355-.375ZM7 12.75v-1.5c0-.137-.169-.25-.375-.25h-.25c-.206 0-.375.113-.375.25v1.5c0 .137.169.25.375.25h.25c.206 0 .375-.113.375-.25Z" fill="#53575B"/>
</svg>