<svg fill="none" xmlns="http://www.w3.org/2000/svg" viewBox="0 0 24 24">
  <path fill-rule="evenodd" clip-rule="evenodd" d="M5 3a3 3 0 0 1 3-3h8a3 3 0 0 1 3 3v18a3 3 0 0 1-3 3H8a3 3 0 0 1-3-3V3Zm10-1h1a1 1 0 0 1 1 1v18a1 1 0 0 1-1 1H8a1 1 0 0 1-1-1V3a1 1 0 0 1 1-1h1a1 1 0 0 0 1 1h4a1 1 0 0 0 1-1Z" fill="#53575B"/>
  <path d="M8 10a1 1 0 0 1 1-1h6a1 1 0 1 1 0 2H9a1 1 0 0 1-1-1ZM8 7a1 1 0 0 1 1-1h6a1 1 0 1 1 0 2H9a1 1 0 0 1-1-1ZM8 13a1 1 0 0 1 1-1h6a1 1 0 1 1 0 2H9a1 1 0 0 1-1-1ZM8 16a1 1 0 0 1 1-1h6a1 1 0 1 1 0 2H9a1 1 0 0 1-1-1ZM8 19a1 1 0 0 1 1-1h6a1 1 0 1 1 0 2H9a1 1 0 0 1-1-1Z" fill="#53575B"/>
</svg>