<svg fill="none" xmlns="http://www.w3.org/2000/svg" viewBox="0 0 24 24">
  <path opacity=".3" d="M12 4c-4.41 0-8 3.59-8 8s3.59 8 8 8c.28 0 .5-.22.5-.5a.54.54 0 0 0-.14-.35c-.41-.46-.63-1.05-.63-1.65a2.5 2.5 0 0 1 2.5-2.5H16c2.21 0 4-1.79 4-4 0-3.86-3.59-7-8-7Zm-5.5 9c-.83 0-1.5-.67-1.5-1.5S5.67 10 6.5 10s1.5.67 1.5 1.5S7.33 13 6.5 13Zm3-4C8.67 9 8 8.33 8 7.5S8.67 6 9.5 6s1.5.67 1.5 1.5S10.33 9 9.5 9Zm5 0c-.83 0-1.5-.67-1.5-1.5S13.67 6 14.5 6s1.5.67 1.5 1.5S15.33 9 14.5 9Zm4.5 2.5c0 .83-.67 1.5-1.5 1.5s-1.5-.67-1.5-1.5.67-1.5 1.5-1.5 1.5.67 1.5 1.5Z" fill="#53575B"/>
  <path d="M12 2C6.49 2 2 6.49 2 12s4.49 10 10 10a2.5 2.5 0 0 0 1.86-4.17.495.495 0 0 1 .37-.83H16c3.31 0 6-2.69 6-6 0-4.96-4.49-9-10-9Zm4 13h-1.77a2.5 2.5 0 0 0-2.5 2.5c0 .61.22 1.19.63 1.65.06.07.14.19.14.35 0 .28-.22.5-.5.5-4.41 0-8-3.59-8-8s3.59-8 8-8 8 3.14 8 7c0 2.21-1.79 4-4 4Z" fill="#53575B"/>
  <path d="M6.5 13a1.5 1.5 0 1 0 0-3 1.5 1.5 0 0 0 0 3ZM9.5 9a1.5 1.5 0 1 0 0-3 1.5 1.5 0 0 0 0 3ZM14.5 9a1.5 1.5 0 1 0 0-3 1.5 1.5 0 0 0 0 3ZM17.5 13a1.5 1.5 0 1 0 0-3 1.5 1.5 0 0 0 0 3Z" fill="#53575B"/>
</svg>