<svg fill="none" xmlns="http://www.w3.org/2000/svg" viewBox="0 0 24 24">
  <path d="M17.5 8.446h-5.6a5.269 5.269 0 0 1-.01-.301c0-.153.008-.305.024-.457.01-.1.027-.2.049-.298a1.436 1.436 0 0 1 .08-.24.569.569 0 0 1 .072-.004c.058 0 .115.006.172.015.156.026.31.063.46.11.135.04.281.089.435.14.232.078.482.161.754.234.142.038.285.069.43.092.16.027.321.04.483.041a2.085 2.085 0 0 0 .754-.126 1.938 1.938 0 0 0 .962-.746c.145-.216.257-.452.332-.699.08-.262.136-.53.166-.802l-2.197-.246a2.055 2.055 0 0 1-.095.453c0 .004-.003.008-.004.012l-.046-.007a3.406 3.406 0 0 1-.43-.107c-.133-.04-.28-.09-.438-.143-.238-.08-.498-.166-.787-.238A3.972 3.972 0 0 0 12.112 5c-.2 0-.401.021-.597.065a2.335 2.335 0 0 0-.616.234 1.926 1.926 0 0 0-.42.316 2.171 2.171 0 0 0-.265.32c-.12.18-.216.373-.287.576a3.964 3.964 0 0 0-.199.845 6.302 6.302 0 0 0-.043 1.09H6.5a5.581 5.581 0 0 0-3.89 1.566A5.273 5.273 0 0 0 1 13.792c0 1.419.58 2.779 1.61 3.782A5.581 5.581 0 0 0 6.5 19.14c.868 0 1.724-.199 2.497-.582a5.453 5.453 0 0 0 1.953-1.622h2.1a5.453 5.453 0 0 0 1.952 1.622 5.638 5.638 0 0 0 4.602.175 5.514 5.514 0 0 0 1.785-1.16 5.341 5.341 0 0 0 1.192-1.734A5.218 5.218 0 0 0 23 13.793c0-1.418-.58-2.778-1.61-3.781a5.581 5.581 0 0 0-3.89-1.566Zm-8.462 5.896H7.257v1.735H5.832v-1.735H4.05V12.96h1.782v-1.734h1.425v1.734h1.781v1.382Zm8.338-3.532a1.021 1.021 0 0 1 .706.284.966.966 0 0 1 .292.686.943.943 0 0 1-.291.687 1 1 0 0 1-.707.283 1.02 1.02 0 0 1-.704-.284.968.968 0 0 1-.29-.686.944.944 0 0 1 .29-.685.999.999 0 0 1 .704-.285Zm-1.924 3.88c-.264 0-.517-.103-.704-.285a.957.957 0 0 1-.291-.685c0-.256.105-.502.291-.684a1.01 1.01 0 0 1 .704-.283c.264 0 .517.102.704.283a.954.954 0 0 1 0 1.37c-.187.18-.44.283-.704.284Zm1.924 1.94a1.021 1.021 0 0 1-.704-.285.968.968 0 0 1-.29-.685.944.944 0 0 1 .29-.686.999.999 0 0 1 .704-.284 1.02 1.02 0 0 1 .706.283.966.966 0 0 1 .292.687.944.944 0 0 1-.291.686.996.996 0 0 1-.707.284Zm1.995-1.94c-.264 0-.517-.103-.704-.285a.957.957 0 0 1-.29-.685c0-.256.104-.502.29-.684a1.02 1.02 0 0 1 1.409-.001.965.965 0 0 1 .293.685.947.947 0 0 1-.292.686 1 1 0 0 1-.706.284Z" fill="#53575B"/>
</svg>