<svg fill="none" xmlns="http://www.w3.org/2000/svg" viewBox="0 0 24 24">
  <path fill-rule="evenodd" clip-rule="evenodd" d="M18.437 3.227 3.841 11.645c-1.207.698-1.092 2.484.2 3.014l4.01 1.66v2.96c0 1.629 2.077 2.3 3.039 1.004l1.537-2.073 3.926 1.62a1.688 1.688 0 0 0 2.309-1.302l2.084-13.585c.214-1.407-1.295-2.414-2.509-1.716ZM9.735 19.28v-2.267l1.285.53-1.285 1.737Zm7.46-1.007-5.396-2.228 4.919-7.099c.375-.543-.334-1.175-.832-.743l-7.42 6.466-3.783-1.565 14.596-8.42-2.084 13.589Z" fill="#53575B"/>
</svg>