<svg fill="none" xmlns="http://www.w3.org/2000/svg" viewBox="0 0 24 24">
  <path fill-rule="evenodd" clip-rule="evenodd" d="M3 10.714h7.714V3H3v7.714Zm1.607-6.107h4.5v4.5h-4.5v-4.5ZM13.286 3v7.714H21V3h-7.714Zm6.107 6.107h-4.5v-4.5h4.5v4.5ZM3 21h7.714v-7.714H3V21Zm1.607-6.107h4.5v4.5h-4.5v-4.5Zm1.286 1.286H7.82v1.928H5.893V16.18Zm0-10.286H7.82V7.82H5.893V5.893ZM18.107 7.82H16.18V5.893h1.928V7.82Zm1.607 5.465H21v5.143h-5.143v-1.286h-1.286V21h-1.285v-7.714h3.857v1.285h2.571v-1.285Zm0 6.428H21V21h-1.286v-1.286Zm-2.571 0h1.286V21h-1.286v-1.286Z" fill="#53575B"/>
</svg>