<svg fill="none" xmlns="http://www.w3.org/2000/svg" viewBox="0 0 45 24">
  <path d="m16.077 16-.757-2.056h-3.692L10.872 16H9l3.487-9h2.052L18 16h-1.923Zm-2.603-7.058-1.256 3.402h2.513l-1.257-3.402Z" fill="#53575B"/>
  <path fill-rule="evenodd" clip-rule="evenodd" d="M21.485 3.515c.57.569 1.076 1.19 1.514 1.85-.384.578-.72 1.191-1 1.833a10.197 10.197 0 0 0-8.1-5.358C13.404 1.796 13 1.397 13 .9c0-.497.403-.904.9-.866a12 12 0 0 1 7.585 3.48ZM23 18.635c-.384-.578-.72-1.191-1-1.833a10.198 10.198 0 0 1-8.1 5.358c-.495.044-.899.443-.899.94 0 .497.403.903.9.866a12 12 0 0 0 9.1-5.332Z" fill="#53575B"/>
  <path d="M23.2 12a10.2 10.2 0 0 1-1.2 4.802c.28.642.615 1.255 1 1.832a12.001 12.001 0 0 0 0-13.268c-.385.577-.72 1.19-1 1.832A10.2 10.2 0 0 1 23.2 12Z" fill="#53575B"/>
  <path fill-rule="evenodd" clip-rule="evenodd" d="M33 24c6.627 0 12-5.373 12-12S39.627 0 33 0a11.989 11.989 0 0 0-10 5.366 12 12 0 0 1 0 13.268A11.989 11.989 0 0 0 33 24Zm.786-16.8h-3.453v9.6h3.71c.894 0 1.612-.248 2.153-.745.542-.505.813-1.15.813-1.936 0-.578-.163-1.07-.488-1.476a2.095 2.095 0 0 0-1.205-.799 1.97 1.97 0 0 0 1.002-.758c.262-.38.393-.812.393-1.3 0-.767-.262-1.39-.786-1.868-.514-.479-1.227-.718-2.139-.718Z" fill="#53575B"/>
  <path d="M32.175 11.167h1.327c.424 0 .758-.108 1.002-.325.243-.216.365-.51.365-.88s-.122-.659-.365-.866c-.235-.217-.573-.325-1.016-.325h-1.313v2.396ZM32.175 15.243h1.516c.452 0 .804-.108 1.056-.325.262-.226.393-.533.393-.92 0-.389-.126-.7-.379-.935-.244-.235-.591-.352-1.043-.352h-1.543v2.532ZM5.143 0a.647.647 0 0 0-.566.326L.092 8.298V8.3A.596.596 0 0 0 0 8.615c0 .34.288.616.643.616h2.571v6.154c0 .34.288.615.643.615.242 0 .463-.13.573-.336l4.51-8.019-.003-.003A.583.583 0 0 0 9 7.385a.63.63 0 0 0-.643-.616H5.786V.615A.63.63 0 0 0 5.143 0Z" fill="#53575B"/>
</svg>