<svg fill="none" xmlns="http://www.w3.org/2000/svg" viewBox="0 0 24 24">
  <path fill-rule="evenodd" clip-rule="evenodd" d="M20.336 8.833c-.211-.072-.422-.14-.633-.205.035-.148.067-.297.098-.446.48-2.394.164-4.319-.903-4.954-1.027-.606-2.703.025-4.398 1.543-.168.149-.332.306-.488.462a11.952 11.952 0 0 0-.325-.31C11.91 3.302 10.13 2.619 9.064 3.258c-1.024.61-1.329 2.422-.899 4.688.043.225.09.446.145.671-.25.072-.496.153-.727.237C5.496 9.596 4 10.77 4 11.983c0 1.253 1.594 2.511 3.762 3.274.176.06.351.12.531.173-.059.241-.11.478-.156.723-.41 2.23-.09 3.998.933 4.605 1.055.626 2.828-.017 4.555-1.571.137-.125.273-.254.41-.39.172.173.352.337.531.498 1.672 1.478 3.325 2.077 4.344 1.47 1.055-.626 1.399-2.527.953-4.84a17.295 17.295 0 0 0-.117-.543c.125-.036.246-.076.367-.117C22.367 14.498 24 13.257 24 11.983c0-1.217-1.54-2.399-3.664-3.15Zm-5.285-3.41c1.453-1.303 2.808-1.813 3.426-1.447.66.39.914 1.964.5 4.033-.028.137-.055.27-.09.402-.867-.2-1.746-.345-2.63-.426a20.217 20.217 0 0 0-1.663-2.133c.152-.149.3-.29.457-.43Zm-4.52 8.645c.2.35.403.7.617 1.04a17.234 17.234 0 0 1-1.812-.3 19.12 19.12 0 0 1 .637-1.788c.18.353.363.703.558 1.048ZM9.348 9.235c.562-.129 1.16-.233 1.78-.313-.206.333-.41.674-.6 1.02a23.92 23.92 0 0 0-.555 1.045 19.515 19.515 0 0 1-.625-1.752Zm1.07 2.768a24.365 24.365 0 0 1 1.789-3.194 23.824 23.824 0 0 1 3.586 0 27.602 27.602 0 0 1 1.797 3.178 26.926 26.926 0 0 1-1.79 3.206c-.581.044-1.187.064-1.8.064s-1.207-.02-1.781-.056a24.557 24.557 0 0 1-1.801-3.198Zm7.055 2.057c.199-.354.386-.711.57-1.073.25.583.469 1.174.66 1.78-.605.14-1.219.25-1.836.322.211-.338.41-.683.606-1.029Zm.562-3.073a33.74 33.74 0 0 0-.566-1.053c-.192-.342-.39-.679-.598-1.012.629.08 1.23.188 1.793.32a18.13 18.13 0 0 1-.629 1.745Zm-4.027-4.52c.41.458.797.94 1.156 1.438a24.914 24.914 0 0 0-2.324 0c.383-.518.777-1 1.168-1.438ZM9.477 4.004c.656-.394 2.113.169 3.648 1.567.098.088.195.185.297.281a20.311 20.311 0 0 0-1.676 2.133c-.883.08-1.758.221-2.625.418-.05-.205-.094-.414-.137-.623-.367-1.944-.125-3.41.493-3.776Zm-.957 10.59a9.697 9.697 0 0 1-.485-.156c-.832-.27-1.777-.695-2.46-1.254a1.81 1.81 0 0 1-.735-1.201c0-.735 1.234-1.675 3.015-2.314.223-.08.45-.153.676-.221.266.872.586 1.727.957 2.555-.375.84-.699 1.707-.968 2.591Zm4.554 3.938a7.121 7.121 0 0 1-2.203 1.418 1.685 1.685 0 0 1-1.379.052c-.62-.37-.879-1.788-.527-3.696.043-.225.09-.45.144-.671.875.193 1.758.325 2.653.394.515.751 1.082 1.47 1.687 2.145-.125.125-.25.245-.375.358Zm.957-.977a18.886 18.886 0 0 1-1.183-1.458 26.963 26.963 0 0 0 2.34-.004c-.36.51-.747.996-1.157 1.462Zm5.106 1.206a1.8 1.8 0 0 1-.645 1.257c-.62.37-1.945-.112-3.375-1.374a16.787 16.787 0 0 1-.496-.462 19.8 19.8 0 0 0 1.649-2.153 18.755 18.755 0 0 0 2.664-.422c.039.165.074.33.105.49.191.868.223 1.772.098 2.664Zm.71-4.32c-.109.037-.218.073-.331.105a20.757 20.757 0 0 0-.996-2.563c.375-.82.69-1.663.957-2.527.203.06.398.124.585.189 1.82.643 3.098 1.599 3.098 2.33 0 .787-1.363 1.804-3.312 2.467ZM14 13.84c.988 0 1.79-.824 1.79-1.84s-.802-1.84-1.79-1.84-1.79.824-1.79 1.84.802 1.84 1.79 1.84Z" fill="#53575B"/>
</svg>