<svg fill="none" xmlns="http://www.w3.org/2000/svg" viewBox="0 0 24 24">
  <path fill-rule="evenodd" clip-rule="evenodd" d="M5 3a3 3 0 0 1 3-3h8a3 3 0 0 1 3 3v18a3 3 0 0 1-3 3H8a3 3 0 0 1-3-3V3Zm10-1h1a1 1 0 0 1 1 1v18a1 1 0 0 1-1 1H8a1 1 0 0 1-1-1V3a1 1 0 0 1 1-1h1a1 1 0 0 0 1 1h4a1 1 0 0 0 1-1Z" fill="#7B838C"/>
  <path fill-rule="evenodd" clip-rule="evenodd" d="M10.628 9.112c-.226-.238-.628-.07-.628.266v6.244c0 .336.402.504.628.266l4.259-3.122a.37.37 0 0 0 0-.532l-4.259-3.122Z" fill="#53575B"/>
  <path d="M10 9.378c0-.336.402-.504.628-.266l4.259 3.122a.37.37 0 0 1 0 .532l-4.259 3.122c-.226.238-.628.07-.628-.266V9.378Z" fill="#53575B"/>
</svg>