<svg fill="none" xmlns="http://www.w3.org/2000/svg" viewBox="0 0 24 24">
  <path fill-rule="evenodd" clip-rule="evenodd" d="M12.978 3.445c.607-.607 1.609-.59 2.236.037l5.304 5.304c.628.627.644 1.629.037 2.236l-9.533 9.533c-.607.607-1.609.59-2.236-.037l-5.304-5.304c-.628-.627-.644-1.629-.037-2.236l9.533-9.533Zm6.521 10.999c1.035 1.454 1.017 3.361-.132 4.517-.63.634-1.484.926-2.365.888l.047.73c.02.308-.34.438-.572.206l-1.447-1.457c-.143-.144-.157-.363-.031-.49l1.27-1.278c.203-.204.584-.026.604.283l.055.852c.612.02 1.17-.193 1.577-.604.734-.74.794-1.955.174-2.932-.045-.07-.04-.157.012-.21l.543-.547c.071-.071.199-.052.265.042ZM8.334 15.666c-.42-.419-1.086-.43-1.491-.024-.406.406-.395 1.072.024 1.491.42.42 1.085.43 1.491.024.406-.405.395-1.071-.024-1.49Zm6.065-10.8a.397.397 0 0 0-.56-.01l-7.15 7.15a.397.397 0 0 0 .01.56l4.736 4.735c.156.156.408.16.559.01l7.15-7.15a.397.397 0 0 0-.01-.56l-4.736-4.735Zm-6.876-1.65L8.97 4.671c.143.144.157.363.031.49L7.731 6.44c-.203.204-.584.026-.604-.283l-.055-.852c-.612-.02-1.17.193-1.577.604-.734.74-.794 1.955-.174 2.932.045.07.04.157-.012.21l-.543.547c-.071.071-.199.052-.265-.042-1.035-1.454-1.017-3.361.132-4.517.63-.634 1.484-.926 2.365-.888l-.047-.73c-.02-.308.34-.438.572-.206Z" fill="#53575B"/>
</svg>