<svg fill="none" xmlns="http://www.w3.org/2000/svg" viewBox="0 0 24 24">
  <path fill-rule="evenodd" clip-rule="evenodd" d="m20.755 18.562-3.505-3.505a.843.843 0 0 0-.598-.246h-.573a7.275 7.275 0 0 0 1.547-4.5A7.311 7.311 0 0 0 10.313 3 7.311 7.311 0 0 0 3 10.312a7.311 7.311 0 0 0 7.313 7.312c1.698 0 3.26-.577 4.5-1.547v.573c0 .225.088.44.246.597l3.506 3.505a.84.84 0 0 0 1.192 0l.995-.995c.33-.33.33-.864.003-1.195Zm-10.442-3.75c-2.486 0-4.5-2.011-4.5-4.5 0-2.486 2.01-4.5 4.5-4.5 2.486 0 4.5 2.011 4.5 4.5 0 2.485-2.01 4.5-4.5 4.5Z" fill="#53575B"/>
</svg>