<svg fill="none" xmlns="http://www.w3.org/2000/svg" viewBox="0 0 24 24">
  <path d="M17.554 15.723c-.686 0-1.301.271-1.77.696l-6.444-3.75c.046-.208.082-.416.082-.633 0-.217-.036-.425-.082-.632l6.37-3.714a2.7 2.7 0 0 0 1.844.732c1.5 0 2.711-1.211 2.711-2.711 0-1.5-1.21-2.711-2.71-2.711s-2.712 1.21-2.712 2.71c0 .218.037.426.082.633l-6.37 3.714a2.7 2.7 0 0 0-1.844-.732C5.21 9.325 4 10.536 4 12.036c0 1.5 1.21 2.711 2.71 2.711a2.7 2.7 0 0 0 1.844-.732l6.434 3.76c-.045.189-.072.388-.072.586A2.642 2.642 0 0 0 17.554 21a2.642 2.642 0 0 0 2.639-2.639 2.642 2.642 0 0 0-2.639-2.638Z" fill="#53575B"/>
</svg>