<svg fill="none" xmlns="http://www.w3.org/2000/svg" viewBox="0 0 24 24">
  <path d="M6.806 14.375c0 1.04-.856 1.89-1.903 1.89A1.902 1.902 0 0 1 3 14.375c0-1.041.856-1.891 1.903-1.891h1.903v1.89Zm.959 0c0-1.041.856-1.891 1.903-1.891 1.047 0 1.903.85 1.903 1.89v4.735c0 1.04-.856 1.891-1.903 1.891a1.902 1.902 0 0 1-1.903-1.89v-4.735Zm1.903-7.593A1.902 1.902 0 0 1 7.765 4.89C7.765 3.85 8.62 3 9.668 3c1.047 0 1.903.85 1.903 1.89v1.892H9.668Zm0 .953c1.047 0 1.903.85 1.903 1.89 0 1.041-.856 1.891-1.903 1.891H4.903A1.902 1.902 0 0 1 3 9.626c0-1.041.856-1.891 1.903-1.891h4.765Zm7.641 1.89c0-1.04.856-1.89 1.903-1.89 1.047 0 1.903.85 1.903 1.89 0 1.041-.855 1.891-1.903 1.891H17.31v-1.89Zm-.959 0c0 1.041-.855 1.891-1.903 1.891a1.902 1.902 0 0 1-1.903-1.89V4.89C12.544 3.85 13.4 3 14.447 3c1.048 0 1.903.85 1.903 1.89v4.735Zm-1.903 7.593c1.048 0 1.903.85 1.903 1.891 0 1.04-.855 1.891-1.903 1.891a1.902 1.902 0 0 1-1.903-1.89v-1.892h1.903Zm0-.953a1.902 1.902 0 0 1-1.903-1.89c0-1.041.856-1.891 1.903-1.891h4.765c1.047 0 1.903.85 1.903 1.89 0 1.041-.855 1.891-1.903 1.891h-4.765Z" fill="#53575B"/>
</svg>