<svg fill="none" xmlns="http://www.w3.org/2000/svg" viewBox="0 0 24 24">
  <path fill-rule="evenodd" clip-rule="evenodd" d="M20 6.938c0-1.294-.028-1.66-.387-3.133a.567.567 0 0 0-.411-.415C17.87 3.063 17.469 3 16.062 3c-2.4 0-4.478 1.389-6.222 3.375H5.376a1.41 1.41 0 0 0-1.259.777L2.15 11.09a1.409 1.409 0 0 0 1.262 2.036h2.33a41.339 41.339 0 0 0-.653 1.55.554.554 0 0 0 .126.605l2.507 2.507a.567.567 0 0 0 .604.126c.503-.2 1.023-.418 1.55-.654v2.331c0 1.044 1.1 1.726 2.036 1.259l3.937-1.969c.478-.239.777-.724.777-1.259v-4.461C18.611 11.417 20 9.339 20 6.938Zm-16.136 4.5 1.688-3.375h2.977a28.514 28.514 0 0 0-1.99 3.375H3.864Zm3.062 3.171c1.993-4.89 5.375-9.921 9.14-9.921.795 0 1.22 0 2.067.182.18.844.18 1.273.18 2.068 0 3.765-5.031 7.144-9.921 9.137L6.926 14.61Zm8.012 2.841-3.375 1.688v-2.68a28.046 28.046 0 0 0 3.375-1.99v2.982Zm0-11.075a1.688 1.688 0 1 1-.001 3.376 1.688 1.688 0 0 1 0-3.376Z" fill="#53575B"/>
</svg>