<svg fill="none" xmlns="http://www.w3.org/2000/svg" viewBox="0 0 24 24">
  <path fill-rule="evenodd" clip-rule="evenodd" d="m20.078 8.694-4.915-.707-2.197-4.396c-.394-.783-1.534-.793-1.931 0L8.838 7.987l-4.916.707c-.881.126-1.235 1.199-.595 1.813l3.556 3.42-.841 4.83c-.152.873.78 1.527 1.56 1.118L12 17.595l4.398 2.28c.78.405 1.712-.245 1.56-1.118l-.84-4.83 3.556-3.42c.64-.614.286-1.687-.596-1.813Zm-4.693 4.674.797 4.595L12 15.795l-4.182 2.168.798-4.595-3.385-3.253 4.677-.67L12 5.26l2.093 4.183 4.677.671-3.385 3.253Z" fill="#53575B"/>
</svg>