<svg fill="none" xmlns="http://www.w3.org/2000/svg" viewBox="0 0 24 24">
  <path fill-rule="evenodd" clip-rule="evenodd" d="M19 7v14a3 3 0 0 1-3 3H8a3 3 0 0 1-3-3V3a3 3 0 0 1 3-3h4c-.628.836-1 1.874-1 3h-1a1 1 0 0 1-1-1H8a1 1 0 0 0-1 1v18a1 1 0 0 0 1 1h8a1 1 0 0 0 1-1V7.9a4.977 4.977 0 0 0 2-.9Zm-7-1a4.997 4.997 0 0 0 3.306 1.952A1 1 0 0 1 15 8H9a1 1 0 0 1 0-2h3ZM9 9a1 1 0 0 0 0 2h6a1 1 0 1 0 0-2H9Zm0 3a1 1 0 1 0 0 2h6a1 1 0 1 0 0-2H9Zm-1 4a1 1 0 0 1 1-1h6a1 1 0 1 1 0 2H9a1 1 0 0 1-1-1Zm1 2a1 1 0 1 0 0 2h6a1 1 0 1 0 0-2H9Z" fill="#53575B"/>
  <circle cx="16" cy="3" r="3" fill="#22C891"/>
</svg>