<svg fill="none" xmlns="http://www.w3.org/2000/svg" viewBox="0 0 24 24">
  <path fill-rule="evenodd" clip-rule="evenodd" d="M12 2C6.477 2 2 6.477 2 12s4.477 10 10 10 10-4.477 10-10S17.523 2 12 2Zm0 1.935A8.06 8.06 0 0 1 20.064 12 8.06 8.06 0 0 1 12 20.064 8.06 8.06 0 0 1 3.935 12 8.06 8.06 0 0 1 12 3.935Zm5.653 5.253-.908-.916a.484.484 0 0 0-.685-.003l-5.7 5.654-2.41-2.43a.484.484 0 0 0-.685-.003l-.916.909a.484.484 0 0 0-.002.684l3.66 3.69c.188.19.495.191.684.003l6.96-6.903a.484.484 0 0 0 .002-.685Z" fill="#53575B"/>
</svg>