<svg fill="none" xmlns="http://www.w3.org/2000/svg" viewBox="0 0 24 24">
  <path fill-rule="evenodd" clip-rule="evenodd" d="M21 17.5v-11c0-.828-.756-1.5-1.688-1.5H4.688C3.756 5 3 5.672 3 6.5v11c0 .828.756 1.5 1.688 1.5h14.625c.931 0 1.687-.672 1.687-1.5ZM4 6.5c0-.275.257-.5.571-.5H19.43c.314 0 .571.225.571.5v11c0 .275-.257.5-.571.5H4.57C4.257 18 4 17.775 4 17.5v-11Zm15 10.125v-9.25c0-.206-.186-.375-.413-.375H8.412C8.186 7 8 7.169 8 7.375v9.25c0 .206.186.375.412.375h10.175c.227 0 .413-.169.413-.375Zm-13-3v-3.25A.376.376 0 0 0 5.625 10h-.25a.376.376 0 0 0-.375.375v3.25c0 .206.169.375.375.375h.25A.376.376 0 0 0 6 13.625Z" fill="#53575B"/>
</svg>