<svg fill="none" xmlns="http://www.w3.org/2000/svg" viewBox="0 0 24 24">
  <path fill-rule="evenodd" clip-rule="evenodd" d="M17.5 3h-11C5.672 3 5 3.756 5 4.688v14.625C5 20.244 5.672 21 6.5 21h11c.828 0 1.5-.756 1.5-1.688V4.688C19 3.756 18.328 3 17.5 3Zm-11 17c-.275 0-.5-.257-.5-.571V4.57C6 4.257 6.225 4 6.5 4h11c.275 0 .5.257.5.571V19.43c0 .314-.225.571-.5.571h-11ZM16.625 5h-9.25C7.169 5 7 5.186 7 5.412v10.175c0 .227.169.413.375.413h9.25c.206 0 .375-.186.375-.412V5.412c0-.227-.169-.413-.375-.413Zm-3 13h-3.25a.376.376 0 0 0-.375.375v.25c0 .206.169.375.375.375h3.25a.376.376 0 0 0 .375-.375v-.25a.376.376 0 0 0-.375-.375Z" fill="#53575B"/>
</svg>