<svg fill="none" xmlns="http://www.w3.org/2000/svg" viewBox="0 0 24 24">
  <path fill-rule="evenodd" clip-rule="evenodd" d="M16.5 3h-9C6.67 3 6 3.67 6 4.5v15c0 .83.67 1.5 1.5 1.5h9c.83 0 1.5-.67 1.5-1.5v-15c0-.83-.67-1.5-1.5-1.5ZM5 16c0 .55-.45 1-1 1s-1-.45-1-1V8c0-.55.45-1 1-1s1 .45 1 1v8Zm-3-2c0 .55-.45 1-1 1s-1-.45-1-1v-4c0-.55.45-1 1-1s1 .45 1 1v4Zm20-4v4c0 .55.45 1 1 1s1-.45 1-1v-4c0-.55-.45-1-1-1s-1 .45-1 1Zm-1 6c0 .55-.45 1-1 1s-1-.45-1-1V8c0-.55.45-1 1-1s1 .45 1 1v8ZM8 19h8V5H8v14Z" fill="#53575B"/>
</svg>