<svg fill="none" xmlns="http://www.w3.org/2000/svg" viewBox="0 0 24 24">
  <path fill-rule="evenodd" clip-rule="evenodd" d="m10.637 10.197.229 3.937a.419.419 0 0 0 .416.397h1.436c.22 0 .403-.174.416-.397l.229-3.937a.42.42 0 0 0-.416-.447h-1.894a.42.42 0 0 0-.416.447Zm2.821 6.303c0 .816-.653 1.477-1.458 1.477a1.468 1.468 0 0 1-1.458-1.477c0-.816.653-1.477 1.458-1.477.805 0 1.458.662 1.458 1.477Zm-.014-12.657a1.657 1.657 0 0 0-2.888 0L2.225 18.47C1.585 19.592 2.386 21 3.669 21H20.33c1.28 0 2.085-1.406 1.444-2.53L13.444 3.842ZM3.847 18.996 11.82 5.004c.08-.14.28-.14.36 0l7.973 13.992c.08.14-.02.317-.18.317H4.027a.21.21 0 0 1-.18-.317Z" fill="#53575B"/>
</svg>