<svg fill="none" xmlns="http://www.w3.org/2000/svg" viewBox="0 0 24 24">
  <path d="M11.995 2.995c-4.963 0-9 4.037-9 9s4.037 9 9 9c.703 0 1.383-.088 2.04-.243l-.962-2.397c-.363.73-.75 1.14-1.078 1.14a.486.486 0 0 1-.173-.044c-.02-.009-.04-.015-.064-.026-.02-.01-.038-.027-.056-.035a1.496 1.496 0 0 1-.304-.282 2.54 2.54 0 0 1-.208-.278 4.295 4.295 0 0 1-.176-.293l-.053-.1a7.35 7.35 0 0 1-.448-1.087c-.076-.225-.15-.465-.217-.723l-.035-.132h2.068l-.6-1.5H9.962a19.456 19.456 0 0 1-.17-1.737c-.023-.416-.047-.83-.047-1.263 0-.401.024-.785.044-1.172.015-.255.03-.507.05-.75.023-.243.053-.48.082-.715l.053-.363h4.043c.105.694.187 1.433.213 2.25h-3.735l.006.012 1.187.354 4.04 1.213c0-.026.002-.053.005-.079h3.724c-.038.39-.108.768-.205 1.137l1.43.43c.199-.74.313-1.514.313-2.317 0-4.963-4.037-9-9-9Zm0 1.5c.545 0 1.257 1.12 1.732 3h-3.463c.009-.03.011-.064.02-.094.044-.17.097-.322.144-.483.061-.194.117-.396.181-.566.13-.351.273-.662.416-.92.068-.117.132-.222.197-.316.058-.085.117-.167.176-.234a1.36 1.36 0 0 1 .33-.3c.015-.008.03-.017.045-.023.032-.017.061-.029.087-.04.047-.012.091-.024.135-.024Zm-2.382.396a8.986 8.986 0 0 0-.263.56 4.013 4.013 0 0 0-.077.198c-.035.085-.07.167-.102.258-.015.035-.024.076-.035.111a11.693 11.693 0 0 0-.399 1.404l-.02.073h-2.71a7.567 7.567 0 0 1 3.606-2.604Zm4.767 0a7.545 7.545 0 0 1 3.603 2.604h-2.71c-.222-.987-.518-1.88-.893-2.604ZM5.128 8.995H8.45c-.032.243-.055.492-.082.741-.038.372-.064.747-.085 1.137-.006.126-.02.246-.026.372H4.533c.08-.794.287-1.55.595-2.25Zm10.412 0h3.322c.308.7.516 1.456.595 2.25h-3.724a22.367 22.367 0 0 0-.193-2.25Zm-11.007 3.75h3.724c.009.208.026.413.038.621.009.161.015.325.03.484.029.386.07.77.122 1.145h-3.32a7.418 7.418 0 0 1-.594-2.25Zm8.212.75 3 7.5 1.41-2.016 2.34 2.016 1.5-1.685-2.47-2.05 1.72-1.515-7.5-2.25Zm-6.735 3h2.704l.035.138c.023.105.05.205.076.307.094.37.202.727.32 1.058.008.03.014.061.026.088.038.108.082.21.126.316l.064.164c.074.167.147.326.223.478l.026.055a7.5 7.5 0 0 1-3.6-2.604Z" fill="#53575B"/>
</svg>