<svg fill="none" xmlns="http://www.w3.org/2000/svg" viewBox="0 0 24 24">
  <path fill-rule="evenodd" clip-rule="evenodd" d="M18.14 3.86 16.7 5.3c1.74 1.56 2.85 3.81 2.85 6.32 0 2.3-.92 4.38-2.4 5.91-.36.37-.96.01-.84-.49.16-.61.24-1.26.24-1.92 0-2.64-1.28-4.96-3.25-6.42l-1.45 1.45c-.31.32-.85.1-.85-.35V3.51c0-.28.22-.5.5-.5h6.29c.44 0 .67.53.35.85ZM10.7 15.3l1.45-1.44a.49.49 0 0 1 .84.35v6.29c0 .28-.22.5-.5.5H6.2c-.44 0-.67-.53-.35-.85l1.44-1.44a8.474 8.474 0 0 1-.44-12.24c.36-.37.96-.01.84.49-.16.61-.24 1.26-.24 1.92 0 2.64 1.28 4.96 3.25 6.42Z" fill="#53575B"/>
</svg>