<svg xmlns="http://www.w3.org/2000/svg" width="28" height="28" viewBox="0 0 28 28">
    <path fill="#FFFA5A" fill-rule="evenodd" d="M14 0c7.732 0 14 6.268 14 14s-6.268 14-14 14S0 21.732 0 14 6.268 0 14 0zm5.466 7.26c-.655.094-5.707.802-7.625 1.108-1.927.3-2.998 2.36-2.287 4.004.248.566.712 1.054 1.191 1.447.264.22.624.503 1.023.81.128.11.272.213.408.323.2.15 1.887 1.463 2.646 2.053.128.11.048.338-.136.361l-5.332.779.009 2.596s6.226-.897 7.705-1.133c.752-.118 1.47-.488 1.983-1.188.927-1.258.887-2.926-.248-3.9-.712-.614-3.246-2.58-3.246-2.58l-1.334-1.023c-.128-.103-.048-.33.127-.362l1.503-.22 3.621-.535z"/>
</svg>
