<svg xmlns="http://www.w3.org/2000/svg" width="103" height="60" viewBox="0 0 103 60">
    <path fill="#FFFA5A" fill-rule="evenodd" d="M103 0v24.373l-18.67 2.61-.044 21.053L.079 60 0 36.205l10.424-1.422V13.175L103 0zM17.302 37.215c-.906.134-7.974 1.134-10.67 1.567-2.684.422-4.194 3.332-3.187 5.654.336.8.984 1.489 1.655 2.044.38.312.884.711 1.432 1.145.19.155.38.3.582.455l3.69 2.9c.19.144.067.477-.179.51l-7.46 1.09v3.676s8.713-1.266 10.782-1.6c1.063-.166 2.058-.688 2.785-1.677 1.286-1.777 1.23-4.132-.358-5.51-.984-.866-4.53-3.644-4.53-3.644l-1.867-1.444c-.19-.144-.067-.467.178-.51l2.092-.312 5.067-.766zM35.5 35.827c-.48-.867-1.263-1.267-2.27-1.133-1.745.233-3.5.477-5.245.733l-.09.011c-1.745.256-3.501.511-5.246.789-1.006.155-1.778.766-2.27 1.777-.626 1.3-.827 2.655-.94 4.01-.2 2.511-.223 4.922.168 7.332.224 1.011.336 1.711.805 2.667.583 1.01 1.332 1.377 2.394 1.233 1.712-.222 3.411-.478 5.123-.722l.089-.023c1.7-.244 3.411-.477 5.111-.744 1.063-.166 1.823-.755 2.394-1.922.47-1.1.581-1.833.794-2.9.38-2.52.357-4.932.145-7.387-.112-1.31-.324-2.6-.962-3.721zm19.975-4.277l-4.294.622-.001 1.444c-.005 2.564-.029 7.227-.032 7.896v.08L46.18 34.76c-1.52-2.077-.805-1.733-3.41-1.4-1.231.156-2.462.356-3.703.534l.022 17.019 4.362-.633v-9.288s2.383 3.244 4.139 5.644c.09.122.167.233.257.355l1.465 2.022c.157.234.548.29.827.245l5.37-.678-.035-17.03zm-25.403 8.03c.15.953.53 3.692.03 8.24-.111.578-.426 1.003-1.003 1.114-.378.072-.757.137-1.136.192-.377.054-.756.098-1.134.135-.579.056-.894-.278-1.006-.824-.516-4.4-.147-7.248.001-8.243.069-.55.41-.95.962-1.068.386-.081.772-.156 1.159-.22.388-.048.776-.085 1.161-.114.552-.042.893.259.966.789zm33.546-9.274l-5.637.81.033 17.053 5.626-.811-.022-17.052zm16.754-2.378l-2.394.345-2.706.4c-1.745.244-3.478.5-5.212.755-2.025.289-2.864 1.067-3.49 3.11-.626 2.067-.603 4.11-.603 6.144 0 1.988.033 3.955.648 5.776.615 1.811 1.41 2.3 3.355 2.034 1.779-.256 3.557-.511 5.324-.767l5.111-.733-.01-3.677-6.241.91c-1.175.167-1.566-.088-1.623-1.288-.1-1.944-.022-4.166-.01-6.121 0-1.433.492-2.11 1.42-2.289.447-.089.895-.166 1.33-.244v.011l5.101-.733v-3.633zm-52.41-13.786c-.917.133-7.985 1.133-10.67 1.566-2.695.423-4.194 3.333-3.199 5.655.347.8.996 1.488 1.667 2.044.37.31.872.71 1.431 1.144.18.156.381.3.571.455.28.212 2.64 2.067 3.702 2.9.179.155.067.478-.19.511l-7.46 1.1.011 3.666s8.713-1.267 10.781-1.6c1.052-.167 2.059-.689 2.775-1.677 1.297-1.778 1.241-4.133-.347-5.51-.996-.867-4.54-3.644-4.54-3.644l-1.869-1.444c-.179-.145-.067-.467.179-.511l2.103-.311 5.066-.756zm18.757-2.722l-6.186.889.011.755c0 3.344-.01 11.143-.089 11.698-.09.667-.503 1.078-1.152 1.2-.268.044-1.353.2-1.633.233-.649.078-1.062-.222-1.152-.866-.078-.533-.123-8.32-.123-11.665l-.011-.755-6.174.9c0 1.044.067 9.853.18 13.364.066 2.1 1.777 3.322 3.634 3.077 1.6-.211 2.997-.4 4.384-.6l.168-.022c1.387-.211 2.785-.422 4.384-.678 1.857-.289 3.568-1.988 3.624-4.11.095-3.331.13-11.335.134-13.15v-.27zM60.69 23.821c-1.365 0-2.485 1.112-2.485 2.468 0 1.367 1.12 2.479 2.485 2.479 1.375 0 2.484-1.112 2.484-2.479 0-1.356-1.109-2.468-2.484-2.468zm4.055-11.59c-.223-2.288-1.465-3.144-3.758-2.91-.212.022-.413.055-.626.089-3.623.522-11.296 1.633-11.296 1.633l.034 16.996 5.983-.855-.011-5.066.75-.11c1.7-.245 3.388-.467 5.088-.745 2.326-.378 3.613-1.633 3.848-4.033.156-1.677.156-3.366-.012-4.999zm15.546-5.654h-.021L66.883 8.51l.022 16.963 13.366-1.933-.012-3.61-7.203 1.01v-3.188l6.901-1.01-.01-3.567-6.902.99v-2.922l7.247-1.056v-3.61zm18.31.644c-.481-2.333-1.51-3.01-3.926-2.655-3.77.544-7.539 1.11-11.308 1.655l-.715.111c.01 5.7.01 11.31.022 16.975 2.07-.3 4.172-.622 6.24-.922l-.01-4.939v-.127l1.107-.155 3.131 4.61 5.917-.844c.347-.045.56-.078.56-.078-1.13-1.889-2.372-3.677-3.49-5.555 1.342-.555 2.069-1.655 2.349-2.866.413-1.766.458-3.522.122-5.21zM58.74 13.963c.05 1.108.03 2.232-.031 3.356-.027.534-.454.893-.95.988-.87.169-1.747.265-2.717.405l-.001-.012-.002-.77c-.003-.72-.006-1.423-.003-2.12l-.005-2.234.735-.106c.624-.112 1.25-.191 1.874-.26.58-.065 1.073.13 1.1.753zm33.893-4.724c.05 1.108.03 2.23-.031 3.354-.03.534-.465.895-.973.994-.89.172-1.785.269-2.779.412l-.01-5.137.75-.108c.638-.111 1.279-.193 1.918-.264.593-.066 1.095.127 1.125.75z"/>
</svg>
