<svg viewBox="0 0 17 18" xmlns="http://www.w3.org/2000/svg"><path d="M15.568 6.828a3.925 3.925 0 001.274-2.898A3.928 3.928 0 0012.912 0a3.92 3.92 0 00-3.575 2.298 7.994 7.994 0 00-1.832 0A3.923 3.923 0 003.93 0 3.928 3.928 0 000 3.93c0 1.147.491 2.179 1.274 2.898a7.863 7.863 0 00-.713 3.277c0 1.867.653 3.583 1.737 4.93L.807 16.526a.839.839 0 000 1.19c.33.33.863.33 1.19 0l1.49-1.491a7.86 7.86 0 009.86 0l1.495 1.494c.33.33.863.33 1.19 0a.839.839 0 000-1.19l-1.492-1.49a7.82 7.82 0 001.737-4.93 7.81 7.81 0 00-.709-3.28zm-2.656-5.144a2.248 2.248 0 012.246 2.246 2.24 2.24 0 01-.491 1.4 7.883 7.883 0 00-3.625-2.639 2.235 2.235 0 011.87-1.007zM1.684 3.93a2.248 2.248 0 014.12-1.239A7.847 7.847 0 002.179 5.33a2.223 2.223 0 01-.495-1.4zm6.737 12.35a6.171 6.171 0 01-6.175-6.175A6.171 6.171 0 018.42 3.93a6.171 6.171 0 016.175 6.175 6.171 6.171 0 01-6.175 6.176zm1.621-3.357l-2.42-1.667a.414.414 0 01-.183-.347V6.316c0-.232.19-.421.42-.421h1.123c.232 0 .422.19.422.42v3.78l1.754 1.207a.422.422 0 01.109.586l-.635.926a.43.43 0 01-.59.109z" fill="#0D148C" fill-rule="evenodd"/></svg>