<svg viewBox="0 0 18 16" xmlns="http://www.w3.org/2000/svg"><path d="M11.128 4.717l2.944 5.1h2.59c.726 0 1.317.59 1.317 1.316 0 .726-.59 1.317-1.317 1.317h-1.07l.868 1.502a1.318 1.318 0 01-1.481 1.93 1.308 1.308 0 01-.8-.614L9.609 7.35l1.52-2.633zM4.84 13.503l-1.02 1.765a1.318 1.318 0 01-2.28-1.316l.26-.449h3.04zM9.203.68a1.318 1.318 0 012.411.318c.091.34.045.694-.131.999l-4.515 7.82h2.848l1.52 2.633H1.338a1.317 1.317 0 010-2.633h2.59L7.48 3.664l-.963-1.667A1.318 1.318 0 017 .198l.12-.061A1.319 1.319 0 018.798.68l.203.351z" fill="#0D148C" fill-rule="evenodd"/></svg>