<svg viewBox="0 0 18 18" xmlns="http://www.w3.org/2000/svg"><path d="M17.965 8.983c0-.451-.264-.857-.671-1.033l-2.796-1.214 2.795-1.212c.408-.177.672-.583.672-1.033 0-.451-.264-.857-.67-1.033L9.636.136a1.64 1.64 0 00-1.308 0L.672 3.458A1.122 1.122 0 000 4.49c0 .45.264.856.67 1.032l2.797 1.213L.672 7.95A1.122 1.122 0 000 8.983c0 .45.264.856.67 1.032l2.797 1.213-2.795 1.213A1.122 1.122 0 000 13.474c0 .45.264.857.67 1.032l7.66 3.323a1.63 1.63 0 001.304 0l7.658-3.322c.408-.176.673-.582.673-1.033 0-.451-.265-.857-.671-1.033l-2.796-1.213 2.795-1.213c.408-.176.672-.582.672-1.032zM8.982 1.688l6.462 2.804-6.443 2.81L2.523 4.49l6.46-2.803zm6.463 11.787l-6.444 2.81-6.478-2.811 3.06-1.328 2.747 1.192a1.631 1.631 0 001.305 0l2.747-1.192 3.063 1.33zm-6.444-1.682l-6.478-2.81 3.06-1.329L8.33 8.846a1.631 1.631 0 001.305 0l2.747-1.191 3.063 1.329-6.444 2.809z" fill="#0D148C" fill-rule="evenodd"/></svg>