<svg viewBox="0 0 18 16" xmlns="http://www.w3.org/2000/svg"><path d="M16.313 0H1.688C.755 0 0 .756 0 1.688V4.5c0 .31.253.563.563.563h.562v9.562c0 .622.503 1.125 1.125 1.125h13.5c.622 0 1.125-.503 1.125-1.125V5.062h.563c.309 0 .562-.253.562-.562V1.687C18 .756 17.244 0 16.312 0zm-1.125 14.063H2.812v-9h12.376v9zm1.124-10.688H1.688V1.687h14.626v1.688zm-9.14 5.063h3.656c.232 0 .422-.19.422-.422v-.844a.423.423 0 00-.422-.422H7.172a.423.423 0 00-.422.422v.844c0 .232.19.421.422.421z" fill="#0D148C" fill-rule="evenodd"/></svg>