<svg viewBox="0 0 18 16" xmlns="http://www.w3.org/2000/svg"><path d="M17 5.777V1c0-.273-.218-1-1-1a.998.998 0 00-.624.22l-2.658 2.125A7.585 7.585 0 018 4H2a2 2 0 00-2 2v3a2 2 0 002 2l-.015 1c0 1.243.29 2.417.799 3.467A.98.98 0 003.67 16h3.321c.815 0 1.303-.933.81-1.58A3.98 3.98 0 016.985 12c0-.347.05-.68.138-1H8c1.708 0 3.384.588 4.718 1.655l2.657 2.126A1 1 0 0016 15c.778 0 1-.712 1-1V9.223c.595-.347 1-.984 1-1.723a1.99 1.99 0 00-1-1.723zM3.992 14.5a6.38 6.38 0 01-.507-2.5c0-.444.054-.792.081-1h2.029c-.066.334-.11.67-.11 1 0 .882.205 1.731.6 2.5H3.992zm3.508-5H2a.5.5 0 01-.5-.5V6a.5.5 0 01.5-.5h5.5v4zm8 3.46l-1.845-1.477A9.09 9.09 0 009 9.563V5.437a9.09 9.09 0 004.655-1.92L15.5 2.04v10.918z" fill="#0D148C" fill-rule="evenodd"/></svg>