<svg viewBox="0 0 18 16" xmlns="http://www.w3.org/2000/svg"><path d="M12.5 6h-2c-.276 0-.5.373-.5.833v8.334c0 .46.224.833.5.833h2c.276 0 .5-.373.5-.833V6.833c0-.46-.224-.833-.5-.833zm5-6h-2c-.276 0-.5.358-.5.8v14.4c0 .442.224.8.5.8h2c.276 0 .5-.358.5-.8V.8c0-.442-.224-.8-.5-.8zm-10 0h-2c-.276 0-.5.358-.5.8v14.4c0 .442.224.8.5.8h2c.276 0 .5-.358.5-.8V.8c0-.442-.224-.8-.5-.8zm-5 8h-2c-.276 0-.5.358-.5.8v6.4c0 .442.224.8.5.8h2c.276 0 .5-.358.5-.8V8.8c0-.442-.224-.8-.5-.8z" fill="#0D148C" fill-rule="evenodd"/></svg>