<svg viewBox="0 0 16 18" xmlns="http://www.w3.org/2000/svg"><path d="M15.498 2.318L13.645.494A1.728 1.728 0 0012.433 0H6.286C5.339 0 4.57.756 4.57 1.688v1.687H1.714C.768 3.375 0 4.131 0 5.063v11.25C0 17.244.768 18 1.714 18h8c.947 0 1.715-.756 1.715-1.688v-1.687h2.857c.947 0 1.714-.756 1.714-1.688V3.511c0-.447-.18-.876-.502-1.193zM9.5 16.313H1.929a.213.213 0 01-.215-.211V5.273c0-.116.096-.21.215-.21H4.57v7.875c0 .931.768 1.687 1.715 1.687h3.428v1.477c0 .116-.096.21-.214.21zm4.571-3.375H6.5a.213.213 0 01-.214-.211V1.898c0-.116.096-.21.214-.21h3.786V4.78a.85.85 0 00.857.844h3.143v7.102c0 .116-.096.21-.215.21zm.215-9H12v-2.25h.344c.057 0 .111.022.152.061l1.727 1.7a.21.21 0 01.063.15v.338z" fill="#0D148C" fill-rule="evenodd"/></svg>