<svg viewBox="0 0 18 16" xmlns="http://www.w3.org/2000/svg"><path d="M17.754 12.938L14.97 15.5c-.531.531-1.47.155-1.47-.597v-1.407h-1.09a.421.421 0 01-.31-.137L8.945 9.942l1.34-1.452 2.805 3.034h.411V9.837c0-.753.939-1.129 1.47-.598l2.784 2.496a.86.86 0 010 1.203zM.422 4.217h3.227l2.806 3.035L7.795 5.8 4.636 2.384a.421.421 0 00-.31-.138H.423A.423.423 0 000 2.668v1.125c0 .236.19.426.422.426zm17.332-1.472L14.97.25c-.531-.531-1.47-.155-1.47.594V2.25h-1.09a.421.421 0 00-.31.137l-8.45 9.144H.421a.423.423 0 00-.422.422v1.125c0 .232.19.422.422.422h3.902c.116 0 .229-.05.31-.137l8.451-9.144h.415v1.687c0 .753.939 1.129 1.47.598l2.784-2.566a.847.847 0 000-1.192z" fill="#0D148C" fill-rule="evenodd"/></svg>