<svg viewBox="0 0 20 18" xmlns="http://www.w3.org/2000/svg"><path d="M9.1-.005c-1.165 0-2.157.76-2.533 1.801H.995v1.801h5.572C6.943 4.638 7.935 5.398 9.1 5.398c1.164 0 2.156-.76 2.532-1.801h7.373V1.796h-7.373C11.256.755 10.264-.005 9.1-.005zm0 1.801c.506 0 .9.394.9.9a.889.889 0 01-.9.901.889.889 0 01-.901-.9c0-.507.394-.901.9-.901zm5.403 4.503c-1.165 0-2.157.76-2.533 1.8H.995V9.9H11.97c.376 1.042 1.368 1.801 2.533 1.801 1.164 0 2.156-.76 2.532-1.8h1.97V8.1h-1.97c-.376-1.042-1.368-1.801-2.532-1.801zm0 1.8c.506 0 .9.394.9.901s-.394.9-.9.9a.889.889 0 01-.901-.9c0-.507.394-.9.9-.9zm-9.006 4.503c-1.164 0-2.156.76-2.532 1.801H.995v1.801h1.97c.376 1.041 1.368 1.801 2.532 1.801 1.165 0 2.157-.76 2.533-1.801h10.975v-1.801H8.03c-.376-1.041-1.368-1.801-2.532-1.801zm0 1.801c.507 0 .901.394.901.9a.889.889 0 01-.9.901.889.889 0 01-.901-.9c0-.507.394-.901.9-.901z" fill="#0D148C" fill-rule="evenodd"/></svg>