<svg viewBox="0 0 18 16" xmlns="http://www.w3.org/2000/svg"><path d="M8.507 11.204A4.245 4.245 0 014.86 5.993l3.648 5.21zm.477 1.025a8.67 8.67 0 01-7.487-4.243 8.597 8.597 0 012.756-2.86L3.394 3.9A10.094 10.094 0 00.207 7.226a1.497 1.497 0 000 1.52 10.169 10.169 0 008.777 4.98c.414 0 .827-.024 1.237-.074l-.999-1.427c-.079.003-.158.004-.238.004zm8.777-3.483a10.122 10.122 0 01-4.478 4.04l1.501 2.144a.374.374 0 01-.092.522l-.647.453a.374.374 0 01-.521-.092L3.184 1.042A.374.374 0 013.278.52l.647-.453a.374.374 0 01.52.092l1.733 2.474a10.29 10.29 0 012.807-.388c3.74 0 7.02 1.996 8.777 4.98.277.469.277 1.051 0 1.52zm-1.29-.76a8.659 8.659 0 00-6.743-4.212 1.747 1.747 0 103 1.217V4.99a4.243 4.243 0 01-1.152 5.357l.833 1.19a8.626 8.626 0 004.062-3.55z" fill="#0D148C" fill-rule="evenodd"/></svg>