<svg viewBox="0 0 14 18" xmlns="http://www.w3.org/2000/svg"><path d="M12.979 3.47L10.035.526a1.684 1.684 0 00-1.19-.494h-7.16A1.69 1.69 0 000 1.719v14.597C0 17.246.754 18 1.684 18H11.79c.93 0 1.685-.754 1.685-1.684V4.663c0-.445-.18-.877-.495-1.193zm-1.326 1.056h-2.67v-2.67l2.67 2.67zm-9.969 11.79V1.719h5.614v3.65a.84.84 0 00.842.842h3.65v10.105H1.683zm8.78-5.042c-.429-.421-1.65-.306-2.26-.228-.604-.369-1.008-.878-1.292-1.625.137-.565.355-1.425.19-1.965-.148-.92-1.327-.828-1.495-.207-.154.565-.014 1.351.246 2.355-.351.838-.874 1.964-1.242 2.61-.702.361-1.65.92-1.79 1.621-.116.554.912 1.937 2.67-1.095.786-.26 1.642-.579 2.4-.705.663.358 1.439.597 1.958.597.895 0 .983-.99.614-1.358zm-6.952 2.73c.18-.481.86-1.036 1.067-1.229-.667 1.064-1.067 1.253-1.067 1.229zm2.863-6.688c.26 0 .236 1.126.064 1.431-.155-.487-.151-1.431-.064-1.431zm-.856 4.793c.34-.593.632-1.298.867-1.92.291.53.663.955 1.056 1.246-.73.151-1.365.46-1.923.674zm4.618-.176s-.176.21-1.309-.273c1.232-.092 1.435.19 1.309.273z" fill="#0D148C" fill-rule="evenodd"/></svg>