<svg viewBox="0 0 15 18" xmlns="http://www.w3.org/2000/svg"><path d="M10.688 5.943V1.688h.562c.31 0 .563-.252.563-.563V.562A.562.562 0 0011.25 0H3.375a.562.562 0 00-.563.563v.562c0 .31.252.563.563.563h.563V5.91C1.603 7.131 0 9.558 0 12.375c0 1.891.718 3.614 1.896 4.911.42.463 1.028.714 1.653.714h7.525c.635 0 1.248-.262 1.673-.733a7.282 7.282 0 001.877-4.728c.061-2.81-1.574-5.326-3.937-6.596zm-5.063.989V1.687H9v5.265c.591.318 3.331 1.427 3.856 4.58h-1.117c-.928 0-1.859-.214-2.688-.619a7.872 7.872 0 00-6.852 0l-.349.17c.696-2.91 3.165-3.832 3.775-4.151zm5.868 9.205a.569.569 0 01-.42.175H3.55a.547.547 0 01-.403-.16 5.588 5.588 0 01-1.4-3.141l1.193-.58c1.68-.821 3.69-.821 5.373 0a7.864 7.864 0 003.427.788h1.117a5.604 5.604 0 01-1.363 2.918z" fill="#0D148C" fill-rule="evenodd"/></svg>