<svg viewBox="0 0 18 17" xmlns="http://www.w3.org/2000/svg"><path d="M16.313 4.5h-.918c.218-.425.355-.896.355-1.406A3.098 3.098 0 0012.656 0c-1.462 0-2.408.749-3.62 2.401C7.821.75 6.875 0 5.413 0A3.098 3.098 0 002.32 3.094c0 .51.134.98.355 1.406h-.987C.755 4.5 0 5.256 0 6.188v4.5c0 .309.253.562.563.562h.562v3.776c0 1.02.83 1.849 1.85 1.849h12.05c1.02 0 1.85-.83 1.85-1.85V11.25h.563c.309 0 .562-.253.562-.563v-4.5c0-.931-.756-1.687-1.688-1.687zM8.155 15.188H2.974a.161.161 0 01-.162-.162V11.25H6.75V9.562H1.687V6.188h6.47v9zM5.411 4.5a1.406 1.406 0 110-2.813c.773 0 1.318.268 2.956 2.708l.07.105H5.412zM9.7 4.395c1.638-2.44 2.183-2.707 2.956-2.707a1.406 1.406 0 110 2.812H9.63l.07-.105zm6.613 5.168H11.25v1.687h3.938v3.776c0 .088-.07.162-.162.162H9.844v-9h6.469v3.375z" fill="#0D148C" fill-rule="evenodd"/></svg>