<svg viewBox="0 0 16 18" xmlns="http://www.w3.org/2000/svg"><path d="M7.315 12.375a5.626 5.626 0 100-11.25 5.626 5.626 0 100 11.25zm0-9.563A3.938 3.938 0 113.376 6.75a3.938 3.938 0 013.939-3.938zm4.924 13.5H8.722v-1.249a8.375 8.375 0 004.561-2.347c2.998-2.996 3.26-7.68.806-10.982l.376-.376a.563.563 0 000-.796l-.398-.397a.563.563 0 00-.796 0L11.76 1.677c.111.098.224.194.33.3a6.704 6.704 0 011.978 4.773 6.703 6.703 0 01-1.977 4.773A6.71 6.71 0 017.315 13.5c-1.804 0-3.5-.702-4.775-1.977-.106-.106-.202-.22-.3-.331L.166 13.267a.563.563 0 000 .796l.397.397c.22.22.576.22.796 0l.94-.939a8.421 8.421 0 004.736 1.651v1.14H3.517c-.7 0-1.266.567-1.266 1.266 0 .233.188.422.422.422h10.41a.422.422 0 00.421-.422c0-.699-.566-1.265-1.265-1.265z" fill="#0D148C" fill-rule="evenodd"/></svg>