<svg viewBox="0 0 18 18" xmlns="http://www.w3.org/2000/svg"><path d="M9 0C4.03 0 0 4.031 0 9a9 9 0 009 9 9 9 0 009-9c0-4.969-4.03-9-9-9zm0 16.258A7.254 7.254 0 011.742 9 7.256 7.256 0 019 1.742 7.256 7.256 0 0116.258 9 7.254 7.254 0 019 16.258zm1.524-3.774c0 .84-.684 1.524-1.524 1.524s-1.524-.684-1.524-1.524S8.16 10.96 9 10.96s1.524.683 1.524 1.524zM7.571 4.812l.247 4.936a.435.435 0 00.435.413h1.494a.435.435 0 00.435-.413l.247-4.936a.435.435 0 00-.435-.457H8.006a.435.435 0 00-.435.457z" fill="#0D148C" fill-rule="evenodd"/></svg>