<svg viewBox="0 0 12 18" xmlns="http://www.w3.org/2000/svg"><path d="M6 2.813c-1.805 0-3.273 1.513-3.273 3.375 0 .31.244.562.546.562a.554.554 0 00.545-.562c0-1.241.98-2.25 2.182-2.25a.554.554 0 00.545-.563A.554.554 0 006 2.813zm-2.725 13.33c0 .11.031.219.091.31l.836 1.296a.542.542 0 00.454.251h2.688a.54.54 0 00.454-.251l.836-1.295c.059-.092.09-.2.09-.311L8.728 15H3.273l.002 1.143zM6 0C2.513 0 0 2.917 0 6.188c0 1.56.56 2.983 1.485 4.07.567.668 1.457 2.067 1.787 3.24l1.636.002c0-.172-.024-.338-.073-.499a11.194 11.194 0 00-2.12-3.855 4.569 4.569 0 01-1.077-2.958c-.007-2.59 2.034-4.5 4.362-4.5 2.406 0 4.364 2.018 4.364 4.5 0 1.088-.384 2.139-1.08 2.958a11.219 11.219 0 00-2.116 3.848c-.05.163-.076.332-.076.503l1.636.003c.33-1.175 1.22-2.574 1.787-3.242A6.268 6.268 0 0012 6.188C12 2.77 9.314 0 6 0z" fill="#0D148C" fill-rule="evenodd"/></svg>