<svg viewBox="0 0 18 18" xmlns="http://www.w3.org/2000/svg"><path d="M17.473 2.671L15.293.492a1.677 1.677 0 00-2.376 0L.527 12.882a1.68 1.68 0 000 2.377l2.18 2.179c.327.328.758.492 1.188.492.43 0 .86-.164 1.188-.492l12.39-12.39a1.68 1.68 0 000-2.377zM3.895 16.25L1.716 14.07l7.84-7.842 2.18 2.18-7.84 7.841zm9.03-9.03l-2.18-2.18 3.358-3.358h.002l2.179 2.179-3.359 3.359zm2.238 2.867l-.933 1.867-1.868.934 1.868.934.933 1.868.934-1.868 1.868-.934-1.868-.934-.934-1.867zM7.88 3.362l.56-1.12L9.56 1.68l-1.12-.56L7.88 0l-.56 1.12-1.122.56 1.121.561.56 1.12zM2.837 5.603l.933-1.867 1.868-.934-1.868-.934L2.837 0l-.934 1.868-1.868.934 1.868.934.934 1.867z" fill="#0D148C" fill-rule="evenodd"/></svg>