<svg xmlns="http://www.w3.org/2000/svg" viewBox="0 0 16 10"><path d="M16 8.5v-7A1.5 1.5 0 0014.5 0h-13A1.5 1.5 0 000 1.5v7A1.5 1.5 0 001.5 10h13A1.5 1.5 0 0016 8.5zm-15-7c0-.275.225-.5.5-.5h13c.275 0 .5.225.5.5v7c0 .275-.225.5-.5.5h-13a.501.501 0 01-.5-.5v-7zm13 6.125v-5.25c0-.206-.16-.375-.355-.375h-8.29C5.16 2 5 2.169 5 2.375v5.25c0 .206.16.375.355.375h8.29c.195 0 .355-.169.355-.375zM3 5.75v-1.5C3 4.113 2.831 4 2.625 4h-.25C2.169 4 2 4.113 2 4.25v1.5c0 .137.169.25.375.25h.25C2.831 6 3 5.887 3 5.75z" fill="#0D148C" fill-rule="evenodd"/></svg>