<?xml version="1.0" encoding="UTF-8"?>
<svg width="18px" height="14px" viewBox="0 0 18 14" version="1.1" xmlns="http://www.w3.org/2000/svg" xmlns:xlink="http://www.w3.org/1999/xlink">
    <title>network-wired</title>
    <g id="Page-1" stroke="none" stroke-width="1" fill="none" fill-rule="evenodd">
        <g id="network-wired" fill="#222532" fill-rule="nonzero">
            <path d="M18,7.21875 L18,6.78125 C18,6.53953125 17.798625,6.34375 17.55,6.34375 L9.675,6.34375 L9.675,4.375 L11.7,4.375 C12.1969688,4.375 12.6,3.98316406 12.6,3.5 L12.6,0.875 C12.6,0.391835938 12.1969688,0 11.7,0 L6.3,0 C5.80303125,0 5.4,0.391835938 5.4,0.875 L5.4,3.5 C5.4,3.98316406 5.80303125,4.375 6.3,4.375 L8.325,4.375 L8.325,6.34375 L0.45,6.34375 C0.201375,6.34375 0,6.53953125 0,6.78125 L0,7.21875 C0,7.46046875 0.201375,7.65625 0.45,7.65625 L3.375,7.65625 L3.375,9.625 L1.8,9.625 C1.30303125,9.625 0.9,10.0168359 0.9,10.5 L0.9,13.125 C0.9,13.6081641 1.30303125,14 1.8,14 L6.3,14 C6.79696875,14 7.2,13.6081641 7.2,13.125 L7.2,10.5 C7.2,10.0168359 6.79696875,9.625 6.3,9.625 L4.725,9.625 L4.725,7.65625 L13.275,7.65625 L13.275,9.625 L11.7,9.625 C11.2030312,9.625 10.8,10.0168359 10.8,10.5 L10.8,13.125 C10.8,13.6081641 11.2030312,14 11.7,14 L16.2,14 C16.6969687,14 17.1,13.6081641 17.1,13.125 L17.1,10.5 C17.1,10.0168359 16.6969687,9.625 16.2,9.625 L14.625,9.625 L14.625,7.65625 L17.55,7.65625 C17.798625,7.65625 18,7.46046875 18,7.21875 Z M6.75,1.3125 L11.25,1.3125 L11.25,3.0625 L6.75,3.0625 L6.75,1.3125 Z M5.85,10.9375 L5.85,12.6875 L2.25,12.6875 L2.25,10.9375 L5.85,10.9375 Z M15.75,10.9375 L15.75,12.6875 L12.15,12.6875 L12.15,10.9375 L15.75,10.9375 Z" id="Shape"></path>
        </g>
    </g>
</svg>