<svg viewBox="0 0 12 20" xmlns="http://www.w3.org/2000/svg"><path d="M9.5 0A2.5 2.5 0 0112 2.5v15A2.5 2.5 0 019.5 20h-7A2.5 2.5 0 010 17.5v-15A2.5 2.5 0 012.5 0zm0 1.3h-7c-.662 0-1.2.538-1.2 1.2v15c0 .662.538 1.2 1.2 1.2h7c.662 0 1.2-.538 1.2-1.2v-15c0-.662-.538-1.2-1.2-1.2zM7.3 16.05c.39 0 .7.29.7.65 0 .36-.31.65-.7.65H4.7c-.39 0-.7-.29-.7-.65 0-.36.31-.65.7-.65zM9.084 13c.506 0 .916.41.916.916v.168c0 .506-.41.916-.916.916H2.916A.916.916 0 012 14.084v-.168c0-.506.41-.916.916-.916zm0-3.334c.506 0 .916.412.916.918v.167c0 .506-.41.915-.916.915H2.916A.916.916 0 012 10.752v-.167c0-.506.41-.918.916-.918zm0-3.332c.506 0 .916.41.916.915v.167c0 .506-.41.918-.916.918H2.916A.917.917 0 012 7.416V7.25c0-.506.41-.915.916-.915zm0-3.334c.506 0 .916.41.916.916v.168C10 4.59 9.59 5 9.084 5H2.916A.916.916 0 012 4.084v-.168C2 3.41 2.41 3 2.916 3z" fill="#0D148C" fill-rule="evenodd"/></svg>