<svg viewBox="0 0 18 18" xmlns="http://www.w3.org/2000/svg"><path d="M17.309 1.978L15.995.659A2.23 2.23 0 0014.41 0a2.23 2.23 0 00-1.584.659l-2.61 2.619L9 4.499.485 13.047.04 17.063a.843.843 0 00.928.932l3.997-.444L13.483 9 14.7 7.779l2.608-2.62a2.256 2.256 0 000-3.181zM4.194 15.939l-2.367.263.264-2.38 8.098-8.13 1.086-1.09 2.106 2.114-1.086 1.09-8.101 8.133zM16.12 3.966l-1.55 1.557-2.107-2.114 1.551-1.557a.557.557 0 01.792 0l1.314 1.319a.565.565 0 010 .795z" fill="#0D148C" fill-rule="evenodd"/></svg>