<svg viewBox="0 0 18 18" xmlns="http://www.w3.org/2000/svg"><path d="M13.645 8.42v1.16c0 .24-.196.436-.435.436h-3.194v3.194c0 .24-.196.435-.435.435H8.419a.437.437 0 01-.435-.435v-3.194H4.79a.437.437 0 01-.435-.435V8.419c0-.24.196-.435.435-.435h3.194V4.79c0-.24.196-.435.435-.435h1.162c.24 0 .435.196.435.435v3.194h3.194c.24 0 .435.196.435.435zM18 9c0 4.972-4.028 9-9 9s-9-4.028-9-9 4.028-9 9-9 9 4.028 9 9zm-1.742 0A7.256 7.256 0 009 1.742 7.256 7.256 0 001.742 9 7.256 7.256 0 009 16.258 7.256 7.256 0 0016.258 9z" fill="#0D148C" fill-rule="evenodd"/></svg>