<svg viewBox="0 0 18 18" xmlns="http://www.w3.org/2000/svg"><path d="M17.571 0h-.99a.429.429 0 00-.428.439l.084 3.52A8.848 8.848 0 008.83 0C3.958.015-.008 4 0 8.871a8.857 8.857 0 0014.792 6.56.43.43 0 00.017-.622l-.705-.705a.43.43 0 00-.589-.02 6.975 6.975 0 01-4.658 1.773c-3.868 0-7-3.13-7-7 0-3.868 3.13-7 7-7a6.997 6.997 0 016.381 4.118l-4.513-.107a.429.429 0 00-.44.428v.99c0 .236.193.428.43.428h6.856A.429.429 0 0018 7.286V.429A.429.429 0 0017.571 0z" fill="#0D148C" fill-rule="evenodd"/></svg>