<svg viewBox="0 0 16 16" xmlns="http://www.w3.org/2000/svg"><path d="M14.54 7.387l1.06-.593a.766.766 0 00.373-.873 7.933 7.933 0 00-2.133-3.574.818.818 0 00-.964-.123l-1.058.593a6.587 6.587 0 00-1.095-.614V1.017a.78.78 0 00-.594-.748 8.563 8.563 0 00-4.258 0 .78.78 0 00-.594.748v1.186c-.384.17-.751.375-1.095.614l-1.058-.593a.818.818 0 00-.964.123A7.933 7.933 0 00.027 5.921a.766.766 0 00.372.873l1.06.593c-.04.408-.04.818 0 1.226L.4 9.206a.766.766 0 00-.372.873 7.933 7.933 0 002.133 3.574.818.818 0 00.964.123l1.058-.593c.344.239.71.444 1.095.614v1.186a.78.78 0 00.594.748 8.563 8.563 0 004.258 0 .78.78 0 00.594-.748v-1.186c.384-.17.751-.375 1.095-.614l1.058.593c.313.175.709.125.964-.123a7.933 7.933 0 002.133-3.574.766.766 0 00-.372-.873l-1.06-.593c.04-.408.04-.818 0-1.226zM12.788 9.42l1.459.816a6.411 6.411 0 01-1.127 1.888l-1.459-.817c-1.064.884-1.22.97-2.535 1.42v1.633a6.897 6.897 0 01-2.25 0v-1.632c-1.315-.45-1.471-.537-2.535-1.42l-1.46.816a6.411 6.411 0 01-1.126-1.888l1.459-.816c-.254-1.332-.254-1.507 0-2.84l-1.459-.816a6.412 6.412 0 011.127-1.888l1.459.817c1.064-.884 1.22-.97 2.535-1.42V1.64a6.897 6.897 0 012.25 0v1.632c1.315.45 1.471.537 2.535 1.42l1.46-.816a6.411 6.411 0 011.126 1.888l-1.459.816c.254 1.332.254 1.507 0 2.84zM8 4.903c-1.762 0-3.195 1.39-3.195 3.097 0 1.708 1.433 3.097 3.195 3.097 1.762 0 3.195-1.39 3.195-3.097 0-1.708-1.433-3.097-3.195-3.097zm0 4.645c-.88 0-1.598-.694-1.598-1.548 0-.854.717-1.548 1.598-1.548.88 0 1.598.694 1.598 1.548 0 .854-.717 1.548-1.598 1.548z" fill="#0D148C" fill-rule="evenodd"/></svg>