<svg viewBox="0 0 16 18" xmlns="http://www.w3.org/2000/svg"><path d="M15.75 14.625a3.375 3.375 0 11-6.594-1.017l-3.457-2.16a3.375 3.375 0 110-4.895l3.457-2.161a3.375 3.375 0 11.895 1.43L6.594 7.983a3.39 3.39 0 010 2.034l3.457 2.16a3.375 3.375 0 015.699 2.447zM12.375 1.687a1.69 1.69 0 00-1.688 1.688c0 .93.758 1.688 1.688 1.688a1.69 1.69 0 001.688-1.688 1.69 1.69 0 00-1.688-1.688zm-9 5.625A1.69 1.69 0 001.687 9c0 .93.758 1.688 1.688 1.688A1.69 1.69 0 005.063 9a1.69 1.69 0 00-1.688-1.688zm9 5.625a1.69 1.69 0 00-1.688 1.688c0 .93.758 1.688 1.688 1.688a1.69 1.69 0 001.688-1.688 1.69 1.69 0 00-1.688-1.688z" fill="#0D148C" fill-rule="evenodd"/></svg>