<svg viewBox="0 0 18 18" xmlns="http://www.w3.org/2000/svg"><path d="M17.578 0h-.974a.422.422 0 00-.422.432l.083 3.465A8.721 8.721 0 00.433 7.095a.422.422 0 00.414.499h1.005c.2 0 .37-.14.413-.335A6.888 6.888 0 019 1.829a6.887 6.887 0 016.282 4.053l-4.444-.106a.422.422 0 00-.432.422v.974c0 .233.19.422.422.422h6.75A.422.422 0 0018 7.172V.422A.422.422 0 0017.578 0zm-.425 9.844h-1.005c-.2 0-.37.14-.413.335A6.888 6.888 0 019 15.609a6.887 6.887 0 01-6.282-4.053l4.444.106a.422.422 0 00.432-.422v-.974a.422.422 0 00-.422-.422H.422a.422.422 0 00-.422.422v6.75c0 .233.189.422.422.422h.974a.422.422 0 00.422-.432l-.083-3.466a8.721 8.721 0 0015.832-3.198.422.422 0 00-.414-.498z" fill="#0D148C" fill-rule="evenodd"/></svg>