<svg xmlns="http://www.w3.org/2000/svg" viewBox="0 0 14 18"><path d="M12.5 0h-11C.672 0 0 .756 0 1.688v14.625C0 17.244.672 18 1.5 18h11c.828 0 1.5-.756 1.5-1.688V1.688C14 .756 13.328 0 12.5 0zm-11 17c-.275 0-.5-.257-.5-.571V1.57c0-.313.225-.57.5-.57h11c.275 0 .5.257.5.571V16.43c0 .314-.225.571-.5.571h-11zM11.625 2h-9.25C2.169 2 2 2.186 2 2.412v10.175c0 .227.169.413.375.413h9.25c.206 0 .375-.186.375-.412V2.412c0-.227-.169-.413-.375-.413zm-3 13h-3.25a.376.376 0 00-.375.375v.25c0 .206.169.375.375.375h3.25A.376.376 0 009 15.625v-.25A.376.376 0 008.625 15z" fill="#0D148C" fill-rule="evenodd"/></svg>