<svg xmlns="http://www.w3.org/2000/svg" viewBox="0 0 18 14"><path d="M18 12.5v-11c0-.828-.756-1.5-1.688-1.5H1.687C.756 0 0 .672 0 1.5v11c0 .828.756 1.5 1.688 1.5h14.624c.932 0 1.688-.672 1.688-1.5zM1 1.5c0-.275.257-.5.571-.5H16.43c.313 0 .57.225.57.5v11c0 .275-.257.5-.571.5H1.57c-.314 0-.571-.225-.571-.5v-11zm15 10.125v-9.25c0-.206-.186-.375-.412-.375H5.413C5.186 2 5 2.169 5 2.375v9.25c0 .206.186.375.412.375h10.176c.227 0 .413-.169.413-.375zm-13-3v-3.25A.376.376 0 002.625 5h-.25A.376.376 0 002 5.375v3.25c0 .206.169.375.375.375h.25A.376.376 0 003 8.625z" fill="#0D148C" fill-rule="evenodd"/></svg>