<svg viewBox="0 0 17 18" xmlns="http://www.w3.org/2000/svg"><path d="M8.5 11.172c3.017 0 5.464-2.502 5.464-5.586C13.964 2.502 11.517 0 8.5 0 5.483 0 3.036 2.502 3.036 5.586c0 3.084 2.447 5.586 5.464 5.586zm0-9.31c2.007 0 3.643 1.672 3.643 3.724 0 2.052-1.636 3.724-3.643 3.724-2.007 0-3.643-1.672-3.643-3.724 0-2.052 1.636-3.724 3.643-3.724zM17 18v-.993c0-2.848-2.235-5.156-5.013-5.206l-2.144 5.993-.736-3.208 1.214-2.172H6.68l1.214 2.172-.74 3.208-2.144-5.993C2.235 11.85 0 14.159 0 17.007V18m1.821 0v-.993c0-1.373.831-2.568 2.012-3.08L5.29 18m6.424 0l1.453-4.073a3.37 3.37 0 012.012 3.08V18" fill="#0D148C" fill-rule="evenodd"/></svg>