<svg viewBox="0 0 18 18" xmlns="http://www.w3.org/2000/svg"><path d="M9-.005C4.034-.005-.005 4.035-.005 9c0 4.966 4.04 9.005 9.005 9.005.704 0 1.384-.088 2.04-.243l-.961-2.398c-.364.73-.75 1.14-1.079 1.14a.486.486 0 01-.173-.044c-.02-.009-.041-.014-.064-.026-.021-.009-.039-.027-.056-.035a1.497 1.497 0 01-.305-.282 2.549 2.549 0 01-.208-.278 4.302 4.302 0 01-.176-.293l-.053-.1a7.337 7.337 0 01-.448-1.088c-.076-.225-.15-.466-.217-.724-.012-.044-.024-.085-.035-.131h2.07l-.602-1.501H6.966a19.47 19.47 0 01-.132-1.161c-.015-.19-.027-.384-.038-.578-.024-.416-.047-.83-.047-1.263 0-.402.023-.786.044-1.173.014-.255.029-.507.05-.75.023-.243.052-.48.082-.715l.052-.364h4.046c.105.695.187 1.434.214 2.252H7.499l.006.011 1.187.355 4.042 1.214c0-.027.003-.053.006-.08h3.726a7.27 7.27 0 01-.205 1.138l1.43.43A8.87 8.87 0 0018.005 9c0-4.966-4.04-9.005-9.005-9.005zm0 1.5c.545 0 1.258 1.12 1.732 3.002H7.268c.008-.029.011-.064.02-.093.044-.17.097-.323.144-.484.061-.193.117-.396.181-.566.13-.351.273-.662.417-.92a4.68 4.68 0 01.196-.317 2.64 2.64 0 01.176-.234c.126-.15.237-.244.331-.3.015-.008.03-.017.044-.023.032-.017.062-.029.088-.04.047-.012.091-.024.135-.024zm-2.383.397a8.992 8.992 0 00-.264.56 4.011 4.011 0 00-.076.199c-.035.085-.07.167-.103.258-.014.035-.023.076-.035.111a11.697 11.697 0 00-.399 1.404c-.005.024-.014.05-.02.073H3.008a7.571 7.571 0 013.609-2.605zm4.77 0a7.55 7.55 0 013.605 2.605H12.28c-.223-.987-.519-1.881-.894-2.605zM2.128 5.998h3.324c-.032.244-.056.493-.082.742-.038.372-.064.747-.085 1.137-.006.126-.02.247-.026.373H1.534c.08-.795.287-1.551.595-2.252zm10.418 0h3.324c.308.7.516 1.457.595 2.252H12.74a22.398 22.398 0 00-.193-2.252zM1.534 9.75H5.26c.008.209.026.414.038.622.009.161.014.325.03.484.028.386.07.77.122 1.146H2.13a7.422 7.422 0 01-.595-2.252zm8.216.75l3.002 7.505 1.41-2.017 2.342 2.017 1.501-1.686-2.471-2.051 1.72-1.516-7.504-2.251zm-6.739 3.003h2.706l.035.137c.024.106.05.205.076.308.094.37.203.727.32 1.058.009.03.014.062.026.088.038.109.082.211.126.317l.065.164c.073.167.146.325.223.478l.026.055a7.503 7.503 0 01-3.603-2.605z" fill="#0D148C" fill-rule="evenodd"/></svg>