<svg viewBox="0 0 18 16" xmlns="http://www.w3.org/2000/svg"><path d="M12.316 9.474H10.42a.947.947 0 00-.947.947v3.79c0 .523.424.947.947.947h1.895a.947.947 0 00.947-.947v-3.79a.947.947 0 00-.947-.947zm-.474 4.263h-.947v-2.842h.947v2.842zm5.21-8.053h-1.894a.947.947 0 00-.947.948v7.579c0 .523.424.947.947.947h1.895A.947.947 0 0018 14.21V6.63a.947.947 0 00-.947-.947zm-.473 8.053h-.947V7.105h.947v6.632zm-9-8.053H5.684a.947.947 0 00-.947.948v7.579c0 .523.424.947.947.947H7.58a.947.947 0 00.947-.947V6.63a.947.947 0 00-.947-.947zm-.474 8.053h-.947V7.105h.947v6.632zM2.842 10.42H.947a.947.947 0 00-.947.947v2.843c0 .523.424.947.947.947h1.895a.947.947 0 00.947-.947v-2.843a.947.947 0 00-.947-.947zm-.474 3.316h-.947v-1.895h.947v1.895zm-.473-6.158c.785 0 1.42-.636 1.42-1.421 0-.127-.021-.247-.052-.364L6.268 2.79c.117.031.237.053.364.053.182 0 .354-.037.514-.1L9.97 5c-.01.07-.021.139-.021.21a1.421 1.421 0 102.842 0c0-.071-.011-.14-.021-.21l2.822-2.257c.16.062.332.1.514.1a1.421 1.421 0 10-1.42-1.422c0 .072.01.141.02.21l-2.822 2.258c-.16-.063-.333-.1-.515-.1a1.41 1.41 0 00-.514.1L8.032 1.63c.01-.069.02-.138.02-.21a1.421 1.421 0 10-2.841 0c0 .126.021.247.052.364L2.258 4.79a1.417 1.417 0 00-.363-.053 1.421 1.421 0 100 2.842z" fill="#0D148C" fill-rule="evenodd"/></svg>