<svg viewBox="0 0 16 18" xmlns="http://www.w3.org/2000/svg"><path d="M15 7c-.55 0-1 .45-1 1v4c0 .55.45 1 1 1s1-.45 1-1V8c0-.55-.45-1-1-1zM1 7c-.55 0-1 .45-1 1v4c0 .55.45 1 1 1s1-.45 1-1V8c0-.55-.45-1-1-1zm12 0v6.05c0 .912-.746 1.65-1.667 1.65v2.2c0 .605-.5 1.1-1.11 1.1a1.109 1.109 0 01-1.112-1.1v-2.2H6.89v2.2c0 .605-.5 1.1-1.11 1.1a1.109 1.109 0 01-1.112-1.1v-2.2l-.144-.006a1.657 1.657 0 01-1.522-1.644H3V7h10zM10.273.302a.563.563 0 01.748-.244.54.54 0 01.25.732l-.558 1.091c1.23.782 2.118 2.076 2.287 3.573V6H3v-.546a4.894 4.894 0 012.257-3.573L4.7.79a.54.54 0 01.25-.732.563.563 0 01.747.244l.56 1.095.145-.056a5.1 5.1 0 011.583-.25 5.1 5.1 0 011.583.25l.146.056zM6.287 3.375a.567.567 0 00-.573.562c0 .31.256.563.572.563l.092-.008a.566.566 0 00.48-.555.566.566 0 00-.57-.562zm3.429 0a.567.567 0 00-.573.562c0 .31.256.563.572.563l.092-.008a.566.566 0 00.479-.555.566.566 0 00-.57-.562z" fill="#0D148C" fill-rule="evenodd"/></svg>