<svg viewBox="0 0 16 18" xmlns="http://www.w3.org/2000/svg"><path d="M14.063 2.25h-1.688V.562A.564.564 0 0011.812 0h-1.124a.564.564 0 00-.563.563V2.25h-4.5V.562A.564.564 0 005.062 0H3.938a.564.564 0 00-.562.563V2.25H1.687C.756 2.25 0 3.006 0 3.938v12.374C0 17.244.756 18 1.688 18h12.374c.932 0 1.688-.756 1.688-1.688V3.938c0-.931-.756-1.687-1.688-1.687zm0 3.375v2.813h-3.376V5.624h3.376zm-7.876 6.75V9.562h3.375v2.813H6.188zM9.563 13.5v2.813H6.188V13.5h3.375zm-4.5-1.125H1.688V9.562h3.375v2.813zm1.125-3.938V5.626h3.375v2.813H6.188zm4.5 1.126h3.376v2.812h-3.376V9.562zM5.064 5.624v2.813H1.688V5.624h3.375zM1.688 16.102V13.5h3.375v2.813H1.897a.212.212 0 01-.21-.211zm12.164.21h-3.165V13.5h3.376v2.602c0 .116-.095.21-.211.21z" fill="#0D148C" fill-rule="evenodd"/></svg>