<svg viewBox="0 0 18 13" xmlns="http://www.w3.org/2000/svg"><path d="M15.292 4.728a3.148 3.148 0 00-3.772-2.863 4.952 4.952 0 00-8.716 2.067A4.499 4.499 0 004.5 12.6h9.45a4.051 4.051 0 001.342-7.872zM13.95 11.25H4.5c-1.74 0-3.15-1.41-3.15-3.15 0-1.586 1.173-2.9 2.7-3.12v-.03a3.6 3.6 0 016.93-1.367 1.802 1.802 0 012.723 2.278 2.7 2.7 0 11.247 5.389zM8.34 3.333a.338.338 0 00-.48 0L4.937 6.258a.338.338 0 000 .478l.475.475a.339.339 0 00.481-.003L7.425 5.64v3.923c0 .186.152.338.337.338h.676a.338.338 0 00.337-.338V5.64l1.533 1.57a.339.339 0 00.48.002l.476-.475a.338.338 0 000-.478L8.34 3.333z" fill="#0D148C" fill-rule="evenodd"/></svg>