<svg viewBox="0 0 18 18" xmlns="http://www.w3.org/2000/svg"><path d="M17.1 15.6h-.3v-2.1a.9.9 0 00-.9-.9h-.6V6.9h-1.8v5.7h-1.8V6.9H9.9v5.7H8.1V6.9H6.3v5.7H4.5V6.9H2.7v5.7h-.6a.9.9 0 00-.9.9v2.1H.9a.9.9 0 00-.9.9v.6a.3.3 0 00.3.3h17.4a.3.3 0 00.3-.3v-.6a.9.9 0 00-.9-.9zm-2.1 0H3v-1.2h12v1.2zm2.71-12.11L9.57.092a1.8 1.8 0 00-1.14 0L.29 3.49a.45.45 0 00-.29.42v1.04c0 .249.201.45.45.45h.75v.45c0 .249.201.45.45.45h14.7a.45.45 0 00.45-.45V5.4h.75a.45.45 0 00.45-.45V3.91a.45.45 0 00-.29-.42zM1.8 4.5L9 1.8l7.2 2.7H1.8z" fill="#0D148C" fill-rule="evenodd"/></svg>