<svg viewBox="0 0 16 18" xmlns="http://www.w3.org/2000/svg"><path d="M6.75 6.61v7.593a.422.422 0 01-.422.422h-.844a.422.422 0 01-.421-.422V6.61c0-.233.188-.421.421-.421h.844c.233 0 .422.188.422.421zm3.516-.423h-.844A.422.422 0 009 6.61v7.594c0 .233.189.422.422.422h.844a.422.422 0 00.421-.422V6.61a.422.422 0 00-.421-.421zm4.64-3.375c.466 0 .844.378.844.844v.422a.422.422 0 01-.422.422h-.703v11.813c0 .931-.756 1.687-1.688 1.687H2.813a1.687 1.687 0 01-1.688-1.688V4.5H.422A.422.422 0 010 4.078v-.422c0-.466.378-.844.844-.844H3.46L4.656.82C4.96.311 5.51 0 6.103 0h3.544c.593 0 1.142.311 1.447.82l1.196 1.993h2.616zm-9.478 0h4.894L9.71 1.79a.21.21 0 00-.181-.103H6.222a.21.21 0 00-.18.103l-.614 1.022zm7.51 1.688H2.812v11.602c0 .116.095.21.211.21h9.704a.21.21 0 00.21-.21V4.5z" fill="#0D148C" fill-rule="evenodd"/></svg>