<svg viewBox="0 0 20 18" xmlns="http://www.w3.org/2000/svg"><path d="M16.111 0H3.89c-.14 0-.271.07-.348.19L.07 5.365c-.1.154-.09.358.024.499l9.584 11.98c.167.208.48.208.646 0l9.584-11.98a.427.427 0 00.024-.5L16.462.19a.418.418 0 00-.35-.19zm-.67 1.687l2.198 3.375h-2.375L13.47 1.687h1.972zm-7.017 0h3.149l1.795 3.375H6.632l1.792-3.375zm-3.865 0H6.53L4.736 5.062H2.36l2.198-3.375zM3.066 6.75H4.85l2.371 5.624L3.066 6.75zm3.573 0h6.722L10 15.303 6.639 6.75zm6.139 5.624l2.368-5.624h1.785l-4.153 5.624z" fill="#0D148C" fill-rule="evenodd"/></svg>