<svg viewBox="0 0 11 18" xmlns="http://www.w3.org/2000/svg"><path d="M7.485 8.511L3.396 7.344c-.555-.158-1.005-.605-1.093-1.178A1.443 1.443 0 013.727 4.5H6.32c.56 0 1.108.176 1.561.496a.56.56 0 00.72-.06l.806-.805a.569.569 0 00-.053-.847A4.931 4.931 0 006.321 2.25h-.098V.562A.564.564 0 005.66 0H4.535a.564.564 0 00-.562.563V2.25h-.088c-1.73 0-3.326 1.118-3.74 2.798-.49 1.976.71 3.91 2.566 4.44l4.088 1.168c.556.158 1.006.605 1.094 1.178A1.443 1.443 0 016.469 13.5H3.874a2.717 2.717 0 01-1.56-.496.56.56 0 00-.721.06l-.806.805c-.239.24-.214.64.053.847a4.916 4.916 0 003.034 1.034h.099v1.688c0 .309.253.562.562.562H5.66c.31 0 .563-.253.563-.563V15.75h.088c1.73 0 3.325-1.118 3.74-2.798.489-1.976-.71-3.91-2.566-4.44z" fill="#0D148C" fill-rule="evenodd"/></svg>