<svg viewBox="0 0 11 17" xmlns="http://www.w3.org/2000/svg"><path d="M2.5 0c.66 0 1.24.252 1.744.756C4.75 1.259 5 1.84 5 2.5c0 .66-.252 1.24-.756 1.744C3.741 4.75 3.16 5 2.5 5c-.66 0-1.24-.252-1.744-.756C.25 3.741 0 3.16 0 2.5 0 1.84.252 1.26.756.756 1.259.25 1.84 0 2.5 0zm6 0c.66 0 1.24.252 1.744.756C10.75 1.259 11 1.84 11 2.5c0 .66-.252 1.24-.756 1.744C9.741 4.75 9.16 5 8.5 5c-.66 0-1.24-.252-1.744-.756C6.25 3.741 6 3.16 6 2.5c0-.66.252-1.24.756-1.744C7.259.25 7.84 0 8.5 0zm0 6c.66 0 1.24.252 1.744.756C10.75 7.259 11 7.84 11 8.5c0 .66-.252 1.24-.756 1.744C9.741 10.75 9.16 11 8.5 11c-.66 0-1.24-.252-1.744-.756C6.25 9.741 6 9.16 6 8.5c0-.66.252-1.24.756-1.744C7.259 6.25 7.84 6 8.5 6zm0 6c.66 0 1.24.252 1.744.756.505.503.756 1.085.756 1.744 0 .66-.252 1.24-.756 1.744C9.741 16.75 9.16 17 8.5 17c-.66 0-1.24-.252-1.744-.756C6.25 15.741 6 15.16 6 14.5c0-.66.252-1.24.756-1.744C7.259 12.25 7.84 12 8.5 12zm-6-6c.66 0 1.24.252 1.744.756C4.75 7.259 5 7.84 5 8.5c0 .66-.252 1.24-.756 1.744C3.741 10.75 3.16 11 2.5 11c-.66 0-1.24-.252-1.744-.756C.25 9.741 0 9.16 0 8.5c0-.66.252-1.24.756-1.744C1.259 6.25 1.84 6 2.5 6zm0 6c.66 0 1.24.252 1.744.756C4.75 13.259 5 13.84 5 14.5c0 .66-.252 1.24-.756 1.744C3.741 16.75 3.16 17 2.5 17c-.66 0-1.24-.252-1.744-.756C.25 15.741 0 15.16 0 14.5c0-.66.252-1.24.756-1.744C1.259 12.25 1.84 12 2.5 12z" fill="#0D148C" fill-rule="evenodd"/></svg>