<svg viewBox="0 0 18 18" xmlns="http://www.w3.org/2000/svg"><path d="M17.388 5.784a1470.83 1470.83 0 00-4.755-3.82C11.856 1.343 10.527 0 9 0 7.481 0 6.165 1.326 5.367 1.964 4.507 2.648.76 5.662.616 5.78.226 6.1 0 6.579 0 7.083v9.23C0 17.244.756 18 1.688 18h14.624c.932 0 1.688-.756 1.688-1.688V7.085c0-.503-.224-.98-.612-1.3zm-1.075 10.318a.21.21 0 01-.211.21H1.898a.21.21 0 01-.21-.21V7.184a.21.21 0 01.078-.164c.558-.45 3.825-3.078 4.653-3.737C7.058 2.773 8.17 1.688 9 1.688c.833 0 1.964 1.102 2.58 1.595.83.66 4.097 3.287 4.654 3.738.05.04.079.1.079.164v8.917zm-1.125-6.6c.15.182.122.45-.062.598a910.325 910.325 0 01-2.493 1.999c-.798.638-2.114 1.963-3.633 1.963-1.528 0-2.858-1.344-3.633-1.963a915.794 915.794 0 01-2.493-2 .422.422 0 01-.062-.596l.537-.652a.422.422 0 01.59-.06c1.006.808 2.059 1.653 2.48 1.988.617.493 1.748 1.596 2.581 1.596.83 0 1.942-1.086 2.58-1.596.422-.335 1.475-1.18 2.482-1.988a.422.422 0 01.59.06l.536.652z" fill="#0D148C" fill-rule="evenodd"/></svg>