<svg viewBox="0 0 18 18" xmlns="http://www.w3.org/2000/svg"><path d="M11.25 1.688a5.063 5.063 0 11-1.886 9.761l-1.489 1.489H6.75v1.687H5.062v1.688H1.688v-3.375L6.405 8.22a5.063 5.063 0 014.845-6.533zm0-1.688a6.75 6.75 0 00-6.687 7.675L.247 11.991a.844.844 0 00-.247.597v4.568c0 .466.378.844.844.844h5.062a.844.844 0 00.844-.844v-.843h.844a.844.844 0 00.843-.844v-.703l1.408-1.412A6.75 6.75 0 1011.25 0zm0 5.063a1.687 1.687 0 103.375 0 1.687 1.687 0 00-3.375 0z" fill="#0D148C" fill-rule="evenodd"/></svg>