<svg viewBox="0 0 16 12" xmlns="http://www.w3.org/2000/svg"><path d="M8 6.857c-.62 0-1.166.308-1.484.773l-2.83-.546a.662.662 0 00-.784.504.643.643 0 00.522.756l2.845.549c.04.19.101.372.2.535H9.53c.153-.253.247-.543.247-.857 0-.946-.796-1.714-1.778-1.714zM4.889 5.571c.49 0 .889-.383.889-.857 0-.473-.398-.857-.89-.857-.49 0-.888.384-.888.857 0 .474.398.857.889.857zm6.667 2.143c0 .474.398.857.888.857.491 0 .89-.383.89-.857 0-.473-.399-.857-.89-.857-.49 0-.888.384-.888.857zM8 4.286c.49 0 .889-.384.889-.857 0-.474-.398-.858-.889-.858-.49 0-.889.384-.889.858 0 .473.398.857.889.857zm4 .428c0-.473-.398-.857-.889-.857-.49 0-.889.384-.889.857 0 .474.398.857.89.857.49 0 .888-.383.888-.857zM8 0C3.582 0 0 3.454 0 7.714c0 1.415.396 2.74 1.085 3.879a.887.887 0 00.762.407h12.306c.31 0 .606-.15.762-.407A7.466 7.466 0 0016 7.714C16 3.454 12.418 0 8 0zm5.896 10.714H2.104a6.241 6.241 0 01-.77-3c0-3.545 2.99-6.428 6.666-6.428s6.667 2.883 6.667 6.428c0 1.048-.266 2.08-.77 3z" fill="#0D148C" fill-rule="evenodd"/></svg>