<svg xmlns="http://www.w3.org/2000/svg" viewBox="0 0 10 16"><path d="M8.5 0h-7A1.5 1.5 0 000 1.5v13A1.5 1.5 0 001.5 16h7a1.5 1.5 0 001.5-1.5v-13A1.5 1.5 0 008.5 0zm-7 15a.501.501 0 01-.5-.5v-13c0-.275.225-.5.5-.5h7c.275 0 .5.225.5.5v13c0 .275-.225.5-.5.5h-7zM7.625 2h-5.25C2.169 2 2 2.16 2 2.355v8.29c0 .195.169.355.375.355h5.25c.206 0 .375-.16.375-.355v-8.29C8 2.16 7.831 2 7.625 2zM5.75 13h-1.5c-.137 0-.25.169-.25.375v.25c0 .206.113.375.25.375h1.5c.137 0 .25-.169.25-.375v-.25c0-.206-.113-.375-.25-.375z" fill="#0D148C" fill-rule="evenodd"/></svg>