<svg viewBox="0 0 18 18" xmlns="http://www.w3.org/2000/svg"><path d="M9 0C4.03 0 0 4.031 0 9a9 9 0 009 9 9 9 0 009-9c0-4.969-4.03-9-9-9zm0 16.258A7.254 7.254 0 011.742 9 7.256 7.256 0 019 1.742 7.256 7.256 0 0116.258 9 7.254 7.254 0 019 16.258zm3.892-9.261c0 2.433-2.628 2.47-2.628 3.37v.23c0 .24-.195.435-.436.435H8.172a.436.436 0 01-.436-.435v-.314c0-1.298.984-1.816 1.727-2.233.637-.357 1.028-.6 1.028-1.073 0-.626-.799-1.042-1.444-1.042-.842 0-1.23.399-1.776 1.088a.436.436 0 01-.605.077l-1.01-.766a.436.436 0 01-.096-.593c.858-1.26 1.95-1.967 3.65-1.967 1.781 0 3.682 1.39 3.682 3.223zm-2.368 6.068c0 .84-.684 1.524-1.524 1.524s-1.524-.684-1.524-1.524S8.16 11.54 9 11.54s1.524.684 1.524 1.525z" fill="#0D148C" fill-rule="evenodd"/></svg>