<svg viewBox="0 0 18 18" xmlns="http://www.w3.org/2000/svg"><path d="M18 3.938c0-1.294-.028-1.66-.387-3.133a.567.567 0 00-.411-.415C15.87.063 15.469 0 14.062 0c-2.4 0-4.478 1.389-6.222 3.375H3.376a1.41 1.41 0 00-1.259.777L.15 8.09a1.41 1.41 0 001.262 2.036h2.33a41.339 41.339 0 00-.653 1.55.554.554 0 00.126.605l2.507 2.507a.567.567 0 00.604.126c.503-.2 1.023-.418 1.55-.654v2.331c0 1.044 1.1 1.727 2.036 1.259l3.937-1.969c.478-.239.777-.724.777-1.259v-4.461C16.611 8.417 18 6.339 18 3.938zm-16.136 4.5l1.688-3.375h2.977a28.514 28.514 0 00-1.99 3.375H1.864zm3.062 3.171c1.993-4.89 5.375-9.921 9.14-9.921.795 0 1.22 0 2.067.182.18.844.18 1.273.18 2.068 0 3.765-5.031 7.144-9.921 9.137L4.926 11.61zm8.012 2.841l-3.375 1.688v-2.68a28.037 28.037 0 003.375-1.99v2.982zm0-11.075a1.688 1.688 0 11-.001 3.376 1.688 1.688 0 010-3.376z" fill="#0D148C" fill-rule="evenodd"/></svg>