<svg viewBox="0 0 14 18" xmlns="http://www.w3.org/2000/svg"><path d="M10.775 6.562l-.2-1.5h.956a.844.844 0 00.844-.843V.844A.844.844 0 0011.531 0H1.97a.844.844 0 00-.844.844v3.375c0 .466.378.843.844.843h.956l-.2 1.5C1.04 7.713 0 9.515 0 11.532c0 .465.378.843.844.843h5.062v3.657c0 .03.005.06.015.089l.562 1.687a.281.281 0 00.534 0l.562-1.687a.281.281 0 00.015-.09v-3.656h5.062a.844.844 0 00.844-.844c0-2.014-1.04-3.817-2.725-4.97zm-8.998 4.125c.29-1.351 1.252-2.462 2.512-3.087l.563-4.225h-2.04V1.687h7.876v1.688h-2.04L9.21 7.6c1.26.625 2.222 1.737 2.512 3.088H1.777z" fill="#0D148C" fill-rule="evenodd"/></svg>