<svg viewBox="0 0 18 18" xmlns="http://www.w3.org/2000/svg"><path d="M9 3.484a3.485 3.485 0 000 6.968 3.485 3.485 0 000-6.968zM9 8.71a1.742 1.742 0 110-3.485A1.742 1.742 0 019 8.71zM9 0C4.028 0 0 4.028 0 9s4.028 9 9 9 9-4.028 9-9-4.028-9-9-9zm0 16.258a7.217 7.217 0 01-4.721-1.756 3.126 3.126 0 012.525-1.434A7.383 7.383 0 009 13.417c.722 0 1.44-.113 2.196-.349a3.136 3.136 0 012.525 1.434A7.217 7.217 0 019 16.258zm5.904-3.052a4.814 4.814 0 00-3.814-1.883c-.37 0-.943.348-2.09.348-1.143 0-1.72-.348-2.09-.348-1.557 0-2.925.744-3.814 1.883A7.206 7.206 0 011.742 9 7.265 7.265 0 019 1.742 7.265 7.265 0 0116.258 9c0 1.568-.504 3.02-1.354 4.206z" fill="#0D148C" fill-rule="evenodd"/></svg>