<svg viewBox="0 0 18 16" xmlns="http://www.w3.org/2000/svg"><path d="M15.75 2.813V2.25A2.25 2.25 0 0013.5 0H3.375A3.375 3.375 0 000 3.375v9a3.375 3.375 0 003.375 3.375H15.75A2.25 2.25 0 0018 13.5V5.062a2.25 2.25 0 00-2.25-2.25zm.563 10.687c0 .31-.253.563-.563.563H3.375a1.69 1.69 0 01-1.688-1.688v-9c0-.93.757-1.688 1.688-1.688H13.5c.31 0 .563.253.563.563v1.125H3.937a.562.562 0 100 1.125H15.75c.31 0 .563.252.563.563V13.5zM13.5 7.875a1.125 1.125 0 100 2.25 1.125 1.125 0 000-2.25z" fill="#0D148C" fill-rule="evenodd"/></svg>