<svg viewBox="0 0 18 16" xmlns="http://www.w3.org/2000/svg"><path d="M7.773 6.397l.206 3.5a.375.375 0 00.375.353h1.292a.375.375 0 00.375-.353l.206-3.5A.375.375 0 009.852 6H8.148a.375.375 0 00-.375.397zM10.313 12a1.312 1.312 0 11-2.625 0 1.312 1.312 0 012.625 0zM10.299.75a1.5 1.5 0 00-2.598 0l-7.499 13a1.5 1.5 0 001.3 2.25h14.996a1.5 1.5 0 001.3-2.25l-7.499-13zM1.662 14.219L8.838 1.782a.187.187 0 01.324 0l7.176 12.437a.187.187 0 01-.163.281H1.825a.187.187 0 01-.163-.281z" fill="#0D148C" fill-rule="evenodd"/></svg>