<svg viewBox="0 0 20 14" xmlns="http://www.w3.org/2000/svg"><path d="M19.84 3.716C14.305-1.24 5.694-1.238.16 3.716a.47.47 0 00-.01.695l1.07 1.027a.52.52 0 00.7.012c4.56-4.043 11.602-4.044 16.163 0a.52.52 0 00.7-.012l1.07-1.027a.47.47 0 00-.011-.695zm-9.824 5.976c-1.23 0-2.226.964-2.226 2.154S8.786 14 10.016 14c1.229 0 2.225-.964 2.225-2.154s-.996-2.154-2.225-2.154zm6.317-2.543c-3.601-3.082-9.069-3.079-12.666 0a.468.468 0 00-.018.7l1.076 1.028c.187.18.49.191.689.025 2.623-2.195 6.554-2.19 9.172 0 .2.166.501.155.689-.025L16.35 7.85a.468.468 0 00-.018-.7z" fill="#0D148C" fill-rule="evenodd"/></svg>