<svg viewBox="0 0 18 18" xmlns="http://www.w3.org/2000/svg"><path d="M17.806 4.112a1.222 1.222 0 00-2.051-.568L13.696 5.6l-1.138-.19-.189-1.137 2.06-2.057c.31-.312.43-.77.312-1.193a1.228 1.228 0 00-.888-.86A5.383 5.383 0 008.712 1.59a5.374 5.374 0 00-1.43 5.027L.845 13.055A2.853 2.853 0 000 15.088c0 .769.3 1.491.844 2.034a2.857 2.857 0 002.034.843c.767 0 1.49-.3 2.034-.843l6.433-6.43a5.388 5.388 0 005.035-1.436 5.451 5.451 0 001.426-5.144zm-2.618 3.954c-.999.998-2.463 1.336-3.824.884l-.494-.164-7.149 7.146c-.45.45-1.238.45-1.687 0a1.183 1.183 0 01-.35-.844c0-.318.124-.617.35-.843l7.153-7.15-.163-.492c-.45-1.365-.113-2.829.879-3.821a3.713 3.713 0 012.633-1.096h.04l-2.012 2.01.53 3.179 3.179.53 2.012-2.011a3.702 3.702 0 01-1.097 2.672zm-12.1 6.25a.561.561 0 100 1.123.561.561 0 000-1.123z" fill="#0D148C" fill-rule="evenodd"/></svg>