<?xml version="1.0" encoding="UTF-8"?>
<svg width="56px" height="65px" viewBox="0 0 56 65" version="1.1" xmlns="http://www.w3.org/2000/svg" xmlns:xlink="http://www.w3.org/1999/xlink">
    <!-- Generator: sketchtool 41.2 (35397) - http://www.bohemiancoding.com/sketch -->
    <title>32BBCD63-E988-4E98-8F6E-FF90BB7B948F</title>
    <desc>Created with sketchtool.</desc>
    <defs></defs>
    <g id="Page-12" stroke="none" stroke-width="1" fill="none" fill-rule="evenodd">
        <g id="Home-Page" transform="translate(-662.000000, -1375.000000)">
            <g id="Group-4" transform="translate(163.000000, 993.000000)">
                <g id="chart-js" transform="translate(499.000000, 382.000000)">
                    <path d="M55,32.5335319 C45.9046002,32.7119362 47.7983371,38.4855957 41.3887661,39.9460213 C34.8765625,41.4296809 33.8481673,24 27.3376191,24 C20.826657,24 19.3852484,40.9301489 11.231751,52.5542234 L11,52.8836489 L28.478579,63 L55,47.6489362 L55,32.5335319 Z" id="Shape" fill="#36A2EB"></path>
                    <path d="M55,32.3336842 C51.9621483,28.4566737 49.9025178,24 45.4712166,24 C37.6289363,24 39.6926943,36.7263158 31.0249108,36.7263158 C22.3571272,36.7263158 21.4461845,23.0369053 11.6255857,35.9052632 C8.49692864,40.0056 5.9783184,44.5772211 4,48.9033474 L28.5484012,63 L55,47.8105263 L55,32.3336842 Z" id="Shape" fill="#FFCE56"></path>
                    <path d="M2,37.7522449 C4.98138439,29.6012245 6.26863121,23 11.959726,23 C20.6433698,23 22.7109041,47.0816327 30.1540274,44.6326531 C37.5971507,42.1836735 36.770137,29.122449 48.3483288,29.122449 C50.5523203,29.122449 52.8026246,30.4542857 55,32.6106122 L55,47.8979592 L28.5,63 L2,47.8979592 L2,37.7522449 L2,37.7522449 Z" id="Shape" fill-opacity="0.8" fill="#FE6184"></path>
                    <path d="M52.7100432,18.1593538 L52.7100432,46.8406462 L28,61.1812951 L3.28995682,46.8406462 L3.28995682,18.1593538 L28,3.81870493 L52.7100432,18.1593538 Z M56,16.2499987 L28,0 L0,16.2499987 L0,48.7500013 L28,65 L56,48.7500013 L56,16.2499987 Z" id="Shape" fill="#E7E9ED"></path>
                </g>
            </g>
        </g>
    </g>
</svg>