<?xml version="1.0" encoding="UTF-8"?>
<svg width="665px" height="496px" viewBox="0 0 665 496" version="1.1" xmlns="http://www.w3.org/2000/svg" xmlns:xlink="http://www.w3.org/1999/xlink">
    <!-- Generator: sketchtool 41.2 (35397) - http://www.bohemiancoding.com/sketch -->
    <title>155CAD65-4C91-48E2-9A04-89F3287DD785</title>
    <desc>Created with sketchtool.</desc>
    <defs>
        <rect id="path-1" x="0" y="0" width="665" height="496" rx="3"></rect>
        <mask id="mask-2" maskContentUnits="userSpaceOnUse" maskUnits="objectBoundingBox" x="0" y="0" width="665" height="496" fill="white">
            <use xlink:href="#path-1"></use>
        </mask>
        <rect id="path-3" x="130" y="109" width="522" height="387" rx="2.18184968"></rect>
        <mask id="mask-4" maskContentUnits="userSpaceOnUse" maskUnits="objectBoundingBox" x="0" y="0" width="522" height="387" fill="white">
            <use xlink:href="#path-3"></use>
        </mask>
        <rect id="path-5" x="0" y="94" width="117" height="402"></rect>
        <mask id="mask-6" maskContentUnits="userSpaceOnUse" maskUnits="objectBoundingBox" x="0" y="0" width="117" height="402" fill="white">
            <use xlink:href="#path-5"></use>
        </mask>
        <rect id="path-7" x="0" y="94" width="117" height="27"></rect>
        <mask id="mask-8" maskContentUnits="userSpaceOnUse" maskUnits="objectBoundingBox" x="0" y="0" width="117" height="27" fill="white">
            <use xlink:href="#path-7"></use>
        </mask>
        <rect id="path-9" x="0" y="120" width="117" height="27"></rect>
        <mask id="mask-10" maskContentUnits="userSpaceOnUse" maskUnits="objectBoundingBox" x="0" y="0" width="117" height="27" fill="white">
            <use xlink:href="#path-9"></use>
        </mask>
        <rect id="path-11" x="0" y="146" width="117" height="27"></rect>
        <mask id="mask-12" maskContentUnits="userSpaceOnUse" maskUnits="objectBoundingBox" x="0" y="0" width="117" height="27" fill="white">
            <use xlink:href="#path-11"></use>
        </mask>
        <rect id="path-13" x="0" y="172" width="117" height="27"></rect>
        <mask id="mask-14" maskContentUnits="userSpaceOnUse" maskUnits="objectBoundingBox" x="0" y="0" width="117" height="27" fill="white">
            <use xlink:href="#path-13"></use>
        </mask>
        <rect id="path-15" x="0" y="198" width="117" height="27"></rect>
        <mask id="mask-16" maskContentUnits="userSpaceOnUse" maskUnits="objectBoundingBox" x="0" y="0" width="117" height="27" fill="white">
            <use xlink:href="#path-15"></use>
        </mask>
        <rect id="path-17" x="0" y="224" width="117" height="27"></rect>
        <mask id="mask-18" maskContentUnits="userSpaceOnUse" maskUnits="objectBoundingBox" x="0" y="0" width="117" height="27" fill="white">
            <use xlink:href="#path-17"></use>
        </mask>
        <rect id="path-19" x="0" y="22" width="665" height="73"></rect>
        <mask id="mask-20" maskContentUnits="userSpaceOnUse" maskUnits="objectBoundingBox" x="0" y="0" width="665" height="73" fill="white">
            <use xlink:href="#path-19"></use>
        </mask>
        <rect id="path-21" x="532" y="22" width="35" height="33"></rect>
        <mask id="mask-22" maskContentUnits="userSpaceOnUse" maskUnits="objectBoundingBox" x="0" y="0" width="35" height="33" fill="white">
            <use xlink:href="#path-21"></use>
        </mask>
        <rect id="path-23" x="116" y="54" width="549" height="41"></rect>
        <mask id="mask-24" maskContentUnits="userSpaceOnUse" maskUnits="objectBoundingBox" x="0" y="0" width="549" height="41" fill="white">
            <use xlink:href="#path-23"></use>
        </mask>
        <rect id="path-25" x="12" y="102" width="12" height="12" rx="6"></rect>
        <mask id="mask-26" maskContentUnits="userSpaceOnUse" maskUnits="objectBoundingBox" x="0" y="0" width="12" height="12" fill="white">
            <use xlink:href="#path-25"></use>
        </mask>
        <rect id="path-27" x="12" y="128" width="12" height="12" rx="6"></rect>
        <mask id="mask-28" maskContentUnits="userSpaceOnUse" maskUnits="objectBoundingBox" x="0" y="0" width="12" height="12" fill="white">
            <use xlink:href="#path-27"></use>
        </mask>
        <rect id="path-29" x="12" y="154" width="12" height="12" rx="6"></rect>
        <mask id="mask-30" maskContentUnits="userSpaceOnUse" maskUnits="objectBoundingBox" x="0" y="0" width="12" height="12" fill="white">
            <use xlink:href="#path-29"></use>
        </mask>
        <rect id="path-31" x="12" y="180" width="12" height="12" rx="6"></rect>
        <mask id="mask-32" maskContentUnits="userSpaceOnUse" maskUnits="objectBoundingBox" x="0" y="0" width="12" height="12" fill="white">
            <use xlink:href="#path-31"></use>
        </mask>
        <rect id="path-33" x="12" y="206" width="12" height="12" rx="6"></rect>
        <mask id="mask-34" maskContentUnits="userSpaceOnUse" maskUnits="objectBoundingBox" x="0" y="0" width="12" height="12" fill="white">
            <use xlink:href="#path-33"></use>
        </mask>
        <rect id="path-35" x="12" y="231" width="12" height="12" rx="6"></rect>
        <mask id="mask-36" maskContentUnits="userSpaceOnUse" maskUnits="objectBoundingBox" x="0" y="0" width="12" height="12" fill="white">
            <use xlink:href="#path-35"></use>
        </mask>
        <rect id="path-37" x="34" y="107" width="50" height="2"></rect>
        <mask id="mask-38" maskContentUnits="userSpaceOnUse" maskUnits="objectBoundingBox" x="0" y="0" width="50" height="2" fill="white">
            <use xlink:href="#path-37"></use>
        </mask>
        <rect id="path-39" x="34" y="133" width="50" height="2"></rect>
        <mask id="mask-40" maskContentUnits="userSpaceOnUse" maskUnits="objectBoundingBox" x="0" y="0" width="50" height="2" fill="white">
            <use xlink:href="#path-39"></use>
        </mask>
        <rect id="path-41" x="34" y="159" width="50" height="2"></rect>
        <mask id="mask-42" maskContentUnits="userSpaceOnUse" maskUnits="objectBoundingBox" x="0" y="0" width="50" height="2" fill="white">
            <use xlink:href="#path-41"></use>
        </mask>
        <rect id="path-43" x="34" y="185" width="50" height="2"></rect>
        <mask id="mask-44" maskContentUnits="userSpaceOnUse" maskUnits="objectBoundingBox" x="0" y="0" width="50" height="2" fill="white">
            <use xlink:href="#path-43"></use>
        </mask>
        <rect id="path-45" x="34" y="211" width="50" height="2"></rect>
        <mask id="mask-46" maskContentUnits="userSpaceOnUse" maskUnits="objectBoundingBox" x="0" y="0" width="50" height="2" fill="white">
            <use xlink:href="#path-45"></use>
        </mask>
        <rect id="path-47" x="34" y="236" width="50" height="2"></rect>
        <mask id="mask-48" maskContentUnits="userSpaceOnUse" maskUnits="objectBoundingBox" x="0" y="0" width="50" height="2" fill="white">
            <use xlink:href="#path-47"></use>
        </mask>
        <path d="M56,112 C86.927946,112 112,86.927946 112,56 C112,25.072054 86.927946,0 56,0 C25.072054,0 0,25.072054 0,56 C0,86.927946 25.072054,112 56,112 Z M56,104 C82.509668,104 104,82.509668 104,56 C104,29.490332 82.509668,8 56,8 C29.490332,8 8,29.490332 8,56 C8,82.509668 29.490332,104 56,104 Z" id="path-49"></path>
    </defs>
    <g id="Page-2" stroke="none" stroke-width="1" fill="none" fill-rule="evenodd">
        <g id="Home-Page-fusionUI" transform="translate(-555.000000, -142.000000)">
            <g id="frame" transform="translate(555.000000, 142.000000)">
                <use id="Rectangle-2" stroke="#FFFFFF" mask="url(#mask-2)" stroke-width="2" fill="#3091F6" xlink:href="#path-1"></use>
                <use id="Rectangle-Copy" stroke="#FFFFFF" mask="url(#mask-4)" stroke-width="2" fill="#3091F6" xlink:href="#path-3"></use>
                <use id="Rectangle-9-Copy-2" stroke="#FFFFFF" mask="url(#mask-6)" stroke-width="2" fill="#3091F6" xlink:href="#path-5"></use>
                <use id="Rectangle-9-Copy-2" stroke="#FFFFFF" mask="url(#mask-8)" stroke-width="2" fill="#3091F6" xlink:href="#path-7"></use>
                <use id="Rectangle-9-Copy-4" stroke="#FFFFFF" mask="url(#mask-10)" stroke-width="2" fill="#3091F6" xlink:href="#path-9"></use>
                <use id="Rectangle-9-Copy-5" stroke="#FFFFFF" mask="url(#mask-12)" stroke-width="2" fill="#3091F6" xlink:href="#path-11"></use>
                <use id="Rectangle-9-Copy-6" stroke="#FFFFFF" mask="url(#mask-14)" stroke-width="2" fill="#3091F6" xlink:href="#path-13"></use>
                <use id="Rectangle-9-Copy-7" stroke="#FFFFFF" mask="url(#mask-16)" stroke-width="2" fill="#3091F6" xlink:href="#path-15"></use>
                <use id="Rectangle-9-Copy-8" stroke="#FFFFFF" mask="url(#mask-18)" stroke-width="2" fill="#3091F6" xlink:href="#path-17"></use>
                <use id="Rectangle-10-Copy" stroke="#FFFFFF" mask="url(#mask-20)" stroke-width="2" fill="#3091F6" xlink:href="#path-19"></use>
                <path d="M117.34375,36.7564501 L127.65625,36.7564501 C127.846,36.7564501 128,36.5870053 128,36.378225 C128,36.1694448 127.846,36 127.65625,36 L117.34375,36 C117.154,36 117,36.1694448 117,36.378225 C117,36.5870053 117.154,36.7564501 117.34375,36.7564501 Z M127.65625,39.1203566 L117.34375,39.1203566 C117.154,39.1203566 117,39.2898014 117,39.4985816 C117,39.7073619 117.154,39.8768067 117.34375,39.8768067 L127.65625,39.8768067 C127.846,39.8768067 128,39.7073619 128,39.4985816 C128,39.2898014 127.846,39.1203566 127.65625,39.1203566 Z M127.65625,42.2407132 L117.34375,42.2407132 C117.154,42.2407132 117,42.4107934 117,42.6203566 C117,42.8299198 117.154,43 117.34375,43 L127.65625,43 C127.846,43 128,42.8299198 128,42.6203566 C128,42.4107934 127.846,42.2407132 127.65625,42.2407132 Z" id="menuHandle" fill="#97C8FA"></path>
                <use id="Rectangle-9-Copy-3" stroke="#FFFFFF" mask="url(#mask-22)" stroke-width="2" xlink:href="#path-21"></use>
                <path d="M551.737692,40.2818838 L554.343276,42.8875902 C554.417525,42.9618426 554.516179,43 554.615178,43 C554.714176,43 554.812831,42.9618426 554.88708,42.8875902 C555.03764,42.737023 555.03764,42.4922654 554.88708,42.3416982 L552.281496,39.7359917 C552.977922,38.9161224 553.397978,37.8559642 553.397978,36.6992094 C553.397978,34.1069096 551.288761,32 548.698989,32 C546.109217,32 544,34.1069096 544,36.6992094 C544,39.2915091 546.109217,41.3984187 548.701052,41.3984187 C549.857752,41.3984187 550.917861,40.9783431 551.737692,40.2818838 L551.737692,40.2818838 Z M544.769988,36.6992094 C544.769988,34.5314541 546.533054,32.7707116 548.698302,32.7707116 C550.863549,32.7707116 552.626615,34.5338604 552.626615,36.6992094 C552.626615,38.8645583 550.863549,40.6277071 548.698302,40.6277071 C546.533054,40.6277071 544.769988,38.8642145 544.769988,36.6992094 L544.769988,36.6992094 Z" id="Shape" fill="#83BDF9"></path>
                <polygon id="Triangle" fill="#83BDF9" points="649 40 646 37 652 37"></polygon>
                <use id="Rectangle-8-Copy" stroke="#FFFFFF" mask="url(#mask-24)" stroke-width="2" xlink:href="#path-23"></use>
                <path d="M37.3460403,68.22569 L37.3460403,69.8891509 L35.0174605,69.8891509 L35.0174605,68.22569 L37.3460403,68.22569 L37.3460403,68.22569 Z M37.3460403,70.6323994 L37.3460403,76.6137801 L35.0174605,76.6137801 L35.0174605,70.6323994 L37.3460403,70.6323994 Z M40.4138518,71.5526118 C40.6725829,71.1632912 40.931314,70.9155417 41.2639682,70.7385778 C41.5966225,70.5616139 41.9292768,70.4908283 42.3358542,70.4908283 C42.5206621,70.4908283 42.6315469,70.5262211 42.70547,70.5616139 L42.70547,72.4374315 L42.6685084,72.4374315 C41.9662383,72.3312531 41.4487762,72.4020387 41.0791603,72.685181 C40.7095445,72.9683232 40.5247366,73.4638222 40.5247366,74.1362851 L40.5247366,76.5783873 L38.1961568,76.5783873 L38.1961568,70.6323994 L40.4138518,70.6323994 L40.4138518,71.5526118 Z M44.8492419,76.5783873 C44.4426645,76.4014234 44.0730486,76.1890667 43.777356,75.9059244 C43.4816633,75.6227821 43.2598938,75.304247 43.0750859,74.9149264 C42.8902779,74.5256058 42.8163548,74.1008924 42.8163548,73.6407861 C42.8163548,73.1806799 42.8902779,72.7559665 43.0750859,72.3666459 C43.2598938,71.9773253 43.4816633,71.6587902 43.777356,71.3402551 C44.0730486,71.0217201 44.4426645,70.8447561 44.8492419,70.6677922 C45.2558193,70.4908283 45.7363199,70.4200427 46.2537821,70.4200427 C46.7712443,70.4200427 47.2517449,70.4908283 47.6583223,70.6677922 C48.0648997,70.8447561 48.4345156,71.0571128 48.7302082,71.3402551 C49.0259009,71.6233974 49.2476704,71.9773253 49.3955168,72.3666459 C49.5433631,72.7559665 49.6172863,73.1806799 49.6172863,73.6407861 C49.6172863,74.1008924 49.5433631,74.5256058 49.3955168,74.9149264 C49.2476704,75.304247 49.0259009,75.6227821 48.7302082,75.9059244 C48.4345156,76.1890667 48.0648997,76.4014234 47.6583223,76.5783873 C47.2517449,76.7553512 46.7712443,76.8261368 46.2537821,76.8261368 C45.7363199,76.8261368 45.2558193,76.7553512 44.8492419,76.5783873 Z M47.066937,74.8795336 C47.2517449,74.5609986 47.325668,74.1716779 47.325668,73.6407861 C47.325668,73.1098944 47.2517449,72.7205737 47.066937,72.4020387 C46.882129,72.0835036 46.6233979,71.9419325 46.2537821,71.9419325 C45.8841663,71.9419325 45.6254352,72.0835036 45.4406273,72.4020387 C45.2558193,72.7205737 45.1818962,73.1098944 45.1818962,73.6407861 C45.1818962,74.1716779 45.2558193,74.5609986 45.4406273,74.8795336 C45.6254352,75.1980687 45.8841663,75.3396398 46.2537821,75.3396398 C46.6233979,75.3396398 46.882129,75.1980687 47.066937,74.8795336 Z M52.4633283,71.4818263 C52.7220593,71.1632912 53.017752,70.9155417 53.3134447,70.7385778 C53.6091374,70.5616139 54.0157148,70.4908283 54.4592538,70.4908283 C55.1984855,70.4908283 55.7529092,70.703185 56.0855635,71.1278984 C56.4182178,71.5526118 56.6399873,72.1188964 56.6399873,72.7913593 L56.6399873,76.6845657 L54.3114075,76.6845657 L54.3114075,73.3576439 C54.3114075,73.0391088 54.2374843,72.7913593 54.089638,72.6143954 C53.9417916,72.4374315 53.7200221,72.3312531 53.4243294,72.3312531 C53.1286368,72.3312531 52.9068673,72.4374315 52.7220593,72.6497882 C52.5372514,72.8621449 52.4633283,73.1452872 52.4633283,73.4638222 L52.4633283,76.6845657 L50.2086716,76.6845657 L50.2086716,70.6323994 L52.4263667,70.6323994 L52.4633283,71.4818263 Z M59.5599524,76.6491729 C59.0794518,76.5429945 58.6359128,76.3660306 58.266297,76.1182811 C57.8966811,75.8705316 57.6009885,75.5873893 57.4161805,75.2334615 C57.2313726,74.8795336 57.0835263,74.4548202 57.0835263,73.9593212 L59.7077988,73.9593212 C59.7447603,74.3132491 59.8926067,74.5609986 60.1513378,74.7025697 C60.4100689,74.8441408 60.7427231,74.9503192 61.1862621,74.9503192 C61.2971469,74.9503192 61.4449932,74.9503192 61.555878,74.9149264 C61.6667627,74.8795336 61.8146091,74.8441408 61.9254938,74.8087481 C62.0363786,74.7733553 62.1103017,74.6671769 62.1842249,74.5963913 C62.2581481,74.5256058 62.2951097,74.3840346 62.2951097,74.2778563 C62.2951097,74.1716779 62.2581481,74.0301068 62.1842249,73.9593212 C62.1103017,73.8885356 61.999417,73.7823573 61.8515706,73.7469645 C61.7037243,73.7115717 61.555878,73.6407861 61.3341085,73.5700006 C61.112339,73.499215 60.8905695,73.4638222 60.6318384,73.3930367 C60.2622225,73.3222511 59.8926067,73.2160727 59.4860293,73.0745016 C59.0794518,72.9329304 58.7467976,72.7913593 58.4511049,72.6143954 C58.1554122,72.4374315 57.8966811,72.189682 57.6749116,71.8711469 C57.4531421,71.5526118 57.379219,71.198684 57.379219,70.7385778 C57.379219,70.2430788 57.4901037,69.8537582 57.6749116,69.4998303 C57.8597195,69.1459025 58.1184506,68.898153 58.4511049,68.6857962 C58.7837592,68.4734395 59.153375,68.3318684 59.596914,68.22569 C60.040453,68.1195117 60.5209536,68.0841189 61.0014542,68.0841189 C61.4449932,68.0841189 61.8885322,68.1195117 62.2951097,68.22569 C62.7016871,68.3318684 63.1082645,68.4734395 63.4039572,68.6857962 C63.6996499,68.898153 63.9953425,69.1459025 64.1801504,69.4998303 C64.3649584,69.8537582 64.4758431,70.207686 64.4758431,70.6677922 L61.9254938,70.6677922 C61.8885322,70.4554355 61.7776475,70.2430788 61.5928396,70.1369004 C61.4080316,70.0307221 61.1493005,69.9245437 60.8166463,69.9245437 C60.5209536,69.9245437 60.2991841,69.9953293 60.1143762,70.1015076 C59.9295683,70.207686 59.8556451,70.3492571 59.8556451,70.5262211 C59.8556451,70.6677922 59.8926067,70.7385778 60.0034914,70.8447561 C60.1143762,70.9509345 60.2252609,70.9863273 60.4100689,71.0571128 C60.5948768,71.1278984 60.8166463,71.1632912 61.0753774,71.2340768 C61.3341085,71.3048623 61.6298011,71.3402551 61.9624554,71.4110407 C62.3320712,71.4818263 62.7016871,71.5880046 63.0343413,71.7295758 C63.3669956,71.8711469 63.6996499,72.012718 63.9953425,72.2250747 C64.2910352,72.4374315 64.5128047,72.685181 64.660651,72.9683232 C64.8084974,73.2514655 64.9193821,73.6407861 64.9193821,74.1008924 C64.9193821,74.5609986 64.8084974,74.985712 64.6236895,75.304247 C64.4388815,75.6227821 64.1431889,75.9413172 63.8105346,76.1890667 C63.4778803,76.4368162 63.0713029,76.6137801 62.5908023,76.7199584 C62.1103017,76.8261368 61.6298011,76.8969224 61.112339,76.8969224 C60.5579152,76.8261368 60.040453,76.790744 59.5599524,76.6491729 Z M67.2110004,76.5783873 C66.8044229,76.4014234 66.4348071,76.1890667 66.1391144,75.9059244 C65.8434217,75.6227821 65.6216522,75.304247 65.4368443,74.9149264 C65.2520364,74.5256058 65.1781132,74.1008924 65.1781132,73.6407861 C65.1781132,73.1806799 65.2520364,72.7559665 65.4368443,72.3666459 C65.6216522,71.9773253 65.8434217,71.6587902 66.1391144,71.3402551 C66.4348071,71.0217201 66.8044229,70.8447561 67.2110004,70.6677922 C67.6175778,70.4908283 68.0980784,70.4200427 68.6155406,70.4200427 C69.1330027,70.4200427 69.6135033,70.4908283 70.0200808,70.6677922 C70.4266582,70.8447561 70.796274,71.0571128 71.0919667,71.3402551 C71.3876594,71.6233974 71.6094289,71.9773253 71.7572752,72.3666459 C71.9051215,72.7559665 71.9790447,73.1806799 71.9790447,73.6407861 C71.9790447,74.1008924 71.9051215,74.5256058 71.7572752,74.9149264 C71.6094289,75.304247 71.3876594,75.6227821 71.0919667,75.9059244 C70.796274,76.1890667 70.4266582,76.4014234 70.0200808,76.5783873 C69.6135033,76.7553512 69.1330027,76.8261368 68.6155406,76.8261368 C68.0980784,76.8261368 67.6175778,76.7553512 67.2110004,76.5783873 L67.2110004,76.5783873 Z M69.3917338,74.8795336 C69.5765417,74.5609986 69.6504649,74.1716779 69.6504649,73.6407861 C69.6504649,73.1098944 69.5765417,72.7205737 69.3917338,72.4020387 C69.2069259,72.0835036 68.9481948,71.9419325 68.578579,71.9419325 C68.2089631,71.9419325 67.950232,72.0835036 67.7654241,72.4020387 C67.5806162,72.7205737 67.506693,73.1098944 67.506693,73.6407861 C67.506693,74.1716779 67.5806162,74.5609986 67.7654241,74.8795336 C67.950232,75.1980687 68.2089631,75.3396398 68.578579,75.3396398 C68.9481948,75.3396398 69.2069259,75.1980687 69.3917338,74.8795336 Z M76.7470891,75.8705316 C76.488358,76.1890667 76.1926653,76.4368162 75.8969726,76.5783873 C75.60128,76.7199584 75.1947025,76.8261368 74.7881251,76.8261368 C74.4185093,76.8261368 74.085855,76.7553512 73.7901623,76.6491729 C73.4944697,76.5429945 73.2727002,76.3660306 73.0878922,76.1890667 C72.9030843,76.0121027 72.755238,75.7289605 72.6813148,75.4458182 C72.6073916,75.1626759 72.5334685,74.8441408 72.5334685,74.490213 L72.5334685,70.6323994 L74.8620483,70.6323994 L74.8620483,73.9593212 C74.8620483,74.5963913 75.157741,74.9149264 75.7121647,74.9149264 C76.0078574,74.9149264 76.2665885,74.8087481 76.4144348,74.6317841 C76.5622812,74.4548202 76.6731659,74.1716779 76.6731659,73.8531429 L76.6731659,70.6323994 L79.0017457,70.6323994 L79.0017457,76.6137801 L76.7840507,76.6137801 L76.7840507,75.8705316 L76.7470891,75.8705316 Z M82.0325956,71.5526118 C82.2913267,71.1632912 82.5500578,70.9155417 82.8827121,70.7385778 C83.2153663,70.5616139 83.5480206,70.4908283 83.954598,70.4908283 C84.1394059,70.4908283 84.2502907,70.5262211 84.3242138,70.5616139 L84.3242138,72.4374315 L84.2872523,72.4374315 C83.5849822,72.3312531 83.06752,72.4020387 82.6979041,72.685181 C82.3282883,72.9683232 82.1434804,73.4638222 82.1434804,74.1362851 L82.1434804,76.5783873 L79.777939,76.5783873 L79.777939,70.6323994 L81.995634,70.6323994 L82.0325956,71.5526118 Z M86.4679857,76.5783873 C86.0614083,76.4014234 85.6917925,76.1890667 85.3960998,75.9059244 C85.1004071,75.6227821 84.841676,75.304247 84.6938297,74.9149264 C84.5459833,74.5256058 84.4350986,74.1008924 84.4350986,73.6407861 C84.4350986,73.1806799 84.5090218,72.7559665 84.6938297,72.3666459 C84.8786376,71.9773253 85.1004071,71.6587902 85.3960998,71.3402551 C85.6917925,71.0217201 86.0614083,70.8447561 86.4679857,70.6677922 C86.8745632,70.4908283 87.3550637,70.4200427 87.8725259,70.4200427 C88.3160649,70.4200427 88.7226424,70.4908283 89.0922582,70.5970066 C89.461874,70.703185 89.7575667,70.8801489 90.0532594,71.0925056 C90.3489521,71.3048623 90.53376,71.5526118 90.6816063,71.8357541 C90.8294527,72.1188964 90.9403374,72.4374315 90.977299,72.7913593 L88.7596039,72.7913593 C88.6856808,72.508217 88.574796,72.2958603 88.4639113,72.1542892 C88.3530265,72.012718 88.131257,71.9419325 87.8725259,71.9419325 C87.5029101,71.9419325 87.244179,72.0835036 87.0593711,72.3666459 C86.8745632,72.6497882 86.80064,73.0391088 86.80064,73.5700006 C86.80064,74.0654996 86.8745632,74.4548202 87.0593711,74.7379625 C87.244179,75.0211048 87.5029101,75.1626759 87.8725259,75.1626759 C88.1682186,75.1626759 88.3899881,75.0918903 88.5008729,74.9149264 C88.6117576,74.7379625 88.7226424,74.490213 88.7596039,74.1362851 L90.977299,74.1362851 C90.977299,74.490213 90.9033758,74.8441408 90.7555295,75.1626759 C90.6076832,75.481211 90.3859137,75.7643532 90.1271826,75.97671 C89.8684515,76.1890667 89.5357972,76.4014234 89.1292198,76.5429945 C88.7226424,76.6845657 88.3160649,76.7553512 87.8355643,76.7553512 C87.3550637,76.8261368 86.8745632,76.7553512 86.4679857,76.5783873 L86.4679857,76.5783873 Z M93.2319556,76.5783873 C92.8253782,76.4368162 92.4557624,76.1890667 92.1600697,75.9059244 C91.864377,75.6227821 91.6056459,75.304247 91.4577996,74.9149264 C91.3099533,74.5256058 91.1990685,74.1008924 91.1990685,73.6407861 C91.1990685,73.1806799 91.2729917,72.7559665 91.4577996,72.3666459 C91.6426075,71.9773253 91.864377,71.6587902 92.1600697,71.3402551 C92.4557624,71.0217201 92.7884166,70.8447561 93.2319556,70.6677922 C93.6754946,70.4908283 94.0820721,70.4200427 94.5995343,70.4200427 C95.1169964,70.4200427 95.5235739,70.4908283 95.8931897,70.6323994 C96.2628055,70.7739706 96.5954598,70.9863273 96.8911525,71.2340768 C97.2607683,71.5880046 97.556461,71.9773253 97.7412689,72.508217 C97.9260768,73.0391088 98,73.5700006 98,74.1716779 L93.4537251,74.1716779 C93.5276483,74.5256058 93.6385331,74.8087481 93.8603026,74.985712 C94.0820721,75.1626759 94.3408032,75.2688543 94.6734574,75.2688543 C95.0800348,75.2688543 95.3757275,75.1272831 95.5605354,74.8087481 L97.8151921,74.8087481 C97.7412689,75.0918903 97.6303842,75.3396398 97.4086147,75.5873893 C97.1868451,75.8351388 96.9281141,76.0474955 96.6324214,76.2598522 C96.3367287,76.4368162 96.041036,76.5783873 95.7083818,76.6491729 C95.3757275,76.7199584 95.0061117,76.7553512 94.6364958,76.7553512 C94.1190337,76.790744 93.6385331,76.7199584 93.2319556,76.5783873 L93.2319556,76.5783873 Z M93.823341,72.2250747 C93.6385331,72.4020387 93.5276483,72.685181 93.4537251,73.003716 L95.597497,73.003716 C95.5605354,72.6497882 95.4496507,72.4020387 95.2648428,72.2250747 C95.0800348,72.0481108 94.8582653,71.9419325 94.5625727,71.9419325 C94.26688,71.9419325 94.0081489,72.0481108 93.823341,72.2250747 L93.823341,72.2250747 Z M12,64 L12,81.2 L31.1029947,81.2 L31.1029947,64 L12,64 L12,64 Z M19.163623,72.4398799 C19.163623,73.4884084 18.7519206,74.1030631 17.8461751,74.32 C18.7930908,74.6454054 19.163623,75.2239039 19.163623,76.4893694 L19.163623,78.3333333 L15.499471,78.2971772 L15.499471,75.9108709 C15.499471,75.4408408 14.8819173,75.3685285 14.3878743,75.2239039 L14.3878743,73.4884084 C14.8819173,73.3437838 15.499471,73.1991592 15.499471,72.8375976 L15.499471,70.3066667 L19.163623,70.3066667 L19.163623,72.4398799 L19.163623,72.4398799 Z M19.163623,69.7333333 L15.5818115,69.7333333 L15.5818115,67.44 L19.163623,67.44 L19.163623,69.7333333 L19.163623,69.7333333 Z M24.2189646,78.3333333 C21.1963388,78.3333333 19.7605916,76.9124638 19.7605916,75.1194617 L19.7605916,74.5781781 L23.1232628,74.5781781 L23.1232628,74.8149896 C23.1232628,75.3901035 23.4633082,75.7960663 24.1056161,75.7960663 C24.7101413,75.7960663 25.0124039,75.5592547 25.0124039,75.1194617 C25.0124039,73.9354037 19.8739401,74.1383851 19.8739401,70.7891925 C19.8739401,68.9961905 21.158556,67.44 24.3323131,67.44 C27.2038075,67.44 28.6017719,68.8608696 28.6017719,70.6538716 L28.6017719,71.2628157 L25.2391008,71.2628157 L25.2391008,70.9245135 C25.2391008,70.4508903 24.974621,69.9772671 24.3323131,69.9772671 C23.8411364,69.9772671 23.5388738,70.2140787 23.5388738,70.6200414 C23.5388738,71.9055901 28.7151204,71.601118 28.7151204,74.9164803 C28.7151204,76.7094824 27.3549388,78.3333333 24.2189646,78.3333333 L24.2189646,78.3333333 Z" id="Combined-Shape" fill="#FFFFFF"></path>
                <use id="Rectangle" stroke="#FFFFFF" mask="url(#mask-26)" stroke-width="2" opacity="0.4" xlink:href="#path-25"></use>
                <use id="Rectangle-Copy-2" stroke="#FFFFFF" mask="url(#mask-28)" stroke-width="2" opacity="0.4" xlink:href="#path-27"></use>
                <use id="Rectangle-Copy-3" stroke="#FFFFFF" mask="url(#mask-30)" stroke-width="2" opacity="0.4" xlink:href="#path-29"></use>
                <use id="Rectangle-Copy-4" stroke="#FFFFFF" mask="url(#mask-32)" stroke-width="2" opacity="0.4" xlink:href="#path-31"></use>
                <use id="Rectangle-Copy-5" stroke="#FFFFFF" mask="url(#mask-34)" stroke-width="2" opacity="0.4" xlink:href="#path-33"></use>
                <use id="Rectangle-Copy-6" stroke="#FFFFFF" mask="url(#mask-36)" stroke-width="2" opacity="0.4" xlink:href="#path-35"></use>
                <rect id="Rectangle-473-Copy" fill="#FFFFFF" opacity="0.402004076" x="575" y="37" width="63" height="3"></rect>
                <use id="Rectangle-473-Copy-3" stroke="#FFFFFF" mask="url(#mask-38)" stroke-width="2" opacity="0.4" xlink:href="#path-37"></use>
                <use id="Rectangle-473-Copy-4" stroke="#FFFFFF" mask="url(#mask-40)" stroke-width="2" opacity="0.4" xlink:href="#path-39"></use>
                <use id="Rectangle-473-Copy-5" stroke="#FFFFFF" mask="url(#mask-42)" stroke-width="2" opacity="0.4" xlink:href="#path-41"></use>
                <use id="Rectangle-473-Copy-6" stroke="#FFFFFF" mask="url(#mask-44)" stroke-width="2" opacity="0.4" xlink:href="#path-43"></use>
                <use id="Rectangle-473-Copy-7" stroke="#FFFFFF" mask="url(#mask-46)" stroke-width="2" opacity="0.4" xlink:href="#path-45"></use>
                <use id="Rectangle-473-Copy-8" stroke="#FFFFFF" mask="url(#mask-48)" stroke-width="2" opacity="0.4" xlink:href="#path-47"></use>
                <rect id="Rectangle-473-Copy-2" fill="#FFFFFF" opacity="0.400079257" x="130" y="73" width="163" height="6"></rect>
                <path d="M9.2,14 C10.9673112,14 12.4,12.6568542 12.4,11 C12.4,9.34314575 10.9673112,8 9.2,8 C7.4326888,8 6,9.34314575 6,11 C6,12.6568542 7.4326888,14 9.2,14 Z M22,14 C23.7673112,14 25.2,12.6568542 25.2,11 C25.2,9.34314575 23.7673112,8 22,8 C20.2326888,8 18.8,9.34314575 18.8,11 C18.8,12.6568542 20.2326888,14 22,14 Z M34.8,14 C36.5673112,14 38,12.6568542 38,11 C38,9.34314575 36.5673112,8 34.8,8 C33.0326888,8 31.6,9.34314575 31.6,11 C31.6,12.6568542 33.0326888,14 34.8,14 Z" id="dots" fill="#FFFFFF"></path>
                <rect id="Rectangle-6" fill="#FFFFFF" x="130" y="261" width="522" height="1"></rect>
                <g id="Group-13" transform="translate(226.000000, 292.000000)">
                    <g id="text" transform="translate(150.000000, 22.000000)" fill="#FFFFFF">
                        <rect id="Rectangle-473" x="0" y="0" width="130" height="8"></rect>
                        <rect id="Rectangle-473-Copy" opacity="0.5" x="0" y="20" width="180" height="8"></rect>
                        <rect id="Rectangle-473-Copy-12" opacity="0.5" x="0" y="40" width="180" height="8"></rect>
                        <rect id="Rectangle-473-Copy-14" opacity="0.5" x="0" y="60" width="90" height="8"></rect>
                    </g>
                    <g id="Rectangle-1088" transform="translate(56.000000, 56.000000) rotate(-180.000000) translate(-56.000000, -56.000000) ">
                        <mask id="mask-50" fill="white">
                            <use xlink:href="#path-49"></use>
                        </mask>
                        <use id="Mask" fill-opacity="0.5" fill="#FFFFFF" xlink:href="#path-49"></use>
                        <rect fill="#FFFFFF" mask="url(#mask-50)" x="56" y="56" width="56" height="56"></rect>
                    </g>
                </g>
                <path d="M214,208.251549 C234.045892,208.251549 232.919341,164.594541 260.887524,164.59454 C288.855707,164.594539 285.015729,199.376678 305.637229,199.376674 C326.258729,199.37667 319.634065,229 341.577402,229 C363.520739,229 357.515953,193.867269 381.527505,193.867269 C405.539056,193.867269 399.280019,155.365927 421.306843,155.365927 C443.333668,155.365927 435.143094,190.431637 454.003643,190.431637 C472.864193,190.431637 470.788448,215.348509 490.976006,215.348509 C511.163565,215.348509 510.942398,180.638194 534.752732,180.638194 C558.563065,180.638195 567.025662,141 567.025662,141" id="Path-213" stroke="#FFFFFF" stroke-width="7" opacity="0.8"></path>
            </g>
        </g>
    </g>
</svg>