<?xml version="1.0" encoding="UTF-8"?>
<svg width="71px" height="53px" viewBox="0 0 71 53" version="1.1" xmlns="http://www.w3.org/2000/svg" xmlns:xlink="http://www.w3.org/1999/xlink">
    <!-- Generator: sketchtool 41.2 (35397) - http://www.bohemiancoding.com/sketch -->
    <title>9DD22D0D-3CC3-41F2-BFB9-EDFBDEBEB72A</title>
    <desc>Created with sketchtool.</desc>
    <defs></defs>
    <g id="Page-12" stroke="none" stroke-width="1" fill="none" fill-rule="evenodd">
        <g id="Home-Page" transform="translate(-654.000000, -1196.000000)" fill="#CF649A">
            <g id="Group-4" transform="translate(163.000000, 993.000000)">
                <path d="M551.833254,233.434089 C549.362466,233.448039 547.222956,234.041779 545.428528,234.925828 C544.765971,233.613772 544.103413,232.467311 543.993124,231.61116 C543.868895,230.61676 543.717059,230.008933 543.868895,228.821315 C544.020593,227.633421 544.710757,225.948465 544.710757,225.810354 C544.696816,225.686054 544.558783,225.078365 543.137183,225.064554 C541.715582,225.050742 540.486951,225.340776 540.348918,225.713676 C540.210885,226.086576 539.93482,226.942865 539.755377,227.826777 C539.506918,229.125021 536.911899,233.724123 535.434948,236.141068 C534.951833,235.201912 534.537734,234.373245 534.454776,233.710174 C534.330685,232.715911 534.17871,232.108084 534.330685,230.920466 C534.482521,229.732572 535.172685,228.047754 535.172685,227.909643 C535.158882,227.785343 535.020849,227.177654 533.599248,227.163843 C532.177372,227.150032 530.949017,227.440065 530.810984,227.812966 C530.672951,228.185866 530.521115,229.069777 530.217443,229.926066 C529.927436,230.782355 526.476613,238.461335 525.5794,240.463947 C525.123891,241.48597 524.723734,242.300825 524.433727,242.85327 C524.143858,243.405715 524.419923,242.894703 524.392317,242.949948 C524.143858,243.419526 524.005825,243.681937 524.005825,243.681937 L524.005825,243.695886 C523.812579,244.041164 523.605529,244.372493 523.508768,244.372493 C523.439752,244.372493 523.301719,243.447148 523.536375,242.176664 C524.047097,239.51098 525.289393,235.353973 525.275727,235.20205 C525.275727,235.132995 525.510245,234.400868 524.474999,234.028106 C523.467359,233.655205 523.108611,234.276706 523.025653,234.276706 C522.942834,234.276706 522.873817,234.497683 522.873817,234.497683 C522.873817,234.497683 523.991883,229.815853 520.734307,229.815853 C518.691421,229.815853 515.87555,232.039443 514.481418,234.069677 C513.598007,234.553066 511.72076,235.57495 509.733087,236.666167 C508.973906,237.0805 508.187118,237.522456 507.441741,237.922978 L507.290043,237.756969 C503.342302,233.544578 496.040363,230.561377 496.344035,224.89882 C496.454461,222.840964 497.172232,217.413196 510.368314,210.839105 C521.176289,205.45277 529.830951,206.930559 531.335371,210.217605 C533.474881,214.913384 526.711269,223.642009 515.475531,224.89882 C511.196511,225.382209 508.946437,223.724875 508.38064,223.103375 C507.787099,222.454253 507.704279,222.426631 507.483427,222.550931 C507.124541,222.744286 507.345394,223.324353 507.483427,223.669631 C507.814706,224.539731 509.195034,226.086576 511.541593,226.859999 C513.598145,227.536743 518.62268,227.909643 524.696127,225.561754 C531.501148,222.923831 536.815414,215.60394 535.255643,209.485616 C533.668265,203.256803 523.343405,201.212758 513.58448,204.679348 C507.773158,206.751015 501.478858,209.982816 496.95138,214.222828 C491.568097,219.250074 490.712293,223.642009 491.071179,225.465076 C492.327416,231.970111 501.285612,236.210124 504.874467,239.345247 C504.695024,239.441786 504.529385,239.538464 504.377549,239.621469 C502.583121,240.505242 495.750493,244.082459 494.038886,247.866567 C492.106425,252.148012 494.342558,255.228029 495.833313,255.642363 C500.443612,256.926796 505.164336,254.62034 507.717944,250.822284 C510.257612,247.024227 509.954077,242.093659 508.780798,239.842447 L508.73925,239.75958 L510.147185,238.930913 C511.05834,238.39228 511.955554,237.89508 512.742203,237.466797 C512.300636,238.668364 511.983023,240.090909 511.817521,242.162576 C511.624275,244.593471 512.618112,247.742267 513.929424,248.985267 C514.509162,249.523762 515.199327,249.537712 515.627229,249.537712 C517.14559,249.537712 517.835755,248.280762 518.594936,246.775489 C519.533559,244.93861 520.361757,242.811699 520.361757,242.811699 C520.361757,242.811699 519.32651,248.570934 522.156184,248.570934 C523.191431,248.570934 524.226677,247.231255 524.695989,246.5407 L524.695989,246.554511 C524.695989,246.554511 524.723596,246.513077 524.778809,246.4164 C524.836726,246.330714 524.891966,246.243248 524.944448,246.154127 L524.944448,246.126504 C525.358547,245.408326 526.283367,243.764804 527.663696,241.044014 C529.444182,237.535991 531.155928,233.144056 531.155928,233.144056 C531.155928,233.144056 531.321568,234.221323 531.832289,235.989146 C532.135824,237.038929 532.798381,238.185113 533.309103,239.303813 C532.895005,239.88388 532.646545,240.215485 532.646545,240.215485 L532.660349,240.229296 C532.329208,240.671252 531.956381,241.140968 531.570027,241.610408 C530.162091,243.295364 528.47809,245.215247 528.257238,245.767692 C527.994975,246.416676 528.050188,246.900065 528.56091,247.286914 C528.933599,247.563137 529.596157,247.618243 530.300124,247.563137 C531.570027,247.480132 532.453437,247.162614 532.895143,246.96912 C533.585307,246.72052 534.372094,246.34762 535.131275,245.795176 C536.511604,244.773291 537.353605,243.323124 537.270785,241.389568 C537.229375,240.326112 536.884293,239.276467 536.456391,238.282067 C536.580621,238.102523 536.704988,237.92284 536.82908,237.729623 C539.009999,234.539117 540.694,231.031232 540.694,231.031232 C540.694,231.031232 540.85964,232.108499 541.370362,233.876321 C541.632486,234.774044 542.157149,235.754771 542.626461,236.721549 C540.583574,238.392694 539.299868,240.32625 538.858163,241.596873 C538.043769,243.944762 538.67872,245.008218 539.879606,245.256818 C540.417797,245.367307 541.190919,245.118707 541.770519,244.870107 C542.48829,244.635318 543.357897,244.234658 544.158626,243.640918 C545.538955,242.618895 546.86407,241.196351 546.795054,239.276606 C546.753644,238.392694 546.518988,237.522594 546.201513,236.693927 C547.940727,235.975749 550.190525,235.561416 553.047944,235.906693 C559.190407,236.624871 560.405096,240.464361 560.170578,242.066451 C559.935923,243.668678 558.652217,244.552452 558.224177,244.828674 C557.796275,245.091085 557.658242,245.187901 557.699652,245.381118 C557.754865,245.67129 557.948111,245.657341 558.3208,245.602234 C558.831521,245.51923 561.550769,244.290178 561.661196,241.334738 C561.826835,237.536129 558.224177,233.392794 551.833254,233.434089 L551.833254,233.434089 Z M504.460368,249.41355 C502.431285,251.637139 499.574004,252.479617 498.359315,251.761439 C497.048003,251.001828 497.558586,247.728594 500.057119,245.366893 C501.575481,243.930537 503.549351,242.60467 504.846861,241.789814 C505.13673,241.61027 505.578435,241.347997 506.10296,241.030203 C506.185779,240.975096 506.240993,240.947336 506.240993,240.947336 C506.337616,240.892092 506.448042,240.823036 506.558468,240.753981 C507.483289,244.123893 506.599878,247.079471 504.460368,249.41355 L504.460368,249.41355 Z M519.298903,239.317625 C518.594936,241.044014 517.104181,245.477382 516.206967,245.228782 C515.433845,245.021615 514.964671,241.665514 516.054993,238.350846 C516.607124,236.679563 517.780404,234.690901 518.470568,233.91734 C519.588773,232.67434 520.803324,232.260007 521.107134,232.771018 C521.46602,233.434089 519.740609,238.240358 519.298903,239.317625 Z M531.54242,245.173537 C531.238748,245.325598 530.962682,245.435949 530.838453,245.35322 C530.74183,245.297976 530.962544,245.090809 530.962544,245.090809 C530.962544,245.090809 532.494709,243.447286 533.102054,242.687675 C533.447136,242.245857 533.861235,241.734846 534.30294,241.154641 L534.30294,241.320374 C534.303078,243.309037 532.398224,244.634904 531.54242,245.173537 Z M540.983732,243.019003 C540.762879,242.85327 540.790624,242.342259 541.535863,240.740169 C541.82587,240.104858 542.48829,239.041402 543.633963,238.033191 C543.771996,238.447524 543.854954,238.847909 543.841012,239.220947 C543.827347,241.706947 542.060526,242.632292 540.983732,243.019003 Z" id="sass"></path>
            </g>
        </g>
    </g>
</svg>