<svg xmlns="http://www.w3.org/2000/svg" width="32" height="32" viewBox="0 0 32 32">
    <path fill="#000" fill-rule="evenodd" d="M24.031 2.14C21.573.715 18.896 0 16 0c-2.896 0-5.573.714-8.031 2.14A15.8 15.8 0 0 0 2.14 7.97C.714 10.427 0 13.104 0 16c0 2.896.714 5.573 2.14 8.031A15.8 15.8 0 0 0 7.97 29.86C10.427 31.286 13.104 32 16 32c2.896 0 5.573-.714 8.031-2.14a15.8 15.8 0 0 0 5.828-5.829C31.286 21.573 32 18.896 32 16c0-2.896-.714-5.573-2.14-8.031A15.8 15.8 0 0 0 24.03 2.14zM16 30.032a14.08 14.08 0 0 1-4.422-.703 12.979 12.979 0 0 1-3.86-2.015 15.683 15.683 0 0 1-3.015-3.032 13.186 13.186 0 0 1-2-3.86A14.08 14.08 0 0 1 2 16c0-1.896.37-3.708 1.11-5.438.739-1.729 1.734-3.218 2.984-4.468s2.74-2.245 4.468-2.985C12.293 2.37 14.104 2 16 2s3.708.37 5.438 1.11c1.729.739 3.218 1.734 4.468 2.984s2.245 2.74 2.985 4.468C29.63 12.293 30 14.104 30 16s-.37 3.708-1.11 5.438c-.739 1.729-1.734 3.223-2.984 4.484-1.25 1.26-2.74 2.26-4.468 3-1.73.74-3.542 1.11-5.438 1.11zm-.005-20.243l-2.206 7.676H18.2l-2.205-7.676zM14.732 8h2.536L22 23h-2.164l-1.139-3.908h-5.415L12.164 23H10l4.732-15z"/>
</svg>
