<svg xmlns="http://www.w3.org/2000/svg" width="32" height="32" viewBox="0 0 32 32">
    <g fill="none" fill-rule="evenodd">
        <circle cx="17.6" cy="16.533" r="13.333" fill="#FFF" class="arrow"/>
        <path fill="#95A6B8" class="circle" d="M14.938 26.396l9.458-9.459a1.32 1.32 0 0 0 0-1.875l-9.459-9.458a1.32 1.32 0 0 0-1.874 0L10.937 7.73a1.32 1.32 0 0 0 0 1.875L17.334 16l-6.395 6.396a1.32 1.32 0 0 0 0 1.875l2.124 2.125c.521.52 1.355.52 1.876 0zM32 16c0 8.833-7.167 16-16 16S0 24.833 0 16 7.167 0 16 0s16 7.167 16 16z"/>
    </g>
</svg>
