<svg xmlns="http://www.w3.org/2000/svg" width="32" height="32" viewBox="0 0 32 32">
    <path fill="#222532" fill-rule="evenodd" d="M16 0C7.177 0 0 7.177 0 16s7.177 16 16 16 16-7.177 16-16S24.823 0 16 0zm0 29.76C8.411 29.76 2.24 23.589 2.24 16 2.24 8.411 8.411 2.24 16 2.24c7.589 0 13.76 6.171 13.76 13.76 0 7.589-6.171 13.76-13.76 13.76zm-.954-19.25a1.113 1.113 0 0 0-1.59 0 1.172 1.172 0 0 0 0 1.633l3.945 4.03-3.946 4.03a1.172 1.172 0 0 0 0 1.633c.441.45 1.157.45 1.598 0l4.742-4.844a1.167 1.167 0 0 0 0-1.625l-4.748-4.858v.001z"/>
</svg>
