<svg xmlns="http://www.w3.org/2000/svg" width="30" height="30" viewBox="0 0 30 30">
    <g fill="none" fill-rule="evenodd">
        <circle cx="15" cy="15" r="15" fill="#95A6B8" class="circle" />
        <path fill="#FFF" class="letter" d="M17.075 14.5c1.05.35 1.55 1.1 1.55 2.525v3.225c0 2.175-1.075 3.25-3.25 3.25H11V6h4.325c2.175 0 3.25 1.075 3.25 3.25v2.575c0 1.55-.525 2.325-1.5 2.675zm-1.15-5.15c0-.675-.325-1-1-1H13.65v5.1h1.175c.75 0 1.1-.35 1.1-1.1v-3zm-2.275 6.375v5.425h1.325c.675 0 1-.325 1-1v-3.325c0-.75-.35-1.1-1.1-1.1H13.65z"/>
    </g>
</svg>
