<svg xmlns="http://www.w3.org/2000/svg" width="31" height="32" viewBox="0 0 31 32">
    <path fill="#0B1625" fill-rule="evenodd" d="M8 10H1a.961.961 0 0 0-.703.297A.961.961 0 0 0 0 11v20c0 .27.099.505.297.703A.961.961 0 0 0 1 32h7c.27 0 .505-.099.703-.297A.961.961 0 0 0 9 31V11a.961.961 0 0 0-.297-.703A.961.961 0 0 0 8 10zM7 30H2V12h5v18zm12-15h-7a.922.922 0 0 0-.719.314c-.187.21-.281.458-.281.744v14.884c0 .286.094.534.281.744.188.21.427.314.719.314h7c.27 0 .505-.105.703-.314.198-.21.297-.458.297-.744V16.058c0-.286-.099-.534-.297-.744A.936.936 0 0 0 19 15zm-1 15h-5V17h5v13zM30 0h-7a.961.961 0 0 0-.703.297A.961.961 0 0 0 22 1v30c0 .27.099.505.297.703A.961.961 0 0 0 23 32h7c.27 0 .505-.099.703-.297A.961.961 0 0 0 31 31V1a.961.961 0 0 0-.297-.703A.961.961 0 0 0 30 0zm-1 30h-5V2h5v28z"/>
</svg>
