<svg xmlns="http://www.w3.org/2000/svg" width="27" height="32" viewBox="0 0 27 32">
    <path fill="#000" fill-rule="evenodd" d="M24.007 0H4.115c-.457 0-.847.104-1.169.313-.322.208-.55.463-.686.765-.135.302-.202.63-.202.984v3.97H.967a.908.908 0 0 0-.686.296 1.019 1.019 0 0 0-.156 1.188.853.853 0 0 0 .358.359C.64 7.958.8 8 .967 8h1.09v4.031H1.06c-.166 0-.327.042-.483.125a.853.853 0 0 0-.359.36A1.019 1.019 0 0 0 .094 13c0 .27.093.5.28.688a.932.932 0 0 0 .686.28h.998v4.063h-1.03a.855.855 0 0 0-.358.078c-.114.052-.218.12-.311.203a.846.846 0 0 0-.219.313.97.97 0 0 0 .219 1.078c.197.198.42.297.67.297h1.029v4h-1.03c-.082 0-.165.01-.249.031a.916.916 0 0 0-.436.25.961.961 0 0 0-.25.438 1.03 1.03 0 0 0-.03.25c0 .27.098.505.296.703.197.198.42.297.67.297h1.029V30c0 .73.213 1.245.639 1.547A2.35 2.35 0 0 0 4.084 32h19.923c.831 0 1.538-.292 2.12-.875A2.896 2.896 0 0 0 27 29V3c0-.833-.291-1.542-.873-2.125A2.883 2.883 0 0 0 24.007 0zM4.053 30v-4.031h1.029c.27 0 .504-.1.701-.297a.962.962 0 0 0 .219-1.078.846.846 0 0 0-.219-.313 1.237 1.237 0 0 0-.311-.203.93.93 0 0 0-.39-.078H4.053v-4h1.029a.9.9 0 0 0 .499-.14c.145-.094.265-.214.358-.36a.906.906 0 0 0 .14-.5c0-.27-.098-.5-.296-.688a.984.984 0 0 0-.701-.28H4.053v-4.063h1.06a.986.986 0 0 0 .499-.125.907.907 0 0 0 .343-.344.992.992 0 0 0 .125-.5c0-.125-.021-.25-.063-.375a.71.71 0 0 0-.202-.313 1.237 1.237 0 0 0-.312-.203.93.93 0 0 0-.39-.078h-1.06V8h.967c.27 0 .498-.094.686-.281a.936.936 0 0 0 .28-.688.99.99 0 0 0-.28-.703.908.908 0 0 0-.686-.297h-.967V2h15.963v28H4.053zm20.952-1c0 .27-.1.505-.297.703a.958.958 0 0 1-.701.297h-1.995V2h1.995c.27 0 .504.099.701.297a.962.962 0 0 1 .297.703v26z"/>
</svg>
