<svg xmlns="http://www.w3.org/2000/svg" width="32" height="27" viewBox="0 0 32 27">
    <path fill="#172D4C" fill-rule="evenodd" d="M31.969 13.438L28.28.748a.72.72 0 0 0-.187-.39 1.175 1.175 0 0 0-.344-.264.897.897 0 0 0-.406-.094h-23a.998.998 0 0 0-.766.359 1.074 1.074 0 0 0-.203.39L.031 12.813c-.02.104-.026.213-.015.327.01.115.036.224.078.328A1.97 1.97 0 0 0 0 14.03v10.975c0 .54.193 1.008.578 1.403.386.395.86.592 1.422.592h28a1.91 1.91 0 0 0 1.422-.592c.385-.395.578-.863.578-1.403V13.578a.309.309 0 0 0-.031-.14zM5.125 1.995h21.438l2.906 10.04h-9.313c0 .478-.067.925-.203 1.34-.135.416-.328.79-.578 1.123a4.02 4.02 0 0 1-.875.857c-.333.24-.714.421-1.14.546-.428.124-.88.187-1.36.187a4.472 4.472 0 0 1-1.656-.296 3.897 3.897 0 0 1-1.297-.827 3.79 3.79 0 0 1-.86-1.278 4.247 4.247 0 0 1-.312-1.652H2.312l2.813-10.04zM30 25.005H2V14.03h8.219c.437 1.268 1.166 2.26 2.187 2.978 1.021.717 2.219 1.075 3.594 1.075.917 0 1.766-.16 2.547-.483a5.449 5.449 0 0 0 2-1.403 6.328 6.328 0 0 0 1.265-2.167H30v10.975z"/>
</svg>
