<svg xmlns="http://www.w3.org/2000/svg" width="32" height="32" viewBox="0 0 32 32">
    <path fill="#000" fill-rule="evenodd" d="M31.379 11.047l-1.591-1.59a2.121 2.121 0 0 0-2.001-.562 2.12 2.12 0 0 0-.561-2.001l-3.452-3.452c-.32-.319-.722-.52-1.146-.591a2.118 2.118 0 0 0-.592-1.146L20.953.62a2.12 2.12 0 0 0-3 0L7.104 11.472a2.12 2.12 0 0 0 0 3l2.31 2.31a1.003 1.003 0 0 1-.173 1.56c-6.887 4.39-7.534 5.038-7.81 5.314a4.895 4.895 0 0 0 0 6.914 4.895 4.895 0 0 0 6.914 0c.276-.276.923-.923 5.314-7.811.165-.258.434-.426.739-.46a1 1 0 0 1 .82.287l2.312 2.311a2.12 2.12 0 0 0 2.999 0l10.85-10.85a2.12 2.12 0 0 0 0-3zm-12.35 12.35l-2.312-2.31a3.127 3.127 0 0 0-4.847.532c-1.946 3.053-4.398 6.824-5.026 7.452a2.768 2.768 0 1 1-3.915-3.915c.628-.628 4.4-3.08 7.452-5.026a3.128 3.128 0 0 0 .532-4.847l-2.31-2.311 1.685-1.686 10.426 10.427-1.686 1.685zm3.186-3.185L11.788 9.786l7.665-7.665 1.084 1.083-1.21 2.684a.241.241 0 0 0 .049.27l.002.002c.073.071.182.089.273.045l2.623-1.263 3.452 3.451-4.615 6.879a.241.241 0 0 0 .336.334l6.841-4.65 1.591 1.59-7.664 7.666zM5.5 28a1.5 1.5 0 1 1 0-3 1.5 1.5 0 0 1 0 3z"/>
</svg>
