<svg xmlns="http://www.w3.org/2000/svg" width="32" height="22" viewBox="0 0 32 22">
    <path fill="#000" fill-rule="evenodd" d="M19.938 1.994c.041 0 .062.032.062.094v3.957c0 .81.354 1.403 1.063 1.777.062.02.12.041.171.062l.157.062c.052.02.104.037.156.047l.156.031c.052.01.104.016.156.016H22c.208 0 .417-.026.625-.078.208-.052.396-.14.563-.265L30 3.864v14.24l-6.844-3.739A1.995 1.995 0 0 0 22 14.023h-.188a1.143 1.143 0 0 0-.375.062c-.062.02-.12.042-.171.062a.958.958 0 0 0-.172.094c-.125.062-.245.14-.36.233a2.212 2.212 0 0 0-.312.312 1.355 1.355 0 0 0-.219.374c-.052.135-.099.27-.14.405a1.529 1.529 0 0 0-.063.452v3.895c0 .021-.005.042-.016.062-.01.021-.026.032-.047.032H2.063L2 19.912V2.088c0-.021.005-.042.016-.062.01-.021.026-.032.046-.032h17.875zm11-.997c-.084 0-.172.01-.266.031-.094.021-.198.052-.313.094a.802.802 0 0 0-.297.187L22 6.045V2.088c0-.291-.052-.561-.156-.81a2.007 2.007 0 0 0-.438-.655 2.237 2.237 0 0 0-.656-.452A1.931 1.931 0 0 0 19.937 0H2.063C1.5 0 1.016.203.61.608.203 1.013 0 1.506 0 2.088v17.824c0 .582.203 1.075.61 1.48.406.405.89.608 1.453.608h17.875c.562 0 1.046-.203 1.453-.608.406-.405.609-.898.609-1.48v-3.895l8.219 4.768c.146.145.396.218.75.218a.898.898 0 0 0 .406-.094c.417-.166.625-.477.625-.935V2.057c0-.478-.208-.8-.625-.966a.969.969 0 0 0-.438-.094z"/>
</svg>
