<svg xmlns="http://www.w3.org/2000/svg" width="32" height="27" viewBox="0 0 32 27">
    <path fill="#222532" fill-rule="evenodd" d="M28.079 0c-2.162 0-3.921 1.789-3.921 3.987 0 1.212.535 2.3 1.378 3.032l-3.684 7.118a3.857 3.857 0 0 0-3.279.595l-2.804-2.572a4.008 4.008 0 0 0 .504-1.952c0-2.199-1.759-3.988-3.921-3.988s-3.921 1.79-3.921 3.988c0 1.061.411 2.026 1.078 2.741l-4.177 6.345a3.831 3.831 0 0 0-1.411-.269C1.759 19.025 0 20.815 0 23.013S1.759 27 3.921 27s3.921-1.789 3.921-3.987a4.008 4.008 0 0 0-1.078-2.742l4.177-6.344a3.855 3.855 0 0 0 3.672-.464l2.804 2.572a4.019 4.019 0 0 0-.504 1.952c0 2.199 1.759 3.987 3.921 3.987s3.921-1.788 3.921-3.987c0-1.212-.535-2.3-1.378-3.03l3.684-7.119a3.87 3.87 0 0 0 1.018.138c2.162 0 3.921-1.79 3.921-3.988S30.241.001 28.079.001V0zM3.921 25.246c-1.211 0-2.196-1.002-2.196-2.233 0-1.232.985-2.233 2.196-2.233 1.211 0 2.196 1.001 2.196 2.233 0 1.231-.985 2.233-2.196 2.233zm8.431-12.805c-1.211 0-2.196-1.002-2.196-2.233 0-1.232.985-2.233 2.196-2.233 1.211 0 2.196 1.001 2.196 2.233 0 1.231-.985 2.233-2.196 2.233zm6.285 5.547c0-1.231.985-2.233 2.196-2.233 1.211 0 2.196 1.002 2.196 2.233 0 1.232-.985 2.233-2.196 2.233-1.211 0-2.196-1.001-2.196-2.233zM28.079 6.22c-1.211 0-2.196-1.001-2.196-2.233 0-1.231.985-2.233 2.196-2.233 1.211 0 2.196 1.002 2.196 2.233 0 1.232-.985 2.233-2.196 2.233z"/>
</svg>
