<svg xmlns="http://www.w3.org/2000/svg" width="32" height="30" viewBox="0 0 32 30">
    <path fill="#172D4C" fill-rule="evenodd" d="M10 0C8.923 0 8 .938 8 2v6h2.06L10 2l20 .096V15h-2.949v2h2.89C31.078 17 32 16.062 32 14.904V2.096C32 .938 31.078 0 30 0H10zM2.146 10C.961 10 0 10.929 0 12.075v12.683C0 25.904.96 26.833 2.145 27h6.602l2.111 2.261c.858.986 2.428.984 3.283 0L16.252 27h6.602C24.491 27 25 25.223 25 24.758V12.075C25 10.929 24.04 10 22.854 10H2.145zM23 25h-8l-2.5 3-2.792-3H2.001V12h21v13zM5.093 17h13.815c.604 0 1.092-.448 1.092-1s-.49-1-1.092-1H5.093c-.603 0-1.092.448-1.092 1s.49 1 1.092 1zm.022 4h5.771c.616 0 1.115-.448 1.115-1s-.5-1-1.115-1h-5.77C4.498 19 4 19.448 4 20s.5 1 1.114 1z"/>
</svg>
