<svg xmlns="http://www.w3.org/2000/svg" width="52" height="52" viewBox="0 0 52 52">
    <g fill="none" fill-rule="evenodd">
        <path fill="#C2CDD7" d="M26.931 37.003c-.066.005-.139.004-.206.023-.534.15-.838.72-.686 1.252.152.532.7.834 1.236.683a.989.989 0 0 0 .686-1.23.994.994 0 0 0-1.03-.728zM18 14v24c0 1.102.897 2 2 2h13c1.109 0 2-.893 2-2V14c0-1.102-.897-2-2-2H20c-1.109 0-2 .893-2 2zm-1 0c0-1.657 1.336-3 3-3h13c1.657 0 3 1.347 3 3v24c0 1.657-1.336 3-3 3H20c-1.657 0-3-1.347-3-3V14zm1 21h17v1H18v-1z"/>
        <path fill="#95A6B8" d="M30 25l-6 4v-8z"/>
        <path fill="#C2CDD7" fill-rule="nonzero" d="M26 52C11.64 52 0 40.36 0 26S11.64 0 26 0s26 11.64 26 26-11.64 26-26 26zm0-2c13.255 0 24-10.745 24-24S39.255 2 26 2 2 12.745 2 26s10.745 24 24 24z"/>
    </g>
</svg>
