<svg xmlns="http://www.w3.org/2000/svg" width="52" height="52" viewBox="0 0 52 52">
    <g fill="#C2CDD7" fill-rule="evenodd">
        <path d="M15 33.93v-3.327l4.714-15.41h4.715v15.733h1.684v3.004h-1.684v3.876h-3.233V33.93H15zm2.896-3.004h3.3V19.975l-3.3 10.95zm16.602-2.488v5.201c0 .905-.438 1.324-1.38 1.324h-.81c-.942 0-1.38-.42-1.38-1.324V19.361c0-.905.438-1.324 1.38-1.324h.742c.909 0 1.347.42 1.347 1.324v3.456h3.536v-3.65c0-2.778-1.415-4.167-4.344-4.167h-1.886c-2.93 0-4.378 1.389-4.378 4.2v14.6c0 2.811 1.448 4.2 4.378 4.2h1.92C36.551 38 38 36.611 38 33.8v-8.334h-5.388v2.972h1.886z"/>
        <path fill-rule="nonzero" d="M26 52C11.64 52 0 40.36 0 26S11.64 0 26 0s26 11.64 26 26-11.64 26-26 26zm0-2c13.255 0 24-10.745 24-24S39.255 2 26 2 2 12.745 2 26s10.745 24 24 24z"/>
    </g>
</svg>
