<svg xmlns="http://www.w3.org/2000/svg" width="52" height="52" viewBox="0 0 52 52">
    <g fill="#C2CDD7" fill-rule="nonzero">
        <path d="M26 16c-3.072 0-5.815 1.357-7.716 3.5H16.3c-2.93 0-5.3 2.395-5.3 5.36v3.28c0 2.964 2.37 5.36 5.3 5.36h1.984C20.185 35.643 22.927 37 26 37c3.073 0 5.815-1.357 7.716-3.5H35.7c2.93 0 5.3-2.396 5.3-5.36v-3.28c0-2.965-2.37-5.36-5.3-5.36h-1.984C31.815 17.357 29.072 16 26 16zm4.147 4.667H35.7c2.29 0 4.146 1.877 4.146 4.192v3.282c0 2.315-1.856 4.192-4.146 4.192H23.692c1.616 0 2.308-1.877 2.308-4.192v-3.282c0-2.315 1.856-4.192 4.147-4.192zm-6.96 1.823c.55 0 1.01.434 1.01.948 0 .513-.461.911-1.01.911-.549 0-.973-.398-.973-.912a.96.96 0 0 1 .974-.947zm13.342 0a.96.96 0 0 0-.974.948c0 .512.425.911.974.911.549 0 1.01-.399 1.01-.912 0-.512-.461-.947-1.01-.947zm-23.005.437h1.911l.541 4.23.721-4.23h1.695l.721 4.23.54-4.23h1.876l-1.55 7.182h-1.695l-.758-4.411-.72 4.411H15.11l-1.587-7.182zm15.397 0v7.146h1.839v-2.188h3.461v-1.677H30.76v-1.567h3.858v-1.714H28.92zm-6.599 1.969h1.73v5.177h-1.73v-5.177zm13.341 0v5.177h1.731v-5.177h-1.73z"/>
        <path d="M26 52C11.64 52 0 40.36 0 26S11.64 0 26 0s26 11.64 26 26-11.64 26-26 26zm0-2c13.255 0 24-10.745 24-24S39.255 2 26 2 2 12.745 2 26s10.745 24 24 24z"/>
    </g>
</svg>
