<svg xmlns="http://www.w3.org/2000/svg" width="52" height="52" viewBox="0 0 52 52">
    <g fill="#C2CDD7" fill-rule="nonzero">
        <path d="M28.766 12.012c-.151.013-.301.033-.45.076l-10.554 3.045c-1.186.342-1.89 1.61-1.554 2.817l4.941 17.662c.01.06.03.117.056.171l.711 2.57a2.24 2.24 0 0 0 2.77 1.56l10.555-3.045c1.186-.342 1.89-1.61 1.554-2.817l-.693-2.474a.618.618 0 0 0-.112-.4L31.087 13.65a2.244 2.244 0 0 0-1.872-1.637 2.131 2.131 0 0 0-.45 0zm.093 1.199a1.05 1.05 0 0 1 1.086.78l4.772 17.13-12.576 3.615-4.772-17.129c-.16-.573.167-1.15.73-1.313l10.555-3.045c.07-.02.136-.033.205-.038zm5.54 4.054a.599.599 0 0 0-.416.29.618.618 0 0 0-.052.51l2.995 10.733a.598.598 0 1 0 1.016.254.622.622 0 0 0 .144-.596L35.09 17.722a.6.6 0 0 0-.636-.457H34.4zm3.387 1.922a.599.599 0 0 0-.416.29.618.618 0 0 0-.051.51l1.497 5.366c.06.211.226.373.436.426.21.052.43-.013.58-.171a.622.622 0 0 0 .144-.597l-1.497-5.367a.6.6 0 0 0-.636-.457h-.057zm-22.345 3.56a.592.592 0 0 0-.056.018.599.599 0 0 0-.407.283.618.618 0 0 0-.06.497L17.91 34.28c.06.21.227.373.436.425.21.052.431-.013.58-.171a.622.622 0 0 0 .145-.597l-2.995-10.734a.6.6 0 0 0-.636-.457zm-1.89 3.444a.592.592 0 0 0-.056.019.599.599 0 0 0-.407.283.618.618 0 0 0-.061.497l1.497 5.367c.06.211.226.373.436.426.21.052.43-.013.58-.172a.622.622 0 0 0 .144-.596l-1.497-5.367a.6.6 0 0 0-.636-.457zm21.503 6.11l.58 2.093c.16.573-.167 1.15-.73 1.313L24.35 38.752c-.563.163-1.131-.17-1.291-.742l-.58-2.094L35.054 32.3zm-5.914 2.53c-.054.005-.114.004-.168.02-.438.126-.686.601-.562 1.046a.812.812 0 0 0 1.01.571.83.83 0 0 0 .562-1.027.815.815 0 0 0-.842-.61z"/>
        <path d="M26 52C11.64 52 0 40.36 0 26S11.64 0 26 0s26 11.64 26 26-11.64 26-26 26zm0-2c13.255 0 24-10.745 24-24S39.255 2 26 2 2 12.745 2 26s10.745 24 24 24z"/>
    </g>
</svg>
