<svg xmlns="http://www.w3.org/2000/svg" width="52" height="52" viewBox="0 0 52 52">
    <g fill="#C2CDD7" fill-rule="evenodd">
        <path d="M21.769 33.639c0 .905-.438 1.324-1.381 1.324h-.572c-.943 0-1.381-.42-1.381-1.324v-3.392H15v3.586C15 36.643 16.448 38 19.344 38h1.616c2.93 0 4.378-1.389 4.378-4.2v-4.78c0-1.648-.606-2.52-2.02-2.908 1.246-.452 1.953-1.421 1.953-3.36V19.2c0-2.81-1.448-4.199-4.378-4.199h-1.448c-2.93 0-4.378 1.389-4.378 4.2v3.133h3.435V19.36c0-.905.438-1.324 1.347-1.324h.539c.876 0 1.313.42 1.313 1.324v4.102c0 .873-.437 1.293-1.313 1.293h-3.064v3.1h3.131c.876 0 1.314.42 1.314 1.325v4.458zm12.729-5.2v5.2c0 .905-.438 1.324-1.38 1.324h-.81c-.942 0-1.38-.42-1.38-1.324V19.361c0-.905.438-1.324 1.38-1.324h.742c.909 0 1.347.42 1.347 1.324v3.456h3.536v-3.65c0-2.778-1.415-4.167-4.344-4.167h-1.886c-2.93 0-4.378 1.389-4.378 4.2v14.6c0 2.811 1.448 4.2 4.378 4.2h1.92C36.551 38 38 36.611 38 33.8v-8.334h-5.388v2.972h1.886z"/>
        <path fill-rule="nonzero" d="M26 52C11.64 52 0 40.36 0 26S11.64 0 26 0s26 11.64 26 26-11.64 26-26 26zm0-2c13.255 0 24-10.745 24-24S39.255 2 26 2 2 12.745 2 26s10.745 24 24 24z"/>
    </g>
</svg>
