<svg xmlns="http://www.w3.org/2000/svg" width="32" height="32" viewBox="0 0 32 32">
    <g fill="none" fill-rule="evenodd">
        <circle cx="16.333" cy="16.333" r="13.333" fill="#FFF" class="inner"/>
        <path fill="#C2CDD7" class="background" d="M23.938 20.708c0-.354-.146-.687-.396-.937L19.77 16l3.77-3.77c.25-.25.396-.584.396-.938s-.145-.709-.395-.959l-1.875-1.875a1.374 1.374 0 0 0-.959-.396c-.354 0-.687.146-.937.396L16 12.23l-3.77-3.77a1.325 1.325 0 0 0-.938-.396c-.354 0-.709.145-.959.395l-1.875 1.875c-.25.25-.396.604-.396.959 0 .354.146.687.396.937L12.23 16l-3.77 3.77c-.25.25-.396.584-.396.938 0 .355.145.709.395.959l1.875 1.875c.25.25.604.395.959.395.354 0 .687-.145.937-.395L16 19.77l3.77 3.77c.25.25.584.396.938.396.355 0 .709-.145.959-.395l1.875-1.875c.25-.25.395-.605.395-.959zM32 16c0 8.833-7.167 16-16 16S0 24.833 0 16 7.167 0 16 0s16 7.167 16 16z"/>
    </g>
</svg>
