<svg xmlns="http://www.w3.org/2000/svg" width="35" height="20" viewBox="0 0 35 20">
    <path fill="#172D4C" fill-rule="evenodd" d="M11.305 1.664a.643.643 0 0 1-.195.46L3.477 10l7.633 7.876a.643.643 0 0 1 0 .922L10.14 19.8a.605.605 0 0 1-.447.2.604.604 0 0 1-.447-.2L.195 10.46a.643.643 0 0 1 0-.922L9.244.201c.13-.134.279-.2.447-.2.169 0 .318.066.447.2l.971 1.002c.13.133.195.287.195.46zm23.5 7.875a.643.643 0 0 1 0 .922l-9.05 9.339a.605.605 0 0 1-.447.2.605.605 0 0 1-.447-.2l-.97-1.002a.643.643 0 0 1 0-.922L31.523 10 23.89 2.124a.643.643 0 0 1 0-.921L24.861.2c.13-.134.278-.201.447-.201.168 0 .317.067.446.2l9.052 9.34z"/>
</svg>
