<svg xmlns="http://www.w3.org/2000/svg" width="37" height="52" viewBox="0 0 37 52">
    <g fill="#95A6B8" fill-rule="evenodd">
        <path d="M17.702 15.688c.032.03.074.042.11.068a1.155 1.155 0 0 0 .665.24c.008 0 .015.004.023.004l.007-.001.014.001c.37 0 .694-.17.9-.428l3.248-3.072a1.027 1.027 0 0 0 0-1.51 1.174 1.174 0 0 0-1.596 0l-1.423 1.345V7.068c0-.59-.505-1.068-1.129-1.068-.623 0-1.128.478-1.128 1.068v5.308l-1.466-1.386a1.174 1.174 0 0 0-1.596 0 1.027 1.027 0 0 0 0 1.51l3.371 3.188zM34.517 40.7l-15.1 8.427-.023-10.183 15.123-8.285V40.7zM19.393 21.06l13.992 7.793-13.992 7.667V21.06zM2.134 40.699V30.66l15.126 8.286.022 10.18L2.134 40.7zm15.124-19.64v15.46L3.267 28.853l13.991-7.794zm19.389 7.77a1.068 1.068 0 0 0-.029-.214c-.002-.012-.002-.024-.006-.035a1.018 1.018 0 0 0-.093-.225c-.01-.02-.024-.037-.036-.057a1.077 1.077 0 0 0-.11-.146c-.018-.019-.035-.038-.054-.056a1.093 1.093 0 0 0-.155-.121c-.013-.009-.024-.02-.036-.029-.004-.002-.008-.002-.012-.005l-.011-.007-17.24-9.604-.018-.01a1.128 1.128 0 0 0-.22-.09c-.025-.008-.049-.01-.074-.016a1.016 1.016 0 0 0-.44-.004c-.02.005-.042.006-.064.012-.079.02-.155.052-.227.091l-.017.006L.546 27.934l-.011.008c-.004.002-.008.002-.01.004-.014.008-.022.02-.034.027a1.15 1.15 0 0 0-.16.124c-.018.017-.034.036-.052.054-.041.047-.08.096-.111.147-.012.02-.025.037-.036.056-.039.073-.072.148-.094.227l-.005.033c-.017.07-.026.142-.029.214 0 .012-.004.022-.004.033v12.462c0 .386.21.74.547.927l17.286 9.615c.012.007.025.009.037.015.056.028.114.05.174.07.021.006.042.014.063.019.08.019.162.03.246.03h.003c.084 0 .165-.011.243-.03l.067-.02c.06-.018.116-.042.171-.07.012-.006.026-.007.039-.014l17.23-9.615c.337-.188.545-.542.545-.927V28.861c0-.01-.004-.021-.004-.033zM18.719 4.695a1 1 0 1 0-1.436-1.39 1 1 0 0 0 1.436 1.39M18.719 1.695a1 1 0 1 0-1.436-1.39 1 1 0 0 0 1.436 1.39"/>
    </g>
</svg>
