<svg xmlns="http://www.w3.org/2000/svg" width="32" height="28" viewBox="0 0 32 28">
    <path fill="#000" fill-rule="evenodd" d="M12.542 11.386L13.8 9.622 9.556 3.72H0v2.053h8.519l4.023 5.613zm16.252-5.613l-2.452 2.245a.85.85 0 0 0-.252.514.657.657 0 0 0 .158.513l.188.256a.72.72 0 0 0 .535.225.72.72 0 0 0 .534-.225l3.992-3.688h.016c.01 0 .015-.01.015-.032l.252-.257a.63.63 0 0 0 .22-.497.731.731 0 0 0-.22-.53l-.252-.256h-.031V4.01L27.442.225a1.368 1.368 0 0 0-.267-.16.68.68 0 0 0-.283-.065.772.772 0 0 0-.519.225l-.188.256a.657.657 0 0 0-.157.513.85.85 0 0 0 .251.513l2.389 2.213h-7.261L8.519 22.195H0v2.052h9.556L22.444 5.773h6.35zm2.734 16.742h-.031v-.032L27.442 18.7a1.106 1.106 0 0 0-.346-.193.618.618 0 0 0-.393 0 .779.779 0 0 0-.33.193l-.188.256a.579.579 0 0 0-.157.321.702.702 0 0 0 .047.385c.052.128.12.235.204.32l2.42 2.246-6.255-.032-3.615-5.677-1.226 1.796 3.804 5.933 7.355.033-2.42 2.213a.85.85 0 0 0-.252.513.657.657 0 0 0 .158.513l.188.256a.48.48 0 0 0 .236.177.874.874 0 0 0 .566 0 .686.686 0 0 0 .267-.177l3.992-3.688h.016c.01 0 .015-.01.015-.032l.252-.257a.63.63 0 0 0 .22-.497.731.731 0 0 0-.22-.529l-.252-.257z"/>
</svg>
