<svg xmlns="http://www.w3.org/2000/svg" width="32" height="30" viewBox="0 0 32 30">
    <path fill="#172D4C" fill-rule="evenodd" d="M15.999 0c-2.213 0-4.29.426-6.23 1.276A16.348 16.348 0 0 0 4.68 4.743a16.243 16.243 0 0 0-3.429 5.12C.418 11.817 0 13.907 0 16.134c0 1.387.167 2.737.5 4.05a15.804 15.804 0 0 0 1.472 3.734 16.3 16.3 0 0 0 2.364 3.261 15.324 15.324 0 0 0 3.178 2.6c.23.147.48.19.752.126a.974.974 0 0 0 .626-.441.96.96 0 0 0 .125-.757.98.98 0 0 0-.438-.63 14.456 14.456 0 0 1-4.195-4.065l1.064-.63a.918.918 0 0 0 .454-.6.916.916 0 0 0-.11-.756.897.897 0 0 0-.595-.488.9.9 0 0 0-.751.11l-1.065.599a13.669 13.669 0 0 1-.908-2.474c-.23-.872-.375-1.76-.438-2.663H3.13c.292 0 .532-.1.72-.3a1 1 0 0 0 .281-.708.999.999 0 0 0-.281-.71.945.945 0 0 0-.72-.298H2.035a13.58 13.58 0 0 1 .454-2.695c.24-.871.558-1.707.955-2.505l1.002.6c.063.041.14.073.235.094a1.016 1.016 0 0 0 .751-.094.838.838 0 0 0 .36-.378.915.915 0 0 0 .11-.757.923.923 0 0 0-.454-.599l-1.002-.599c.501-.735 1.065-1.417 1.691-2.048a13.524 13.524 0 0 1 2.067-1.702l.563.977a.843.843 0 0 0 .36.378 1.072 1.072 0 0 0 .767.095c.084-.021.167-.053.251-.095.23-.146.381-.351.454-.614a.968.968 0 0 0-.11-.772l-.563-.977a12.923 12.923 0 0 1 2.427-.898 16.41 16.41 0 0 1 2.614-.458v1.26c0 .295.1.537.298.726.198.189.433.283.704.283a.972.972 0 0 0 .72-.283.985.985 0 0 0 .282-.725v-1.26c.918.063 1.81.215 2.677.457.866.241 1.696.551 2.489.93l-.564.945c-.125.252-.151.509-.079.772.073.263.225.467.455.614.083.043.167.074.25.095a1.016 1.016 0 0 0 .736-.094 1.04 1.04 0 0 0 .392-.379l.532-.945a14.356 14.356 0 0 1 3.726 3.75l-.94.567a.852.852 0 0 0-.469.6c-.062.273-.031.524.094.756.104.168.235.293.391.378a1.01 1.01 0 0 0 .736.094c.084-.021.167-.053.25-.095l.94-.535c.376.777.683 1.601.924 2.474.24.872.391 1.77.454 2.694h-1.096c-.272 0-.506.1-.704.299a.972.972 0 0 0-.298.709c0 .273.1.51.298.709.198.2.433.299.704.299h1.096c-.063.903-.204 1.78-.423 2.631-.22.852-.517 1.665-.892 2.443l-1.002-.567a.951.951 0 0 0-.768-.11 1.005 1.005 0 0 0-.61.488 1.046 1.046 0 0 0-.094.756c.063.273.22.473.47.599l1.002.599c-.564.82-1.206 1.58-1.926 2.285a14.007 14.007 0 0 1-2.395 1.875.973.973 0 0 0-.439.614c-.062.263-.02.52.126.773a.885.885 0 0 0 .36.346c.156.084.318.126.485.126.083 0 .172-.01.266-.032a.694.694 0 0 0 .266-.125 15.682 15.682 0 0 0 3.194-2.6 16.466 16.466 0 0 0 2.395-3.262 15.828 15.828 0 0 0 1.503-3.75c.345-1.324.517-2.7.517-4.128 0-2.206-.418-4.286-1.252-6.24a16.243 16.243 0 0 0-3.429-5.12 16.348 16.348 0 0 0-5.087-3.467C20.29.426 18.214 0 16 0h-.002zm6.997 12.87a.942.942 0 0 0 .473-.61c.062-.26.031-.516-.095-.766a1.035 1.035 0 0 0-.615-.454 1.052 1.052 0 0 0-.773.079l-5.489 3.159a2.53 2.53 0 0 0-.458-.203 1.948 1.948 0 0 0-1.94.516c-.4.396-.599.865-.599 1.407s.2 1.012.6 1.408c.4.395.872.594 1.419.594s1.02-.198 1.42-.594c.399-.397.599-.866.599-1.408l5.458-3.128z"/>
</svg>
