<svg xmlns="http://www.w3.org/2000/svg" width="33" height="23" viewBox="0 0 33 23">
    <path fill="#172D4C" fill-rule="evenodd" d="M31.969 16.727h-1.032v-.065c0-1.046-.107-2.07-.322-3.071a14.113 14.113 0 0 0-.934-2.859 15.466 15.466 0 0 0-1.467-2.564 14.394 14.394 0 0 0-1.917-2.206 14.98 14.98 0 0 0-2.32-1.78h5.188c.172.327.419.582.741.768.323.185.666.277 1.032.277a1.98 1.98 0 0 0 1.466-.604C32.8 4.22 33 3.724 33 3.136c0-.588-.199-1.083-.596-1.486a1.98 1.98 0 0 0-1.467-.605c-.773 0-1.364.349-1.772 1.046h-9.571V1.045c0-.283-.102-.528-.306-.735a.984.984 0 0 0-.726-.31h-4.125a.984.984 0 0 0-.725.31 1.012 1.012 0 0 0-.306.735v1.046H3.835c-.408-.697-1-1.046-1.772-1.046a1.98 1.98 0 0 0-1.467.605C.2 2.053 0 2.548 0 3.136S.199 4.22.596 4.623a1.98 1.98 0 0 0 1.466.604c.774 0 1.365-.348 1.773-1.045h5.188C6.896 5.489 5.205 7.247 3.948 9.458c-1.257 2.21-1.885 4.612-1.885 7.204v.065H1.03a.984.984 0 0 0-.725.31 1.012 1.012 0 0 0-.306.736v4.182c0 .283.102.528.306.735.204.207.446.31.725.31h4.125c.28 0 .521-.103.725-.31.204-.207.306-.452.306-.735v-4.182c0-.283-.102-.528-.306-.735a.984.984 0 0 0-.725-.31H4.125v-.066c0-2.875.875-5.44 2.626-7.694 1.751-2.254 3.97-3.73 6.655-4.427v.686c0 .283.102.528.306.735.205.207.446.31.726.31h4.124c.28 0 .521-.103.726-.31.204-.207.306-.452.306-.735v-.686c1.31.349 2.54.904 3.69 1.666a12.252 12.252 0 0 1 2.948 2.728 12.785 12.785 0 0 1 1.934 3.594c.473 1.34.709 2.717.709 4.133v.065h-1.031a.984.984 0 0 0-.725.31 1.012 1.012 0 0 0-.306.736v4.182c0 .283.102.528.306.735.204.207.445.31.725.31h4.125c.279 0 .52-.103.725-.31.204-.207.306-.452.306-.735v-4.182a.955.955 0 0 0-.145-.523 1.228 1.228 0 0 0-.37-.376.923.923 0 0 0-.516-.147zM4.125 20.91H2.062v-2.09h2.063v2.09zM17.531 4.182H15.47V2.09h2.062v2.09zm13.407 16.727h-2.063v-2.09h2.063v2.09z"/>
</svg>
