<svg xmlns="http://www.w3.org/2000/svg" width="32" height="32" viewBox="0 0 32 32">
    <path fill="#172D4C" fill-rule="evenodd" d="M31.851 9.219L27.476.875c-.125-.25-.333-.458-.625-.625-.292-.167-.573-.25-.844-.25H6.005c-.27 0-.552.083-.844.25-.292.167-.5.375-.625.625L.161 9.062c-.125.25-.177.542-.157.875.02.334.115.605.281.813l15.002 20.937a.845.845 0 0 0 .28.235.694.694 0 0 0 .313.078.69.69 0 0 0 .313-.078.85.85 0 0 0 .28-.235l15.252-20.75c.146-.228.234-.51.266-.843a1.594 1.594 0 0 0-.14-.875zM29.444 9H24.1l2.156-6.157 3.188 6.157zM17.975 2h6.438l-2 5.718-4.438-5.718zm2.907 7H11.6l4.375-6.313 4.907 6.313zM9.818 8.03l-2-6.03h6.219l-4.22 6.03h.001zm11.47 2.97l-5.376 15.374L10.787 11h10.5zm-7.626 14.968L2.912 11h5.78l4.97 14.969zM23.413 11h5.781L18.163 26l5.25-15zM5.88 2.563L8.037 9H2.474L5.88 2.563z"/>
</svg>
