<svg xmlns="http://www.w3.org/2000/svg" width="31" height="31" viewBox="0 0 31 31">
    <path fill="#222532" fill-rule="evenodd" d="M11.869 16.714l2.922 3.012V1.296C14.79.583 15.367 0 16.075 0c.709 0 1.285.582 1.285 1.297v18.429l2.898-3.012a1.276 1.276 0 0 1 1.816-.025c.506.493.52 1.316.025 1.828l-5.112 5.302c-.24.253-.575.392-.924.392-.348 0-.683-.139-.924-.392l-5.112-5.302a1.29 1.29 0 0 1 .026-1.828 1.276 1.276 0 0 1 1.816.025zm16.847 1.12A7.699 7.699 0 0 1 31 23.314C31 27.553 27.572 31 23.358 31H7.642C3.43 31 0 27.552 0 23.313a7.693 7.693 0 0 1 3.84-6.674 7.43 7.43 0 0 1-.082-1.12c0-4.239 3.43-7.686 7.643-7.686.715 0 1.29.582 1.29 1.303 0 .72-.575 1.302-1.29 1.302-2.784 0-5.055 2.284-5.055 5.087 0 .5.076.993.215 1.468a1.297 1.297 0 0 1-.765 1.582 5.063 5.063 0 0 0-3.208 4.738c0 2.803 2.266 5.087 5.055 5.087H23.36c2.783 0 5.055-2.284 5.055-5.087 0-1.493-.652-2.91-1.791-3.878a1.299 1.299 0 0 1-.455-.95c-.083-2.765-2.303-4.928-5.056-4.928-.714 0-1.29-.582-1.29-1.303 0-.72.576-1.303 1.29-1.303 1.999 0 3.89.773 5.327 2.177a7.634 7.634 0 0 1 2.277 4.707z"/>
</svg>
