<svg xmlns="http://www.w3.org/2000/svg" width="13" height="32" viewBox="0 0 13 32">
    <path fill="#222532" fill-rule="evenodd" d="M.756 17.749C.253 17.244 0 16.663 0 16.005c0-.659.252-1.241.756-1.744.504-.503 1.086-.756 1.744-.756.658 0 1.24.252 1.744.756.503.504.756 1.085.756 1.744 0 .658-.252 1.24-.756 1.744-.504.503-1.086.756-1.744.756-.658 0-1.24-.252-1.744-.756zM2.5 11.752c-.658 0-1.24-.252-1.744-.756C.253 10.492 0 9.911 0 9.252c0-.658.252-1.24.756-1.743.504-.503 1.086-.757 1.744-.757.658 0 1.24.252 1.744.757.503.504.756 1.085.756 1.743 0 .659-.252 1.241-.756 1.744-.504.503-1.086.756-1.744.756zM2.5 5c-.658 0-1.24-.252-1.744-.756C.253 3.74 0 3.158 0 2.5 0 1.842.252 1.26.756.756 1.26.253 1.842 0 2.5 0c.658 0 1.24.252 1.744.756C4.747 1.26 5 1.842 5 2.5c0 .658-.252 1.24-.756 1.744C3.74 4.747 3.158 5 2.5 5zm0 15.257c.658 0 1.24.252 1.744.756.503.505.756 1.086.756 1.744 0 .659-.252 1.24-.756 1.744-.504.503-1.086.756-1.744.756-.658 0-1.24-.252-1.744-.756C.253 23.997 0 23.416 0 22.757c0-.658.252-1.24.756-1.744.504-.503 1.086-.756 1.744-.756zM2.5 27c.658 0 1.24.252 1.744.756.503.504.756 1.086.756 1.744 0 .658-.252 1.24-.756 1.744C3.74 31.747 3.158 32 2.5 32c-.658 0-1.24-.252-1.744-.756C.253 30.74 0 30.158 0 29.5c0-.658.252-1.24.756-1.744C1.26 27.253 1.842 27 2.5 27zm6.256-9.251C8.253 17.244 8 16.663 8 16.005c0-.659.252-1.241.756-1.744.504-.503 1.086-.756 1.744-.756.658 0 1.24.252 1.744.756.503.504.756 1.085.756 1.744 0 .658-.252 1.24-.756 1.744-.504.503-1.086.756-1.744.756-.658 0-1.24-.252-1.744-.756zm1.744-5.997c-.658 0-1.24-.252-1.744-.756C8.253 10.492 8 9.911 8 9.252c0-.658.252-1.24.756-1.743.504-.503 1.086-.757 1.744-.757.658 0 1.24.252 1.744.757.503.504.756 1.085.756 1.743 0 .659-.252 1.241-.756 1.744-.504.503-1.086.756-1.744.756zM10.5 5c-.658 0-1.24-.252-1.744-.756C8.253 3.74 8 3.158 8 2.5c0-.658.252-1.24.756-1.744C9.26.253 9.842 0 10.5 0c.658 0 1.24.252 1.744.756.503.504.756 1.086.756 1.744 0 .658-.252 1.24-.756 1.744C11.74 4.747 11.158 5 10.5 5zm0 15.257c.658 0 1.24.252 1.744.756.503.505.756 1.086.756 1.744 0 .659-.252 1.24-.756 1.744-.504.503-1.086.756-1.744.756-.658 0-1.24-.252-1.744-.756C8.253 23.997 8 23.416 8 22.757c0-.658.252-1.24.756-1.744.504-.503 1.086-.756 1.744-.756zm0 6.743c.658 0 1.24.252 1.744.756.503.504.756 1.086.756 1.744 0 .658-.252 1.24-.756 1.744-.504.503-1.086.756-1.744.756-.658 0-1.24-.252-1.744-.756C8.253 30.74 8 30.158 8 29.5c0-.658.252-1.24.756-1.744C9.26 27.253 9.842 27 10.5 27z"/>
</svg>
