<svg xmlns="http://www.w3.org/2000/svg" width="31" height="32" viewBox="0 0 31 32">
    <path fill="#222532" fill-rule="evenodd" d="M30.034 3.538h-2.623V.952A.959.959 0 0 0 26.445 0H.965A.959.959 0 0 0 0 .952V27.51c0 .526.432.952.966.952h2.623v2.586c0 .526.432.952.966.952h25.48a.959.959 0 0 0 .965-.952V4.49a.959.959 0 0 0-.966-.952zM3.872 14.151a.945.945 0 0 0-.283.673v11.733H1.932V1.904h23.546v1.634h-10.44c-.256 0-.502.1-.682.28L3.872 14.15zm10.2-7.362v7.083H6.889l7.185-7.082zm14.996 23.306H5.522V15.776h9.517a.959.959 0 0 0 .966-.952V5.442h13.063v24.653z"/>
</svg>
