<svg xmlns="http://www.w3.org/2000/svg" width="32" height="32" viewBox="0 0 32 32">
    <path fill="#172D4C" fill-rule="evenodd" d="M31.969 14.783a2.233 2.233 0 0 0-.125-.5 1.49 1.49 0 0 0-.25-.438l-.031-.031a1.293 1.293 0 0 0-.156-.188l-.188-.188L26 8.188v-3.22a.96.96 0 0 0-.297-.702.96.96 0 0 0-.703-.297h-3.156L18.188.844C17.625.281 16.917 0 16.063 0c-.854 0-1.563.281-2.125.844l-3.625 3.125H7a.96.96 0 0 0-.703.297.96.96 0 0 0-.297.703v3.28L.906 13.345c-.271.188-.49.427-.656.719-.166.292-.25.615-.25.969V30c0 .563.198 1.036.594 1.422C.99 31.808 1.459 32 2 32h28c.542 0 1.01-.193 1.406-.578.396-.385.594-.859.594-1.422V14.923a.31.31 0 0 0-.031-.141zM8.406 22.689L2 28.627V17.033l6.406 5.656zm1.938.937a2.33 2.33 0 0 0 .172-.125 2.41 2.41 0 0 0 .172-.156.533.533 0 0 0 .063-.078c.021-.03.042-.068.063-.109l4.313-4a1.35 1.35 0 0 1 .359-.203 1.165 1.165 0 0 1 .844 0c.136.052.245.11.328.172l12 10.875H3.439l6.906-6.375h-.001zm13.344-.812l6.313-5.594v11.281l-6.313-5.688v.001zm4.375-9.781h-.031l1.719 1.719-3.75 3.343v-7.124l2.063 2.063-.001-.001zM15.344 2.252a1.43 1.43 0 0 1 .344-.203.97.97 0 0 1 .375-.078.97.97 0 0 1 .375.078c.125.052.24.12.344.203l2 1.719h-5.438l2-1.72zM24 5.97v13.905l-1.781 1.594-4.281-3.875a3.245 3.245 0 0 0-2.016-.703c-.761-.01-1.453.234-2.078.734l-3.969 3.688L8 19.658V5.971h16zM3.25 13.846L6 11.096v6.78l-3.656-3.218.844-.813h.063-.001z"/>
</svg>
