<svg xmlns="http://www.w3.org/2000/svg" width="69" height="90" viewBox="0 0 69 90">
    <g fill="none" fill-rule="evenodd">
        <g fill-rule="nonzero">
            <path class="wallet-background" fill="#C2CDD7" d="M39 22.5c-1.657 0-3 1.343-3 3s1.343 3 3 3 3-1.343 3-3-1.343-3-3-3zM40.5 0H6C2.686 0 0 2.686 0 6c0 1.657 1.343 3 3 3h4.5C6.672 9 6 8.328 6 7.5S6.672 6 7.5 6h36c.828 0 1.5-.672 1.5-1.5C45 2.015 42.985 0 40.5 0z" transform="translate(0 -6) translate(0 54)"/>
            <path class="wallet-front" fill="#E1E6EB" d="M43.237 9H3C1.343 9 0 7.657 0 6v30c0 3.314 2.686 6 6 6h37.237C45.862 42 48 39.982 48 37.5v-24c0-2.482-2.136-4.5-4.763-4.5zM39 28.5c-1.657 0-3-1.343-3-3s1.343-3 3-3 3 1.343 3 3-1.343 3-3 3z" transform="translate(0 -6) translate(0 54)"/>
        </g>
        <g>
            <path class="wallet-bug-path" stroke="#C2CDD7" stroke-dasharray="6 4" d="M24.437 54.894c4.01-10.08 3.058-16.375-2.86-18.886-8.875-3.768-14.024-7.88-9.351-18.889" transform="translate(0 -6) rotate(25 25.404 114.703)"/>
            <path class="wallet-bug" fill="#C2CDD7" d="M22.17 9.441c-.007-.148-.137-.266-.288-.262l-1.847.04-1.734-.918-1.067.076c.012-.033.024-.066.034-.1.072-.236.094-.476.072-.709l1.804-1.282.307-1.35 1.55-.96c.127-.08.163-.245.079-.37-.084-.126-.255-.164-.383-.084l-1.738 1.075-.311 1.37L17.194 7c-.08-.187-.191-.36-.328-.515.418-.02.793-.288.919-.699.161-.53-.152-1.095-.7-1.262-.192-.059-.388-.06-.567-.016l.305-.996c.021-.071-.02-.147-.094-.169-.073-.022-.15.017-.171.088l-.305.996c-.124-.137-.287-.245-.478-.304-.548-.167-1.124.126-1.286.656-.125.41.036.842.37 1.093-.2.052-.388.133-.56.243l-.626-1.67.507-1.309-.839-1.863c-.062-.138-.225-.203-.365-.145-.14.057-.203.214-.142.352l.749 1.662-.5 1.29.777 2.072c-.148.181-.264.392-.336.628-.01.034-.02.069-.028.102l-.842-.66-1.95-.208L9.195 5.3c-.124-.088-.297-.063-.385.057-.089.12-.06.288.065.375l1.63 1.152 1.936.208.484.379c-.612.042-1.277.167-1.953.383-2.264.72-3.793 2.167-3.415 3.231.258.724 1.328 1.085 2.698 1.016l-.14.46-2.144 1.135c-.132.07-.18.234-.104.365.037.063.096.107.162.128.07.02.147.016.215-.02l2.338-1.237.27-.886c.478-.063.98-.174 1.49-.336l.087-.03c-.016.04-.03.081-.044.123-.11.363-.083.736.051 1.065-.067.61.323 1.21.953 1.402.63.192 1.287-.086 1.573-.63.296-.197.528-.491.638-.854.013-.042.024-.084.032-.126.02.024.038.05.056.073.331.42.687.792 1.047 1.111l-.27.886 1.246 2.334c.036.067.097.114.166.136.067.02.141.017.207-.015.135-.067.188-.228.117-.362l-1.142-2.138.14-.461c1.098.823 2.188 1.123 2.805.667.91-.671.45-2.726-1.024-4.589-.44-.557-.921-1.032-1.404-1.41l.613-.043 1.72.91 1.995-.043c.153-.003.271-.126.265-.275" transform="translate(0 -6) rotate(25 25.404 114.703)"/>
        </g>
    </g>
</svg>
