<svg viewBox="0 0 40 31" xmlns="http://www.w3.org/2000/svg"><path d="M24.8 8.487c-2.74-1.55-7.168-1.55-9.893 0-2.725 1.55-2.71 4.068.032 5.618 2.74 1.55 7.17 1.55 9.894 0 2.725-1.557 2.71-4.068-.033-5.618zm-1.256 2.44c-.235.07-.47.15-.705.222-.147.04-.237.047-.3.015a.429.429 0 0 1-.1-.103c-.153-.247-.388-.46-.704-.636-.04-.024-.09-.048-.138-.072a1.414 1.414 0 0 0-.333-.127c-.454-.103-.86.064-.803.342.025.142.106.27.203.404.162.223.34.445.454.684.38.746-.447 1.485-1.777 1.557a3.794 3.794 0 0 1-1.354-.167c-.188-.056-.326-.056-.464.04-.137.087-.292.167-.438.246a.392.392 0 0 1-.397.008c-.096-.048-.185-.103-.283-.15-.065-.04-.13-.072-.194-.112-.138-.08-.122-.16.008-.24.106-.062.212-.118.31-.18.234-.136.234-.144.04-.295-.244-.19-.463-.39-.6-.612-.106-.175-.082-.215.202-.31.21-.064.414-.135.625-.2.154-.046.243-.054.308-.022.04.024.065.056.097.112.138.254.373.477.657.69.048.04.104.073.153.104.154.088.333.15.535.2.527.118.998-.088.95-.414a.741.741 0 0 0-.147-.31c-.177-.262-.412-.51-.534-.787-.195-.445-.105-.85.52-1.168.713-.357 1.508-.38 2.35-.16.35.097.342.097.61-.054.088-.056.178-.104.267-.15.203-.112.276-.112.478 0 .066.03.123.07.188.102.43.238.43.238.008.485-.3.167-.3.167-.05.365.196.15.35.31.464.485.09.087.056.16-.106.207zm4.915 5.228c-.755.43-1.98.43-2.742 0-.754-.43-.763-1.128-.008-1.557.754-.43 1.98-.43 2.74 0 .763.43.77 1.128.01 1.557zM14.022 7.987c-.754.43-1.98.43-2.74 0-.764-.43-.764-1.13-.01-1.558.755-.43 1.98-.43 2.742 0 .754.428.762 1.128.008 1.557zm24.696 4.84L17.104.596c-1.25-.707-3.277-.707-4.518 0L.997 7.192c-1.24.707-1.232 1.86.017 2.567l21.614 12.227c1.25.707 3.276.707 4.517 0l11.582-6.595c1.25-.707 1.24-1.86-.008-2.566zm-11.34 6.832a2.729 2.729 0 0 0-.494-.36c-1.266-.714-3.317-.714-4.575 0a3.826 3.826 0 0 0-.266.176L5.264 9.98c.162-.063.316-.134.462-.214 1.257-.715 1.25-1.875-.016-2.59a2.743 2.743 0 0 0-.438-.206l6.918-3.942c.105.088.227.167.365.247 1.265.715 3.317.715 4.574 0 .145-.08.267-.167.38-.262l16.837 9.52c-.227.078-.43.165-.624.277-1.257.715-1.257 1.883.016 2.598.193.11.412.2.64.278l-7 3.973zM.446 12.205c.552-.278 1.403-.24 1.93.063l22.596 12.776 12.214-6.96c.527-.302 1.395-.302 1.93 0 .535.302.535.794.008 1.096L26.14 26.57c-.633.365-1.67.365-2.312 0l-.454-.254-.316-.183L.406 13.325c-.552-.31-.544-.825.04-1.12zM39.14 23.18l-12.984 7.39c-.633.364-1.67.364-2.312 0l-.446-.256-.324-.182L.422 17.322c-.552-.31-.535-.825.05-1.12.542-.278 1.402-.238 1.93.064l22.586 12.777 12.214-6.953c.535-.302 1.395-.302 1.93 0 .535.294.544.787.008 1.09z" fill="#678099" fill-rule="evenodd"/></svg>
