<svg xmlns="http://www.w3.org/2000/svg" width="22" height="22" viewBox="0 0 22 22">
    <path fill="#678099" fill-rule="nonzero" d="M13.292 0A2.308 2.308 0 0 0 11 2.292c0 .762.451 1.328 1.031 1.747L9.797 7.82a4.62 4.62 0 0 0-.63 2.35v.2a4.76 4.76 0 0 0-2.149-.143c-.594-1.701-1.862-2.693-1.862-2.693L4.01 8.966s.548.433.974 1.146a3.97 3.97 0 0 0-.744.057 4.791 4.791 0 0 0-2.178 1.032C.8 12.246 0 13.96 0 16.04 0 19.369 2.925 22 6.417 22c1.26 0 2.435-.347 3.437-.945a2.753 2.753 0 0 0 2.063.945h7.333A2.765 2.765 0 0 0 22 19.25v-9.08a4.62 4.62 0 0 0-.63-2.35l-2.235-3.78c.58-.42 1.032-.986 1.032-1.748A2.308 2.308 0 0 0 17.875 0h-4.583zm0 1.833h4.583c.261 0 .458.197.458.459a.448.448 0 0 1-.458.458h-.917v1.26l.115.23 2.721 4.526c.25.426.373.91.373 1.403v9.081a.9.9 0 0 1-.917.917h-7.333a.913.913 0 0 1-.63-.258c.956-1.035 1.546-2.385 1.546-3.867 0-1.92-.709-3.52-1.833-4.584V10.17c0-.494.122-.977.372-1.403l2.722-4.526.114-.23V2.75h-.916a.448.448 0 0 1-.459-.458c0-.262.197-.459.459-.459zM4.927 11.917c.383-.022.791.035 1.203.172l.287.114.286-.114c1.078-.37 2.088-.13 2.893.544.806.673 1.404 1.819 1.404 3.409 0 2.245-1.998 4.125-4.583 4.125-2.586 0-4.584-1.88-4.584-4.125 0-1.626.577-2.779 1.375-3.438.398-.33.856-.54 1.347-.63.121-.022.243-.05.372-.057z"/>
</svg>
