<svg xmlns="http://www.w3.org/2000/svg" width="26" height="32" viewBox="0 0 26 32">
    <path fill="#172D4C" fill-rule="evenodd" d="M13 0c-2.354 0-4.526.62-6.516 1.859-1.99 1.239-3.567 2.93-4.734 5.075C.583 9.08 0 11.401 0 13.9v17.086c0 .208.063.396.188.562.124.167.28.292.468.375a.918.918 0 0 0 .344.063c.313 0 .563-.105.75-.313l3.781-4.185L8.47 31.58c.208.27.479.406.812.406a.94.94 0 0 0 .453-.11c.136-.073.256-.172.36-.296l2.937-3.967 2.938 3.967c.187.27.448.406.781.406.104 0 .208-.016.313-.047a.891.891 0 0 0 .28-.14c.084-.063.157-.136.22-.22l3-4.06 3.687 4.123a.869.869 0 0 0 .5.328.891.891 0 0 0 .594-.047c.187-.083.343-.208.468-.375a.913.913 0 0 0 .188-.562V13.9c0-3.832-1.27-7.106-3.813-9.824C19.646 1.36 16.584 0 13 0zm11 28.072l-2.781-3.058a.897.897 0 0 0-.782-.34.887.887 0 0 0-.421.108.897.897 0 0 0-.328.294l-2.938 3.923-2.906-3.923a.901.901 0 0 0-.781-.402.982.982 0 0 0-.813.402l-2.969 3.923-2.875-3.923a.389.389 0 0 0-.11-.124 5.787 5.787 0 0 0-.14-.108 1.648 1.648 0 0 0-.14-.093.49.49 0 0 0-.172-.061 1.151 1.151 0 0 0-.188-.016h-.062a.929.929 0 0 0-.719.31L2 28.103V13.768c0-2.121.495-4.088 1.484-5.9.99-1.813 2.328-3.244 4.016-4.294A10.214 10.214 0 0 1 13 1.999c1.98 0 3.812.525 5.5 1.576 1.688 1.05 3.026 2.481 4.016 4.294.99 1.812 1.484 3.779 1.484 5.9v14.303zm-6-17.077c-.354 0-.688.089-1 .266a1.913 1.913 0 0 0-.734.734 2.01 2.01 0 0 0-.11 1.78c.104.25.245.463.422.64s.39.318.64.422c.25.104.511.156.782.156.542 0 1.01-.198 1.406-.593A1.92 1.92 0 0 0 20 12.994c0-.27-.052-.53-.156-.78a1.96 1.96 0 0 0-.422-.641 1.96 1.96 0 0 0-.64-.422 2.013 2.013 0 0 0-.782-.156zm-10 0c-.542 0-1.01.198-1.406.594A1.92 1.92 0 0 0 6 12.994c0 .542.198 1.01.594 1.406.396.395.864.593 1.406.593.542 0 1.01-.198 1.406-.593A1.92 1.92 0 0 0 10 12.994c0-.146-.02-.297-.063-.453a1.93 1.93 0 0 0-.39-.78 2.215 2.215 0 0 0-.313-.313 1.931 1.931 0 0 0-.78-.39A1.757 1.757 0 0 0 8 10.995z"/>
</svg>
