<svg xmlns="http://www.w3.org/2000/svg" width="30" height="30" viewBox="0 0 30 30">
    <path fill="#172D4C" fill-rule="evenodd" d="M15 0c-2.721 0-5.231.687-7.53 2.062-2.297 1.375-4.117 3.24-5.458 5.596C.67 10.014 0 12.586 0 15.376c0 3.35.954 6.363 2.861 9.039 1.908 2.676 4.372 4.528 7.393 5.556.351.066.612.02.781-.14.17-.16.254-.361.254-.601l-.01-1.091c-.006-.674-.01-1.265-.01-1.772l-.449.08a5.608 5.608 0 0 1-1.084.07 8.144 8.144 0 0 1-1.357-.14 3.004 3.004 0 0 1-1.309-.6 2.537 2.537 0 0 1-.86-1.232l-.194-.46a5.03 5.03 0 0 0-.616-1.021c-.28-.374-.563-.628-.85-.761l-.136-.1a1.442 1.442 0 0 1-.254-.24 1.106 1.106 0 0 1-.176-.28c-.039-.094-.006-.171.098-.231.104-.06.293-.09.566-.09l.391.06c.26.053.583.213.967.48s.7.614.947 1.041c.3.548.66.965 1.084 1.252.423.287.85.43 1.28.43.43 0 .8-.033 1.113-.1.312-.067.605-.167.879-.3.13-.895.449-1.582.957-2.062-.743-.08-1.41-.2-2.002-.36a7.87 7.87 0 0 1-1.836-.782 5.294 5.294 0 0 1-1.573-1.34c-.416-.535-.758-1.236-1.025-2.103-.267-.868-.4-1.869-.4-3.003 0-1.588.514-2.963 1.543-4.124-.482-1.215-.43-2.576.156-4.085.364-.12.918-.03 1.66.27.742.301 1.286.558 1.63.772.346.213.623.393.831.54 1.21-.347 2.46-.52 3.75-.52s2.54.173 3.75.52l.742-.48a10.41 10.41 0 0 1 1.797-.881c.69-.267 1.218-.34 1.582-.22.586 1.508.638 2.87.156 4.084 1.029 1.16 1.543 2.536 1.543 4.124 0 1.134-.133 2.139-.4 3.013-.267.874-.612 1.575-1.035 2.102a5.49 5.49 0 0 1-1.582 1.331 7.87 7.87 0 0 1-1.836.781c-.593.16-1.26.28-2.002.36.677.601 1.015 1.549 1.015 2.843 0 .815-.003 1.712-.01 2.693l-.01 1.532c0 .24.086.44.255.6.17.16.43.207.781.14 3.02-1.027 5.485-2.879 7.393-5.555 1.907-2.676 2.861-5.69 2.861-9.04 0-2.789-.67-5.361-2.012-7.717-1.34-2.356-3.16-4.221-5.459-5.596C20.231.687 17.721 0 15 0zM5.684 22.083c.039-.094-.007-.174-.137-.24-.13-.04-.215-.027-.254.04-.04.093.006.173.137.24.117.08.202.066.254-.04zm.605.68c.091-.067.078-.173-.039-.32-.13-.12-.234-.14-.313-.06-.09.067-.078.173.04.32.13.134.234.154.312.06zm.586.901c.117-.093.117-.22 0-.38-.104-.174-.215-.214-.332-.12-.117.066-.117.186 0 .36.117.173.228.22.332.14zm.82.841c.104-.107.078-.234-.078-.38-.156-.16-.286-.18-.39-.06-.118.106-.092.233.078.38.156.16.286.18.39.06zm1.114.5c.039-.146-.046-.253-.254-.32-.196-.053-.32-.007-.371.14-.052.147.032.247.254.3.195.08.319.04.37-.12zm1.23.1c0-.173-.11-.246-.332-.22-.208 0-.312.074-.312.22 0 .174.11.248.332.22.208 0 .312-.073.312-.22zm1.133-.2c-.026-.146-.143-.206-.352-.18-.208.04-.3.14-.273.3.026.16.143.214.351.16.209-.053.3-.146.274-.28z"/>
</svg>
