<svg xmlns="http://www.w3.org/2000/svg" width="32" height="32" viewBox="0 0 32 32">
    <path fill="#172D4C" fill-rule="evenodd" d="M16 0c-2.208 0-4.286.417-6.234 1.25a16.05 16.05 0 0 0-5.094 3.422A16.05 16.05 0 0 0 1.25 9.766C.417 11.714 0 13.792 0 16s.417 4.286 1.25 6.234a16.05 16.05 0 0 0 3.422 5.094 16.05 16.05 0 0 0 5.094 3.422C11.714 31.583 13.792 32 16 32s4.286-.417 6.234-1.25a16.05 16.05 0 0 0 5.094-3.422 16.05 16.05 0 0 0 3.422-5.094C31.583 20.286 32 18.208 32 16s-.417-4.286-1.25-6.234a16.05 16.05 0 0 0-3.422-5.094 16.05 16.05 0 0 0-5.094-3.422C20.286.417 18.208 0 16 0zm0 30.031c-1.938 0-3.755-.37-5.453-1.109a14.125 14.125 0 0 1-4.438-3.016 14.47 14.47 0 0 1-3-4.453C2.369 19.755 2 17.937 2 16c0-1.938.37-3.755 1.109-5.453a14.268 14.268 0 0 1 3-4.438c1.26-1.26 2.74-2.26 4.438-3C12.245 2.369 14.063 2 16 2c1.938 0 3.755.37 5.453 1.109a14.268 14.268 0 0 1 4.438 3c1.26 1.26 2.26 2.74 3 4.438C29.631 12.245 30 14.063 30 16c0 1.938-.37 3.755-1.109 5.453a14.453 14.453 0 0 1-3 4.453 14.13 14.13 0 0 1-4.438 3.016c-1.698.74-3.516 1.109-5.453 1.109zM14.531 25h2.5v-2.531h-2.5V25zm1.438-18c-.729 0-1.396.094-2 .281a4.713 4.713 0 0 0-1.625.875c-.479.396-.833.948-1.063 1.656a5.96 5.96 0 0 0-.313 2.031l.031.094h2.313c0-.396.063-.833.188-1.313s.323-.813.594-1a2.58 2.58 0 0 1 .844-.469 3.25 3.25 0 0 1 1.031-.156c.438 0 .818.063 1.141.188.323.125.599.302.828.531.229.229.401.51.516.844.115.334.172.708.172 1.125 0 .375-.042.714-.125 1.016a3.278 3.278 0 0 1-.375.859c-.167.25-.396.557-.688.922-.292.365-.635.786-1.031 1.266-.417.375-.755.714-1.016 1.016-.261.302-.432.568-.516.797-.104.229-.182.547-.234.953-.052.406-.078.901-.078 1.484h2.406c0-.354.01-.672.031-.953a4.14 4.14 0 0 1 .094-.672c.042-.167.13-.349.266-.547a4.72 4.72 0 0 1 .547-.641c.458-.458.88-.911 1.266-1.359.386-.448.724-.88 1.016-1.297a5.84 5.84 0 0 0 .625-1.375c.146-.479.219-.99.219-1.531 0-.729-.109-1.38-.328-1.953a3.721 3.721 0 0 0-.984-1.453 4.334 4.334 0 0 0-1.609-.922C17.498 7.099 16.784 7 15.971 7h-.002z"/>
</svg>
