<svg xmlns="http://www.w3.org/2000/svg" width="32" height="32" viewBox="0 0 32 32">
    <path fill="#000" fill-rule="evenodd" d="M31.705 14.438L16.645.325a.426.426 0 0 0-.085-.069.86.86 0 0 0-1.204-.02L.296 14.348a.968.968 0 0 0-.072 1.318.865.865 0 0 0 1.257.076l2.712-2.545v16.458c0 1.29 1 2.345 2.238 2.345H11.183c1.158 0 2.1-.986 2.1-2.2v-8.367c0-.187.144-.338.322-.338h4.798c.178 0 .322.151.322.338V29.8c0 1.214.942 2.2 2.1 2.2h4.752c1.25 0 2.238-1.29 2.238-2.938V13.286l2.711 2.546a.865.865 0 0 0 1.258-.076.982.982 0 0 0-.08-1.318zM26.03 19.04v10.009c0 .669-.316 1.076-.46 1.076h-4.753a.331.331 0 0 1-.322-.338v-8.353c0-1.214-.941-2.2-2.1-2.2h-4.798c-1.158 0-2.1.986-2.1 2.2V29.8a.331.331 0 0 1-.322.338H6.424a.473.473 0 0 1-.46-.483V11.527l9.99-9.353 10.077 9.443v7.422z"/>
</svg>
