<svg xmlns="http://www.w3.org/2000/svg" width="11" height="20" viewBox="0 0 11 20">
    <path fill="#678099" fill-rule="evenodd" d="M5.446 16.669c-.052.004-.11.003-.162.019-.42.126-.658.6-.539 1.044.12.443.55.695.97.569.421-.126.66-.581.54-1.025-.104-.388-.442-.636-.809-.607zM.786 2.143v15.714c0 .722.497 1.31 1.109 1.31h7.21c.615 0 1.11-.585 1.11-1.31V2.143c0-.722-.498-1.31-1.11-1.31h-7.21c-.615 0-1.11.585-1.11 1.31zM0 2C0 .895.773 0 1.737 0h7.526C10.223 0 11 .898 11 2v16c0 1.105-.773 2-1.737 2H1.737C.777 20 0 19.102 0 18V2zm10.214 13v.833H.786V15h9.428zm-.785-3.333v2.5H1.57v-2.5H9.43z"/>
</svg>
