<svg xmlns="http://www.w3.org/2000/svg" width="32" height="32" viewBox="0 0 32 32">
    <path fill="#172D4C" fill-rule="evenodd" d="M18 23h-1V14a.961.961 0 0 0-.297-.703A.961.961 0 0 0 16 13h-2a.961.961 0 0 0-.703.297A.961.961 0 0 0 13 14c0 .27.099.505.297.703A.961.961 0 0 0 14 15h1v8h-1a.961.961 0 0 0-.703.297A.961.961 0 0 0 13 24c0 .27.099.505.297.703A.961.961 0 0 0 14 25h4c.27 0 .505-.099.703-.297A.961.961 0 0 0 19 24a.961.961 0 0 0-.297-.703A.961.961 0 0 0 18 23zm-2-12c.563 0 1.036-.193 1.422-.578.385-.386.578-.86.578-1.422 0-.563-.193-1.036-.578-1.422A1.933 1.933 0 0 0 16 7c-.563 0-1.036.193-1.422.578C14.193 7.964 14 8.438 14 9c0 .563.193 1.036.578 1.422.386.385.86.578 1.422.578zm0-11c-2.208 0-4.286.417-6.234 1.25a16.056 16.056 0 0 0-5.094 3.422A16.056 16.056 0 0 0 1.25 9.766C.417 11.714 0 13.792 0 16s.417 4.286 1.25 6.234a16.056 16.056 0 0 0 3.422 5.094 16.056 16.056 0 0 0 5.094 3.422C11.714 31.583 13.792 32 16 32s4.286-.417 6.234-1.25a16.056 16.056 0 0 0 5.094-3.422 16.056 16.056 0 0 0 3.422-5.094C31.583 20.286 32 18.208 32 16s-.417-4.286-1.25-6.234a16.056 16.056 0 0 0-3.422-5.094 16.056 16.056 0 0 0-5.094-3.422C20.286.417 18.208 0 16 0zm0 30.031c-1.938 0-3.755-.37-5.453-1.11a14.129 14.129 0 0 1-4.438-3.015 14.456 14.456 0 0 1-3-4.453C2.37 19.755 2 17.938 2 16c0-1.938.37-3.755 1.11-5.453a14.262 14.262 0 0 1 3-4.438c1.26-1.26 2.739-2.26 4.437-3C12.245 2.37 14.062 2 16 2c1.938 0 3.755.37 5.453 1.11 1.698.739 3.177 1.739 4.438 3 1.26 1.26 2.26 2.739 3 4.437C29.63 12.245 30 14.062 30 16c0 1.938-.37 3.755-1.11 5.453a14.456 14.456 0 0 1-3 4.453 14.129 14.129 0 0 1-4.437 3.016c-1.698.74-3.515 1.11-5.453 1.11z"/>
</svg>
