<svg xmlns="http://www.w3.org/2000/svg" viewBox="0 0 32 32"><path fill="#95A6B8" fill-rule="evenodd" d="M16 0C7.164 0 0 7.167 0 16c0 8.839 7.164 16 16 16s16-7.161 16-16c0-8.833-7.164-16-16-16zm0 28.903c-7.131 0-12.903-5.77-12.903-12.903C3.097 8.871 8.869 3.097 16 3.097c7.128 0 12.903 5.772 12.903 12.903S23.133 28.903 16 28.903zm0-21.806a2.71 2.71 0 110 5.42 2.71 2.71 0 010-5.42zm3.613 16.387a.775.775 0 01-.774.774H13.16a.775.775 0 01-.774-.774v-1.549c0-.427.347-.774.774-.774h.774v-4.129h-.774a.774.774 0 01-.774-.774V14.71c0-.428.347-.775.774-.775h4.13c.427 0 .774.347.774.775v6.451h.774c.427 0 .774.347.774.774v1.549z"/></svg>