<svg xmlns="http://www.w3.org/2000/svg" width="36" height="47" viewBox="0 0 36 47">
    <path fill="#95A6B8" fill-rule="evenodd" d="M1.707 12.707a1 1 0 1 0-1.415-1.414 1 1 0 0 0 1.415 1.414m0 3a1 1 0 1 0-1.414-1.414 1 1 0 0 0 1.414 1.414m26.158 29.349H2.356l5.898-16.04h25.399l-5.788 16.04zM5.805 23.67a.966.966 0 0 0 .901-.617l1.21-3.109h4.352l2.612 3.354a.968.968 0 0 0 .763.372h11.933v3.403H7.58a.968.968 0 0 0-.907.635L1.935 40.59V23.67h3.87zm30.02 3.817a.966.966 0 0 0-.793-.414h-5.52v-4.375a.97.97 0 0 0-.968-.972h-12.43l-2.612-3.353A.967.967 0 0 0 12.74 18H7.257a.968.968 0 0 0-.901.618l-1.211 3.108H.968a.97.97 0 0 0-.968.972v23.33c0 .025.006.048.007.073a.854.854 0 0 0 .045.23c.007.018.01.038.018.057.027.068.06.132.1.19l.004.005c.005.009.014.015.02.023.035.048.074.092.118.133.017.016.036.03.054.045a.949.949 0 0 0 .327.171c.02.006.038.014.058.018.07.017.142.027.217.027h27.576c.091 0 .18-.017.264-.04l.055-.019a.934.934 0 0 0 .23-.115c.007-.004.013-.01.021-.016a.968.968 0 0 0 .172-.166.983.983 0 0 0 .16-.27c.001-.006.005-.01.007-.015l6.489-17.983a.976.976 0 0 0-.117-.89zM1.214 9.79c.543 0 .984-.43.984-.96 0-4.187 3.227-6.377 6.414-6.377 4.945 0 7.239 3.152 7.394 10.168l-1.327-1.293a1.002 1.002 0 0 0-1.392 0 .944.944 0 0 0 0 1.357l2.95 2.876a.993.993 0 0 0 .695.281.994.994 0 0 0 .697-.28l2.948-2.877a.943.943 0 0 0 0-1.357 1.002 1.002 0 0 0-1.392 0l-1.2 1.17C17.927 8.714 17.235.535 8.611.535 3.167.534.229 4.809.229 8.83c0 .53.441.96.985.96"/>
</svg>
