<svg xmlns="http://www.w3.org/2000/svg" width="32" height="31" viewBox="0 0 32 31">
    <path fill="#222532" fill-rule="evenodd" d="M30.173 18c1.015 0 1.827.776 1.827 1.746v9.508c0 .97-.812 1.746-1.827 1.746H1.895C.879 31 0 30.224 0 29.254v-9.508C0 18.776.88 18 1.895 18c1.015 0 1.826.776 1.826 1.746v7.696h24.625v-7.696c0-.97.812-1.746 1.827-1.746zM7.537 15.333c-.721-.714-.721-1.754 0-2.469.72-.714 1.77-.714 2.492 0l4.196 4.093V1.754C14.225.78 15.012 0 15.996 0c.984 0 1.77.78 1.77 1.754v15.203l4.132-4.093a1.794 1.794 0 0 1 2.557 0c.721.715.721 1.755 0 2.469l-7.213 7.147a1.8 1.8 0 0 1-1.246.52 1.8 1.8 0 0 1-1.246-.52l-7.213-7.147z"/>
</svg>
