<svg xmlns="http://www.w3.org/2000/svg" width="32" height="29" viewBox="0 0 32 29">
    <path fill="#95A6B8" fill-rule="nonzero" d="M3.719.295L2.28 1.8 8.5 8.284l11.094 11.624 1.906 2.03 6.781 7.106 1.438-1.507-6.219-6.516c4.234-2.198 7.074-5.46 7.25-5.664l.594-.688-.594-.688c-.27-.315-6.664-7.694-14.75-7.694-1.957 0-3.805.45-5.5 1.113L3.719.295zM16 8.382c2.152 0 4.188.635 6 1.507a7.518 7.518 0 0 1-.844 8.677l-2.843-2.98A3.193 3.193 0 0 0 19 13.62c0-1.735-1.344-3.143-3-3.143-.715 0-1.363.282-1.875.72L12.094 9.07c1.242-.401 2.543-.688 3.906-.688zm-9.313.95c-3.207 2.067-5.289 4.474-5.437 4.65l-.594.687.594.688c.258.303 6.18 7.093 13.813 7.629.308.033.62.065.937.065.316 0 .629-.032.938-.065a14.483 14.483 0 0 0 2.406-.36l-1.782-1.867a6.598 6.598 0 0 1-1.562.197c-3.86 0-7-3.29-7-7.335 0-.556.07-1.1.188-1.637l-2.5-2.652zm.563 2.128A9.773 9.773 0 0 0 7 13.621c0 1.822.488 3.5 1.344 4.945-2.29-1.376-4.04-2.988-4.938-3.897A26.374 26.374 0 0 1 7.25 11.46zm17.5 0a26.592 26.592 0 0 1 3.844 3.21c-.899.908-2.676 2.553-4.969 3.928A9.74 9.74 0 0 0 25 13.621c0-.732-.09-1.457-.25-2.16z"/>
</svg>
