<svg width="32" height="18" viewBox="0 0 32 18" xmlns="http://www.w3.org/2000/svg"><path d="M31.266.734A2.407 2.407 0 0 0 29.5 0c-.688 0-1.276.245-1.766.734A2.407 2.407 0 0 0 27 2.5c0 .25.052.52.156.813l-6.093 5.25c-.48-.376-1-.563-1.563-.563-.667 0-1.25.24-1.75.719l-4.781-2.406a2.41 2.41 0 0 0-.766-1.641A2.375 2.375 0 0 0 10.5 4c-.458 0-.88.11-1.266.328-.385.219-.687.521-.906.906A2.52 2.52 0 0 0 8 6.5c0 .354.083.708.25 1.063l-4.875 5.593A2.587 2.587 0 0 0 2.5 13c-.688 0-1.276.245-1.766.734A2.407 2.407 0 0 0 0 15.5c0 .688.245 1.276.734 1.766.49.49 1.078.734 1.766.734s1.276-.245 1.766-.734c.49-.49.734-1.078.734-1.766 0-.313-.062-.625-.188-.938L9.75 8.875c.27.083.52.125.75.125.354 0 .688-.073 1-.219.313-.146.594-.344.844-.594L17 10.531c0 .334.068.651.203.953.136.302.313.563.531.782.22.218.485.395.797.53.313.136.636.204.969.204.188 0 .375-.02.563-.063.187-.041.364-.104.53-.187a2.74 2.74 0 0 0 .47-.297 2.31 2.31 0 0 0 .39-.39 2.74 2.74 0 0 0 .297-.47c.083-.166.146-.343.188-.53.041-.188.062-.376.062-.563v-.125l6.5-5.594c.313.146.646.219 1 .219.688 0 1.276-.245 1.766-.734.49-.49.734-1.079.734-1.766 0-.688-.245-1.276-.734-1.766z" fill="#222532" fill-rule="evenodd"/></svg>