<svg xmlns="http://www.w3.org/2000/svg" width="18" height="27" viewBox="0 0 18 27">
    <path fill="#222532" fill-rule="nonzero" d="M9 0C4.043 0 0 4.08 0 9.084c0 1.42.57 3.048 1.344 4.826.773 1.778 1.77 3.667 2.781 5.425a102.407 102.407 0 0 0 4.063 6.466L9 27l.813-1.199s2.039-2.945 4.062-6.466c1.012-1.758 2.008-3.647 2.781-5.425C17.43 12.132 18 10.503 18 9.084 18 4.081 13.957 0 9 0zm0 2.019c3.879 0 7 3.15 7 7.065 0 .808-.43 2.338-1.156 4.006-.727 1.668-1.73 3.517-2.719 5.236-1.57 2.736-2.547 4.183-3.125 5.047-.578-.864-1.555-2.31-3.125-5.047-.988-1.72-1.992-3.568-2.719-5.236C2.43 11.422 2 9.892 2 9.084 2 5.17 5.121 2.02 9 2.02zm0 5.046c-1.105 0-2 .903-2 2.02 0 1.115.895 2.018 2 2.018s2-.903 2-2.019a2.008 2.008 0 0 0-2-2.019z"/>
</svg>
