<svg xmlns="http://www.w3.org/2000/svg" width="33" height="21" viewBox="0 0 33 21">
    <path fill="#112038" fill-rule="evenodd" d="M20.269 12.355c1.648 2.004 1.567 5.114-.176 7.033A4.798 4.798 0 0 1 16.52 21c-1.27 0-2.532-.514-3.498-1.534a5.215 5.215 0 0 1-1.02-1.562L5.619 4.836c-.169-.37.196-.756.547-.578L18.54 11c.641.3 1.229.756 1.729 1.356zm-2.256 1.84a2.053 2.053 0 0 0-1.493-.656c-.54 0-1.08.22-1.5.656-.823.87-.823 2.29 0 3.16.413.435.953.656 1.5.656.54 0 1.08-.22 1.493-.656.83-.877.83-2.29 0-3.16zM3.269 17.426c0-2.468.615-4.893 1.783-7.012.453-.827.19-1.883-.594-2.36-.784-.479-1.783-.2-2.236.627A18.223 18.223 0 0 0 0 17.426c0 .956.73 1.727 1.634 1.727.899 0 1.635-.77 1.635-1.727zm29.731 0C33 7.818 25.598 0 16.5 0c-2.114 0-4.174.414-6.12 1.241-.837.357-1.242 1.355-.91 2.24.337.884 1.282 1.312 2.12.963a12.61 12.61 0 0 1 4.91-.992c7.294 0 13.231 6.27 13.231 13.974 0 .956.73 1.727 1.635 1.727S33 18.383 33 17.426z"/>
</svg>
