<svg xmlns="http://www.w3.org/2000/svg" width="28" height="32" viewBox="0 0 28 32">
    <path fill="#000" fill-rule="evenodd" d="M28 1.903V.998a.985.985 0 0 0-.281-.702A.947.947 0 0 0 27 0h-7a.947.947 0 0 0-.719.296.985.985 0 0 0-.281.702v16.468c0 1.58-.422 2.885-1.266 3.914-.843 1.03-1.994 1.544-3.453 1.544-1.5 0-2.755-.53-3.765-1.59C9.506 20.272 9 18.983 9 17.465V.998a.985.985 0 0 0-.281-.702A.947.947 0 0 0 8 0H1a.947.947 0 0 0-.719.296A.985.985 0 0 0 0 .998v16.936c0 1.268.167 2.51.5 3.727.333 1.216.797 2.339 1.39 3.368a13.602 13.602 0 0 0 2.188 2.838 14.263 14.263 0 0 0 2.828 2.2 14.13 14.13 0 0 0 3.344 1.418c1.208.343 2.458.515 3.75.515 1.896 0 3.714-.374 5.453-1.123 1.74-.748 3.234-1.746 4.485-2.994 1.25-1.248 2.24-2.74 2.968-4.476A13.994 13.994 0 0 0 28 17.934V1.903zm-2 .093V6.02h-5V1.996h5zm-19 0V6.02H2V1.996h5zm7 28.008c-2.188 0-4.203-.54-6.047-1.622a11.863 11.863 0 0 1-4.36-4.398C2.532 22.134 2 20.117 2 17.934V8.016h5v9.45c0 2.08.703 3.841 2.11 5.286 1.406 1.446 3.13 2.168 5.171 2.168 1.334 0 2.516-.333 3.547-.998a6.477 6.477 0 0 0 2.36-2.682c.541-1.123.812-2.381.812-3.774v-9.45h5v9.918c0 1.102-.14 2.173-.422 3.212a11.635 11.635 0 0 1-1.203 2.885 12.125 12.125 0 0 1-1.89 2.433 12.348 12.348 0 0 1-2.422 1.887c-.875.52-1.834.925-2.875 1.216a11.788 11.788 0 0 1-3.188.437z"/>
</svg>
