<svg xmlns="http://www.w3.org/2000/svg" width="32" height="32" viewBox="0 0 32 32">
    <path fill="#222532" fill-rule="nonzero" d="M3 5.622v20.756A2.627 2.627 0 0 0 5.622 29h20.756A2.627 2.627 0 0 0 29 26.378V5.622A2.627 2.627 0 0 0 26.378 3H5.622A2.627 2.627 0 0 0 3 5.622zM5.356 0h21.288A5.36 5.36 0 0 1 32 5.356v21.288A5.36 5.36 0 0 1 26.644 32H5.356A5.36 5.36 0 0 1 0 26.644V5.356A5.36 5.36 0 0 1 5.356 0zM6 24.405c0 .935.756 1.65 1.744 1.65.989 0 1.773-.715 1.773-1.65V12.882l4.942 7.013c.378.55.843.88 1.483.88.668 0 1.134-.33 1.511-.88l4.971-7.068v11.55c0 .908.814 1.678 1.774 1.678 1.017 0 1.802-.743 1.802-1.678V8.262c0-.935-.785-1.705-1.802-1.705h-.378c-.727 0-1.25.303-1.628.88L16 16.595l-6.163-9.13c-.349-.523-.872-.908-1.657-.908h-.378C6.785 6.557 6 7.327 6 8.262v16.143z"/>
</svg>
