<svg xmlns="http://www.w3.org/2000/svg" width="18" height="32" viewBox="0 0 18 32">
    <path fill="#000" fill-rule="evenodd" d="M15 0H3c-.542 0-1.042.135-1.5.406C1.042.677.677 1.042.406 1.5.136 1.958 0 2.458 0 3v26c0 .833.292 1.542.875 2.125A2.893 2.893 0 0 0 3 32h12c.833 0 1.542-.292 2.125-.875A2.893 2.893 0 0 0 18 29V3c0-.542-.135-1.042-.406-1.5A3.057 3.057 0 0 0 16.5.406 2.896 2.896 0 0 0 15 0zm1 29c0 .27-.099.505-.297.703A.961.961 0 0 1 15 30H3a.961.961 0 0 1-.703-.297A.961.961 0 0 1 2 29V3c0-.27.099-.505.297-.703A.961.961 0 0 1 3 2h12c.27 0 .505.099.703.297A.961.961 0 0 1 16 3v26zm-5.578-3.406A1.889 1.889 0 0 0 9.016 25a1.94 1.94 0 0 0-1.422.594A1.922 1.922 0 0 0 7 27c0 .354.089.688.266 1 .177.313.421.557.734.734.313.177.646.266 1 .266s.688-.089 1-.266c.313-.177.557-.422.734-.734.177-.313.266-.646.266-1 0-.542-.193-1.01-.578-1.406zM11 3H7a.961.961 0 0 0-.703.297A.961.961 0 0 0 6 4c0 .27.099.505.297.703A.961.961 0 0 0 7 5h4c.27 0 .505-.099.703-.297A.961.961 0 0 0 12 4a.961.961 0 0 0-.297-.703A.961.961 0 0 0 11 3z"/>
</svg>
