<svg xmlns="http://www.w3.org/2000/svg" width="32" height="32" viewBox="0 0 32 32">
    <path fill="#222532" fill-rule="evenodd" d="M31.415 10.585l-10-10a2.004 2.004 0 0 0-2.83 0 2.006 2.006 0 0 0-.496.822c-.452 1.469-1.236 2.746-2.395 3.905C14.145 6.859 12.13 8.03 9.997 9.27c-2.264 1.311-4.603 2.671-6.52 4.588C1.848 15.488.74 17.303.09 19.408c-.219.711-.028 1.48.496 2.007l10 10a2.004 2.004 0 0 0 2.83 0 2 2 0 0 0 .496-.824c.453-1.469 1.237-2.746 2.397-3.905 1.547-1.547 3.562-2.717 5.697-3.955 2.262-1.313 4.602-2.673 6.517-4.59 1.63-1.629 2.738-3.445 3.39-5.55a2.005 2.005 0 0 0-.497-2.006zM11.999 30L2 20C4.842 10.798 17.16 11.2 20 2l10.002 10c-2.843 9.199-15.161 8.799-18.002 18zm7.562-15.1c-.326-.273-.654-.459-.984-.551a2.865 2.865 0 0 0-.988-.105c-.327.025-.664.1-1 .229-.336.13-.674.273-1.014.437a57.533 57.533 0 0 0-1.611-1.793c.242-.22.477-.33.703-.338.226-.01.444.014.652.066.21.053.404.097.582.133a.536.536 0 0 0 .472-.12.664.664 0 0 0 .236-.481c.01-.197-.063-.39-.229-.576a1.288 1.288 0 0 0-.77-.442 2.355 2.355 0 0 0-.93.02c-.315.072-.616.191-.902.36-.285.168-.514.34-.683.508l-.195-.185a.378.378 0 0 0-.27-.1.352.352 0 0 0-.273.133.362.362 0 0 0-.092.286c.01.107.054.188.127.252.065.055.13.109.195.166-.256.309-.467.65-.633 1.01-.169.361-.268.72-.306 1.066-.039.35-.002.67.105.967.107.3.306.553.594.793.47.391 1.025.557 1.668.52.642-.039 1.332-.23 2.075-.629.59.683 1.182 1.36 1.773 1.988-.25.211-.468.332-.662.371a1.028 1.028 0 0 1-.521-.01 1.656 1.656 0 0 1-.434-.208 3.024 3.024 0 0 0-.395-.234.93.93 0 0 0-.398-.102c-.136-.002-.281.063-.44.2-.165.144-.247.309-.247.496 0 .186.086.375.255.566.17.19.39.352.658.479a2.498 2.498 0 0 0 1.953.065c.37-.136.737-.38 1.1-.743.174.17.35.332.525.488a.362.362 0 0 0 .273.088.366.366 0 0 0 .27-.141.387.387 0 0 0 .094-.293.344.344 0 0 0-.125-.244c-.177-.142-.352-.29-.527-.445.299-.367.539-.754.716-1.137.179-.385.284-.756.318-1.1a1.96 1.96 0 0 0-.12-.94c-.111-.288-.31-.534-.595-.77zm-5.591.678a.968.968 0 0 1-.746-.292.725.725 0 0 1-.195-.321.998.998 0 0 1-.039-.419c.014-.15.06-.307.137-.464.074-.159.185-.316.324-.47a35.383 35.383 0 0 1 1.52 1.63c-.384.21-.718.323-1.001.336zm4.717 2.002c-.09.166-.193.313-.313.442a40.527 40.527 0 0 1-1.68-1.825c.143-.064.293-.131.455-.199a2.25 2.25 0 0 1 .486-.141c.166-.025.33-.018.494.021.162.041.315.129.458.268.141.141.23.287.266.445.04.16.042.321.014.488a1.6 1.6 0 0 1-.18.5zm-3.971 4.6a.498.498 0 0 1 .668.033.501.501 0 0 1 0 .709c-.016.016-.033.027-.051.041l.002.002c-.633.481-1.153.915-1.714 1.475-.507.506-.965 1.04-1.36 1.58l-.64.875a.5.5 0 0 1-.073.1.504.504 0 0 1-.71 0 .503.503 0 0 1-.066-.627l-.002-.002.684-.934c.427-.584.918-1.156 1.46-1.699a17.937 17.937 0 0 1 1.801-1.552h.002l-.001-.001zm3.662-14.465c.506-.506.962-1.037 1.36-1.58l.664-.911a.572.572 0 0 1 .088-.123.504.504 0 0 1 .738.683l.002.002-.684.938a14.765 14.765 0 0 1-1.46 1.697 18.188 18.188 0 0 1-1.8 1.552l-.004-.002a.502.502 0 0 1-.699-.014.507.507 0 0 1 .117-.8 16.58 16.58 0 0 0 1.678-1.443v.001z"/>
</svg>
