<svg xmlns="http://www.w3.org/2000/svg" width="18" height="32" viewBox="0 0 18 32">
    <path fill="#222532" fill-rule="evenodd" d="M9.063 0c-2.48 0-4.61.875-6.391 2.625C.89 4.375 0 6.479 0 8.938v14.124c0 2.459.89 4.563 2.672 6.313C4.453 31.125 6.583 32 9.062 32c2.459 0 4.563-.875 6.313-2.625S18 25.521 18 23.062V8.938c0-2.458-.875-4.562-2.625-6.312S11.521 0 9.062 0zM16 23.063c0 1.916-.677 3.552-2.031 4.906C12.615 29.323 10.979 30 9.063 30c-1.938 0-3.6-.682-4.985-2.047C2.693 26.59 2 24.958 2 23.063V8.938c0-1.896.693-3.527 2.078-4.891C5.464 2.682 7.125 2 9.062 2c1.917 0 3.553.677 4.907 2.031S16 7.021 16 8.938v14.124zM9.719 6.297A.928.928 0 0 0 9.016 6a.979.979 0 0 0-.72.297A.961.961 0 0 0 8 7v5c0 .27.099.505.297.703a.979.979 0 0 0 .719.297.928.928 0 0 0 .703-.297A.988.988 0 0 0 10 12V7a.988.988 0 0 0-.281-.703z"/>
</svg>
