<svg xmlns="http://www.w3.org/2000/svg" width="25" height="32" viewBox="0 0 25 32">
    <path fill="#222532" fill-rule="evenodd" d="M13.846.753C13.27.376 12.5 0 11.731 0H4.808C2.115 0 0 2.07 0 4.706v22.588C0 29.93 2.115 32 4.808 32h15.384C22.885 32 25 29.93 25 27.294V12.988c0-.753-.192-1.506-.77-2.07L13.847.753zm-.384 2.259l8.461 8.282h-5.577c-1.538 0-2.884-1.318-2.884-2.823V3.01zm6.73 27.106H4.808c-1.539 0-2.885-1.318-2.885-2.824V4.706c0-1.506 1.346-2.824 2.885-2.824h6.73v6.589c0 2.635 2.116 4.705 4.808 4.705h6.73v14.118c0 1.506-1.345 2.824-2.884 2.824zM16.9 19.4h-3.3v-3.3c0-.66-.44-1.1-1.1-1.1-.66 0-1.1.44-1.1 1.1v3.3H8.1c-.66 0-1.1.44-1.1 1.1 0 .66.44 1.1 1.1 1.1h3.3v3.3c0 .66.44 1.1 1.1 1.1.66 0 1.1-.44 1.1-1.1v-3.3h3.3c.66 0 1.1-.44 1.1-1.1 0-.66-.44-1.1-1.1-1.1z"/>
</svg>
