<svg xmlns="http://www.w3.org/2000/svg" width="11" height="14" viewBox="0 0 11 14">
    <path fill="#172D4C" fill-rule="evenodd" d="M5.48 0c2.952 0 4.81 1.427 4.81 3.676 0 1.193-.631 2.249-1.685 2.835C10.08 7.137 11 8.447 11 9.972 11 12.436 8.854 14 5.5 14S0 12.455 0 10.03c0-1.564.997-2.893 2.549-3.519-1.13-.645-1.86-1.74-1.86-2.933C.69 1.388 2.569 0 5.482 0zm.02 2.288c-1.246 0-1.936.567-1.936 1.584 0 .977.69 1.525 1.936 1.525s1.936-.548 1.936-1.525c0-1.017-.69-1.584-1.936-1.584zm0 5.611c-1.476 0-2.28.646-2.28 1.78 0 1.153.804 1.799 2.28 1.799 1.476 0 2.3-.626 2.3-1.8C7.8 8.546 6.976 7.9 5.5 7.9z"/>
</svg>
