<svg xmlns="http://www.w3.org/2000/svg" width="32" height="32" viewBox="0 0 32 32">
    <path fill="#000" fill-rule="evenodd" d="M31.396 0c-.188 0-.417.052-.688.157L.85 12.837c-.355.168-.6.36-.735.58a.734.734 0 0 0-.047.704c.104.25.313.48.625.69l8.442 5.26c.333.208.688.48 1.063.814.375.334.73.688 1.063 1.064.333.376.594.73.781 1.065l5.065 8.297c.146.23.303.402.47.517a.878.878 0 0 0 .5.172c.417 0 .74-.282.969-.845L31.833 1.284c.167-.397.209-.71.125-.94-.083-.23-.27-.344-.562-.344zM10.198 18.286L3.35 14.027l22.948-9.769L11.511 19.32a9.64 9.64 0 0 0-1.313-1.033zM17.92 28.65l-4.095-6.67a3.087 3.087 0 0 0-.25-.407 14.875 14.875 0 0 0-.313-.422 10.33 10.33 0 0 0-.344-.423l14.82-15.092L17.92 28.65z"/>
</svg>
