<svg xmlns="http://www.w3.org/2000/svg" viewBox="0 0 40 40"><g fill="none" fill-rule="evenodd"><circle cx="20" cy="20" r="17" fill="#090D32" fill-rule="nonzero" opacity=".298"/><g fill="#FFF"><path d="M20 .37C9.158.37.37 9.157.37 20 .37 30.842 9.157 39.63 20 39.63c10.842 0 19.63-8.788 19.63-19.63C39.63 9.158 30.843.37 20 .37zm0 2.707c9.346 0 16.923 7.577 16.923 16.923 0 9.346-7.577 16.923-16.923 16.923-9.346 0-16.923-7.577-16.923-16.923 0-9.346 7.577-16.923 16.923-16.923z"/><g transform="translate(13 12)"><rect width="5.5" height="16.5" rx="2.75"/><rect width="5.5" height="16.5" x="9" rx="2.75"/></g></g></g></svg>