<svg xmlns="http://www.w3.org/2000/svg" width="32" height="32" viewBox="0 0 32 32">
    <path fill="#222532" fill-rule="evenodd" d="M31.719 11.874L20.219.31a.988.988 0 0 0-.969-.282.707.707 0 0 0-.297.141 1.795 1.795 0 0 0-.25.234.9.9 0 0 0-.172.313c-.687 2.208-.76 4.23-.218 6.063a.363.363 0 0 0-.094.062l-.063.063-5.343 5.344c-1.771-.813-3.584-1.219-5.438-1.219-1.167 0-2.302.167-3.406.5a1.036 1.036 0 0 0-.688.719.908.908 0 0 0 .016.5c.052.167.14.312.265.437l6.844 6.907-9.594 9.72L0 32l2-.781 9.813-9.72 6.906 6.97a.988.988 0 0 0 .968.28c.105-.04.204-.093.297-.155.094-.063.177-.141.25-.235.073-.094.13-.193.172-.297.917-2.958.698-5.906-.656-8.844l5.469-5.469.015-.031c.01-.021.026-.032.047-.032a8.866 8.866 0 0 0 2.563.375c.562 0 1.135-.046 1.718-.14a15.071 15.071 0 0 0 1.75-.39c.355-.126.573-.365.657-.72a1.016 1.016 0 0 0 0-.5.927.927 0 0 0-.25-.437zM18.844 25.75L6.25 13.093a10.261 10.261 0 0 1 3.281.156c1.104.23 2.167.625 3.188 1.187 1.02.563 1.948 1.261 2.781 2.094a11.537 11.537 0 0 1 2.75 4.329c.583 1.635.781 3.266.594 4.89zm-.094-8.345a7.743 7.743 0 0 0-.406-.609c-.146-.198-.292-.39-.438-.578a11.164 11.164 0 0 0-.468-.563 6.393 6.393 0 0 0-.532-.531 10.939 10.939 0 0 0-1.078-1 14.174 14.174 0 0 0-1.203-.875l4.5-4.5a10.744 10.744 0 0 0 1.781 2.312c.75.73 1.542 1.334 2.375 1.813l-4.531 4.531zm3.594-7.781c-1.917-1.896-2.677-4.105-2.282-6.626l8.97 9c-2.522.355-4.75-.437-6.688-2.374z"/>
</svg>
