<svg xmlns="http://www.w3.org/2000/svg" width="32" height="32" viewBox="0 0 32 32">
    <path fill="#172D4C" fill-rule="evenodd" d="M16 32a1.66 1.66 0 0 1-.234-.016l-.235-.03a1.554 1.554 0 0 1-.234-.048 1.174 1.174 0 0 1-.203-.078 3.818 3.818 0 0 0-.203-.094.822.822 0 0 1-.204-.125 2.197 2.197 0 0 0-.187-.14 1.242 1.242 0 0 1-.188-.157L.688 17.657A2.276 2.276 0 0 1 0 15.984c0-.656.23-1.213.688-1.671l5-5c.145-.146.328-.24.546-.282a.879.879 0 0 1 .61.094c.187.104.333.255.437.453a.897.897 0 0 1 .094.61 2.151 2.151 0 0 0-.078.39 3.966 3.966 0 0 0 .516 2.344 4.01 4.01 0 0 0 1.453 1.469 3.823 3.823 0 0 0 1.984.546c1.083 0 1.99-.39 2.719-1.171.729-.782 1.094-1.735 1.094-2.86 0-.541-.1-1.052-.297-1.531a4.277 4.277 0 0 0-.797-1.266 3.578 3.578 0 0 0-1.203-.859 3.69 3.69 0 0 0-1.516-.313c-.188 0-.427.032-.719.094-.479.084-.833-.093-1.062-.531-.23-.438-.167-.823.187-1.156L14.312.656A2.522 2.522 0 0 1 16 0a2.522 2.522 0 0 1 1.688.656l3.406 3.438a5.415 5.415 0 0 1 1.968-2.766A5.279 5.279 0 0 1 26.313.25c.75 0 1.464.146 2.141.438a5.55 5.55 0 0 1 1.75 1.171c.49.49.88 1.079 1.172 1.766a5.39 5.39 0 0 1 .438 2.125c0 .48-.058.953-.172 1.422a4.89 4.89 0 0 1-.516 1.297 5.522 5.522 0 0 1-1.875 1.937c-.396.25-.813.448-1.25.594l3.313 3.313c.458.458.687 1.015.687 1.671 0 .657-.23 1.214-.688 1.672L17.688 31.313A2.362 2.362 0 0 1 16 32zM5.469 12.344l-3.375 3.375c-.188.187-.188.364 0 .531l13.625 13.656c.187.167.375.167.562 0L29.906 16.25a.392.392 0 0 0 .094-.156.337.337 0 0 0 0-.203.389.389 0 0 0-.094-.172l-4.812-4.813c-.334-.333-.396-.713-.188-1.14.209-.427.542-.61 1-.547h.157l.03.031h.22c.979 0 1.807-.339 2.484-1.016s1.015-1.5 1.015-2.468c0-.97-.338-1.797-1.015-2.485-.677-.687-1.505-1.031-2.485-1.031a3.38 3.38 0 0 0-1.343.281 3.547 3.547 0 0 0-1.125.75 3.547 3.547 0 0 0-.75 1.125 3.38 3.38 0 0 0-.282 1.344c0 .063.01.146.032.25l.031.188c.02.125.01.255-.031.39a.947.947 0 0 1-.203.36 1.099 1.099 0 0 1-.328.25c-.417.208-.792.145-1.125-.188L16.28 2.094A.49.49 0 0 0 16.156 2a.859.859 0 0 0-.11-.047.145.145 0 0 0-.093 0 .859.859 0 0 0-.11.047.49.49 0 0 0-.124.094l-3.031 3.031c1.312.313 2.37 1.005 3.171 2.078.802 1.073 1.204 2.307 1.204 3.703 0 .542-.068 1.073-.204 1.594-.135.52-.328 1-.578 1.438-.25.437-.547.843-.89 1.218-.344.375-.73.693-1.157.953-.427.26-.895.464-1.406.61a5.716 5.716 0 0 1-1.578.218c-.27 0-.542-.02-.813-.062a6.772 6.772 0 0 1-.796-.172 4.625 4.625 0 0 1-.75-.281 7.242 7.242 0 0 1-.688-.375 8.697 8.697 0 0 1-.64-.438 4.543 4.543 0 0 1-.579-.515 5.77 5.77 0 0 1-.5-.61 9.26 9.26 0 0 1-.437-.671 4.87 4.87 0 0 1-.344-.704 5.481 5.481 0 0 1-.234-.765z"/>
</svg>
