<svg xmlns="http://www.w3.org/2000/svg" width="32" height="24" viewBox="0 0 32 24">
    <path fill="#222532" fill-rule="evenodd" d="M19.952.323a.567.567 0 0 1 .341.271c.076.134.09.277.044.43l-6.523 22.564a.567.567 0 0 1-.271.342.485.485 0 0 1-.411.043l-1.084-.298a.57.57 0 0 1-.341-.27.52.52 0 0 1-.044-.429L18.186.411a.564.564 0 0 1 .271-.341.492.492 0 0 1 .411-.044l1.084.297zm-9.775 4.405v-.001a.55.55 0 0 1-.175.402l-6.872 6.87 6.872 6.868a.552.552 0 0 1 0 .805l-.874.873a.551.551 0 0 1-.804 0L.175 12.4a.55.55 0 0 1 0-.804l8.149-8.145a.553.553 0 0 1 .402-.174c.151 0 .285.058.402.174l.874.875a.55.55 0 0 1 .175.402zm21.648 6.869a.55.55 0 0 1 0 .804l-8.149 8.145a.555.555 0 0 1-.402.175.555.555 0 0 1-.402-.175l-.874-.873a.55.55 0 0 1 0-.805L28.87 12 21.998 5.13a.55.55 0 0 1 0-.804l.874-.874a.555.555 0 0 1 .402-.174c.151 0 .286.058.402.174l8.149 8.145z"/>
</svg>
