<svg xmlns="http://www.w3.org/2000/svg" width="32" height="27" viewBox="0 0 32 27">
    <path fill="#222532" fill-rule="evenodd" d="M31.576 9.835c.565.564.565 1.566 0 2.13l-5.273 5.262a1.472 1.472 0 0 1-1.068.439c-.376 0-.753-.126-1.067-.44l-5.273-5.262c-.566-.564-.566-1.566 0-2.13.565-.563 1.57-.564 2.134 0l2.951 2.945c-.377-5.45-4.96-9.71-10.483-9.71-5.776 0-10.484 4.699-10.484 10.462s4.708 10.462 10.484 10.462c2.134 0 4.205-.626 5.963-1.817.691-.501 1.632-.314 2.135.376.502.69.25 1.629-.44 2.13C18.895 26.248 16.258 27 13.497 27 6.027 27 0 20.986 0 13.531 0 6.076 6.026 0 13.497 0c7.03 0 12.868 5.45 13.496 12.278l2.449-2.443c.565-.565 1.57-.565 2.134 0z"/>
</svg>
