<svg xmlns="http://www.w3.org/2000/svg" width="32" height="32" viewBox="0 0 32 32">
    <path fill="#222532" fill-rule="evenodd" d="M12.628 17.952a1.003 1.003 0 1 1 1.418 1.42L3.428 29.992h5.278a1.003 1.003 0 1 1 0 2.008H1.004A1.008 1.008 0 0 1 0 30.996v-7.701a1.004 1.004 0 1 1 2.008 0v5.278l10.62-10.62zM31.922.62a.999.999 0 0 1 .078.384v7.701a1.004 1.004 0 1 1-2.008 0V3.427l-10.619 10.62a1 1 0 0 1-1.42 0 1.004 1.004 0 0 1 0-1.419l10.62-10.62h-5.279a1.003 1.003 0 1 1 0-2.008h7.702a1.008 1.008 0 0 1 .926.62z"/>
</svg>
