<svg xmlns="http://www.w3.org/2000/svg" width="31" height="35" viewBox="0 0 31 35">
    <path fill="#172D4C" fill-rule="evenodd" d="M30.965 23.168l-3.293-11.721a.948.948 0 0 0-.519-.6l-.091-.041a.978.978 0 0 0-.392-.083h-5.936a.935.935 0 0 0-.946.93c0 .518.42.932.946.932h5.298l2.782 9.915h-7.358a.935.935 0 0 0-.946.93v.842c0 1.234-1.016 2.233-2.27 2.233h-5.774c-1.254 0-2.27-1-2.27-2.233v-.842c0-.517-.42-.93-.946-.93H2.18l2.795-9.936h5.298a.935.935 0 0 0 .946-.93c0-.518-.42-.932-.946-.932H4.33a.978.978 0 0 0-.392.083l-.091.041a.929.929 0 0 0-.519.6L.035 23.148a1.01 1.01 0 0 0-.035.248v4.888C0 31.987 3.062 35 6.825 35h17.35C27.938 35 31 31.987 31 28.284v-4.867a.71.71 0 0 0-.035-.249zm-1.857 5.116c0 2.676-2.214 4.854-4.933 4.854H6.825c-2.719 0-4.933-2.178-4.933-4.854v-3.923h6.426c.049 2.213 1.899 4 4.162 4h5.774c2.263 0 4.113-1.787 4.162-4h6.706v3.923h-.014zM21.235 5.545l-1.677 1.666-2.72-2.701v10.907h-2.371V4.51l-2.72 2.701-1.677-1.666L15.653 0l5.582 5.545z"/>
</svg>
