<svg xmlns="http://www.w3.org/2000/svg" width="32" height="35" viewBox="0 0 32 35">
    <path fill="#222532" fill-rule="evenodd" d="M31.992 9.22v-.028c0-.022 0-.036-.007-.057v-.03c0-.028-.008-.05-.015-.071 0-.007-.008-.022-.008-.029-.007-.021-.007-.043-.015-.057 0-.008-.007-.015-.007-.022-.008-.029-.023-.05-.03-.079 0-.007-.008-.014-.008-.022a.8.8 0 0 0-.09-.15c-.008-.008-.008-.015-.015-.015-.015-.021-.038-.043-.053-.065l-.015-.014-.045-.043a41.003 41.003 0 0 0-.023-.022c-.022-.014-.037-.036-.06-.05-.007-.007-.015-.007-.022-.014-.015-.015-.03-.022-.053-.036-.008-.007-.015-.007-.03-.015-.008 0-.008-.007-.015-.007L16.504.13a1.062 1.062 0 0 0-1.016 0L.527 8.38l-.023.015H.497c-.015.007-.038.022-.053.029 0 0-.007 0-.007.007-.016.007-.03.022-.046.036l-.007.007c-.015.015-.03.022-.045.036l-.008.007c-.015.015-.03.022-.037.036l-.016.015c-.007.014-.022.021-.03.036l-.015.014c-.007.014-.022.022-.03.036-.007.007-.007.014-.015.014-.007.015-.015.022-.022.036-.008.007-.008.015-.015.022-.008.014-.016.021-.023.036 0 .007-.008.014-.008.014-.007.015-.015.022-.022.036 0 .007-.008.014-.008.022a.118.118 0 0 0-.015.036c0 .007-.007.014-.007.021-.008.015-.008.022-.015.036 0 .007-.008.014-.008.022-.007.014-.007.028-.015.043 0 .007 0 .014-.007.021 0 .015-.008.03-.008.043v.022c0 .014-.007.029-.007.043v.022c0 .014 0 .028-.008.043v16.587c0 .345.196.668.512.84l14.984 8.259s.007 0 .007.007a.776.776 0 0 0 .113.05h.008c.037.015.067.022.105.036.008 0 .023.007.03.007.03.007.06.015.09.015.008 0 .023 0 .03.007.038.007.083.007.121.007.038 0 .083 0 .12-.007.008 0 .023 0 .03-.007.03-.008.06-.008.09-.015.008 0 .023-.007.03-.007a.449.449 0 0 0 .106-.036h.008c.037-.014.075-.036.113-.05 0 0 .007 0 .007-.007l14.984-8.258a.965.965 0 0 0 .512-.84V9.234c-.008-.007-.008-.014-.008-.014zm-16-7.129l12.952 7.144-5.388 2.975-12.84-7.208 5.276-2.91zm-1.016 30.243L2.024 25.19V10.91l12.952 7.143v14.28zm1.016-15.962L3.04 9.235 8.7 6.123l12.824 7.201-5.532 3.048zM29.96 25.19l-12.952 7.144v-14.28l7.06-3.882a.684.684 0 0 0 .12-.079l5.78-3.183v14.28h-.008z"/>
</svg>
