<svg xmlns="http://www.w3.org/2000/svg" width="32" height="32" viewBox="0 0 32 32">
    <path fill="#222532" fill-rule="evenodd" d="M30.917 18.758l-1.975-1.266c.092-.842.106-1.664.046-2.473l2.048-1.26a2.002 2.002 0 0 0 .816-2.467l-1.08-2.705a2 2 0 0 0-2.3-1.22l-2.288.497a12.787 12.787 0 0 0-1.716-1.777l.57-2.34a2.005 2.005 0 0 0-1.16-2.315L21.22.292a2.02 2.02 0 0 0-2.48.762c0 .007-.006.007-.006.014l-1.246 1.989a13.378 13.378 0 0 0-2.466-.047L13.762.961A2.036 2.036 0 0 0 12.04 0a1.9 1.9 0 0 0-.742.146l-2.705 1.08a2.011 2.011 0 0 0-1.22 2.295l.498 2.288a12.342 12.342 0 0 0-1.843 1.783l-2.313-.557a1.864 1.864 0 0 0-.47-.053A2 2 0 0 0 1.4 8.196L.26 10.86a2.009 2.009 0 0 0 .762 2.48l2.002 1.286a12.9 12.9 0 0 0-.027 2.48L.97 18.341s-.007 0-.007.006a2.06 2.06 0 0 0-.855 2.4c.007.014.013.027.013.04l1.08 2.706a2.011 2.011 0 0 0 2.3 1.213l2.32-.504a13.3 13.3 0 0 0 1.73 1.777l-.556 2.314a2.005 2.005 0 0 0 1.16 2.315l2.665 1.14a2.02 2.02 0 0 0 2.479-.763l1.286-2.002c.815.086 1.643.1 2.479.027l1.232 2.029c.365.59 1.021.961 1.724.961a1.9 1.9 0 0 0 .742-.146l2.705-1.08a2.011 2.011 0 0 0 1.22-2.295l-.505-2.32a12.672 12.672 0 0 0 1.71-1.665l2.334.564c.152.04.311.053.47.053a2 2 0 0 0 1.843-1.214l1.14-2.659a2.009 2.009 0 0 0-.762-2.48zm-.888 1.777l-1.14 2.666a.217.217 0 0 1-.2.133c-.02 0-.032 0-.052-.007l-2.884-.696a.879.879 0 0 0-.914.318 10.967 10.967 0 0 1-2.194 2.135.894.894 0 0 0-.345.915l.63 2.871c.026.113-.033.212-.133.259l-2.704 1.08c-.027.007-.053.014-.08.014a.224.224 0 0 1-.192-.106l-1.531-2.513a.895.895 0 0 0-.762-.431c-.04 0-.073 0-.113.006a10.947 10.947 0 0 1-3.142-.04.89.89 0 0 0-.888.399l-1.591 2.473a.23.23 0 0 1-.272.086l-2.664-1.14c-.1-.04-.146-.146-.126-.252l.689-2.865a.898.898 0 0 0-.325-.922 11.206 11.206 0 0 1-2.194-2.247.901.901 0 0 0-.915-.345l-2.87.63c-.02.006-.033.006-.053.006a.221.221 0 0 1-.205-.139l-1.074-2.679c-.027-.106.013-.232.106-.285l2.506-1.525a.895.895 0 0 0 .424-.882 10.84 10.84 0 0 1 .04-3.143.891.891 0 0 0-.398-.888L1.99 11.829a.222.222 0 0 1-.086-.272l1.14-2.659a.217.217 0 0 1 .2-.132c.02 0 .032 0 .052.006l2.864.69a.885.885 0 0 0 .921-.331 10.444 10.444 0 0 1 2.3-2.222.892.892 0 0 0 .358-.921l-.616-2.845c-.027-.113.033-.212.132-.259l2.705-1.08a.333.333 0 0 1 .08-.014c.059 0 .145.027.198.106l1.551 2.533c.186.299.53.464.875.418 1.001-.126 2.062-.113 3.135.053a.899.899 0 0 0 .895-.411l1.551-2.467c.06-.086.173-.126.265-.086l2.658 1.14c.1.04.146.147.126.253l-.696 2.884c-.08.338.04.703.318.915.836.65 1.565 1.412 2.175 2.255.205.291.57.43.914.35l2.844-.616c.02-.006.033-.006.053-.006.073 0 .166.04.205.139l1.08 2.705c.04.1 0 .22-.092.272l-2.532 1.552a.897.897 0 0 0-.418.875 11.346 11.346 0 0 1-.053 3.136.896.896 0 0 0 .405.889l2.452 1.571c.086.073.126.186.08.285zM16.109 9h-.112a6.949 6.949 0 0 0-4.907 2.014A6.96 6.96 0 0 0 9 15.895c-.055 3.86 3.034 7.05 6.892 7.105h.111a6.949 6.949 0 0 0 4.907-2.014A6.96 6.96 0 0 0 23 16.105c.055-3.86-3.034-7.05-6.892-7.105zm-.106 12.112h-.076a5.118 5.118 0 0 1-5.032-5.189c.042-2.776 2.334-5.035 5.108-5.035h.077a5.118 5.118 0 0 1 5.032 5.189c-.049 2.776-2.334 5.035-5.109 5.035z"/>
</svg>
