<svg xmlns="http://www.w3.org/2000/svg" width="31" height="33" viewBox="0 0 31 33">
    <path fill="#000" fill-rule="evenodd" d="M15.5 33C6.952 33 0 26.117 0 17.658c0-5.913 3.337-11.2 8.713-13.799a1.335 1.335 0 0 1 1.794.653c.317.687.033 1.509-.64 1.832-4.426 2.142-7.17 6.472-7.17 11.314 0 6.944 5.746 12.594 12.803 12.594s12.802-5.65 12.802-12.594c0-4.876-2.902-9.354-7.4-11.415-.68-.31-.983-1.125-.68-1.818a1.329 1.329 0 0 1 1.781-.687C27.471 6.236 31 11.705 31 17.658 31 26.118 24.048 33 15.5 33zm0-14.352a1.357 1.357 0 0 1-1.346-1.374v-15.9C14.154.613 14.761 0 15.5 0c.745 0 1.346.613 1.346 1.374v15.9c0 .762-.6 1.374-1.346 1.374z"/>
</svg>
