<svg xmlns="http://www.w3.org/2000/svg" width="31" height="32" viewBox="0 0 31 32">
    <path fill="#172D4C" fill-rule="evenodd" d="M6.377 27.55c-.302.665-.684 1.199-1.147 1.604-.464.405-1.541.638-3.232.7.04-1.68.221-2.75.543-3.206.322-.456.796-.84 1.42-1.151l.876-.483c.322-.176.654-.4.996-.669L4.655 22.79c-.282.229-.548.41-.8.545-.252.135-.509.265-.77.389-1.027.519-1.793 1.209-2.296 2.07-.504.86-.755 2.536-.755 5.026l.03 1.027.937-.031c2.577 0 4.279-.285 5.104-.856.825-.571 1.48-1.364 1.963-2.38.1-.23.192-.436.272-.623.08-.187.211-.436.393-.747l-1.42-1.338a6.814 6.814 0 0 0-.543.887c-.141.28-.272.545-.393.794v-.001zM21.328 5.953c-1.067 0-1.978.388-2.733 1.167-.755.778-1.133 1.717-1.133 2.817s.377 2.038 1.133 2.816c.755.778 1.666 1.168 2.733 1.168 1.068 0 1.979-.39 2.734-1.168.755-.778 1.133-1.717 1.133-2.816 0-1.1-.378-2.04-1.133-2.817-.756-.778-1.666-1.167-2.734-1.167zm0 5.975a1.818 1.818 0 0 1-1.374-.591 1.97 1.97 0 0 1-.559-1.4c0-.54.186-1.007.559-1.4.372-.395.83-.592 1.374-.592.524 0 .977.197 1.36.591.382.394.573.861.573 1.4 0 .54-.191 1.007-.574 1.4-.382.395-.835.592-1.359.592zM30.964.972a1.006 1.006 0 0 0-.287-.638.952.952 0 0 0-.619-.296l-.921-.031c-.614-.021-1.425.005-2.431.078a30.652 30.652 0 0 0-3.413.466 21.791 21.791 0 0 0-3.837 1.105c-.946.353-1.822.825-2.627 1.417-.806.59-1.57 1.332-2.296 2.225-.624.726-1.233 1.68-1.827 2.863a181.868 181.868 0 0 0-1.677 3.423c-.201.436-.402.85-.604 1.245-.201.395-.382.747-.543 1.058H4.505a.99.99 0 0 0-.392.078c-.121.052-.232.13-.333.234L.246 18.182a.827.827 0 0 0-.226.435c-.03.166-.026.343.014.53.06.166.151.306.272.42a.957.957 0 0 0 .453.233l5.77 1.37c.18.248.442.565.784.949.343.383.776.876 1.299 1.478l2.174 2.49 1.178 5.135c.04.166.121.316.242.451.12.135.262.223.422.265A.689.689 0 0 0 12.9 32a.982.982 0 0 0 .347-.062.777.777 0 0 0 .288-.187l3.594-3.673a.884.884 0 0 0 .241-.326c.06-.135.091-.275.091-.42v-5.136c.242-.166.559-.358.951-.576.393-.218.79-.44 1.193-.669a81.768 81.768 0 0 1 3.715-2.054c1.39-.726 2.417-1.4 3.081-2.023.967-.871 1.672-1.675 2.115-2.412.442-.736.835-1.571 1.178-2.505.402-1.12.694-2.313.875-3.58.182-1.265.303-2.432.363-3.5.06-1.07.08-1.972.06-2.709-.02-.736-.03-1.136-.03-1.198l.002.002zm-3.081 10.27c-.302.83-.635 1.54-.997 2.132-.363.592-.947 1.26-1.752 2.008-.604.539-1.586 1.167-2.945 1.883a85.64 85.64 0 0 0-3.519 1.945c-.745.415-1.349.757-1.812 1.027-.463.27-.785.488-.967.654a1.016 1.016 0 0 0-.362.778v5.197l-2.054 2.303-.846-3.766a.947.947 0 0 0-.242-.436l-2.915-3.345a181.895 181.895 0 0 1-1.736-2.008 1.697 1.697 0 0 0-.257-.218.787.787 0 0 0-.287-.124l-4.41-1.028 2.174-2.365h5.497a.803.803 0 0 0 .453-.14c.141-.094.262-.213.363-.358.201-.352.428-.778.68-1.276.25-.498.518-1.037.8-1.618a340.7 340.7 0 0 1 1.586-3.222c.574-1.152 1.122-2.048 1.646-2.691a11.657 11.657 0 0 1 1.933-1.868 8.388 8.388 0 0 1 2.205-1.183 17.41 17.41 0 0 1 2.658-.825 28.75 28.75 0 0 1 2.522-.45 26.907 26.907 0 0 1 2.16-.203 34.21 34.21 0 0 1 1.6-.047c0 .457-.005 1.048-.015 1.774-.01.727-.055 1.515-.136 2.366-.08.85-.201 1.716-.362 2.599a15.909 15.909 0 0 1-.665 2.505h.002z"/>
</svg>
