<svg xmlns="http://www.w3.org/2000/svg" width="32" height="32" viewBox="0 0 32 32">
    <path fill="#222532" fill-rule="evenodd" d="M31.858 11.99c-.37-1.176-1.367-1.994-2.55-2.084l-7.705-.585-2.919-7.444C18.234.736 17.184 0 15.996 0c-1.188 0-2.238.736-2.687 1.884l-2.912 7.451-7.706.585c-1.182.09-2.186.907-2.549 2.083-.363 1.176-.02 2.448.892 3.244l5.903 5.191-1.85 7.809a3.077 3.077 0 0 0 .523 2.577C6.164 31.56 7.023 32 7.908 32c.536 0 1.064-.158 1.532-.46l6.564-4.242 6.563 4.242c.468.303.997.46 1.532.46.885 0 1.744-.44 2.298-1.176.549-.728.74-1.67.522-2.577l-1.849-7.809 5.903-5.19a3.141 3.141 0 0 0 .886-3.259h-.001zm-2.352 1.442l-6.444 5.657a1.2 1.2 0 0 0-.37 1.182l2.014 8.525a.634.634 0 0 1-.105.557.627.627 0 0 1-.846.165l-7.164-4.626a1.108 1.108 0 0 0-.595-.179c-.204 0-.415.063-.594.179l-7.164 4.633a.62.62 0 0 1-.846-.165.637.637 0 0 1-.105-.557L9.3 20.28a1.2 1.2 0 0 0-.37-1.182L2.486 13.44a.662.662 0 0 1-.197-.715.613.613 0 0 1 .561-.454l8.406-.64c.429-.034.806-.316.964-.728l3.182-8.125a.614.614 0 0 1 .588-.413c.126 0 .442.041.588.413l3.183 8.125c.165.413.535.701.964.729l8.405.64a.63.63 0 0 1 .562.453.63.63 0 0 1-.184.708h-.002z"/>
</svg>
