<svg xmlns="http://www.w3.org/2000/svg" width="31" height="32" viewBox="0 0 31 32">
    <path fill="#222532" fill-rule="evenodd" d="M0 1.5C0 .673.666 0 1.5 0 2.328 0 3 .668 3 1.5v29c0 .828-.666 1.5-1.5 1.5-.828 0-1.5-.668-1.5-1.5v-29zm23.333 22.96c-.714.72-1.754.72-2.469 0-.714-.722-.714-1.771 0-2.493l4.093-4.196H9.754A1.755 1.755 0 0 1 8 16c0-.984.78-1.77 1.754-1.77h15.203l-4.093-4.132a1.794 1.794 0 0 1 0-2.557c.715-.721 1.755-.721 2.469 0l7.147 7.213A1.8 1.8 0 0 1 31 16a1.8 1.8 0 0 1-.52 1.246l-7.147 7.213z"/>
</svg>
