<svg xmlns="http://www.w3.org/2000/svg" width="27" height="32" viewBox="0 0 27 32">
    <path fill="#172D4C" fill-rule="nonzero" d="M14.624 0c-1.554 0-2.85 1.109-3.235 2.571-.395-.166-.815-.285-1.266-.285-1.85 0-3.375 1.548-3.375 3.428V18l-.985-1a3.365 3.365 0 0 0-4.782 0c-1.308 1.33-1.308 3.528 0 4.857l7.63 7.75C9.934 30.945 11.761 32 13.921 32h5.203C23.461 32 27 28.405 27 24V10.286c0-1.88-1.525-3.429-3.375-3.429-.398 0-.77.084-1.126.214V5.714c0-1.88-1.524-3.428-3.375-3.428-.451 0-.87.119-1.266.285C17.474 1.11 16.178 0 14.624 0zm.035 2c.65 0 1.15.507 1.15 1.167v11.666h2.297V5.5c0-.66.5-1.167 1.15-1.167.648 0 1.148.508 1.148 1.167v9.333h2.298v-4.666c0-.66.5-1.167 1.149-1.167.65 0 1.149.507 1.149 1.167v14C25 27.403 22.442 30 19.255 30h-5.314c-1.462 0-2.721-.726-3.77-1.786l-7.827-7.875a1.195 1.195 0 0 1 0-1.678 1.151 1.151 0 0 1 1.651 0l2.945 3.026 1.974 2.006V5.5c0-.66.5-1.167 1.15-1.167.649 0 1.148.508 1.148 1.167v9.333h2.298V3.167c0-.66.5-1.167 1.15-1.167z"/>
</svg>
