<?xml version="1.0" encoding="UTF-8"?>
<svg width="18px" height="14px" viewBox="0 0 18 14" version="1.1" xmlns="http://www.w3.org/2000/svg" xmlns:xlink="http://www.w3.org/1999/xlink">
    <!-- Generator: sketchtool 50.2 (55047) - http://www.bohemiancoding.com/sketch -->
    <title>656A99FA-CA10-4E68-9530-44CCD60D1F3C</title>
    <desc>Created with sketchtool.</desc>
    <defs></defs>
    <g id="Page-1" stroke="none" stroke-width="1" fill="none" fill-rule="evenodd">
        <g id="Icon-Library" transform="translate(-1509.000000, -3598.000000)" fill="#52677B" fill-rule="nonzero">
            <path d="M1510,3599 L1510,3611 L1526,3611 L1526,3599 L1510,3599 Z M1510,3598 L1526,3598 C1526.55228,3598 1527,3598.44772 1527,3599 L1527,3611 C1527,3611.55228 1526.55228,3612 1526,3612 L1510,3612 C1509.44772,3612 1509,3611.55228 1509,3611 L1509,3599 C1509,3598.44772 1509.44772,3598 1510,3598 Z M1511,3604 L1513,3604 L1513,3606 L1511,3606 L1511,3604 Z M1524,3603 L1525,3603 L1525,3607 L1524,3607 L1524,3603 Z" id="tablet-landscape"></path>
        </g>
    </g>
</svg>