<?xml version="1.0" encoding="UTF-8"?>
<svg width="14px" height="18px" viewBox="0 0 14 18" version="1.1" xmlns="http://www.w3.org/2000/svg" xmlns:xlink="http://www.w3.org/1999/xlink">
    <!-- Generator: sketchtool 50.2 (55047) - http://www.bohemiancoding.com/sketch -->
    <title>4BCB93A1-2F86-411E-9308-E94289A339FD</title>
    <desc>Created with sketchtool.</desc>
    <defs></defs>
    <g id="Page-1" stroke="none" stroke-width="1" fill="none" fill-rule="evenodd">
        <g id="Icon-Library" transform="translate(-1384.000000, -3596.000000)" fill="#52677B" fill-rule="nonzero">
            <path d="M1385,3597 L1385,3613 L1397,3613 L1397,3597 L1385,3597 Z M1385,3596 L1397,3596 C1397.55228,3596 1398,3596.44772 1398,3597 L1398,3613 C1398,3613.55228 1397.55228,3614 1397,3614 L1385,3614 C1384.44772,3614 1384,3613.55228 1384,3613 L1384,3597 C1384,3596.44772 1384.44772,3596 1385,3596 Z M1390,3610 L1392,3610 L1392,3612 L1390,3612 L1390,3610 Z M1389,3598 L1393,3598 L1393,3599 L1389,3599 L1389,3598 Z" id="tablet-portrait"></path>
        </g>
    </g>
</svg>