<svg xmlns="http://www.w3.org/2000/svg" width="32" height="23" viewBox="0 0 32 23">
    <path fill="#222532" fill-rule="evenodd" d="M.384 2.586a1.593 1.593 0 0 1-.224-.31 1.123 1.123 0 0 1-.128-.362A2.607 2.607 0 0 1 0 1.483C0 1.046.128.69.384.413.641.139.972 0 1.377 0h29.246c.405 0 .736.138.993.414.256.276.384.632.384 1.069 0 .437-.128.799-.384 1.086a1.27 1.27 0 0 1-.993.431H1.377c-.405 0-.736-.138-.993-.414zM30.623 10c.405 0 .736.14.993.419.256.279.384.64.384 1.081 0 .442-.128.802-.384 1.081-.257.28-.588.419-.993.419H1.377c-.405 0-.736-.14-.993-.419a1.133 1.133 0 0 1-.128-.174 1.998 1.998 0 0 1-.192-.419 1.394 1.394 0 0 1-.048-.226A2.015 2.015 0 0 1 0 11.5c0-.442.128-.802.384-1.081.257-.28.588-.419.993-.419h29.246zm.993 10.414c.256.276.384.632.384 1.069 0 .437-.128.799-.384 1.086a1.27 1.27 0 0 1-.993.431H1.377c-.405 0-.736-.138-.993-.414a.797.797 0 0 1-.112-.155l-.096-.172a1.245 1.245 0 0 1-.08-.173 3.624 3.624 0 0 1-.064-.19.646.646 0 0 1-.032-.19v-.223c0-.437.128-.793.384-1.07.257-.275.588-.413.993-.413h29.246c.384 0 .715.138.993.414z"/>
</svg>
