<svg xmlns="http://www.w3.org/2000/svg" width="32" height="29" viewBox="0 0 32 29">
    <path fill="#95A6B8" fill-rule="nonzero" d="M31.168 3.13A6.184 6.184 0 0 0 27.392.216a6.143 6.143 0 0 0-4.718.625c-.534.31-1.007.69-1.415 1.124l-1.6-.515a3.412 3.412 0 0 0-2.75.297L2.214 10.282a2.037 2.037 0 0 0-.738 2.77l.393.684-.86.499c-.466.271-.8.709-.938 1.231-.14.524-.068 1.07.2 1.539l6.304 10.981a2.016 2.016 0 0 0 2.755.743l14.696-8.535a3.463 3.463 0 0 0 1.639-2.29l.317-2.26a3.441 3.441 0 0 0 .88-1.65l.357-1.65a6.194 6.194 0 0 0 1.674-.67c2.97-1.725 3.99-5.558 2.276-8.544zm-6.715 14.555a2.207 2.207 0 0 1-1.043 1.437L8.713 27.657a.781.781 0 0 1-1.073-.29l-6.303-10.98a.789.789 0 0 1 .287-1.08l.86-.498 5.295 9.225a2.004 2.004 0 0 0 1.749 1.014c.35 0 .694-.092 1.005-.272l14.071-8.172-.15 1.08zm1.204-3.953a2.202 2.202 0 0 1-1.043 1.436L9.917 23.703a.78.78 0 0 1-1.072-.289l-6.304-10.98a.793.793 0 0 1 .287-1.08L17.525 2.82a2.183 2.183 0 0 1 1.76-.191l1.181.38a6.256 6.256 0 0 0-.886 3.696l-.008.004a2.712 2.712 0 0 0-1.266 1.659 2.73 2.73 0 0 0 2.628 3.439 2.712 2.712 0 0 0 2.62-2.025 2.73 2.73 0 0 0-.272-2.073 2.701 2.701 0 0 0-1.649-1.274 2.718 2.718 0 0 0-.83-.078A5.008 5.008 0 0 1 21.68 3.4l5.126 1.648a.788.788 0 0 1 .53.923l-1.679 7.762zm-4.73-6.152a1.479 1.479 0 0 1 1.29.748c.198.346.25.748.148 1.133a1.482 1.482 0 0 1-2.721.36 1.493 1.493 0 0 1 .544-2.04c.228-.132.483-.201.74-.201zm9.674-.025a4.978 4.978 0 0 1-3.083 3.402l1.021-4.723a2.024 2.024 0 0 0-1.358-2.366l-4.577-1.471a4.933 4.933 0 0 1 4.469-.986 4.956 4.956 0 0 1 3.029 2.337 5.006 5.006 0 0 1 .499 3.807zm-9.67 3.633a2.107 2.107 0 0 1-2.102-2.113c0-1.167.941-2.113 2.101-2.113 1.16 0 2.101.946 2.101 2.113s-.94 2.113-2.1 2.113zM14.37 8.917l.615 1.072L7.1 14.568l-.616-1.073 7.886-4.578zm1.4 2.44l.616 1.072L8.5 17.01l-.616-1.073 7.885-4.58zm-6.485 7.02l7.886-4.58.615 1.072-7.885 4.58-.616-1.072z"/>
</svg>
