<svg xmlns="http://www.w3.org/2000/svg" width="32" height="32" viewBox="0 0 32 32">
    <path fill="#222532" fill-rule="evenodd" d="M32 13V2.437c0-.666-.24-1.24-.719-1.718A2.345 2.345 0 0 0 29.563 0H18.78c-1.146 0-1.937.219-2.375.656L.594 16.47A1.958 1.958 0 0 0 0 17.906c0 .271.052.526.156.766.104.24.25.453.438.64l12.094 12.094c.375.396.843.594 1.406.594.562 0 1.041-.198 1.437-.594l15.813-15.812c.208-.209.364-.474.468-.797a3.26 3.26 0 0 0 .172-.828c.01-.23.016-.552.016-.969zm-2.094 1.188L14.094 30 2 17.906 17.813 2.094a.198.198 0 0 1 .093-.047.657.657 0 0 1 .157-.016c.062 0 .125-.005.187-.015.063-.01.13-.016.203-.016h11.109a.424.424 0 0 1 .438.438V13.03c0 .667-.031 1.052-.094 1.156zM24 4c-1.104 0-2.047.39-2.828 1.172A3.854 3.854 0 0 0 20 8c0 .73.177 1.401.531 2.016a3.891 3.891 0 0 0 1.453 1.453A3.966 3.966 0 0 0 24 12c1.104 0 2.047-.39 2.828-1.172A3.854 3.854 0 0 0 28 8c0-.73-.177-1.401-.531-2.016a3.891 3.891 0 0 0-1.453-1.453A3.966 3.966 0 0 0 24 4zm1.422 5.422a1.914 1.914 0 0 1-1.406.578 1.966 1.966 0 0 1-1.422-.578A1.907 1.907 0 0 1 22 8c0-.563.198-1.036.594-1.422.396-.385.87-.578 1.422-.578.552 0 1.02.193 1.406.578.385.386.578.86.578 1.422 0 .563-.193 1.036-.578 1.422z"/>
</svg>
