<svg xmlns="http://www.w3.org/2000/svg" width="41" height="39" viewBox="0 0 41 39">
    <path fill="#95A6B8" fill-rule="evenodd" d="M35.754 29.945a17.597 17.597 0 0 1-9.71 6.614c1.363-1.647 2.512-4.058 3.324-7.086a.91.91 0 0 0-1.758-.47c-1.223 4.568-3.232 7.572-5.364 8.136-.474.02-.95.026-1.426.008-3.281-.869-6.545-7.71-6.545-17.576 0-10.571 3.747-17.673 7.247-17.673 3.388 0 6.38 6.122 7.088 14.063l-1.029-1.027a.91.91 0 0 0-1.286 1.285l2.702 2.699c.162.177.389.287.64.284.009 0 .017.005.025.005.006 0 .012-.003.017-.003h.008a.9.9 0 0 0 .272-.055c.023-.008.045-.013.066-.022.09-.04.171-.097.243-.161.012-.011.026-.014.037-.025l2.725-2.722a.908.908 0 1 0-1.286-1.285l-1.286 1.285c-.474-6.102-2.215-11.12-4.627-13.865 2.179.55 4.254 1.52 6.121 2.89a17.553 17.553 0 0 1 7.02 11.563 17.551 17.551 0 0 1-3.218 13.138m5.015-13.414a19.36 19.36 0 0 0-7.741-12.754A19.385 19.385 0 0 0 18.532.23a19.374 19.374 0 0 0-12.76 7.737 19.572 19.572 0 0 0-2.21 3.864.908.908 0 1 0 1.671.716 17.773 17.773 0 0 1 2.005-3.505 17.546 17.546 0 0 1 9.976-6.693c-2.854 3.247-4.758 9.667-4.758 17.222 0 7.403 1.828 13.716 4.588 17.021A17.653 17.653 0 0 1 4.79 25.272l1.461 1.073a.91.91 0 1 0 1.076-1.466l-3.392-2.487a.91.91 0 0 0-1.272.195L.176 25.98a.909.909 0 1 0 1.467 1.075l1.252-1.708a19.466 19.466 0 0 0 7.069 9.864 19.377 19.377 0 0 0 10.52 3.729l.02.005c.32.074 1.604.075 2.012.002 5.642-.3 11.11-3.029 14.705-7.926a19.353 19.353 0 0 0 3.548-14.49m-37.05-.835a1 1 0 1 0-1.436-1.39 1 1 0 0 0 1.436 1.39m24.574 11.012a.999.999 0 1 0 1.414-1.414 1 1 0 0 0-1.414 1.414zM3.719 18.695a1 1 0 1 0-1.437-1.39 1 1 0 0 0 1.437 1.39m24.574 3.598a1 1 0 1 0 1.415 1.414 1 1 0 0 0-1.415-1.414"/>
</svg>
