<svg xmlns="http://www.w3.org/2000/svg" width="32" height="20" viewBox="0 0 32 20">
    <path fill="#172D4C" fill-rule="evenodd" d="M6.869 12.066l2.505-7.218h.054l2.424 7.218H6.869zM7.273 0L0 19.67h4.256l1.508-4.38h7.192l1.455 4.38h4.39L11.61 0H7.273zm22.033 16.86h-.053a4.389 4.389 0 0 1-.7 1.198 5 5 0 0 1-1.119 1.005c-.44.294-.938.524-1.495.69a6.415 6.415 0 0 1-1.831.247c-1.473 0-2.613-.326-3.421-.978-.808-.652-1.212-1.657-1.212-3.016 0-.827.161-1.502.485-2.025a3.718 3.718 0 0 1 1.225-1.24 5.188 5.188 0 0 1 1.643-.647c.602-.129 1.181-.22 1.738-.276l1.589-.138c.736-.055 1.315-.142 1.737-.261.422-.12.741-.285.956-.496.216-.211.35-.482.405-.813.053-.33.08-.744.08-1.24 0-.385-.071-.743-.215-1.074a2.401 2.401 0 0 0-.674-.881c-.305-.258-.7-.46-1.185-.606-.485-.147-1.077-.22-1.778-.22-1.239 0-2.24.311-3.003.936-.763.624-1.18 1.57-1.252 2.837h-1.024c.072-1.56.561-2.732 1.468-3.512.907-.78 2.195-1.17 3.865-1.17 1.67 0 2.887.334 3.65 1.005.763.67 1.145 1.547 1.145 2.63v8.237c0 .202.004.404.013.606.01.202.04.386.095.551a.828.828 0 0 0 .27.4c.125.1.304.151.538.151.18 0 .43-.027.754-.082v.881a3.16 3.16 0 0 1-.835.11c-.413 0-.74-.055-.983-.165a1.3 1.3 0 0 1-.552-.44 1.652 1.652 0 0 1-.256-.648 4.57 4.57 0 0 1-.068-.813v-.743zm0-5.235c-.251.313-.633.524-1.144.634-.512.11-1.082.193-1.71.248l-1.725.165c-.503.055-1.005.133-1.508.234-.503.101-.956.271-1.36.51a2.814 2.814 0 0 0-.984.978c-.251.413-.377.95-.377 1.612 0 1.046.324 1.822.97 2.327.646.505 1.535.758 2.667.758 1.167 0 2.092-.216 2.774-.647.682-.432 1.203-.928 1.562-1.488.36-.56.588-1.102.687-1.625.099-.524.148-.877.148-1.061v-2.645z"/>
</svg>
