<svg xmlns="http://www.w3.org/2000/svg" width="27" height="22" viewBox="0 0 27 22">
    <path fill="#95A6B8" fill-rule="evenodd" d="M24.56 7.271C22.544 5.26 19.863 5.23 19.709 5.23h-.002L5.162 5.197l2.77-2.874A1.374 1.374 0 0 0 5.952.418L0 6.602l5.953 6.18c.269.28.631.423.99.423a1.374 1.374 0 0 0 .988-2.325L5.103 7.942l14.598.033c.437.006 4.273.198 4.273 5.259 0 5.077-4.553 5.258-5.071 5.26H3.352a1.373 1.373 0 0 0 0 2.745h15.55c.194 0 3.416-.035 5.68-2.294 1.417-1.413 2.136-3.335 2.136-5.711 0-2.53-.727-4.534-2.157-5.962"/>
</svg>
