<svg xmlns="http://www.w3.org/2000/svg" width="32" height="32" viewBox="0 0 32 32">
    <path fill="#222532" fill-rule="evenodd" d="M16 22c4.963 0 9-4.936 9-11S20.962 0 16 0c-2.447 0-4.734 1.174-6.438 3.305C7.909 5.37 7 8.104 7 11.001 7 17.064 11.037 22 16 22zm0-19.999c3.859 0 7 4.037 7 9s-3.141 9-7 9-7-4.038-7.001-9c0-4.963 3.141-9 7.001-9zM23 20a1 1 0 1 0 0 2c3.859 0 7 3.141 7 7 0 .551-.449 1-1 1H3c-.551 0-1-.449-1-1 0-3.859 3.141-7 7-7a1 1 0 1 0 0-2c-4.963 0-9 4.037-9 9 0 1.654 1.346 3 3 3h26c1.654 0 3-1.346 3-3 0-4.962-4.037-9-9-9z"/>
</svg>
