<svg xmlns="http://www.w3.org/2000/svg" width="32" height="32" viewBox="0 0 32 32">
    <path fill="#172D4C" fill-rule="evenodd" d="M16.015 2.002c.833 0 1.673.162 2.518.485a9.3 9.3 0 0 1 2.252 1.22 7.336 7.336 0 0 1 1.61 1.61c.417.585.626 1.147.626 1.69v5.004c0 .96-.224 2.205-.672 3.738-.449 1.532-1.216 2.715-2.3 3.55a1.998 1.998 0 0 0-.75 1.814 2.02 2.02 0 0 0 1.157 1.595l8.727 4.129c.021 0 .161.068.423.203.26.135.391.474.391 1.017v1.939l-27.996.031v-2.033c0-.417.109-.704.328-.86.22-.157.392-.256.517-.297l8.79-4.16c.313-.147.568-.36.766-.642.198-.281.328-.59.391-.922a1.976 1.976 0 0 0-.14-1.017 1.937 1.937 0 0 0-.61-.798c-1.043-.834-1.81-2.012-2.3-3.534-.49-1.523-.734-2.774-.734-3.754V7.006c0-.521.203-1.075.61-1.658.406-.584.943-1.126 1.61-1.627a9.374 9.374 0 0 1 2.252-1.235A6.962 6.962 0 0 1 16.015 2v.001zm0-2.002c-1.106 0-2.2.209-3.285.626-1.084.417-2.049.96-2.893 1.626a8.86 8.86 0 0 0-2.05 2.253c-.521.834-.781 1.668-.781 2.503v5.004c0 .542.063 1.205.188 1.986.125.781.34 1.585.642 2.409.302.824.693 1.631 1.173 2.424a7.596 7.596 0 0 0 1.782 2.033l-8.79 4.16s-.332.194-1 .58C.333 25.988 0 26.453 0 26.994v3.034a1.9 1.9 0 0 0 .579 1.393c.385.385.86.578 1.423.578h28.027a1.9 1.9 0 0 0 1.392-.578c.387-.386.579-.85.579-1.393v-3.034c0-.583-.328-1.058-.985-1.423-.657-.366-.985-.547-.985-.547l-8.727-4.16a7.676 7.676 0 0 0 1.751-1.955c.48-.76.866-1.554 1.157-2.378.293-.824.5-1.631.626-2.424.125-.793.188-1.491.188-2.096V7.008c0-.834-.266-1.668-.798-2.503a9.103 9.103 0 0 0-2.065-2.253A11.07 11.07 0 0 0 19.285.626 8.964 8.964 0 0 0 16.015 0z"/>
</svg>
