<svg xmlns="http://www.w3.org/2000/svg" width="32" height="28" viewBox="0 0 32 28">
    <path fill="#172D4C" fill-rule="nonzero" d="M12.728 0c-2.35.045-4.065.764-5.107 2.178-1.234 1.674-1.46 4.223-.678 7.56-.288.362-.504.912-.42 1.643.17 1.45.716 2.043 1.178 2.28.22 1.137.83 2.417 1.416 3.02v.308c.005.667.002 1.245-.06 1.993-.39.923-1.692 1.467-3.192 2.074C3.371 22.066.272 23.314.04 27.302L0 28h25.616l-.04-.698c-.068-1.164-.39-2.096-.858-2.856H32l-.04-.698c-.081-1.4-.614-2.49-1.357-3.267-.742-.777-1.674-1.264-2.573-1.664-.9-.4-1.783-.702-2.454-1.047-.647-.334-1.014-.67-1.177-1.069a21.725 21.725 0 0 1-.06-1.91c.061-.073.162-.123.22-.206.152-.215.305-.477.439-.76.227-.48.38-1.048.478-1.623.166-.096.344-.11.48-.287.274-.36.456-.847.538-1.54v-.021c.07-.602-.119-1.005-.36-1.336.264-.89.59-2.297.48-3.759-.062-.807-.26-1.62-.739-2.3-.454-.647-1.197-1.123-2.134-1.295C23.13.969 22.17.657 21.047.657c-1.535.03-2.732.415-3.61 1.11a3.95 3.95 0 0 0-1.397-.576C15.437.407 14.28 0 12.728 0zm8.45 1.931h.021c1.105.005 1.794.33 1.97.64l.167.267.31.062c.755.105 1.175.374 1.473.784.299.41.467.995.519 1.65.102 1.308-.279 2.87-.519 3.588l-.166.495.457.268c-.061-.037.175.091.124.516-.065.532-.205.8-.29.907-.085.108-.108.085-.083.083l-.56.04-.042.537c-.05.464-.256 1.034-.477 1.485-.11.225-.213.423-.31.557-.06.08-.102.14-.125.165h-.021c-.003.003 0 .02 0 .02l-.353.165v.392c0 .802-.022 1.474.063 2.413v.082l.041.083c.333.89 1.107 1.426 1.929 1.835.822.41 1.743.72 2.613 1.093.87.374 1.663.799 2.24 1.382.435.44.708 1.026.871 1.732h-7.197c-1.171-.987-2.656-1.562-3.982-2.082-1.553-.61-2.912-1.156-3.318-2.083-.064-.749-.048-1.332-.042-2v-.31c.594-.605 1.206-1.889 1.431-3.032.48-.238 1.047-.834 1.224-2.289.088-.72-.124-1.265-.415-1.629.386-1.307 1.174-4.71-.187-6.888-.049-.078-.112-.133-.165-.206.627-.422 1.518-.695 2.8-.722z"/>
</svg>
