<svg xmlns="http://www.w3.org/2000/svg" width="32" height="32" viewBox="0 0 32 32">
    <path fill="#222532" fill-rule="evenodd" d="M16 0C7.174 0 0 7.174 0 16s7.18 16 16 16c8.826 0 16-7.18 16-16 0-8.826-7.174-16-16-16zm0 29.759C8.415 29.759 2.241 23.585 2.241 16S8.415 2.241 16 2.241 29.759 8.415 29.759 16 23.585 29.759 16 29.759zm8.559-14.7l-11.486-7.37a1.121 1.121 0 0 0-1.724.941v14.733a1.111 1.111 0 0 0 1.117 1.117c.209 0 .418-.059.608-.176l11.486-7.363c.32-.209.516-.562.516-.941a1.137 1.137 0 0 0-.516-.941h-.001zm-10.976 6.259V10.682L21.874 16l-8.291 5.318z"/>
</svg>
