<svg xmlns="http://www.w3.org/2000/svg" width="32" height="32" viewBox="0 0 32 32">
    <path fill="#000" fill-rule="evenodd" d="M27 12.125V1c0-.27.099-.505.297-.703A.961.961 0 0 1 28 0c.27 0 .505.099.703.297A.961.961 0 0 1 29 1v11.125c.875.23 1.594.703 2.156 1.422.563.719.844 1.536.844 2.453 0 .917-.281 1.734-.844 2.453A3.938 3.938 0 0 1 29 19.875V31c0 .27-.099.505-.297.703A.961.961 0 0 1 28 32a.961.961 0 0 1-.703-.297A.961.961 0 0 1 27 31V19.875a3.938 3.938 0 0 1-2.156-1.422A3.874 3.874 0 0 1 24 16c0-.917.281-1.734.844-2.453A3.938 3.938 0 0 1 27 12.125zM28 18c.563 0 1.036-.198 1.422-.594.385-.396.578-.864.578-1.406 0-.542-.193-1.01-.578-1.406A1.907 1.907 0 0 0 28 14c-.563 0-1.036.198-1.422.594A1.948 1.948 0 0 0 26 16c0 .354.089.688.266 1A1.947 1.947 0 0 0 28 18zm-13 .125V1c0-.27.099-.505.297-.703A.961.961 0 0 1 16 0c.27 0 .505.099.703.297A.961.961 0 0 1 17 1v17.125c.875.23 1.594.703 2.156 1.422.563.719.844 1.536.844 2.453 0 .917-.281 1.734-.844 2.453A3.938 3.938 0 0 1 17 25.875V31c0 .27-.099.505-.297.703A.961.961 0 0 1 16 32a.961.961 0 0 1-.703-.297A.961.961 0 0 1 15 31v-5.125a3.856 3.856 0 0 1-.969-.39 4.22 4.22 0 0 1-.844-.626c-.25-.24-.463-.51-.64-.812a3.974 3.974 0 0 1-.406-.969A4.08 4.08 0 0 1 12 22c0-.917.281-1.734.844-2.453A3.938 3.938 0 0 1 15 18.125zM16 24c.188 0 .37-.026.547-.078.177-.052.338-.12.484-.203.146-.084.276-.188.39-.313a2.256 2.256 0 0 0 .5-.875c.053-.166.079-.343.079-.531 0-.542-.193-1.01-.578-1.406A1.907 1.907 0 0 0 16 20c-.563 0-1.036.198-1.422.594A1.948 1.948 0 0 0 14 22c0 .542.193 1.01.578 1.406.386.396.86.594 1.422.594zM3 6.125V1c0-.27.099-.505.297-.703A.961.961 0 0 1 4.375.078a1.06 1.06 0 0 1 .547.531A.934.934 0 0 1 5 1v5.125c.875.23 1.594.703 2.156 1.422C7.72 8.266 8 9.083 8 10c0 .917-.281 1.734-.844 2.453A3.938 3.938 0 0 1 5 13.875V31c0 .27-.099.505-.297.703A.961.961 0 0 1 4 32a.961.961 0 0 1-.703-.297A.961.961 0 0 1 3 31V13.875a3.57 3.57 0 0 1-1.203-.531 4.495 4.495 0 0 1-.953-.875 3.674 3.674 0 0 1-.625-1.14A4.082 4.082 0 0 1 0 10c0-.917.281-1.734.844-2.453A3.938 3.938 0 0 1 3 6.125zM4 12c.27 0 .531-.052.781-.156a1.96 1.96 0 0 0 .64-.422 1.96 1.96 0 0 0 .423-.64C5.948 10.531 6 10.27 6 10c0-.542-.193-1.01-.578-1.406A1.907 1.907 0 0 0 4 8c-.563 0-1.036.198-1.422.594A1.948 1.948 0 0 0 2 10c0 .354.089.688.266 1A1.947 1.947 0 0 0 4 12z"/>
</svg>
