<svg xmlns="http://www.w3.org/2000/svg" width="32" height="29" viewBox="0 0 32 29">
    <path fill="#222532" fill-rule="evenodd" d="M32 7.563c0-.355-.126-.876-.375-1.563-.25-.687-.938-1.187-2.063-1.5L6.968 0C6.156 0 5.453.292 4.86.875A2.868 2.868 0 0 0 3.97 3v4h-1c-.813.02-1.511.323-2.094.906S0 9.187 0 10v16c0 .834.292 1.542.875 2.125A2.893 2.893 0 0 0 3 29h26c.833 0 1.542-.292 2.125-.875A2.894 2.894 0 0 0 32 26V7.562zM5.968 3c0-.27.089-.5.266-.688A.997.997 0 0 1 6.906 2L28.97 6.469l-.187.28c-.125.188-.386.272-.782.25H5.97V3zM30 26a.96.96 0 0 1-.297.703.962.962 0 0 1-.703.298H3a.96.96 0 0 1-.703-.298.962.962 0 0 1-.297-.702V10a.96.96 0 0 1 .297-.704A.962.962 0 0 1 3 9h25c.48 0 .932-.083 1.36-.25.427-.166.64-.416.64-.75v18zM6 16c-.563 0-1.037.198-1.422.594A1.948 1.948 0 0 0 4 18c0 .563.193 1.037.578 1.422.385.386.86.578 1.422.578.541 0 1.01-.192 1.406-.578.396-.385.594-.86.594-1.422 0-.541-.198-1.01-.594-1.406A1.921 1.921 0 0 0 6 16z"/>
</svg>
