<svg xmlns="http://www.w3.org/2000/svg" width="33" height="26" viewBox="0 0 33 26">
    <path fill="#172D4C" fill-rule="evenodd" d="M30.938 3.12h-15.47L12.376 0H2.062a2 2 0 0 0-1.45.601C.204 1.002 0 1.495 0 2.08v21.84c0 .585.204 1.078.612 1.479a2 2 0 0 0 1.45.601h28.875c.58 0 1.07-.2 1.467-.601.397-.401.596-.894.596-1.479V5.2c0-.195-.021-.38-.064-.552a1.632 1.632 0 0 0-.21-.488 2.53 2.53 0 0 0-.338-.422 1.985 1.985 0 0 0-.42-.326 2.424 2.424 0 0 0-.483-.21 1.812 1.812 0 0 0-.547-.082zM2.063 2.08h9.377l2.546 2.502.645.618h16.306v2.08H2.063v-5.2zm0 21.84V9.36h28.875v14.56H2.063z"/>
</svg>
