<svg xmlns="http://www.w3.org/2000/svg" width="32" height="26" viewBox="0 0 32 26">
    <path fill="#222532" fill-rule="evenodd" d="M2 0C1.458 0 .99.193.594.578.198.964 0 1.438 0 2v17c0 .542.198 1.01.594 1.406C.99 20.802 1.458 21 2 21h13v3h-5a.961.961 0 0 0-.703.297A.961.961 0 0 0 9 25c0 .27.099.505.297.703A.961.961 0 0 0 10 26h12c.27 0 .505-.099.703-.297A.961.961 0 0 0 23 25a.961.961 0 0 0-.297-.703A.961.961 0 0 0 22 24h-5v-3h13c.542 0 1.01-.198 1.406-.594.396-.396.594-.864.594-1.406V2c0-.563-.198-1.036-.594-1.422A1.948 1.948 0 0 0 30 0H2zm28 19H2V2h28v17z"/>
</svg>
