<svg xmlns="http://www.w3.org/2000/svg" width="32" height="32" viewBox="0 0 32 32">
    <path fill="#222532" fill-rule="evenodd" d="M31.278 6.277a.999.999 0 0 0-1.634-.334l-4.935 4.934c-.39.39-1.024.39-1.415.001l-2.172-2.173A.99.99 0 0 1 20.83 8c0-.267.104-.518.293-.708l4.935-4.935A1 1 0 0 0 25.723.72a10.04 10.04 0 0 0-6.038-.453c-3.917.91-6.956 4.188-7.564 8.16-.08.524-.12 1.053-.12 1.572v3.586L1.327 24.257A4.503 4.503 0 0 0 0 27.464c0 1.212.472 2.351 1.328 3.208A4.502 4.502 0 0 0 4.536 32a4.502 4.502 0 0 0 3.207-1.328L18.415 20h3.586c.522 0 1.052-.04 1.573-.12 3.97-.607 7.249-3.648 8.159-7.564a10.018 10.018 0 0 0-.455-6.038v-.001zm-1.494 5.587c-.725 3.126-3.344 5.554-6.513 6.04-.422.063-.85.097-1.27.097h-4a1 1 0 0 0-.708.293L6.328 29.259a2.539 2.539 0 0 1-3.586 0A2.52 2.52 0 0 1 2 27.465c0-.677.263-1.314.742-1.793l10.964-10.965c.187-.188.293-.442.293-.708v-4c0-.418.033-.846.098-1.27.485-3.17 2.912-5.787 6.039-6.514a8.174 8.174 0 0 1 3.314-.082l-3.743 3.743a2.981 2.981 0 0 0-.878 2.122c0 .801.312 1.555.878 2.121l2.172 2.173a3.005 3.005 0 0 0 4.243 0l3.743-3.744c.2 1.086.175 2.21-.082 3.315h.001z"/>
</svg>
