<svg xmlns="http://www.w3.org/2000/svg" width="32" height="29" viewBox="0 0 32 29">
    <path fill="#000" fill-rule="evenodd" d="M15 15h7v2h-9V7h2v8zm16.936-2.756a.648.648 0 0 1-.092.702L28.482 16.9a.679.679 0 0 1-1.033 0l-3.362-3.954a.647.647 0 0 1-.092-.702.675.675 0 0 1 .61-.38h1.977c-1.227-5.275-6.042-9.226-11.79-9.226-6.673 0-12.103 5.322-12.103 11.864 0 6.54 5.43 11.862 12.103 11.862 4.306 0 8.323-2.273 10.483-5.931a1.357 1.357 0 0 1 1.836-.48c.644.365.863 1.17.492 1.8C24.964 26.224 20.055 29 14.792 29 6.635 29 0 22.495 0 14.5S6.636 0 14.792 0c7.237 0 13.274 5.124 14.541 11.864h1.993c.262 0 .5.148.61.38z"/>
</svg>
