<svg xmlns="http://www.w3.org/2000/svg" width="32" height="32" viewBox="0 0 32 32">
    <path fill="#222532" fill-rule="evenodd" d="M1.117 32h22.818c.62 0 1.123-.503 1.123-1.123v-5.825h5.825c.62 0 1.117-.503 1.117-1.117V1.117C32 .497 31.497 0 30.883 0H8.065c-.62 0-1.123.503-1.123 1.117v5.825H1.117C.497 6.942 0 7.445 0 8.065v22.818A1.12 1.12 0 0 0 1.117 32zM9.182 2.24H29.76v20.578H9.182V2.24zM2.24 9.182h4.702v14.753c0 .62.503 1.117 1.123 1.117h14.753v4.702H2.24V9.182zm12.095 4.467a1.113 1.113 0 0 1-1.117-1.123c0-.62.497-1.123 1.117-1.123h4.016V7.387c0-.62.503-1.123 1.123-1.123.614 0 1.117.503 1.117 1.123v4.016h4.016c.614 0 1.117.503 1.117 1.123s-.497 1.123-1.117 1.123h-4.016v4.016c0 .62-.497 1.123-1.117 1.123s-1.123-.503-1.123-1.123v-4.016h-4.016z"/>
</svg>
