<svg xmlns="http://www.w3.org/2000/svg" width="32" height="32" viewBox="0 0 32 32">
    <path fill="#172D4C" fill-rule="evenodd" d="M31.896 22.817l-2.56-4.7-.188-.343a.684.684 0 0 0-.469-.311.75.75 0 0 0-.265-.016.538.538 0 0 0-.266.11l-.312.186v.031l-4.56 3.05a.66.66 0 0 0-.25.281.827.827 0 0 0-.093.374c0 .124.031.249.094.373l.218.218c.084.166.23.26.437.28a.87.87 0 0 0 .563-.124l2.717-1.868c-.313 2.573-1.406 4.757-3.28 6.553-1.873 1.795-4.101 2.817-6.683 3.066V9.992h3.998c.27 0 .505-.098.702-.295a.956.956 0 0 0 .297-.7.956.956 0 0 0-.297-.701.962.962 0 0 0-.702-.296h-4.029l-.031-.031v-.031a4.06 4.06 0 0 0 2.217-1.432 3.869 3.869 0 0 0 .875-2.49c0-1.1-.39-2.045-1.171-2.833C18.077.394 17.129 0 16.016 0c-1.114 0-2.067.394-2.858 1.183-.791.788-1.187 1.733-1.187 2.833 0 .933.292 1.764.875 2.49a3.9 3.9 0 0 0 2.217 1.4v.063L15.032 8h-4.029a.962.962 0 0 0-.702.296.956.956 0 0 0-.297.7c0 .27.099.503.297.7a.962.962 0 0 0 .702.296h3.998v19.985c-2.582-.25-4.804-1.266-6.668-3.05-1.863-1.786-2.962-3.975-3.295-6.569l2.717 1.868a.87.87 0 0 0 .563.124c.208-.02.353-.114.437-.28l.218-.218a.927.927 0 0 0 .062-.576.838.838 0 0 0-.109-.264.5.5 0 0 0-.203-.187l-4.559-3.082-.312-.187a.551.551 0 0 0-.531-.093.681.681 0 0 0-.266.109.936.936 0 0 0-.203.202l-.187.343-2.56 4.7a.75.75 0 0 0-.079.576.73.73 0 0 0 .328.451l.281.125c.167.104.344.12.53.047a.838.838 0 0 0 .438-.39l1.5-2.77c.457 3.196 1.91 5.852 4.356 7.969C9.905 30.942 12.752 32 16 32s6.095-1.058 8.541-3.175c2.447-2.117 3.899-4.773 4.357-7.969l1.499 2.77c.104.187.25.317.437.39a.567.567 0 0 0 .531-.047l.281-.125a.73.73 0 0 0 .328-.451.75.75 0 0 0-.078-.576zM14 4.016c0-.56.198-1.038.594-1.432.395-.395.869-.592 1.42-.592.552 0 1.031.197 1.437.592.406.394.61.871.61 1.432 0 .228-.037.44-.11.638a2.128 2.128 0 0 1-.734.98 2.071 2.071 0 0 1-.562.296 1.977 1.977 0 0 1-.656.109c-.167 0-.338-.026-.515-.078A2.257 2.257 0 0 1 15 5.76a1.92 1.92 0 0 1-.406-.312 2.43 2.43 0 0 1-.328-.404 1.532 1.532 0 0 1-.203-.483A2.363 2.363 0 0 1 14 4.016z"/>
</svg>
