<svg xmlns="http://www.w3.org/2000/svg" width="28" height="32" viewBox="0 0 28 32">
    <path fill="#222532" fill-rule="evenodd" d="M26 12.001c-1.1 0-2 .9-2 2v8c0 1.1.9 2 2 2s2-.9 2-2v-8c0-1.1-.9-2-2-2zm-24 0c-1.1 0-2 .9-2 2v8c0 1.1.9 2 2 2s2-.9 2-2v-8c0-1.1-.9-2-2-2zm3 11h-.001V12h18v11a3 3 0 0 1-3 3v4c0 1.1-.9 2-2 2s-2-.9-2-2v-4h-4v4c0 1.1-.9 2-2 2C8.9 32 8 31.1 8 30v-4a3 3 0 0 1-3-3zM22.947 10h-.002H23v1H5v-1a8.99 8.99 0 0 1 4.063-6.551L8.06 1.448A.998.998 0 0 1 8.508.106a1.005 1.005 0 0 1 1.346.447l1.008 2.008.262-.103A9.027 9.027 0 0 1 13.974 2c.996 0 1.953.16 2.849.458l.262.103L18.092.553c.248-.494.85-.694 1.346-.447a.998.998 0 0 1 .449 1.342l-1.004 2.001a8.992 8.992 0 0 1 4.064 6.55zM11 8h-.002a.999.999 0 1 0 .003-2h-.005a.999.999 0 1 0 .004 2zm6 0h-.002a.999.999 0 1 0 .003-2h-.005A1 1 0 0 0 17 8z"/>
</svg>
