<svg xmlns="http://www.w3.org/2000/svg" width="32" height="27" viewBox="0 0 32 27">
    <path fill="#222532" fill-rule="evenodd" d="M25.834 15.162l-3.165 1.79c-.172-.281-.345-.554-.509-.831-.899-1.524-1.798-3.047-2.693-4.573-.815-1.389-1.623-2.783-2.438-4.173-.88-1.498-1.769-2.993-2.647-4.493-.167-.286-.336-.577-.447-.885-.126-.352.041-.672.273-.93.447-.498 1-.852 1.66-1.01.622-.15 1.116-.023 1.456.597.604 1.1 1.269 2.166 1.905 3.248.571.972 1.136 1.948 1.707 2.919.89 1.511 1.786 3.019 2.675 4.532.743 1.264 1.479 2.533 2.223 3.81 0 0-.744-1.277 0 0zM6.296 22.13a4203.57 4203.57 0 0 0-3.174-1.8l7.517-12.814 3.176 1.802-7.518 12.81s2.513-4.282 0 0l-.001.002zm3.772-5.168L12.44 13h7.3l2.214 3.962H10.068zm19.193 10c-.084-.265-.154-.503-.236-.736-.089-.252-.173-.508-.289-.749-.249-.52-.768-.695-1.255-.905-1.192-.517-1.927-1.405-2.178-2.655-.071-.352-.056-.726-.047-1.089a.441.441 0 0 1 .195-.311 88.65 88.65 0 0 1 2.204-1.238.328.328 0 0 1 .262.006c1.308.677 2.161 1.707 2.482 3.134.251 1.112.084 2.19-.353 3.226-.176.418-.436.802-.661 1.201-.018.034-.057.055-.125.119 0 0 .068-.064 0 0l.001-.002zM0 13h6.837l-2.38 3.938s-3.056.024-4.404.023c-.013 0-.053-.023-.053-.023V13zm32 0v3.962h-4.32L25.361 13H32zm-7.326 7.326l-1.767-2.979c.955-.537 1.913-1.075 2.869-1.616.316-.178.315-.183.494.119l1.593 2.685-3.189 1.791zM14.123 8.897L10.926 7.1c.393-.66.768-1.32 1.175-1.961.235-.37.643-.475 1.047-.4.826.156 1.527.55 2.024 1.229.235.32.28.676.057 1.045-.377.622-.737 1.253-1.107 1.884 0 0 .37-.63 0 0h.001zM2.893 20.864l3.116 1.763L1.365 27l1.528-6.137s-.512 2.055 0 0z"/>
</svg>
