<svg xmlns="http://www.w3.org/2000/svg" viewBox="0 0 32 32"><path fill="#95A6B8" fill-rule="evenodd" d="M32 16a2 2 0 00-1.196-1.84L25.824 12l4.979-2.161A2 2 0 0032 7.999c0-.803-.47-1.526-1.195-1.84L17.165.244a2.92 2.92 0 00-2.329-.001L1.197 6.159A2 2 0 000 8c0 .803.47 1.526 1.195 1.839L6.176 12l-4.98 2.16A2.004 2.004 0 000 16.002c0 .802.47 1.525 1.195 1.838L6.175 20l-4.978 2.16A2.002 2.002 0 000 24.002c0 .802.47 1.525 1.195 1.838l13.642 5.918a2.906 2.906 0 002.324.002L30.8 25.84A1.998 1.998 0 0032 24c0-.804-.47-1.527-1.195-1.84L25.824 20l4.978-2.16A1.998 1.998 0 0031.999 16zM16 3.008l11.51 4.994-11.477 5.005L4.494 8 16 3.007zm11.51 20.994l-11.478 5.005L4.494 24l5.45-2.365 4.894 2.122a2.903 2.903 0 002.324.002l4.893-2.123 5.456 2.366zm-11.478-2.996L4.494 16l5.451-2.365 4.893 2.123a2.902 2.902 0 002.324.001l4.893-2.123 5.456 2.367-11.478 5.004z"/></svg>