<svg xmlns="http://www.w3.org/2000/svg" width="32" height="32" viewBox="0 0 32 32">
    <path fill="#172D4C" fill-rule="evenodd" d="M.69 9.437l14.843 8.095c.083.02.161.042.234.063a.843.843 0 0 0 .234.03c.083 0 .167-.004.25-.015a.508.508 0 0 0 .219-.078L31.5 9.437a.95.95 0 0 0 .359-.375c.093-.167.141-.344.141-.53a.984.984 0 0 0-.141-.517.924.924 0 0 0-.391-.359L16.625.125A.905.905 0 0 0 16.172 0a.905.905 0 0 0-.453.125L.72 7.656a1.033 1.033 0 0 0-.406.36.91.91 0 0 0-.156.515c0 .188.047.365.141.531a.907.907 0 0 0 .391.375zm15.467-7.313l12.687 6.47-12.843 6.905L3.314 8.593l12.843-6.469zM31.281 15l-2.969-1.5-2.125 1.156 2.5 1.282-12.843 6.906-12.687-6.906 2.656-1.345-2.125-1.156L.532 15a.93.93 0 0 0-.391.36.981.981 0 0 0-.141.515c0 .188.047.366.141.532a.97.97 0 0 0 .359.375l14.843 8.094c.083.042.167.073.25.094.083.02.167.03.25.03.083 0 .161-.01.234-.03.073-.021.151-.052.234-.094L31.31 16.78a.9.9 0 0 0 .391-.375c.094-.167.141-.344.141-.532a.938.938 0 0 0-.156-.5A1 1 0 0 0 31.28 15h.001zm0 7l-2.813-1.374-2.125 1.156 2.344 1.156-12.843 6.906-12.687-6.906 2.469-1.125L3.5 20.656.532 22a.93.93 0 0 0-.391.359.981.981 0 0 0-.141.516c0 .188.047.365.141.53a.97.97 0 0 0 .359.376l14.843 8.094c.083.042.167.073.25.094.083.021.167.031.25.031.083 0 .161-.01.234-.031.073-.021.151-.052.234-.094l14.999-8.094a.9.9 0 0 0 .391-.375c.094-.167.141-.344.141-.531a.938.938 0 0 0-.156-.5A1 1 0 0 0 31.28 22h.001z"/>
</svg>
