<svg xmlns="http://www.w3.org/2000/svg" width="31" height="28" viewBox="0 0 31 28">
    <path fill="#112038" fill-rule="evenodd" d="M30.965 15.826l-3.293-12.06a.968.968 0 0 0-.519-.617l-.091-.043a.954.954 0 0 0-.392-.085h-5.936a.948.948 0 0 0-.946.958c0 .532.42.958.946.958h5.298l2.782 10.201h-7.358a.948.948 0 0 0-.946.958v.865c0 1.27-1.016 2.299-2.27 2.299h-5.774c-1.254 0-2.27-1.029-2.27-2.299v-.865a.948.948 0 0 0-.946-.958H2.18L4.974 4.915h5.298a.948.948 0 0 0 .946-.957.948.948 0 0 0-.946-.958H4.33a.954.954 0 0 0-.392.085l-.091.043a.948.948 0 0 0-.519.617L.035 15.805c-.021.085-.035.17-.035.255v5.03C0 24.9 3.062 28 6.825 28h17.35C27.938 28 31 24.9 31 21.09v-5.008a.75.75 0 0 0-.035-.256zm-1.979 5.197c0 2.743-2.195 4.977-4.891 4.977H6.89C4.196 26 2 23.766 2 21.023V17h6.371c.049 2.27 1.883 4.1 4.127 4.1h5.726c2.244 0 4.078-1.83 4.127-4.1H29v4.023h-.014zM10 10.245L15.5 16l5.5-5.755-1.652-1.729-2.68 2.804V0h-2.336v11.32l-2.68-2.804L10 10.246z"/>
</svg>
