<svg xmlns="http://www.w3.org/2000/svg" width="32" height="27" viewBox="0 0 32 27">
    <path fill="#222532" fill-rule="evenodd" d="M.404 13.209l13.91 11.298a1.14 1.14 0 0 0 1.188.147c.392-.18.64-.57.64-.993v-5.665c5.41.025 9.19.532 13.76 8.446a1.122 1.122 0 0 0 1.26.52c.49-.129.836-.564.836-1.065v-.685c.013-2.987.039-7.498-2.076-11.337-2.428-4.415-7.063-6.793-13.78-7.087V1.097c0-.423-.247-.814-.64-.994a1.14 1.14 0 0 0-1.187.148L.405 11.51a1.093 1.093 0 0 0 0 1.699l-.001-.001zm13.505-9.78v4.435c0 .602.496 1.095 1.11 1.102 12.467.115 14.413 7.262 14.7 13.112-4.42-5.94-8.642-6.28-14.687-6.28-.294 0-.581.114-.79.32a1.09 1.09 0 0 0-.326.775v4.435L2.885 12.362 13.91 3.43h-.001z"/>
</svg>
