<svg xmlns="http://www.w3.org/2000/svg" width="32" height="32" viewBox="0 0 32 32">
    <path fill="#95A6B8" fill-rule="evenodd" d="M16 28.846c2.308 0 4.462-.59 6.462-1.77a12.456 12.456 0 0 0 4.615-4.614c1.18-2 1.77-4.154 1.77-6.462 0-1.462-.232-2.865-.693-4.212a12.318 12.318 0 0 0-2-3.673L8.115 26.154a12.318 12.318 0 0 0 3.673 2c1.347.461 2.75.692 4.212.692zM3.154 16c0 1.462.23 2.865.692 4.212a12.318 12.318 0 0 0 2 3.673L23.885 5.846a12.318 12.318 0 0 0-3.673-2A12.895 12.895 0 0 0 16 3.154c-2.308 0-4.462.59-6.462 1.77a12.456 12.456 0 0 0-4.615 4.614c-1.18 2-1.77 4.154-1.77 6.462zM16 0c2.923 0 5.628.73 8.115 2.192a15.165 15.165 0 0 1 5.693 5.693C31.269 10.372 32 13.077 32 16s-.73 5.628-2.192 8.115a15.165 15.165 0 0 1-5.693 5.693C21.628 31.269 18.923 32 16 32s-5.628-.73-8.115-2.192a15.451 15.451 0 0 1-5.693-5.731A15.665 15.665 0 0 1 0 16c0-2.897.73-5.59 2.192-8.077 1.41-2.41 3.32-4.32 5.731-5.73A15.665 15.665 0 0 1 16 0z"/>
</svg>
