<svg xmlns="http://www.w3.org/2000/svg" width="23" height="27" viewBox="0 0 23 27">
    <path fill="#000" fill-rule="evenodd" d="M20.7 2.284H2.3v22.164l7.6-7.245 1.6-1.517 1.6 1.517 7.6 7.245V2.284zM20.916 0c.275 0 .539.054.79.16.396.155.71.4.944.732.233.333.35.702.35 1.107V25c0 .405-.117.774-.35 1.107a2.023 2.023 0 0 1-.944.731 2.036 2.036 0 0 1-.79.143c-.575 0-1.073-.19-1.492-.57L11.5 18.844 3.576 26.41A2.15 2.15 0 0 1 2.084 27c-.275 0-.539-.054-.79-.16a2.023 2.023 0 0 1-.944-.732A1.884 1.884 0 0 1 0 25V2c0-.405.117-.774.35-1.107C.584.56.898.315 1.294.161 1.545.054 1.809 0 2.084 0h18.832z"/>
</svg>
