<svg xmlns="http://www.w3.org/2000/svg" width="32" height="30" viewBox="0 0 32 30">
    <path fill="#222532" fill-rule="evenodd" d="M25.553 29.668v-.001a1.1 1.1 0 0 1 .02-1.578l2.56-2.502h-2.84a8.052 8.052 0 0 1-6.218-2.927c-.013-.019-.026-.032-.04-.052l-9.9-13.446a5.835 5.835 0 0 0-4.768-2.476h-3.24A1.116 1.116 0 0 1 .01 5.57c0-.618.496-1.12 1.117-1.12h3.24a8.083 8.083 0 0 1 6.583 3.408l9.863 13.394a5.841 5.841 0 0 0 4.473 2.086h2.841l-2.56-2.503a1.125 1.125 0 0 1-.014-1.584 1.13 1.13 0 0 1 1.587-.013l4.527 4.42c.209.214.333.495.333.801 0 .306-.117.593-.333.801l-4.527 4.42a1.127 1.127 0 0 1-1.587-.013zM31.66 4.77v.002c.215.209.333.495.333.801 0 .307-.117.593-.333.802l-4.553 4.45a1.127 1.127 0 0 1-1.587-.013 1.113 1.113 0 0 1 .013-1.583l2.593-2.535h-2.84a5.799 5.799 0 0 0-4.474 2.085l-1.835 2.49c-.215.3-.555.456-.901.456-.23 0-.457-.072-.66-.216a1.116 1.116 0 0 1-.242-1.564l1.855-2.523c.013-.019.026-.039.039-.052a8.056 8.056 0 0 1 6.217-2.92h2.841l-2.593-2.535A1.125 1.125 0 0 1 25.52.332a1.13 1.13 0 0 1 1.587-.013L31.66 4.77zM10.942 22.179h-.002a8.077 8.077 0 0 1-6.583 3.402h-3.24A1.116 1.116 0 0 1 0 24.466c0-.619.496-1.12 1.117-1.12h3.24c1.88 0 3.657-.914 4.748-2.438l.02-.033 1.633-2.222a1.121 1.121 0 0 1 1.81 1.323l-1.626 2.203z"/>
</svg>
