<svg xmlns="http://www.w3.org/2000/svg" width="16" height="14" viewBox="0 0 16 14">
    <path fill="#C2CDD7" fill-rule="evenodd" d="M5.946 3.929c-.5.752-.866 1.566-1.223 2.389C4.205 5.258 3.633 4.2 2.286 4.2h-2A.28.28 0 0 1 0 3.92V2.24a.28.28 0 0 1 .286-.28h2c1.589 0 2.759.726 3.66 1.969zM16 10.92c0 .07-.027.149-.08.201l-2.857 2.8a.29.29 0 0 1-.491-.201v-1.68c-2.652 0-4.286.306-5.938-1.969.491-.752.857-1.566 1.214-2.389.518 1.06 1.09 2.118 2.438 2.118h2.285V8.12a.28.28 0 0 1 .286-.28c.08 0 .152.035.214.087l2.849 2.792c.053.052.08.131.08.201zm0-7.84c0 .07-.027.149-.08.201l-2.857 2.8a.301.301 0 0 1-.206.079.285.285 0 0 1-.286-.28V4.2h-2.285c-1.188 0-1.75.796-2.25 1.741-.26.49-.482.998-.697 1.497-.99 2.257-2.152 4.602-5.053 4.602h-2A.28.28 0 0 1 0 11.76v-1.68a.28.28 0 0 1 .286-.28h2c1.187 0 1.75-.796 2.25-1.741.259-.49.482-.998.696-1.496.991-2.258 2.152-4.603 5.054-4.603h2.285V.28a.28.28 0 0 1 .286-.28c.08 0 .152.035.214.088l2.849 2.79c.053.053.08.132.08.202z"/>
</svg>
