<svg xmlns="http://www.w3.org/2000/svg" width="30" height="30" viewBox="0 0 30 30">
    <g fill="none" fill-rule="evenodd">
        <circle cx="15" cy="15" r="15" fill="#95A6B8" class="circle" />
        <path fill="#FFF" class="letter" d="M16.2 16.475h2.625v4.075c0 2.175-1.075 3.25-3.25 3.25H14.25c-2.175 0-3.25-1.075-3.25-3.25V9.25C11 7.075 12.075 6 14.25 6h1.3c2.175 0 3.225 1.05 3.225 3.225V12.8H16.15V9.375c0-.7-.325-1.025-1-1.025h-.45c-.7 0-1.025.325-1.025 1.025v11.05c0 .7.325 1.025 1.025 1.025h.5c.675 0 1-.325 1-1.025v-3.95z"/>
    </g>
</svg>
