<svg xmlns="http://www.w3.org/2000/svg" width="32" height="32" viewBox="0 0 32 32">
    <path fill="#222532" fill-rule="evenodd" d="M30 3h-8V1a.961.961 0 0 0-.297-.703A.961.961 0 0 0 21 0a.961.961 0 0 0-.703.297A.961.961 0 0 0 20 1v2h-8V1a.961.961 0 0 0-.297-.703A.961.961 0 0 0 11 0a.961.961 0 0 0-.703.297A.961.961 0 0 0 10 1v2H2c-.563 0-1.036.193-1.422.578C.193 3.964 0 4.438 0 5v25c0 .542.193 1.01.578 1.406.386.396.86.594 1.422.594h28c.563 0 1.036-.198 1.422-.594.385-.396.578-.864.578-1.406V5c0-.563-.193-1.036-.578-1.422A1.933 1.933 0 0 0 30 3zm0 27H2V5h8v1c0 .27.099.505.297.703A.961.961 0 0 0 11 7c.27 0 .505-.099.703-.297A.961.961 0 0 0 12 6V5h8v1c0 .27.099.505.297.703A.961.961 0 0 0 21 7c.27 0 .505-.099.703-.297A.961.961 0 0 0 22 6V5h8v25zm-15.387-5H5v-3.898c0-.539.114-1.044.339-1.52.226-.473.533-.887.922-1.24a4.342 4.342 0 0 1 1.36-.835 4.5 4.5 0 0 1 1.663-.305h1.434c.2 0 .385-.032.557-.098.172-.067.324-.16.453-.277.13-.118.23-.258.303-.417.074-.16.11-.33.11-.512s-.036-.351-.11-.507a1.282 1.282 0 0 0-.303-.413 1.432 1.432 0 0 0-.453-.276c-.173-.067-.36-.1-.557-.1h-5.1V12h5.1c.591 0 1.146.103 1.662.309.518.204.973.484 1.36.838.389.354.696.766.921 1.237.225.47.339.974.339 1.513 0 .539-.114 1.045-.339 1.518a3.959 3.959 0 0 1-.922 1.241 4.381 4.381 0 0 1-1.359.84 4.438 4.438 0 0 1-1.662.309H9.284c-.2 0-.385.032-.558.1a1.4 1.4 0 0 0-.453.276 1.258 1.258 0 0 0-.304.412c-.074.157-.11.326-.11.508v1.297h6.754V25zm9.668-.28a4.25 4.25 0 0 0 1.398-.808 3.88 3.88 0 0 0 .962-1.287c.24-.508.359-1.08.359-1.713 0-.63-.118-1.196-.358-1.7a3.947 3.947 0 0 0-.963-1.287 4.232 4.232 0 0 0-1.397-.813 4.896 4.896 0 0 0-1.659-.28h-2.548l.252-2.231h6.098V12h-8.61L17 19.433h5.621c.19 0 .378.032.57.095.19.064.364.157.516.28.152.126.276.279.37.464.092.186.14.398.14.64 0 .266-.048.491-.14.68a1.353 1.353 0 0 1-.37.462c-.152.12-.325.208-.516.263a2.123 2.123 0 0 1-.57.082H17V25h5.621c.58 0 1.132-.092 1.66-.28z"/>
</svg>
