<svg xmlns="http://www.w3.org/2000/svg" width="29" height="32" viewBox="0 0 29 32">
    <path fill="#678099" fill-rule="evenodd" d="M1.758 30.222H7.03V24.89H1.758v5.333zm7.03 0h5.273V24.89H8.788v5.333zm-7.03-7.11H7.03v-5.334H1.758v5.333zm7.03 0h5.273v-5.334H8.788v5.333zm-7.03-6.223H7.03v-5.333H1.758v5.333zm13.181 13.333h5.273V24.89H14.94v5.333zM8.788 16.89h5.273v-5.333H8.788v5.333zM21.97 30.222h5.272V24.89H21.97v5.333zm-7.03-7.11h5.272v-5.334H14.94v5.333zM8.6 8.322v-5.09c0-.301-.287-.566-.612-.566H6.764c-.326 0-.612.265-.612.565v5.091c0 .3.286.566.612.566h1.224c.325 0 .612-.265.612-.566zm13.37 14.788h5.272v-5.333H21.97v5.333zm-7.03-6.222h5.272v-5.333H14.94v5.333zm7.03 0h5.272v-5.333H21.97v5.333zm.69-8.566v-5.09c0-.301-.287-.566-.612-.566h-1.224c-.325 0-.612.265-.612.565v5.091c0 .3.287.566.612.566h1.224c.325 0 .612-.265.612-.566zM29 6.857v22.857C29 30.964 27.99 32 26.77 32H2.23C1.01 32 0 30.964 0 29.714V6.857c0-1.25 1.01-2.286 2.23-2.286h2.232V2.857C4.462 1.286 5.716 0 7.25 0h1.115c1.534 0 2.789 1.286 2.789 2.857v1.714h6.692V2.857C17.846 1.286 19.101 0 20.635 0h1.115c1.534 0 2.788 1.286 2.788 2.857v1.714h2.231C27.99 4.571 29 5.607 29 6.857z"/>
</svg>
