<svg xmlns="http://www.w3.org/2000/svg" width="32" height="32" viewBox="0 0 32 32">
    <path fill="#222532" fill-rule="evenodd" d="M30 3h-8V1a.961.961 0 0 0-.297-.703A.961.961 0 0 0 21 0a.961.961 0 0 0-.703.297A.961.961 0 0 0 20 1v2h-8V1a.961.961 0 0 0-.297-.703A.961.961 0 0 0 11 0a.961.961 0 0 0-.703.297A.961.961 0 0 0 10 1v2H2c-.563 0-1.036.193-1.422.578C.193 3.964 0 4.438 0 5v25c0 .542.193 1.01.578 1.406.386.396.86.594 1.422.594h28c.563 0 1.036-.198 1.422-.594.385-.396.578-.864.578-1.406V5c0-.563-.193-1.036-.578-1.422A1.933 1.933 0 0 0 30 3zm0 27H2V5h8v1c0 .27.099.505.297.703A.961.961 0 0 0 11 7c.27 0 .505-.099.703-.297A.961.961 0 0 0 12 6V5h8v1c0 .27.099.505.297.703A.961.961 0 0 0 21 7c.27 0 .505-.099.703-.297A.961.961 0 0 0 22 6V5h8v25zm-7-14h2c.27 0 .505-.099.703-.297A.961.961 0 0 0 26 15v-2a.961.961 0 0 0-.297-.703A.961.961 0 0 0 25 12h-2a.961.961 0 0 0-.703.297A.961.961 0 0 0 22 13v2c0 .27.099.505.297.703A.961.961 0 0 0 23 16zm0 8h2c.27 0 .505-.099.703-.297A.961.961 0 0 0 26 23v-2a.961.961 0 0 0-.297-.703A.961.961 0 0 0 25 20h-2a.961.961 0 0 0-.703.297A.961.961 0 0 0 22 21v2c0 .27.099.505.297.703A.961.961 0 0 0 23 24zm-6-4h-2a.961.961 0 0 0-.703.297A.961.961 0 0 0 14 21v2c0 .27.099.505.297.703A.961.961 0 0 0 15 24h2c.27 0 .505-.099.703-.297A.961.961 0 0 0 18 23v-2a.961.961 0 0 0-.297-.703A.961.961 0 0 0 17 20zm0-8h-2a.961.961 0 0 0-.703.297A.961.961 0 0 0 14 13v2c0 .27.099.505.297.703A.961.961 0 0 0 15 16h2c.27 0 .505-.099.703-.297A.961.961 0 0 0 18 15v-2a.961.961 0 0 0-.297-.703A.961.961 0 0 0 17 12zm-8 0H7a.961.961 0 0 0-.703.297A.961.961 0 0 0 6 13v2c0 .27.099.505.297.703A.961.961 0 0 0 7 16h2c.27 0 .505-.099.703-.297A.961.961 0 0 0 10 15v-2a.961.961 0 0 0-.297-.703A.961.961 0 0 0 9 12zm0 8H7a.961.961 0 0 0-.703.297A.961.961 0 0 0 6 21v2c0 .27.099.505.297.703A.961.961 0 0 0 7 24h2c.27 0 .505-.099.703-.297A.961.961 0 0 0 10 23v-2a.961.961 0 0 0-.297-.703A.961.961 0 0 0 9 20z"/>
</svg>
