<svg xmlns="http://www.w3.org/2000/svg" width="32" height="22" viewBox="0 0 32 22">
    <path fill="#172D4C" fill-rule="evenodd" d="M10.65 19c1.8 0 1.8 3 0 3h-9.3c-1.8 0-1.8-3 0-3h9.3zm9.812-11.06c-1.95 0-1.95-2.914 0-2.914h6.599l-2.547-2.544c-.928-.917-.33-2.482.97-2.482.432 0 .752.165 1.03.433l5.084 5.025a1.507 1.507 0 0 1 0 2.05l-5.084 5.025c-1.35 1.411-3.402-.7-2-2.05l2.547-2.543h-6.6zM30.59 19.22c1.88 0 1.88 2.78 0 2.78h-9.708c-.467 0-.885-.255-1.143-.619l-9.34-13.808h-5.64L7.266 10c1.362 1.286-.677 3.29-1.98 1.954L.434 7.161c-.577-.56-.577-1.385 0-1.955L5.287.414C5.545.158 5.853 0 6.22 0c1.303-.049 1.93 1.493 1.045 2.367L4.759 4.794h6.366c.477 0 .945.255 1.204.618l9.29 13.809h8.971z"/>
</svg>
