<svg xmlns="http://www.w3.org/2000/svg" width="32" height="29" viewBox="0 0 32 29">
    <path fill="#95A6B8" fill-rule="nonzero" d="M12.352 0C5.616 0 0 4.532 0 10.274c0 2.938 1.643 5.498 3.976 7.366a5.715 5.715 0 0 1-1.197 2.72c-.293.365-.558.671-.81.944a3.04 3.04 0 0 0-.386.491c-.07.112-.18.238-.232.491-.051.253.019.67.232.982l.154.265.309.15c1.081.53 2.248.437 3.32.152 1.071-.285 2.102-.775 3.088-1.284.986-.51 1.923-1.046 2.663-1.436.103-.054.171-.067.27-.113 1.948 2.62 5.515 4.382 9.496 4.382.038.004.074 0 .116 0 1.606 0 6.794 5.19 9.882 3.135.123-.482-2.715-1.691-2.857-5.289C30.441 21.56 32 19.073 32 16.318c0-4.076-3.304-7.444-7.72-8.65C22.885 3.219 18.029 0 12.352 0zm0 2.417c5.616 0 9.882 3.688 9.882 7.857 0 4.17-4.266 7.857-9.882 7.857-1.003 0-1.578.402-2.393.831-.815.43-1.75.963-2.663 1.435-.79.409-1.545.723-2.24.945.677-.955 1.382-2.211 1.506-3.966l.039-.68-.58-.416c-2.2-1.507-3.55-3.681-3.55-6.006 0-4.17 4.265-7.857 9.881-7.857z"/>
</svg>
