<svg xmlns="http://www.w3.org/2000/svg" width="52" height="52" viewBox="0 0 52 52">
    <g fill="#C2CDD7" fill-rule="evenodd">
        <path d="M13 26a1 1 0 1 0 0 2 1 1 0 0 0 0-2zm1-10a3 3 0 0 0-3 3v15a3 3 0 0 0 3 3h25a3 3 0 0 0 3-3V19a3 3 0 0 0-3-3H14zm0-1h25a4 4 0 0 1 4 4v15a4 4 0 0 1-4 4H14a4 4 0 0 1-4-4V19a4 4 0 0 1 4-4zm2 3v17h23a1 1 0 0 0 1-1V19a1 1 0 0 0-1-1H16zm-1-1h24a2 2 0 0 1 2 2v15a2 2 0 0 1-2 2H15V17z"/>
        <path fill-rule="nonzero" d="M26 52C11.64 52 0 40.36 0 26S11.64 0 26 0s26 11.64 26 26-11.64 26-26 26zm0-2c13.255 0 24-10.745 24-24S39.255 2 26 2 2 12.745 2 26s10.745 24 24 24z"/>
    </g>
</svg>
