<svg xmlns="http://www.w3.org/2000/svg" width="21" height="21" viewBox="0 0 21 21">
    <path fill="#172D4C" fill-rule="evenodd" d="M21 16.899c0 .471-.165.872-.495 1.202l-2.404 2.404c-.33.33-.73.495-1.202.495-.471 0-.872-.165-1.202-.495L10.5 15.308l-5.197 5.197c-.33.33-.73.495-1.202.495-.471 0-.872-.165-1.202-.495L.495 18.101c-.33-.33-.495-.73-.495-1.202 0-.471.165-.872.495-1.202L5.692 10.5.495 5.303C.165 4.973 0 4.573 0 4.101c0-.471.165-.872.495-1.202L2.899.495C3.229.165 3.629 0 4.101 0c.471 0 .872.165 1.202.495L10.5 5.692 15.697.495c.33-.33.73-.495 1.202-.495.471 0 .872.165 1.202.495l2.404 2.404c.33.33.495.73.495 1.202 0 .471-.165.872-.495 1.202L15.308 10.5l5.197 5.197c.33.33.495.73.495 1.202z"/>
</svg>
