<svg xmlns="http://www.w3.org/2000/svg" width="32" height="32" viewBox="0 0 32 32">
    <path fill="#222532" fill-rule="evenodd" d="M31.167 26.917c.555.61.833 1.333.833 2.166 0 .834-.278 1.528-.833 2.084-.556.555-1.25.833-2.084.833a3.114 3.114 0 0 1-2.166-.833L16 20.25 5.083 31.167C4.473 31.722 3.778 32 3 32c-.778 0-1.472-.278-2.083-.833C.306 30.61 0 29.917 0 29.083c0-.833.306-1.555.917-2.166L11.75 16 .917 5.083C.306 4.473 0 3.75 0 2.917 0 2.083.306 1.389.917.833 1.527.278 2.222 0 3 0c.778 0 1.472.278 2.083.833L16 11.75 26.917.833A3.114 3.114 0 0 1 29.083 0c.834 0 1.528.278 2.084.833.555.556.833 1.25.833 2.084 0 .833-.278 1.555-.833 2.166L20.25 16l10.917 10.917z"/>
</svg>
