<svg xmlns="http://www.w3.org/2000/svg" width="33" height="32" viewBox="0 0 33 32">
    <path fill="#000" fill-rule="evenodd" d="M23.749 29.867H9.18a.982.982 0 0 0-.728.316 1.04 1.04 0 0 0-.308.75c0 .29.103.54.308.75A.982.982 0 0 0 9.18 32H23.75c.28 0 .523-.106.728-.317a1.04 1.04 0 0 0 .308-.75 1.04 1.04 0 0 0-.308-.75.982.982 0 0 0-.728-.316zM32.846 3a.9.9 0 0 0-.13-.35 1.33 1.33 0 0 0-.226-.267.926.926 0 0 0-.647-.25H26.76V1.067a1.07 1.07 0 0 0-.292-.75.967.967 0 0 0-.744-.317H7.109a.982.982 0 0 0-.729.317 1.04 1.04 0 0 0-.307.75v1.066H1.152a.983.983 0 0 0-.454.117 1.125 1.125 0 0 0-.372.3.877.877 0 0 0-.178.45c-.022.111-.049.272-.08.483-.033.211-.055.578-.066 1.1-.01.523.016 1.034.081 1.534A7.7 7.7 0 0 0 .52 7.783c.227.611.534 1.161.923 1.65 1.144 1.467 2.892 2.234 5.245 2.3.669 2.045 1.786 3.745 3.35 5.1 1.565 1.356 3.34 2.145 5.326 2.367v7.433h-3.076a.967.967 0 0 0-.744.317 1.07 1.07 0 0 0-.292.75c0 .289.098.539.292.75a.967.967 0 0 0 .744.317h8.353c.28 0 .523-.106.728-.317a1.04 1.04 0 0 0 .308-.75 1.04 1.04 0 0 0-.308-.75.982.982 0 0 0-.728-.317h-3.205V19.2c2.007-.222 3.793-1.011 5.358-2.367 1.565-1.355 2.682-3.055 3.35-5.1 1.21-.022 2.267-.227 3.173-.616a5.637 5.637 0 0 0 2.234-1.684c.26-.31.475-.644.648-1 .172-.355.313-.71.42-1.066.109-.356.195-.706.26-1.05.064-.345.102-.684.113-1.017a12.002 12.002 0 0 0-.049-1.6 51.223 51.223 0 0 0-.048-.483.707.707 0 0 0-.049-.217zM3.03 8.1c-.712-.911-1.025-2.189-.939-3.833h3.983v3.95c0 .122.005.239.016.35l.032.333.032.333c.011.111.027.223.049.334C5.49 9.5 4.869 9.344 4.34 9.1a3.634 3.634 0 0 1-1.31-1zm21.659-.233a10.07 10.07 0 0 1-.648 3.583c-.431 1.144-1.02 2.133-1.764 2.967a8.384 8.384 0 0 1-2.639 1.983 7.291 7.291 0 0 1-3.205.733c-2.287 0-4.24-.905-5.86-2.716-1.618-1.811-2.428-3.995-2.428-6.55V2.133h16.544v5.734zm5.277.233a4.058 4.058 0 0 1-1.376 1.017c-.55.255-1.203.405-1.959.45a10.971 10.971 0 0 0 .13-1.7v-3.6h4.144c.086 1.644-.227 2.922-.94 3.833z"/>
</svg>
