<svg xmlns="http://www.w3.org/2000/svg" width="32" height="32" viewBox="0 0 32 32">
    <path fill="#172D4C" fill-rule="nonzero" d="M2.667 5.356v21.288a2.694 2.694 0 0 0 2.69 2.69h21.287a2.694 2.694 0 0 0 2.69-2.69V5.356a2.694 2.694 0 0 0-2.69-2.69H5.356a2.694 2.694 0 0 0-2.69 2.69zM0 5.356A5.36 5.36 0 0 1 5.356 0h21.288A5.36 5.36 0 0 1 32 5.356v21.288A5.36 5.36 0 0 1 26.644 32H5.356A5.36 5.36 0 0 1 0 26.644V5.356zm11.966 18.378a24.864 24.864 0 0 0 2.24.107c2.94 0 5.095-.657 6.463-1.972 1.369-1.314 2.053-3.388 2.053-6.22 0-2.845-.687-4.915-2.061-6.212-1.375-1.297-3.574-1.945-6.598-1.945-.561 0-.989.006-1.281.018a8.133 8.133 0 0 0-.816.072v16.152zm0 2.528h-3.64c-.442 0-.773-.108-.994-.323C7.11 25.724 7 25.4 7 24.97c0-.466.128-.789.385-.968.257-.18.744-.27 1.461-.27h.323V7.583h-.287c-.717 0-1.21-.096-1.479-.287C7.134 7.103 7 6.769 7 6.29c0-.442.11-.768.332-.977.22-.21.564-.314 1.03-.314h7.566c2.976 0 5.348.96 7.117 2.877 1.769 1.919 2.653 4.509 2.653 7.772 0 1.59-.254 3.065-.762 4.428a10.539 10.539 0 0 1-2.214 3.585c-.896.932-1.987 1.61-3.272 2.035-1.284.424-2.937.636-4.956.636-.24 0-.643-.012-1.21-.036a33.536 33.536 0 0 0-1.318-.035z"/>
</svg>
