<svg xmlns="http://www.w3.org/2000/svg" width="28" height="32" viewBox="0 0 28 32">
    <path fill="#222532" fill-rule="evenodd" d="M24.752 4.494a8.386 8.386 0 0 0-3.128-.856l-.039-.001h-2.43v-.022c0-1.402-.669-2.514-1.885-3.133a4.66 4.66 0 0 0-1.765-.481L15.467 0h-2.93l-.04.001a4.66 4.66 0 0 0-1.765.481c-1.216.618-1.886 1.73-1.886 3.133l.001.022h-2.47a8.43 8.43 0 0 0-3.127.857C1.767 5.247 0 6.799 0 9.908c0 .5.408.907.91.907h.8l3.522 20.431A.91.91 0 0 0 6.13 32h15.74a.91.91 0 0 0 .898-.754l3.521-20.431h.8c.503 0 .911-.406.911-.907 0-3.11-1.767-4.661-3.25-5.414h.002zM1.897 9c.222-1.281.937-2.243 2.135-2.867a6.634 6.634 0 0 1 2.41-.683H21.56c.136.009 1.264.1 2.364.659 1.226.623 1.958 1.593 2.182 2.89H1.897zm8.772-5.386c0-.71.271-1.185.851-1.495.467-.25.965-.298 1.044-.305h2.874c.09.007.583.058 1.046.305.58.31.852.786.852 1.495v.022h-6.668l.001-.022zm10.435 26.571H6.9l-3.34-19.37h20.883l-3.339 19.37zM14 28c.552 0 1-.417 1-.933V13.933c0-.516-.448-.933-1-.933s-1 .417-1 .933v13.134c0 .516.448.933 1 .933zm-4.842-.85a.927.927 0 0 0 1 .846.93.93 0 0 0 .838-1.012L9.842 13.85a.925.925 0 0 0-1-.846.93.93 0 0 0-.838 1.012L9.158 27.15zm8.683.846c.028.002.055.004.083.004a.927.927 0 0 0 .918-.85l1.154-13.135a.93.93 0 0 0-.837-1.011.926.926 0 0 0-1.001.846l-1.154 13.133a.93.93 0 0 0 .837 1.012z"/>
</svg>
