<svg xmlns="http://www.w3.org/2000/svg" viewBox="0 0 37 32"><path id="prefix__a" d="M1662.806 2241h-22.612a.77.77 0 00-.642.337l-6.424 9.2a.734.734 0 00.045.887l17.73 21.3a.784.784 0 001.194 0l17.73-21.3a.735.735 0 00.045-.887l-6.417-9.2a.785.785 0 00-.65-.337zm-1.24 3l4.066 6h-4.393l-3.322-6h3.65zm-12.982 0h5.826l3.321 6h-12.462l3.315-6zm-7.15 0h3.649l-3.322 6h-4.393l4.066-6zm-2.762 9h3.301l4.388 9.999-7.69-10zm6.61 0h12.436l-6.218 15.205-6.218-15.206zm11.357 9.999l4.381-10h3.302l-7.683 10z" transform="translate(-1633 -2241)" fill-rule="evenodd" fill="#95A6B8"/></svg>