<svg xmlns="http://www.w3.org/2000/svg" width="32" height="32" viewBox="0 0 32 32">
    <path fill="#172D4C" fill-rule="evenodd" d="M29.75.08L16.531 3.637c-.083.02-.187.036-.312.047a4.714 4.714 0 0 1-.782 0 2.008 2.008 0 0 1-.312-.047L2.25.08C1.667-.087 1.146.007.687.36A1.686 1.686 0 0 0 0 1.766V26.04c0 .5.167.962.5 1.389.333.426.74.712 1.219.858l12.875 3.557c.354.104.77.156 1.25.156.187 0 .39-.01.61-.031a2.75 2.75 0 0 0 .608-.125l13.22-3.588c.478-.125.885-.4 1.218-.827.333-.427.5-.89.5-1.389V1.765c0-.583-.23-1.05-.688-1.404-.458-.354-.979-.448-1.562-.281zM15 29.878L2.219 26.352a.482.482 0 0 1-.14-.124A.293.293 0 0 1 2 26.04V2.077l12.594 3.495a.59.59 0 0 1 .187.03c.063.022.136.032.219.032v24.244zm15-3.838c0 .042-.031.1-.094.172a.58.58 0 0 1-.156.14L17 29.785V5.572h.063L30 2.077V26.04zm-9.938-14.602c.105 0 .198-.01.282-.032l7-1.965c.25-.084.442-.245.578-.484a.965.965 0 0 0 .11-.733 1.175 1.175 0 0 0-.282-.468.927.927 0 0 0-.438-.25 1.145 1.145 0 0 0-.53 0l-7 1.966c-.25.083-.443.244-.579.483a1.03 1.03 0 0 0-.11.765c.063.208.183.38.36.515s.38.203.61.203zm0 5.99c.105 0 .198-.01.282-.03l7-1.967c.25-.083.442-.244.578-.483a.946.946 0 0 0 .094-.749.954.954 0 0 0-.47-.593 1.034 1.034 0 0 0-.765-.11l-7 1.967c-.25.083-.442.244-.578.483a1.03 1.03 0 0 0-.11.765c.063.208.183.38.36.515s.38.202.61.202zm0 5.991h.141a.31.31 0 0 0 .14-.03l7-1.967c.25-.083.443-.244.579-.483a.946.946 0 0 0 .094-.75.954.954 0 0 0-.47-.592 1.034 1.034 0 0 0-.765-.11l-7 1.967c-.25.083-.442.244-.578.483a1.03 1.03 0 0 0-.11.765c.063.208.183.38.36.515s.38.202.61.202zM12.345 9.472l-7-1.966a1.328 1.328 0 0 0-.766.11.803.803 0 0 0-.297.233.965.965 0 0 0-.078 1.108c.136.24.328.4.578.484l7 1.965a.31.31 0 0 0 .14.032h.142c.145 0 .286-.026.421-.078a.816.816 0 0 0 .344-.25c.094-.114.162-.244.203-.39a1.03 1.03 0 0 0-.11-.765c-.135-.239-.327-.4-.577-.483zm0 5.99l-7-1.965a1.145 1.145 0 0 0-.532 0 .928.928 0 0 0-.437.25c-.125.124-.219.28-.281.468-.021.104-.032.208-.032.312 0 .104.021.202.063.296.042.094.094.182.156.265.063.083.136.156.219.219a.688.688 0 0 0 .281.124l7 1.966c.084.021.177.031.281.031.23 0 .433-.067.61-.202a.994.994 0 0 0 .36-.515c.02-.104.03-.208.03-.312a.94.94 0 0 0-.219-.577 1.365 1.365 0 0 0-.218-.203 1.224 1.224 0 0 0-.281-.156zm0 5.992l-7-1.966a1.034 1.034 0 0 0-.766.109c-.24.135-.4.338-.484.608-.021.104-.032.208-.032.312 0 .105.021.203.063.297.042.094.094.182.156.265.063.083.136.156.219.219a.688.688 0 0 0 .281.124l7 1.966c.104.02.198.031.281.031.23 0 .433-.067.61-.202a.994.994 0 0 0 .36-.515 1.14 1.14 0 0 0 0-.53.925.925 0 0 0-.25-.438 1.215 1.215 0 0 0-.438-.28z"/>
</svg>
