<svg xmlns="http://www.w3.org/2000/svg" width="15" height="32" viewBox="0 0 15 32">
    <path fill="#222532" fill-rule="evenodd" d="M3 0c.791 0 1.488.302 2.094.907C5.699 1.51 6 2.209 6 3c0 .791-.303 1.488-.907 2.093C4.489 5.7 3.79 6 3 6c-.79 0-1.488-.302-2.093-.907C.3 4.49 0 3.791 0 3 0 2.209.302 1.512.907.907 1.51.3 2.209 0 3 0zm0 8.667c.791 0 1.488.302 2.094.906.605.605.907 1.303.907 2.094 0 .79-.303 1.487-.907 2.093-.605.605-1.303.907-2.094.907-.79 0-1.488-.303-2.093-.907C.3 13.155 0 12.458 0 11.667c0-.791.302-1.488.907-2.094.604-.605 1.302-.906 2.093-.906zm9 0c.791 0 1.488.302 2.093.906.606.605.907 1.303.907 2.094 0 .79-.302 1.487-.907 2.093-.604.605-1.302.907-2.093.907-.79 0-1.487-.303-2.093-.907-.605-.605-.906-1.302-.906-2.093 0-.791.302-1.488.906-2.094.605-.605 1.303-.906 2.093-.906zm0 8.666c.791 0 1.488.303 2.093.907.606.605.907 1.302.907 2.093 0 .791-.302 1.488-.907 2.094-.604.605-1.302.906-2.093.906-.79 0-1.487-.302-2.093-.906-.605-.605-.906-1.303-.906-2.094 0-.79.302-1.487.906-2.093.605-.605 1.303-.907 2.093-.907zM12 26c.791 0 1.488.302 2.093.907C14.7 27.51 15 28.209 15 29c0 .791-.302 1.488-.907 2.093C13.49 31.7 12.791 32 12 32c-.79 0-1.487-.302-2.093-.907-.605-.604-.906-1.302-.906-2.093 0-.791.302-1.488.906-2.093C10.512 26.3 11.21 26 12 26zm-9-8.667c.791 0 1.488.303 2.094.907.605.605.907 1.302.907 2.093 0 .791-.303 1.488-.907 2.094-.605.605-1.303.906-2.094.906-.79 0-1.488-.302-2.093-.906C.3 21.822 0 21.124 0 20.333c0-.79.302-1.487.907-2.093.604-.605 1.302-.907 2.093-.907zM3 26c.791 0 1.488.302 2.094.907C5.699 27.51 6 28.209 6 29c0 .791-.303 1.488-.907 2.093C4.489 31.7 3.79 32 3 32c-.79 0-1.488-.302-2.093-.907C.3 30.49 0 29.791 0 29c0-.791.302-1.488.907-2.093C1.51 26.3 2.209 26 3 26zm9-20c-.79 0-1.487-.302-2.093-.907C9.302 4.49 9.001 3.791 9.001 3c0-.791.302-1.488.906-2.093C10.512.3 11.21 0 12 0c.791 0 1.488.302 2.093.907C14.7 1.51 15 2.209 15 3c0 .791-.302 1.488-.907 2.093C13.49 5.7 12.791 6 12 6z"/>
</svg>
