<svg xmlns="http://www.w3.org/2000/svg" width="28" height="32" viewBox="0 0 28 32">
    <path fill="#95A6B8" fill-rule="nonzero" d="M14.5 0a1.5 1.5 0 1 0 0 3 1.5 1.5 0 0 0 0-3zm0 5a1.5 1.5 0 1 0 0 3 1.5 1.5 0 0 0 0-3zm-.174 5.001a1.223 1.223 0 0 0-1.078 1.249v10.564l-2.176-2.209a1.203 1.203 0 0 0-.87-.384c-.492.004-.933.31-1.115.773-.183.463-.071.993.282 1.34l4.087 4.13c.017.032.036.064.057.095l.094.077a1.2 1.2 0 0 0 1.874-.192l4.068-4.11a1.24 1.24 0 0 0 .42-1.233 1.22 1.22 0 0 0-.909-.923 1.201 1.201 0 0 0-1.214.427l-2.176 2.209V11.25a1.24 1.24 0 0 0-.355-.889 1.202 1.202 0 0 0-.875-.36 1.194 1.194 0 0 0-.114 0zM0 22v7.938C0 31.06.858 32 1.883 32h24.234C27.142 32 28 31.06 28 29.937V22h-2v8H2v-8H0z"/>
</svg>
