<svg xmlns="http://www.w3.org/2000/svg" width="32" height="32" viewBox="0 0 32 32">
    <path fill="#222532" fill-rule="evenodd" d="M29.927 2.071a7.057 7.057 0 0 0-9.988 0L1.625 20.381a.916.916 0 0 0-.26.524L.01 30.957a.913.913 0 0 0 .259.77c.17.17.41.273.648.273.04 0 .082 0 .122-.007l6.055-.818a.922.922 0 0 0-.245-1.828l-4.855.655.948-7.01 7.377 7.378a.903.903 0 0 0 1.295 0l18.314-18.309A7.02 7.02 0 0 0 32 7.063a6.993 6.993 0 0 0-2.073-4.992zm-9.634 2.25l3.075 3.076L6.657 24.11l-3.075-3.075L20.293 4.322zm-9.32 24.099l-3.007-3.007L24.677 8.699l3.007 3.008L10.973 28.42zm17.993-18.03l-7.357-7.357a5.207 5.207 0 0 1 3.327-1.194 5.21 5.21 0 0 1 3.696 1.528 5.171 5.171 0 0 1 1.527 3.696 5.195 5.195 0 0 1-1.193 3.327z"/>
</svg>
