<svg xmlns="http://www.w3.org/2000/svg" width="32" height="32" viewBox="0 0 32 32">
    <path fill="#95A6B8" fill-rule="nonzero" d="M14.4 0c-2.069 0-3.831 1.35-4.5 3.2H0v3.2h9.9c.669 1.85 2.431 3.2 4.5 3.2s3.831-1.35 4.5-3.2H32V3.2H18.9C18.231 1.35 16.469 0 14.4 0zm0 3.2c.9 0 1.6.7 1.6 1.6 0 .9-.7 1.6-1.6 1.6-.9 0-1.6-.7-1.6-1.6 0-.9.7-1.6 1.6-1.6zm9.6 8c-2.069 0-3.831 1.35-4.5 3.2H0v3.2h19.5c.669 1.85 2.431 3.2 4.5 3.2s3.831-1.35 4.5-3.2H32v-3.2h-3.5c-.669-1.85-2.431-3.2-4.5-3.2zm0 3.2c.9 0 1.6.7 1.6 1.6 0 .9-.7 1.6-1.6 1.6-.9 0-1.6-.7-1.6-1.6 0-.9.7-1.6 1.6-1.6zm-16 8c-2.069 0-3.831 1.35-4.5 3.2H0v3.2h3.5C4.169 30.65 5.931 32 8 32s3.831-1.35 4.5-3.2H32v-3.2H12.5c-.669-1.85-2.431-3.2-4.5-3.2zm0 3.2c.9 0 1.6.7 1.6 1.6 0 .9-.7 1.6-1.6 1.6-.9 0-1.6-.7-1.6-1.6 0-.9.7-1.6 1.6-1.6z"/>
</svg>
