<svg xmlns="http://www.w3.org/2000/svg" width="28" height="32" viewBox="0 0 28 32">
    <path fill="#222532" fill-rule="evenodd" d="M22.842 22.212h-2.444l-2.966-9.368h2.292l1.127 3.962c.315 1.111.604 2.181.824 3.348h.04c.235-1.125.523-2.237.839-3.308l1.18-4.002h2.227l-3.12 9.368h.001zM3.77 30.403V24.36h20.457v6.043H3.77zM2.195 17.665c0-3.197 2.255-4.975 5.057-4.975 1.085 0 1.908.222 2.279.416l-.426 1.682a4.51 4.51 0 0 0-1.758-.346c-1.661 0-2.954 1.015-2.954 3.098 0 1.877 1.1 3.058 2.97 3.058.63 0 1.33-.138 1.742-.306l.316 1.655c-.384.195-1.25.403-2.375.403-3.202 0-4.85-2.016-4.85-4.685zm10.907.613c-1.537-.542-2.54-1.403-2.54-2.765 0-1.6 1.319-2.823 3.501-2.823 1.045 0 1.813.222 2.363.474l-.467 1.709a4.34 4.34 0 0 0-1.937-.446c-.905 0-1.345.419-1.345.904 0 .598.522.862 1.719 1.322 1.635.611 2.403 1.472 2.403 2.794 0 1.57-1.197 2.905-3.737 2.905-1.057 0-2.1-.278-2.622-.57l.426-1.752c.562.293 1.428.584 2.32.584.962 0 1.47-.403 1.47-1.015 0-.584-.44-.917-1.553-1.32l-.001-.001zM3.769 1.256H18.13v6.419c0 .347.279.629.621.629h5.477v3.143H3.769V1.256zm22.458 10.19h-.759V7.739c0-.024-.004-.047-.006-.07a.61.61 0 0 0-.148-.406L19.218.215a.555.555 0 0 0-.127-.109L19.05.082a.587.587 0 0 0-.122-.052c-.012-.004-.021-.009-.034-.011A.666.666 0 0 0 18.752 0H3.77a1.25 1.25 0 0 0-1.24 1.256v10.19H1.77C.793 11.446 0 12.248 0 13.24v9.325c0 .992.792 1.794 1.771 1.794h.759v6.384A1.25 1.25 0 0 0 3.77 32H24.23a1.25 1.25 0 0 0 1.24-1.257V24.36h.759c.978 0 1.772-.804 1.772-1.792V13.24c0-.992-.794-1.794-1.772-1.794h-.001z"/>
</svg>
