<svg xmlns="http://www.w3.org/2000/svg" width="32" height="17" viewBox="0 0 32 17">
    <path fill="#95A6B8" fill-rule="nonzero" d="M16 0C7.308 0 .62 7.803.62 7.803L0 8.5l.62.697s6.097 7.085 14.207 7.737c.387.05.774.066 1.173.066.4 0 .786-.017 1.173-.066 8.11-.652 14.208-7.737 14.208-7.737L32 8.5l-.62-.697S24.693 0 16 0zm0 2.125c2.297 0 4.415.64 6.257 1.494a7.426 7.426 0 0 1 1.042 3.818c0 3.84-2.826 6.994-6.484 7.405-.02.004-.045-.004-.066 0-.248.012-.496.033-.749.033-.277 0-.546-.017-.815-.033-3.658-.411-6.484-3.565-6.484-7.405 0-1.386.366-2.677 1.01-3.785h-.033c1.858-.871 4-1.527 6.322-1.527zm0 2.125c-1.727 0-3.128 1.428-3.128 3.188 0 1.76 1.4 3.187 3.128 3.187 1.727 0 3.128-1.428 3.128-3.188 0-1.76-1.4-3.187-3.128-3.187zm-9.124.996a9.741 9.741 0 0 0-.26 2.191 9.62 9.62 0 0 0 1.433 5.08C5.422 10.97 3.597 9.124 2.998 8.5a25.072 25.072 0 0 1 3.878-3.254zm18.248 0A25.072 25.072 0 0 1 29.002 8.5c-.599.623-2.424 2.47-5.05 4.018a9.62 9.62 0 0 0 1.172-7.272z"/>
</svg>
