<svg xmlns="http://www.w3.org/2000/svg" width="12" height="14" viewBox="0 0 12 14">
    <path fill="#95A6B8" fill-rule="evenodd" d="M11.469 2.969c.289.289.531.867.531 1.281v9a.75.75 0 0 1-.75.75H.75a.75.75 0 0 1-.75-.75V.75A.75.75 0 0 1 .75 0h7c.414 0 .992.242 1.281.531L11.47 2.97zM8 1.063V4h2.938a.995.995 0 0 0-.172-.32L8.32 1.234A.996.996 0 0 0 8 1.063zM11 13V5H7.75A.75.75 0 0 1 7 4.25V1H1v12h10zM6 6c.547 0 1 .453 1 1v3c0 .547-.453 1-1 1H3c-.547 0-1-.453-1-1V7c0-.547.453-1 1-1h3zm3.844.016c.094.039.156.132.156.234v4.5a.256.256 0 0 1-.156.234c-.031.008-.063.016-.094.016a.26.26 0 0 1-.18-.07L7.5 8.852v-.704L9.57 6.07A.26.26 0 0 1 9.75 6c.031 0 .063.008.094.016z"/>
</svg>
