<svg xmlns="http://www.w3.org/2000/svg" width="32" height="27" viewBox="0 0 32 27">
    <path fill="#000002" fill-rule="evenodd" d="M31.644 9.21c-.383-.544-1.027-.856-1.768-.856h-2.82V5.26a2.156 2.156 0 0 0-2.144-2.163h-9.887c-.42 0-1.077-.336-1.325-.678l-.74-1.022C12.383.601 11.21 0 10.23 0H6.806c-1.077 0-2.16.772-2.52 1.797l-.235.672c-.111.317-.547.628-.88.628H2.144C.962 3.097 0 4.067 0 5.26v19.53a.88.88 0 0 0 .051.295c.018.386.137.75.354 1.06.382.543 1.027.855 1.768.855h21.84c1.321 0 2.697-.985 3.134-2.242l4.713-13.582c.245-.706.166-1.422-.216-1.966zm-29.5-4.36H3.17c1.077 0 2.16-.772 2.519-1.796l.235-.672c.111-.317.547-.628.88-.628h3.426c.42 0 1.077.336 1.326.678l.74 1.021c.577.797 1.75 1.398 2.728 1.398h9.887c.22 0 .405.187.405.409v3.094H8.035c-1.32 0-2.697.985-3.133 2.242l-3.164 9.118V5.26c0-.222.186-.41.406-.41zm28.075 5.746L25.506 24.18c-.194.559-.905 1.068-1.492 1.068H2.173c-.168 0-.299-.044-.35-.117-.051-.073-.05-.212.006-.372l4.714-13.582c.194-.56.905-1.068 1.492-1.068h21.841c.168 0 .299.043.35.116.051.073.049.212-.007.372z"/>
</svg>
