<svg xmlns="http://www.w3.org/2000/svg" width="32" height="32" viewBox="0 0 32 32">
    <path fill="#95A6B8" fill-rule="evenodd" d="M21.333 16A5.344 5.344 0 0 0 16 10.667 5.344 5.344 0 0 0 10.667 16 5.344 5.344 0 0 0 16 21.333 5.344 5.344 0 0 0 21.333 16zM32 13.73v4.624c0 .313-.25.688-.583.75l-3.855.584c-.229.666-.479 1.291-.812 1.895.708 1.021 1.458 1.938 2.23 2.875a.822.822 0 0 1 .207.521.695.695 0 0 1-.187.48c-.5.666-3.313 3.729-4.02 3.729-.188 0-.376-.084-.543-.188l-2.875-2.25c-.604.313-1.25.583-1.895.792-.146 1.27-.271 2.625-.605 3.875a.763.763 0 0 1-.75.583h-4.625c-.374 0-.708-.27-.75-.625l-.583-3.833a12.233 12.233 0 0 1-1.875-.771L7.542 29a.8.8 0 0 1-.521.188.746.746 0 0 1-.521-.23c-1.104-1-2.563-2.291-3.438-3.5a.81.81 0 0 1 .021-.958c.709-.958 1.48-1.875 2.188-2.854a11.052 11.052 0 0 1-.854-2.063l-3.813-.562C.25 18.958 0 18.625 0 18.27v-4.625c0-.313.25-.688.563-.75l3.875-.584c.208-.666.479-1.291.812-1.916-.708-1-1.458-1.938-2.23-2.875a.769.769 0 0 1-.208-.5c0-.188.084-.333.188-.48.5-.687 3.313-3.729 4.02-3.729.188 0 .376.084.543.209l2.875 2.229c.604-.313 1.25-.583 1.895-.792.146-1.27.271-2.625.604-3.875a.763.763 0 0 1 .75-.583h4.626c.375 0 .708.27.75.625l.583 3.833c.646.209 1.27.459 1.875.771L24.479 3a.71.71 0 0 1 .5-.188c.188 0 .375.084.521.209 1.104 1.02 2.563 2.312 3.438 3.542a.71.71 0 0 1 .145.458.786.786 0 0 1-.166.479c-.709.958-1.48 1.875-2.188 2.854.354.667.646 1.354.854 2.042l3.813.583c.354.063.604.396.604.75z"/>
</svg>
