<svg xmlns="http://www.w3.org/2000/svg" width="26" height="32" viewBox="0 0 26 32">
    <path fill="#222532" fill-rule="evenodd" d="M25.48 30.934h-1.56v-2.133h-2.6v-5.452c0-1.44-.698-2.778-1.866-3.577L13.938 16l5.516-3.772a4.322 4.322 0 0 0 1.866-3.577V3.199h2.6V1.066h1.56c.287 0 .52-.238.52-.533A.526.526 0 0 0 25.48 0H.52A.526.526 0 0 0 0 .533c0 .295.233.533.52.533h1.56v2.133h2.6v5.452c0 1.44.698 2.778 1.866 3.577L12.062 16l-5.516 3.772a4.322 4.322 0 0 0-1.866 3.577v5.452h-2.6v2.133H.52a.526.526 0 0 0-.52.533c0 .295.233.533.52.533h24.96c.287 0 .52-.238.52-.533a.526.526 0 0 0-.52-.533zM7.123 11.342A3.25 3.25 0 0 1 5.72 8.653V3.201h14.56v5.452a3.25 3.25 0 0 1-1.403 2.689L13 15.36l-5.877-4.018zM5.72 23.349a3.25 3.25 0 0 1 1.403-2.689L13 16.642l5.877 4.018a3.25 3.25 0 0 1 1.403 2.689v5.452H5.72v-5.452z"/>
</svg>
