<svg xmlns="http://www.w3.org/2000/svg" width="21" height="10" viewBox="0 0 21 10">
    <path fill="#678099" fill-rule="nonzero" d="M5.064.04C2.289.04.044 2.24.044 4.952s2.245 4.91 5.02 4.91a5.04 5.04 0 0 0 3.69-1.595c.005 0 .008-.004.008-.004 2.07-1.328 3.5 0 3.506 0a5.042 5.042 0 0 0 3.697 1.6c2.769 0 5.013-2.2 5.013-4.91S18.734.038 15.965.038H5.064zM3.817 2.576h1.676v1.558H7.09v1.64H5.493v1.558H3.817V5.775H2.23v-1.64h1.587V2.577zm10.64 1.253c.63 0 1.143.5 1.143 1.123a1.136 1.136 0 0 1-1.143 1.122 1.135 1.135 0 0 1-1.147-1.122c0-.625.51-1.123 1.147-1.123zm3.82 0c.63 0 1.147.5 1.147 1.123.001.617-.517 1.122-1.147 1.122S17.13 5.57 17.13 4.953c0-.625.516-1.123 1.147-1.123z"/>
</svg>
