<svg xmlns="http://www.w3.org/2000/svg" width="14" height="12" viewBox="0 0 14 12">
    <path fill="#678099" fill-rule="evenodd" d="M11.2 1.385v.923c0 .252.211.461.467.461h.933c.255 0 .467-.209.467-.461v-.923A.467.467 0 0 0 12.6.923h-.933a.467.467 0 0 0-.467.462zm0 2.769v.923c0 .252.211.461.467.461h.933c.255 0 .467-.209.467-.461v-.923a.467.467 0 0 0-.467-.462h-.933a.467.467 0 0 0-.467.462zm0 2.77v.922c0 .253.211.462.467.462h.933c.255 0 .467-.21.467-.462v-.923a.467.467 0 0 0-.467-.461h-.933a.467.467 0 0 0-.467.461zm-7.467-5.54v3.693c0 .252.212.461.467.461h5.6c.255 0 .467-.209.467-.461V1.385A.467.467 0 0 0 9.8.923H4.2a.467.467 0 0 0-.467.462zM11.2 9.693v.923c0 .253.211.462.467.462h.933c.255 0 .467-.21.467-.462v-.923a.467.467 0 0 0-.467-.461h-.933a.467.467 0 0 0-.467.461zM.933 1.385v.923c0 .252.212.461.467.461h.933c.256 0 .467-.209.467-.461v-.923a.467.467 0 0 0-.467-.462H1.4a.467.467 0 0 0-.467.462zm2.8 5.538v3.692c0 .253.212.462.467.462h5.6c.255 0 .467-.21.467-.462V6.923a.467.467 0 0 0-.467-.461H4.2a.467.467 0 0 0-.467.461zm-2.8-2.77v.924c0 .252.212.461.467.461h.933c.256 0 .467-.209.467-.461v-.923a.467.467 0 0 0-.467-.462H1.4a.467.467 0 0 0-.467.462zm0 2.77v.923c0 .253.212.462.467.462h.933c.256 0 .467-.21.467-.462v-.923a.467.467 0 0 0-.467-.461H1.4a.467.467 0 0 0-.467.461zm0 2.77v.922c0 .253.212.462.467.462h.933c.256 0 .467-.21.467-.462v-.923a.467.467 0 0 0-.467-.461H1.4a.467.467 0 0 0-.467.461zM0 10.845V1.154C0 .519.525 0 1.167 0h11.666C13.475 0 14 .52 14 1.154v9.692c0 .635-.525 1.154-1.167 1.154H1.167C.525 12 0 11.48 0 10.846z"/>
</svg>
