<svg xmlns="http://www.w3.org/2000/svg" width="32" height="26" viewBox="0 0 32 26">
    <path fill="#222532" fill-rule="evenodd" d="M30 26H2c-1.103 0-2-.897-2-2V2C0 .897.897 0 2 0h28c1.103 0 2 .897 2 2v22c0 1.103-.897 2-2 2zM2 15.773V2h28l-.002 17.584-6.291-6.291a1 1 0 0 0-1.332-.074l-4.301 3.441-7.367-7.367a1 1 0 0 0-1.371-.041L2 15.772zm0 2.676V24h27.997v-1.589l-7.071-7.071-4.301 3.441a.999.999 0 0 1-1.332-.074L9.96 11.374 2 18.449zM25.002 9A2.002 2.002 0 0 1 23 7.002C23 5.898 23.898 5 25.002 5a2 2 0 0 1 0 4z"/>
</svg>
