<svg xmlns="http://www.w3.org/2000/svg" width="30" height="32" viewBox="0 0 30 32">
    <path fill="#222532" fill-rule="evenodd" d="M29.032 32H.968A.974.974 0 0 1 0 31.02V.98C0 .439.434 0 .968 0h28.064c.534 0 .968.439.968.98v30.04c0 .541-.434.98-.968.98zM1.937 30.039h26.127V1.96H1.937V30.04zM24.012 9H5.988A.994.994 0 0 1 5 8c0-.552.443-1 .988-1h18.024c.545 0 .988.448.988 1s-.443 1-.988 1zM5.988 14A.994.994 0 0 1 5 13c0-.552.443-1 .988-1h18.024c.545 0 .988.448.988 1s-.443 1-.988 1H5.988zm18.024 5H5.988A.994.994 0 0 1 5 18c0-.552.443-1 .988-1h18.024c.545 0 .988.448.988 1s-.443 1-.988 1zm-10.05 5H6.038C5.465 24 5 23.552 5 23s.465-1 1.038-1h7.924c.573 0 1.038.448 1.038 1s-.465 1-1.038 1z"/>
</svg>
