<svg xmlns="http://www.w3.org/2000/svg" width="32" height="32" viewBox="0 0 32 32">
    <path fill="#222532" fill-rule="evenodd" d="M26.195 31.999a.999.999 0 0 1-.697-.283l-.252-.244-2.272.066a1.542 1.542 0 0 1-1.584-1.511l-.034-1.219-1.156.033-.044.001c-.84 0-1.516-.664-1.539-1.512l-.034-1.217-1.156.033h-.044a1.54 1.54 0 0 1-1.54-1.511l-.068-2.433c-.21-.213-.576-.56-.971-.923a2.58 2.58 0 0 1-3.156-.453 7.344 7.344 0 0 1-.154-.183c-.393.046-.79.069-1.186.069a10.224 10.224 0 0 1-7.294-3.035c-4.019-4.036-4.019-10.606 0-14.642A10.224 10.224 0 0 1 10.31 0c2.756 0 5.347 1.078 7.295 3.035a10.343 10.343 0 0 1 2.874 9.038c.262.408.41.883.424 1.382.012.427-.075.84-.25 1.216l10.98 11.046a1 1 0 0 1 .29.677l.077 2.774c.04 1.469-1.1 2.697-2.542 2.739L26.22 32h-.029l.003-.001zm-.555-2.54c.26 0 .51.102.697.284l.252.244 2.812-.081c.342-.01.61-.317.6-.685l-.066-2.377-11.142-11.211a.997.997 0 0 1-.28-.558l-.038-.257a1 1 0 0 1 .253-.824.682.682 0 0 0 .176-.486.682.682 0 0 0-.197-.468 1 1 0 0 1-.272-.918 8.358 8.358 0 0 0-2.247-7.678 8.237 8.237 0 0 0-5.877-2.446c-2.22 0-4.307.869-5.877 2.446-3.245 3.258-3.245 8.561 0 11.82a8.237 8.237 0 0 0 5.876 2.446c.53 0 1.065-.051 1.585-.153a1 1 0 0 1 1.076.516c.057.109.037.409.52.493a.513.513 0 0 0 .46-.133l.13-.147a1.002 1.002 0 0 1 1.417-.084c.02.018.497.445.983.899 1.065.994 1.274 1.231 1.288 1.703l.064 2.328 1.694-.05a1 1 0 0 1 1.028.972l.05 1.773 1.694-.049a1.002 1.002 0 0 1 1.028.972l.05 1.774 2.233-.065h.03zM8.493 12.045a3.475 3.475 0 0 1-2.478-1.03 3.527 3.527 0 0 1 0-4.967 3.473 3.473 0 0 1 2.478-1.031c.936 0 1.817.366 2.478 1.031a3.528 3.528 0 0 1 0 4.967 3.472 3.472 0 0 1-2.478 1.031zm0-5.029c-.4 0-.777.157-1.061.442a1.522 1.522 0 0 0 0 2.145c.284.285.66.44 1.06.44s.778-.156 1.06-.441a1.522 1.522 0 0 0 0-2.145 1.487 1.487 0 0 0-1.06-.442l.001.001zm18.68 21.28a.995.995 0 0 1-.708-.294l-8.871-8.911a1 1 0 0 1 1.418-1.412l8.87 8.912a1 1 0 0 1-.708 1.705z"/>
</svg>
