<svg xmlns="http://www.w3.org/2000/svg" width="21" height="32" viewBox="0 0 21 32">
    <path fill="#95A6B8" fill-rule="nonzero" d="M10.5 0C4.71 0 0 4.68 0 10.435c0 3.519 1.35 5.611 2.625 7.065.638.727 1.252 1.316 1.662 1.848.411.532.613.96.613 1.522V27.826c0 1.145.948 2.087 2.1 2.087h.81A2.786 2.786 0 0 0 10.5 32c1.297 0 2.378-.89 2.69-2.087H14c1.152 0 2.1-.942 2.1-2.087V20.87c0-.786.231-1.33.634-1.892.403-.562 1.007-1.121 1.641-1.804C19.642 15.808 21 13.888 21 10.434 21 4.68 16.29 0 10.5 0zm0 1.391c5.034 0 9.1 4.04 9.1 9.044 0 3.108-1.092 4.53-2.275 5.804-.591.638-1.212 1.215-1.728 1.935s-.897 1.608-.897 2.696v3.478H6.3V20.87c0-.938-.41-1.712-.919-2.37-.508-.658-1.119-1.244-1.706-1.913C2.5 15.247 1.4 13.617 1.4 10.435c0-5.004 4.066-9.044 9.1-9.044zm-2.866 9.022a.703.703 0 0 0-.087.022.693.693 0 1 0-.35 1.196L9.8 14.216v8.74h1.4v-8.74l2.603-2.587a.704.704 0 0 0-.319-1.183.715.715 0 0 0-.687.183L10.5 12.913 8.203 10.63a.702.702 0 0 0-.569-.217zM6.3 25.739h8.4v2.087a.696.696 0 0 1-.7.696H8.531a.704.704 0 0 0-.284 0H7c-.388 0-.7-.31-.7-.696V25.74zm2.997 4.174h2.406a1.38 1.38 0 0 1-1.203.696 1.38 1.38 0 0 1-1.203-.696z"/>
</svg>
