<svg xmlns="http://www.w3.org/2000/svg" width="32" height="32" viewBox="0 0 32 32">
    <path fill="#172D4C" fill-rule="evenodd" d="M16 0c-2.208 0-4.286.417-6.234 1.25a16.056 16.056 0 0 0-5.094 3.422A16.056 16.056 0 0 0 1.25 9.766C.417 11.714 0 13.792 0 16s.417 4.286 1.25 6.234a16.056 16.056 0 0 0 3.422 5.094 16.056 16.056 0 0 0 5.094 3.422C11.714 31.583 13.792 32 16 32s4.286-.417 6.234-1.25a16.056 16.056 0 0 0 5.094-3.422 16.056 16.056 0 0 0 3.422-5.094C31.583 20.286 32 18.208 32 16s-.417-4.286-1.25-6.234a16.056 16.056 0 0 0-3.422-5.094 16.056 16.056 0 0 0-5.094-3.422C20.286.417 18.208 0 16 0zm4 2.594c1.125.333 2.182.802 3.172 1.406.99.604 1.89 1.307 2.703 2.11A13.827 13.827 0 0 1 29.406 12h-6.5A8.109 8.109 0 0 0 20 9.094v-6.5zM22 16c0 1.667-.589 3.083-1.766 4.25C19.057 21.417 17.646 22 16 22s-3.057-.583-4.234-1.75S10 17.667 10 16c0-1.646.589-3.057 1.766-4.234S14.354 10 16 10s3.057.589 4.234 1.766S22 14.354 22 16zM14 2.156c.333-.041.667-.078 1-.11a10.704 10.704 0 0 1 2 0c.333.032.667.069 1 .11v6.125a9.376 9.376 0 0 0-.969-.203A6.672 6.672 0 0 0 16 8c-.354 0-.698.026-1.031.078-.334.052-.656.12-.969.203V2.156zm-2 .438v6.5A8.11 8.11 0 0 0 9.094 12h-6.5a13.827 13.827 0 0 1 3.531-5.89A14.839 14.839 0 0 1 8.828 4 13.323 13.323 0 0 1 12 2.594zM2 16c0-.333.016-.667.047-1 .031-.333.068-.667.11-1H8.28c-.083.313-.15.64-.203.984a6.773 6.773 0 0 0 0 2.047c.052.334.11.657.172.969H2.156a32.577 32.577 0 0 1-.11-1A10.708 10.708 0 0 1 2 16zm10 13.406a14.019 14.019 0 0 1-3.188-1.39c-1-.594-1.9-1.297-2.703-2.11A14.598 14.598 0 0 1 4 23.188c-.604-1-1.073-2.063-1.406-3.188h6.5c.333.604.75 1.156 1.25 1.656s1.052.917 1.656 1.25v6.5zm6 .438a8.195 8.195 0 0 1-1 .125 16.03 16.03 0 0 1-2 0 8.195 8.195 0 0 1-1-.125V23.75c.313.083.635.146.969.188A8.31 8.31 0 0 0 16 24c.354 0 .698-.02 1.031-.063.334-.041.656-.104.969-.187v6.094zm2-.438v-6.5a7.058 7.058 0 0 0 1.64-1.25A8.51 8.51 0 0 0 22.907 20h6.5A13.622 13.622 0 0 1 28 23.188c-.604 1-1.307 1.906-2.11 2.718a13.374 13.374 0 0 1-2.703 2.11c-1 .593-2.062 1.057-3.187 1.39zM23.75 18c.063-.313.12-.635.172-.969a6.672 6.672 0 0 0 0-2.047 9.124 9.124 0 0 0-.203-.984h6.125c.041.333.078.667.11 1a10.708 10.708 0 0 1 0 2c-.032.333-.069.667-.11 1H23.75z"/>
</svg>
