<svg xmlns="http://www.w3.org/2000/svg" width="21" height="32" viewBox="0 0 21 32">
    <path fill="#222532" fill-rule="evenodd" d="M13.08 2.004L10.841 13.87l8.141.031L7.921 29.996l2.237-13.057-8.141-.031L13.079 2.004zm0-2.004h-.156a1.66 1.66 0 0 0-.435.11c-.125.052-.264.13-.42.234a2.05 2.05 0 0 0-.42.376.245.245 0 0 0-.046.063.245.245 0 0 1-.046.062L.4 15.687c-.477.668-.528 1.367-.155 2.098.062.125.14.245.233.36.093.115.196.219.31.313.114.094.239.172.373.235a1.985 1.985 0 0 0 .855.188l5.748.03-1.833 10.74c-.083.46-.01.893.218 1.3.228.407.549.705.963.892.124.063.254.105.388.126.135.02.275.031.42.031.6 0 1.108-.271 1.522-.814L20.6 15.092c.477-.668.528-1.367.155-2.098-.372-.73-.963-1.096-1.77-1.096h-5.75l1.803-9.424c.02-.084.036-.162.046-.235a1.787 1.787 0 0 0-.062-.767 2.26 2.26 0 0 0-.497-.877 1.605 1.605 0 0 0-.388-.313 2.338 2.338 0 0 0-.466-.204A1.647 1.647 0 0 0 13.172 0h-.093z"/>
</svg>
