<svg xmlns="http://www.w3.org/2000/svg" width="22" height="23" viewBox="0 0 22 23">
    <path fill="#678099" fill-rule="nonzero" d="M16.5 0C13.474 0 11 2.474 11 5.5c0 .91.35 1.837.802 2.865a32.197 32.197 0 0 0 1.604 3.122c1.168 2.012 2.35 3.695 2.35 3.695l.744 1.089.745-1.089s1.181-1.683 2.349-3.695a32.197 32.197 0 0 0 1.604-3.122C21.649 7.337 22 6.41 22 5.5 22 2.474 19.526 0 16.5 0zM7.305 1.776L0 4.898v17.589l7.362-3.18 7.333 2.75L22 18.935v-7.992a45.048 45.048 0 0 1-1.833 3.15v3.639l-4.584 1.948v-1.49l-1.346-1.948a70.147 70.147 0 0 1-.487-.716v4.24l-5.5-2.063V4.068l1.003.372c.09-.62.25-1.217.487-1.776l-2.435-.888zm9.195.057A3.655 3.655 0 0 1 20.167 5.5c0 .354-.222 1.192-.63 2.12-.409.927-.985 1.98-1.547 2.95-.749 1.29-1.071 1.748-1.49 2.378-.419-.63-.741-1.089-1.49-2.378-.562-.97-1.138-2.023-1.546-2.95-.409-.928-.63-1.766-.63-2.12A3.655 3.655 0 0 1 16.5 1.833zM6.417 4.125v13.607L1.833 19.68V6.102l4.584-1.977zm10.083 0a1.375 1.375 0 1 0 0 2.75 1.375 1.375 0 0 0 0-2.75z"/>
</svg>
