<svg xmlns="http://www.w3.org/2000/svg" width="49" height="50" viewBox="0 0 49 50">
    <path fill="#C2CDD7" fill-rule="nonzero" d="M43.487.01c-.13.01-.271.054-.398.093L5.757 11.788l-3.889 1.219C.972 13.287.41 14.178.49 15.1c.004.094.015.156.03.219.004.062.016.125.031.187.005.029.118.373.337 1.031-.54.684-.888 1.531-.888 2.469 0 1.464.8 2.741 1.96 3.437V48c0 1.094.888 2 1.96 2h43.12c1.072 0 1.96-.906 1.96-2V20.005c0-.55-.44-1-.98-1H9.463l36.842-11.56a.99.99 0 0 0 .593-.48c.127-.234.157-.512.08-.77l-.244-.78a1.004 1.004 0 0 0-.123-.376L45.54 1.415C45.264.501 44.391-.08 43.487.01zm.184 1.999l.46 1.53-1.96-1.062 1.5-.468zM39.506 3.32l4.9 2.625-3.001.937-4.87-2.625 2.971-.937zm-5.604 1.75l4.87 2.655-2.94.907-4.9-2.625 2.97-.937zm-5.605 1.75l4.9 2.655-2.97.937-4.93-2.655 3-.938zM22.632 8.6l4.9 2.656-2.94.906-4.9-2.656 2.94-.906zm-5.574 1.75l4.9 2.656-3.001.937-4.9-2.656 3.001-.937zm-5.635 1.78l4.9 2.625-2.97.938-4.87-2.656 2.94-.906zm-5.604 1.75l4.87 2.656-2.972.906-.244-.125c-.628-1.363-1.987-2.312-3.553-2.312-.195 0-.394.036-.582.063l-.49-.25 2.97-.937zM3.92 17.007c.82 0 1.512.5 1.807 1.219.011.074.034.148.061.218.012.043.05.078.061.125.004.012-.003.02 0 .031-.038.176-.026.36.031.532v.03c-.004.075-.02.15-.03.22a.47.47 0 0 0-.031.062c-.088.14-.142.3-.153.469a1.933 1.933 0 0 1-1.746 1.093c-.138 0-.268-.004-.398-.031-.012-.004-.02.004-.03 0l-.031-.031c-.023-.004-.039-.024-.062-.031-.03-.012-.06-.024-.092-.032-.03-.011-.06-.02-.091-.03h-.062c-.019-.009-.042-.024-.06-.032-.67-.317-1.134-1-1.134-1.812 0-.469.142-.91.398-1.25.035-.047.115-.05.153-.094a.956.956 0 0 0 .276-.281c.011-.008.019-.023.03-.031l.031-.032c.134-.09.272-.164.429-.218.088-.032.18-.043.276-.063.118-.023.24-.031.367-.031zm4.349 4h3.062l-3.92 3.999H4.35l3.92-4zm5.88 0h3.062l-3.92 3.999H10.23l3.92-4zm5.88 0h3.062l-3.92 3.999H16.11l3.92-4zm5.88 0h3.062l-3.92 3.999H21.99l3.92-4zm5.88 0h3.062l-3.92 3.999H27.87l3.92-4zm5.88 0h3.062l-3.92 3.999H33.75l3.92-4zm5.88 0h3.062l-3.92 3.999H39.63l3.92-4zm3.491 2.436v1.563h-1.531l1.531-1.563zM3.92 27.004h43.12V48H3.92V27.004z"/>
</svg>
