<svg xmlns="http://www.w3.org/2000/svg" width="21" height="21" viewBox="0 0 21 21">
    <path fill="#678099" fill-rule="nonzero" d="M6.249 0c-.76 0-1.416.481-1.74.97-.325.489-.479.988-.657 1.427-.178.438-.367.806-.542.998-.175.193-.278.286-.656.286-.425 0-1.142-.485-1.142-.485L.342 4.594s.942.913 2.312.913c.838 0 1.576-.389 2.025-.885.45-.495.66-1.059.856-1.54.196-.482.382-.885.514-1.085.132-.2.071-.17.2-.17.285 0 .303.02.599.456.296.435.667 1.227 1.198 2.254.057.107.293.51.371.656-.228.168-.4.41-.4.713 0 .503.41.913.914.913a.986.986 0 0 0 .342-.057c.118.218.243.421.371.656a.9.9 0 0 0-.514.8c0 .502.41.912.913.912.172 0 .321-.06.457-.142.14.25.2.374.342.627a.893.893 0 0 0-.513.828c0 .503.41.913.913.913a.835.835 0 0 0 .485-.143c.453.81.917 1.652 1.255 2.254.236.418.432.753.571.999.14.246.207.339.257.428.064.107.139.235.342.37.203.136.738.219 1.084-.028.346-.246.357-.538.371-.713a1.08 1.08 0 0 0-.028-.428c.028.093-.004-.014-.029-.114s-.075-.235-.114-.4c-.082-.328-.178-.777-.285-1.226-.218-.896-.453-1.912-.485-2.112-.1-.588.085-2.168.085-2.168l.029-.2 2.596.856-.085.057-.114.143s-.268.378-.457.884c-.189.507-.385 1.298.057 2.055.125.214.564 1.012 1.027 1.911a3.267 3.267 0 0 1-1.426 4.423 3.262 3.262 0 0 1-4.537-1.684L6.677 3.823S6.423 5.04 5.478 5.507l4.68 11.698c1.123 2.768 4.419 3.988 7.076 2.625 2.503-1.284 3.488-4.372 2.197-6.876-.468-.906-.853-1.68-1.056-2.026-.025-.043-.04-.228.057-.485.064-.171.096-.239.143-.314l1.17-.656.313-.2.2-.6.257-.855-.856-.285-6.277-2.026-.885-.286-.285.885-.057.257-.114.37.2.372.713 1.112c-.036.207-.029.757-.057 1.341-.025-.042-.032-.07-.057-.114-1.306-2.329-2.722-4.879-3.167-5.735-.507-.973-.86-1.783-1.313-2.454C7.907.585 7.155 0 6.25 0z"/>
</svg>
