<svg xmlns="http://www.w3.org/2000/svg" width="33" height="33" viewBox="0 0 33 33">
    <path fill="#1F222E" fill-rule="evenodd" d="M22.868 2.282a1.147 1.147 0 0 1-1.145-1.138c0-.632.513-1.144 1.145-1.144h8.776c.632 0 1.144.512 1.144 1.144v8.774c0 .632-.512 1.144-1.144 1.144a1.143 1.143 0 0 1-1.138-1.144v-6.02l-13.773 13.77a1.139 1.139 0 0 1-1.61 0 1.144 1.144 0 0 1 0-1.617l13.766-13.77h-6.021zM6.928 33C3.112 33 0 29.89 0 26.066V6.927A6.935 6.935 0 0 1 6.929 0h8.935c.633 0 1.151.518 1.151 1.158 0 .64-.512 1.158-1.151 1.158H6.929a4.626 4.626 0 0 0-4.62 4.618v19.132a4.626 4.626 0 0 0 4.62 4.618H26.07a4.626 4.626 0 0 0 4.62-4.618V17.06a1.15 1.15 0 0 1 1.15-1.151c.64 0 1.159.511 1.159 1.15v9.015A6.935 6.935 0 0 1 26.071 33H6.93z"/>
</svg>
