<svg xmlns="http://www.w3.org/2000/svg" width="11" height="14" viewBox="0 0 11 14">
    <path fill="#172D4C" fill-rule="evenodd" d="M4.68 14c-1.52 0-3.256-.43-4.407-1.134L1.6 10.44c.78.567 1.814.88 2.867.88 2.185 0 3.238-1.388 3.199-3.637-.644.92-1.736 1.467-3.257 1.467C1.716 9.15 0 7.39 0 4.73 0 1.839 2.028 0 5.11 0 8.777 0 11 2.6 11 6.804 11 11.164 8.523 14 4.68 14zm.508-7.391c1.346 0 2.106-.802 2.106-1.916 0-1.017-.643-1.916-2.048-1.916-1.248 0-2.028.703-2.028 1.974 0 1.174.722 1.858 1.97 1.858z"/>
</svg>
