<svg xmlns="http://www.w3.org/2000/svg" width="11" height="14" viewBox="0 0 11 14">
    <path fill="#172D4C" fill-rule="evenodd" d="M6.32 0c1.52 0 3.256.43 4.407 1.134L9.4 3.56c-.78-.567-1.814-.88-2.867-.88-2.185 0-3.238 1.388-3.199 3.637.644-.92 1.736-1.467 3.257-1.467C9.284 4.85 11 6.61 11 9.27 11 12.161 8.972 14 5.89 14 2.223 14 0 11.4 0 7.196 0 2.836 2.477 0 6.32 0zm-.508 7.391c-1.346 0-2.106.802-2.106 1.916 0 1.017.643 1.916 2.048 1.916 1.248 0 2.028-.703 2.028-1.974 0-1.174-.722-1.858-1.97-1.858z"/>
</svg>
