<svg xmlns="http://www.w3.org/2000/svg" width="27" height="32" viewBox="0 0 27 32">
    <path fill="#000" fill-rule="evenodd" d="M25.805 6.786c.328.333.61.785.843 1.357.235.571.352 1.095.352 1.571v20.572c0 .476-.164.88-.492 1.214-.328.333-.727.5-1.195.5H1.688c-.47 0-.868-.167-1.196-.5A1.667 1.667 0 0 1 0 30.286V1.714C0 1.238.164.834.492.5.82.167 1.22 0 1.688 0h15.75c.468 0 .984.119 1.546.357.563.238 1.008.524 1.336.857l5.485 5.572zM18 2.429v6.714h6.61c-.118-.345-.247-.59-.387-.732L18.72 2.82c-.14-.142-.381-.273-.721-.392zm6.75 27.285V11.43h-7.313c-.468 0-.867-.167-1.195-.5a1.667 1.667 0 0 1-.492-1.215V2.286H2.25v27.428h22.5z"/>
</svg>
