<svg xmlns="http://www.w3.org/2000/svg" width="32" height="32" viewBox="0 0 32 32">
    <path fill="#172D4C" fill-rule="evenodd" d="M30.098 1.59c-.54-.52-1.107-.914-1.7-1.185A4.42 4.42 0 0 0 26.543 0c-1.434 0-2.723.572-3.866 1.715-.374.354-6.953 6.935-19.736 19.743-.125.125-.219.27-.28.437-.084.353-.957 3.275-2.62 8.764-.104.395-.01.738.28 1.03.021.04.053.072.094.093.042.02.078.041.11.062.03.02.067.042.108.062.042.021.084.037.125.047l.125.031a.694.694 0 0 0 .437-.047c4.385-1.434 7.254-2.349 8.605-2.744a.917.917 0 0 0 .436-.25c2.37-2.35 6.143-6.087 11.318-11.212 5.176-5.125 8.013-7.948 8.512-8.468 1.226-1.268 1.83-2.578 1.808-3.93-.02-1.31-.654-2.557-1.901-3.742zm-7.733 3.307c1.04.25 2.016.831 2.931 1.746.374.375.691.8.951 1.279.26.478.426.837.499 1.076.073.24.13.463.171.67-2.806 2.787-8.304 8.234-16.493 16.344a8.504 8.504 0 0 0-1.715-2.558 8.762 8.762 0 0 0-2.931-1.965c.727-.727 2.302-2.308 4.724-4.74 2.421-2.433 4.718-4.73 6.89-6.893 2.172-2.163 3.83-3.816 4.973-4.96zM4.406 23.173c1.019.27 1.975.853 2.869 1.747a5.91 5.91 0 0 1 1.496 2.495c-.416.146-1.408.478-2.977.998-1.57.52-2.697.894-3.383 1.123.187-.624.53-1.71 1.029-3.26.498-1.548.82-2.583.966-3.103zm24.32-15.345c0 .021-.01.042-.031.063l-.156.156a8.279 8.279 0 0 0-1.809-2.838 8.82 8.82 0 0 0-2.775-1.903l.156-.156a4.77 4.77 0 0 1 .39-.343c.156-.125.436-.28.842-.468.405-.187.805-.28 1.2-.28.374 0 .743.083 1.107.249.364.166.712.416 1.045.749.415.395.732.79.95 1.185.219.395.328.78.328 1.154 0 .374-.104.769-.312 1.185-.208.416-.52.832-.935 1.247z"/>
</svg>
