<svg xmlns="http://www.w3.org/2000/svg" width="32" height="32" viewBox="0 0 32 32">
    <path fill="#222532" fill-rule="evenodd" d="M0 16c0-4.274 1.664-8.292 4.686-11.314A15.895 15.895 0 0 1 16 0c4.274 0 8.292 1.664 11.314 4.686A15.895 15.895 0 0 1 32 16c0 4.274-1.664 8.292-4.686 11.314A15.895 15.895 0 0 1 16 32a15.895 15.895 0 0 1-11.314-4.686A15.895 15.895 0 0 1 0 16zm30.021 0c0-7.731-6.29-14.021-14.021-14.021C8.269 1.979 1.979 8.269 1.979 16c0 7.731 6.29 14.021 14.021 14.021 7.731 0 14.021-6.29 14.021-14.021zM15 18V7h1.741v9.087H25V18H15z"/>
</svg>
