<?xml version="1.0" encoding="UTF-8"?>
<svg width="18px" height="10px" viewBox="0 0 18 10" version="1.1" xmlns="http://www.w3.org/2000/svg" xmlns:xlink="http://www.w3.org/1999/xlink">
    <!-- Generator: sketchtool 50.2 (55047) - http://www.bohemiancoding.com/sketch -->
    <title>A01915F1-C01B-474F-877D-E2CEB21B4EE4</title>
    <desc>Created with sketchtool.</desc>
    <defs></defs>
    <g id="Page-1" stroke="none" stroke-width="1" fill="none" fill-rule="evenodd">
        <g id="Icon-Library" transform="translate(-1255.000000, -3604.000000)" fill="#52677B" fill-rule="nonzero">
            <path d="M1256,3605 L1256,3613 L1272,3613 L1272,3605 L1256,3605 Z M1256,3604 L1272,3604 C1272.55228,3604 1273,3604.44772 1273,3605 L1273,3613 C1273,3613.55228 1272.55228,3614 1272,3614 L1256,3614 C1255.44772,3614 1255,3613.55228 1255,3613 L1255,3605 C1255,3604.44772 1255.44772,3604 1256,3604 Z M1257,3608 L1259,3608 L1259,3610 L1257,3610 L1257,3608 Z M1270,3607 L1271,3607 L1271,3611 L1270,3611 L1270,3607 Z" id="phone-landscape-"></path>
        </g>
    </g>
</svg>