<?xml version="1.0" encoding="UTF-8"?>
<svg width="10px" height="18px" viewBox="0 0 10 18" version="1.1" xmlns="http://www.w3.org/2000/svg" xmlns:xlink="http://www.w3.org/1999/xlink">
    <!-- Generator: sketchtool 50.2 (55047) - http://www.bohemiancoding.com/sketch -->
    <title>529BF761-09CD-4660-907B-0BDA2EC2E9AB</title>
    <desc>Created with sketchtool.</desc>
    <defs></defs>
    <g id="Page-1" stroke="none" stroke-width="1" fill="none" fill-rule="evenodd">
        <g id="Icon-Library" transform="translate(-1132.000000, -3601.000000)" fill="#52677B" fill-rule="nonzero">
            <path d="M1133,3602 L1133,3618 L1141,3618 L1141,3602 L1133,3602 Z M1133,3601 L1141,3601 C1141.55228,3601 1142,3601.44772 1142,3602 L1142,3618 C1142,3618.55228 1141.55228,3619 1141,3619 L1133,3619 C1132.44772,3619 1132,3618.55228 1132,3618 L1132,3602 C1132,3601.44772 1132.44772,3601 1133,3601 Z M1136,3615 L1138,3615 L1138,3617 L1136,3617 L1136,3615 Z M1135,3603 L1139,3603 L1139,3604 L1135,3604 L1135,3603 Z" id="phone-portrait"></path>
        </g>
    </g>
</svg>