<svg xmlns="http://www.w3.org/2000/svg" width="26" height="32" viewBox="0 0 26 32">
    <path fill="#000" fill-rule="evenodd" d="M1.956 2.004L24.074 16 1.926 29.996l.03-27.992zm0-2.004c-.341 0-.652.084-.933.25C.361.647.03 1.232.03 2.004L0 29.996c0 .772.331 1.357.993 1.754.14.083.291.146.451.187.16.042.321.063.482.063.18 0 .356-.026.527-.078.17-.052.326-.13.466-.235L25.097 17.69C25.7 17.315 26 16.75 26 16c0-.23-.035-.454-.105-.673a1.869 1.869 0 0 0-.316-.595c-.14-.178-.301-.318-.482-.423L2.95.313a1.794 1.794 0 0 0-.316-.156 4.09 4.09 0 0 0-.33-.11A1.262 1.262 0 0 0 1.955 0z"/>
</svg>
