<svg xmlns="http://www.w3.org/2000/svg" viewBox="0 0 40 40"><g fill="none" fill-rule="evenodd"><circle cx="20" cy="20.5" r="18" fill="#090D32" fill-rule="nonzero" opacity=".298"/><path fill="#FFF" d="M20 0C8.954 0 0 8.954 0 20s8.954 20 20 20 20-8.954 20-20S31.046 0 20 0zm0 2.759c9.522 0 17.241 7.719 17.241 17.241 0 9.522-7.719 17.241-17.241 17.241-9.522 0-17.241-7.719-17.241-17.241 0-9.522 7.719-17.241 17.241-17.241z"/><path fill="#FFF" fill-rule="nonzero" d="M28.71 18.385l-11.786-8.128c-.957-.66-2.424-.02-2.424 1.613v16.253c0 1.465 1.363 2.348 2.424 1.613l11.786-8.124c1.052-.723 1.055-2.504 0-3.227z"/></g></svg>