<svg xmlns="http://www.w3.org/2000/svg" width="32" height="31" viewBox="0 0 32 31">
    <path fill="#1F222E" fill-rule="evenodd" d="M7.74 23.942c2.298 2.114 5.32 3.037 8.26 2.78l-.642 4.275c-3.412.07-6.85-1.013-9.645-3.275a15.315 15.315 0 0 1-3.866-4.658C-1.257 17.297-.45 9.916 4.277 4.994L1.413 2.08c-.158-.16-.044-.449.189-.487L11.826.002a.257.257 0 0 1 .29.296l-1.562 10.4c-.038.236-.32.352-.478.192L7.217 7.98C4.12 11.23 3.377 15.94 4.964 19.9a10.99 10.99 0 0 0 2.776 4.043zm19.983 2.064l2.864 2.915c.151.16.044.449-.189.487l-10.224 1.59a.257.257 0 0 1-.29-.296l1.562-10.4c.038-.236.32-.352.478-.192l2.859 2.91c3.097-3.25 3.84-7.959 2.253-11.919a10.99 10.99 0 0 0-2.776-4.043c-2.298-2.114-5.326-3.037-8.26-2.78l.642-4.275c3.412-.07 6.85 1.013 9.645 3.275a15.315 15.315 0 0 1 3.866 4.658c3.104 5.767 2.298 13.148-2.43 18.07z"/>
</svg>
