<svg xmlns="http://www.w3.org/2000/svg" width="32" height="32" viewBox="0 0 32 32">
    <path fill="#222532" fill-rule="evenodd" d="M0 30.504c0-.826.668-1.496 1.5-1.496h29a1.496 1.496 0 0 1 0 2.992h-29C.673 32 0 31.336 0 30.504zM26.43 1.69a5.776 5.776 0 0 0-8.164 0L3.296 16.625a.747.747 0 0 0-.21.429l-1.11 8.199a.744.744 0 0 0 .212.628c.14.14.334.223.53.223.033 0 .066 0 .1-.006l4.948-.667a.752.752 0 1 0-.2-1.49l-3.968.533.774-5.718 6.03 6.019a.739.739 0 0 0 1.059 0l14.97-14.936a5.721 5.721 0 0 0 1.693-4.078A5.7 5.7 0 0 0 26.43 1.69zm-7.874 1.835l2.513 2.509-13.66 13.634-2.513-2.509 13.66-13.634zm-7.619 19.659L8.48 20.73 22.14 7.097l2.457 2.453-13.66 13.634zM25.644 8.476l-6.013-6.002a4.261 4.261 0 0 1 2.72-.973c1.142 0 2.212.445 3.02 1.246A4.214 4.214 0 0 1 26.62 5.76a4.233 4.233 0 0 1-.976 2.715z"/>
</svg>
