<svg xmlns="http://www.w3.org/2000/svg" width="28" height="28" viewBox="0 0 28 28">
    <path fill="#172D4C" fill-rule="evenodd" d="M7 25.667h14v-7H7v7zm16.333 0h2.334V9.333c0-.17-.061-.404-.183-.701-.121-.298-.243-.508-.364-.63L19.997 2.88c-.121-.121-.328-.243-.62-.364-.291-.122-.528-.183-.71-.183v7.584c0 .486-.17.899-.51 1.24-.341.34-.754.51-1.24.51h-10.5c-.486 0-.9-.17-1.24-.51-.34-.341-.51-.754-.51-1.24V2.333H2.333v23.334h2.334v-7.584c0-.486.17-.899.51-1.24.34-.34.754-.51 1.24-.51h15.166c.486 0 .9.17 1.24.51.34.341.51.754.51 1.24v7.584zm-7-16.917V2.917a.56.56 0 0 0-.173-.41.56.56 0 0 0-.41-.174h-3.5a.56.56 0 0 0-.41.174.56.56 0 0 0-.173.41V8.75a.56.56 0 0 0 .173.41.56.56 0 0 0 .41.173h3.5a.56.56 0 0 0 .41-.173.56.56 0 0 0 .173-.41zM28 9.333V26.25c0 .486-.17.9-.51 1.24-.34.34-.754.51-1.24.51H1.75c-.486 0-.9-.17-1.24-.51-.34-.34-.51-.754-.51-1.24V1.75C0 1.264.17.85.51.51.85.17 1.264 0 1.75 0h16.917c.486 0 1.02.122 1.604.365.583.243 1.045.534 1.385.875l5.104 5.104c.34.34.632.802.875 1.385.243.584.365 1.118.365 1.604z"/>
</svg>
