<svg xmlns="http://www.w3.org/2000/svg" width="33" height="32" viewBox="0 0 33 32">
    <g fill="#172D4C" fill-rule="evenodd">
        <path d="M23.438 2.344h-6.25V.78a.75.75 0 0 0-.232-.55.75.75 0 0 0-.55-.231.75.75 0 0 0-.55.232.75.75 0 0 0-.231.55v1.562h-6.25V.78a.75.75 0 0 0-.232-.55.75.75 0 0 0-.55-.231.75.75 0 0 0-.549.232.75.75 0 0 0-.232.55v1.562h-6.25c-.439 0-.81.15-1.11.451A1.51 1.51 0 0 0 0 3.906v19.532A1.56 1.56 0 0 0 1.563 25h21.875c.439 0 .81-.155 1.11-.464.301-.31.452-.675.452-1.099V3.907c0-.44-.15-.81-.452-1.112a1.51 1.51 0 0 0-1.11-.451zm0 21.093H1.563V3.907h6.25v.78a.75.75 0 0 0 .231.55.75.75 0 0 0 .55.232.75.75 0 0 0 .55-.232.75.75 0 0 0 .231-.55v-.78h6.25v.78a.75.75 0 0 0 .232.55.75.75 0 0 0 .55.232.75.75 0 0 0 .549-.232.75.75 0 0 0 .232-.55v-.78h6.25v19.53zM17.968 12.5h1.563a.75.75 0 0 0 .55-.232.75.75 0 0 0 .232-.55v-1.562a.75.75 0 0 0-.232-.55.75.75 0 0 0-.55-.231H17.97a.75.75 0 0 0-.55.232.75.75 0 0 0-.232.55v1.562a.75.75 0 0 0 .232.55.75.75 0 0 0 .55.231zm0 6.25h1.563a.75.75 0 0 0 .55-.232.75.75 0 0 0 .232-.55v-1.562a.75.75 0 0 0-.232-.55.75.75 0 0 0-.55-.231H17.97a.75.75 0 0 0-.55.232.75.75 0 0 0-.232.55v1.562a.75.75 0 0 0 .232.55.75.75 0 0 0 .55.231zm-4.687-3.125H11.72a.75.75 0 0 0-.55.232.75.75 0 0 0-.232.55v1.562c0 .081.013.163.037.244a.696.696 0 0 0 .11.22.85.85 0 0 0 .17.17.696.696 0 0 0 .22.11.846.846 0 0 0 .245.037h1.562a.75.75 0 0 0 .55-.232.75.75 0 0 0 .232-.55v-1.562a.958.958 0 0 0-.025-.207.695.695 0 0 0-.195-.354.695.695 0 0 0-.354-.195.958.958 0 0 0-.208-.025zm0-6.25H11.72a.75.75 0 0 0-.55.232.75.75 0 0 0-.232.55v1.562a.75.75 0 0 0 .232.55.75.75 0 0 0 .55.231h1.562a.75.75 0 0 0 .55-.232.75.75 0 0 0 .232-.55v-1.562a.73.73 0 0 0-.232-.55.73.73 0 0 0-.55-.232zm-6.25 0H5.47a.75.75 0 0 0-.55.232.75.75 0 0 0-.231.55v1.562a.75.75 0 0 0 .231.55.75.75 0 0 0 .55.231H7.03a.75.75 0 0 0 .55-.232.75.75 0 0 0 .231-.55v-1.562a.73.73 0 0 0-.231-.55.73.73 0 0 0-.55-.232zm0 6.25H5.47a.75.75 0 0 0-.55.232.75.75 0 0 0-.231.55v1.562a.75.75 0 0 0 .231.55.75.75 0 0 0 .55.231H7.03a.75.75 0 0 0 .55-.232.75.75 0 0 0 .231-.55v-1.562a.958.958 0 0 0-.024-.207.695.695 0 0 0-.195-.354.695.695 0 0 0-.354-.195.958.958 0 0 0-.208-.025z"/>
        <path d="M28.602 12a1.823 1.823 0 0 0-1.29.536l-2.044 2.055 5.112 5.181 2.089-2.1a1.79 1.79 0 0 0 0-2.545l-2.578-2.591A1.835 1.835 0 0 0 28.6 12zm-5.2 4.154l-8.313 8.398c-.104.093-.225.214-.267.357l-1.778 6.12a.82.82 0 0 0-.044.223c0 .2.077.39.222.536.197.196.49.257.756.179l6.134-1.787c.152-.044.263-.154.355-.268l8.312-8.353-5.378-5.405zM16.2 25.67l2.623.536.533 2.59-3.467 1.028-.711-.715 1.022-3.44z"/>
    </g>
</svg>
