<svg xmlns="http://www.w3.org/2000/svg" width="32" height="32" viewBox="0 0 32 32">
    <path fill="#222532" fill-rule="evenodd" d="M22.51 24.093l7.58 7.58a1.118 1.118 0 0 0 1.582 0 1.124 1.124 0 0 0 0-1.588l-7.58-7.58a13.601 13.601 0 0 0 3.248-8.835C27.34 6.13 21.204 0 13.67 0S0 6.13 0 13.67c0 7.542 6.136 13.67 13.676 13.67a13.6 13.6 0 0 0 8.834-3.247zM2.24 13.67c0-6.306 5.129-11.428 11.428-11.428 6.299 0 11.428 5.13 11.428 11.428 0 6.3-5.13 11.429-11.428 11.429-6.3 0-11.428-5.13-11.428-11.429zm18.467-5.372a.958.958 0 0 0-1.387 0l-8.202 8.294-3.437-3.446a.958.958 0 0 0-1.387 0 .984.984 0 0 0 0 1.403l4.13 4.147c.182.183.453.305.694.305.241 0 .512-.122.693-.305l8.895-8.965a1.02 1.02 0 0 0 0-1.433h.001z"/>
</svg>
