<svg xmlns="http://www.w3.org/2000/svg" width="32" height="29" viewBox="0 0 32 29">
    <path fill="#222532" fill-rule="evenodd" d="M31.796 5.264a.902.902 0 0 0-.69-.317H5.624L4.777.702A.885.885 0 0 0 3.902 0H.892A.88.88 0 0 0 0 .868c0 .48.399.868.892.868h2.275l3.84 19.549a.885.885 0 0 0 .878.717h3.15c-1.691.298-2.978 1.74-2.978 3.47 0 1.945 1.626 3.528 3.626 3.528s3.624-1.582 3.624-3.528c0-1.73-1.286-3.171-2.977-3.47H23.91c-1.69.298-2.978 1.74-2.978 3.47 0 1.945 1.627 3.528 3.626 3.528 2 0 3.626-1.582 3.626-3.528 0-1.73-1.287-3.171-2.978-3.47h2.715a.88.88 0 0 0 .892-.868.88.88 0 0 0-.892-.868H8.634l-.273-1.512h20.285a.886.886 0 0 0 .875-.698l2.462-12.073a.847.847 0 0 0-.186-.719h-.001zM26.4 25.471c0 .989-.826 1.792-1.842 1.792s-1.842-.803-1.842-1.792c0-.988.827-1.792 1.842-1.792 1.016 0 1.842.804 1.842 1.792zm-12.876 0c0 .989-.826 1.792-1.842 1.792S9.84 26.46 9.84 25.471c0-.988.826-1.792 1.842-1.792s1.842.804 1.842 1.792zM8.028 17.02l-1.21-6.07h3.367l1.025 6.07H8.028zm9.074 0h-4.085l-1.025-6.07h5.111v6.07zm5.934 0h-4.15v-6.07h5.045l-.896 6.07h.001zm4.877 0h-3.075l.896-6.07h3.417l-1.238 6.07zm1.592-7.805H6.473l-.504-2.531h24.053l-.516 2.531h-.001z"/>
</svg>
