<svg xmlns="http://www.w3.org/2000/svg" width="32" height="32" viewBox="0 0 32 32">
    <path fill="#222532" fill-rule="evenodd" d="M31.858 11.99a3.141 3.141 0 0 1-.885 3.257l-5.903 5.191 1.85 7.809c.216.907.026 1.849-.523 2.577C25.843 31.56 24.984 32 24.1 32a2.814 2.814 0 0 1-1.532-.46l-6.563-4.242L9.44 31.54c-.468.302-.996.46-1.532.46-.885 0-1.744-.44-2.298-1.176a3.077 3.077 0 0 1-.522-2.577l1.849-7.809-5.903-5.19c-.912-.797-1.255-2.07-.892-3.245.363-1.176 1.367-1.993 2.55-2.083l7.705-.585 2.912-7.451C13.758.736 14.809 0 15.996 0c1.189 0 2.239.736 2.688 1.877l2.919 7.444 7.706.585c1.182.09 2.178.908 2.549 2.083z"/>
</svg>
