<svg xmlns="http://www.w3.org/2000/svg" width="14" height="24" viewBox="0 0 14 24">
    <path fill="#0B1625" fill-rule="evenodd" d="M13.237 24H.763c-.309 0-.587-.293-.705-.741-.118-.449-.053-.965.165-1.309L6.545 12 .223 2.05C.005 1.706-.06 1.19.058.74.176.292.454 0 .763 0h12.474c.421 0 .763.538.763 1.2v3.71c0 .662-.342 1.2-.763 1.2s-.667-.538-.667-1.2V2.255H2.425l5.738 8.895c.143.225.223.53.223.849 0 .318-.08.624-.223.849l-5.738 8.945H12.57v-2.885c0-.663.246-1.2.667-1.2.421 0 .763.537.763 1.2v3.89c0 .663-.342 1.201-.763 1.201z"/>
</svg>
