<svg xmlns="http://www.w3.org/2000/svg" width="29" height="29" viewBox="0 0 29 29">
    <path fill="#000" fill-rule="evenodd" d="M14.5 23.694c2.55 0 4.72-.895 6.51-2.684 1.789-1.79 2.684-3.96 2.684-6.51s-.895-4.72-2.684-6.51c-1.79-1.789-3.96-2.684-6.51-2.684s-4.72.895-6.51 2.684c-1.789 1.79-2.684 3.96-2.684 6.51s.895 4.72 2.684 6.51c1.79 1.789 3.96 2.684 6.51 2.684zm11.785-10.49H29v2.592h-2.715c-.288 2.756-1.419 5.121-3.394 7.095-1.974 1.975-4.34 3.106-7.095 3.394V29h-2.592v-2.715c-2.756-.288-5.121-1.419-7.095-3.394-1.975-1.974-3.106-4.34-3.394-7.095H0v-2.592h2.715c.288-2.756 1.419-5.121 3.394-7.095 1.974-1.975 4.34-3.106 7.095-3.394V0h2.592v2.715c2.756.288 5.121 1.419 7.095 3.394 1.975 1.974 3.106 4.34 3.394 7.095z"/>
</svg>
