<svg xmlns="http://www.w3.org/2000/svg" width="32" height="32" viewBox="0 0 32 32">
    <path fill="#678099" fill-rule="nonzero" d="M24.917 23.083H32V32h-8.917v-5.419L16 19.072l-7.083 7.51V32H0v-8.917h7.083L14.25 16v-5.675a5.376 5.376 0 0 1-2.582-1.898c-.668-.896-1.002-1.927-1.002-3.094 0-.938.241-1.82.725-2.645A5.41 5.41 0 0 1 13.355.725 5.145 5.145 0 0 1 16 0c.939 0 1.82.242 2.645.725a5.41 5.41 0 0 1 1.963 1.963c.484.825.725 1.707.725 2.645 0 1.167-.334 2.198-1.002 3.094a5.376 5.376 0 0 1-2.582 1.898V16l7.168 7.083z"/>
</svg>
