<svg xmlns="http://www.w3.org/2000/svg" width="32" height="26" viewBox="0 0 32 26">
    <path fill="#222532" fill-rule="evenodd" d="M23.843 6.024c-.708-1.893-1.818-3.37-3.328-4.432C19.005.53 17.145 0 14.938 0c-1.896 0-3.6.431-5.11 1.295a9.51 9.51 0 0 0-3.562 3.527C5.4 6.31 4.906 7.979 4.782 9.832c-1.396.457-2.542 1.326-3.438 2.605C.448 13.717 0 15.157 0 16.759c0 1.956.667 3.652 2 5.088S4.917 24 6.75 24h2.875a.948.948 0 0 0 .719-.297.983.983 0 0 0 .28-.702.936.936 0 0 0-.077-.39 1.245 1.245 0 0 0-.203-.313.842.842 0 0 0-.313-.219 1.046 1.046 0 0 0-.406-.077H6.75c-1.292 0-2.411-.52-3.36-1.561-.947-1.041-1.421-2.268-1.421-3.684 0-1.248.385-2.372 1.156-3.37.77-.999 1.708-1.592 2.813-1.779l.906-.156-.063-.937H6.75c0-1.622.333-3.079 1-4.369a7.431 7.431 0 0 1 2.875-3.043c1.25-.74 2.688-1.108 4.313-1.108 3.728 0 6.134 1.758 7.218 5.275l.22.687.718.03c1.875.022 3.505.698 4.891 2.03 1.386 1.33 2.078 2.922 2.078 4.774a8.66 8.66 0 0 1-.688 3.387 6.961 6.961 0 0 1-2.016 2.73c-.885.728-1.88 1.093-2.984 1.093h-2.28a.961.961 0 0 0-.704.296.959.959 0 0 0-.297.702c0 .27.1.505.297.702a.961.961 0 0 0 .703.297h2.281c1.208-.042 2.307-.339 3.297-.89a7.062 7.062 0 0 0 2.406-2.153 10.662 10.662 0 0 0 1.422-2.918c.333-1.062.5-2.144.5-3.246 0-2.268-.786-4.235-2.359-5.898-1.573-1.664-3.505-2.622-5.797-2.872v.003zm-7.052 5.5v-.032l-.269-.262a.771.771 0 0 0-.556-.23.771.771 0 0 0-.556.23l-.27.262v.032l-3.904 4.192a.73.73 0 0 0-.236.54.84.84 0 0 0 .236.574l.269.164a.602.602 0 0 0 .539.18c.201-.033.393-.126.572-.279l2.289-2.489v10.546c0 .306.101.556.303.754.201.197.454.294.757.294s.561-.099.775-.294a.978.978 0 0 0 .32-.754V14.406l2.357 2.555a.993.993 0 0 0 .538.279.599.599 0 0 0 .54-.18l.268-.164a.84.84 0 0 0 .236-.573.73.73 0 0 0-.236-.541l-3.973-4.258h.001z"/>
</svg>
