<svg xmlns="http://www.w3.org/2000/svg" width="32" height="32" viewBox="0 0 32 32">
    <path fill="#000" fill-rule="evenodd" d="M23.313 26.1l-6.282-3.466c1.042-.832 1.797-1.967 2.266-3.403.469-1.436.703-2.8.703-4.09v-4.214c0-.916-.36-1.832-1.078-2.747-.719-.916-1.662-1.67-2.828-2.264-1.167-.593-2.354-.89-3.563-.89-.708 0-1.437.115-2.187.344a8.45 8.45 0 0 0-2.063.936c-.625.396-1.187.838-1.687 1.327a5.73 5.73 0 0 0-1.172 1.608C5.14 9.824 5 10.386 5 10.927v4.214c0 1.166.26 2.488.781 3.965.521 1.478 1.313 2.644 2.375 3.497L1.687 26.1c-.125.062-.28.145-.468.25-.188.103-.438.301-.75.592-.313.292-.469.573-.469.843v2.53c0 .478.167.878.5 1.201.333.323.73.484 1.188.484h21.625a1.65 1.65 0 0 0 1.187-.484c.333-.323.5-.723.5-1.202v-2.529a.93.93 0 0 0-.094-.39 1.425 1.425 0 0 0-.234-.359 3.175 3.175 0 0 0-.703-.577 18.25 18.25 0 0 0-.328-.188 1.459 1.459 0 0 0-.235-.109l-.093-.062zM23 30.002H2v-1.78c.167-.124.333-.218.5-.28l.125-.063 6.469-3.528a.972.972 0 0 0 .281-.171c.083-.073.161-.146.234-.219a1.632 1.632 0 0 0 .36-.546 3.71 3.71 0 0 0 .11-.313 1.08 1.08 0 0 0 .046-.312c.063-.707-.177-1.29-.719-1.748-.396-.312-.755-.728-1.078-1.249a7.684 7.684 0 0 1-.765-1.623 11.691 11.691 0 0 1-.422-1.624A8 8 0 0 1 7 15.141v-4.214c0-.791.589-1.64 1.766-2.545s2.432-1.358 3.765-1.358c1.375 0 2.63.448 3.766 1.343 1.135.895 1.703 1.748 1.703 2.56v4.214c0 1.02-.177 2.108-.531 3.263-.354 1.155-.917 2.034-1.688 2.638-.562.458-.812 1.04-.75 1.748.063.708.406 1.239 1.031 1.592l6.282 3.466.187.093c.146.063.302.157.469.281v1.78zm7.313-8.866l-6.375-3.497A6.694 6.694 0 0 0 25.375 16c.417-.656.74-1.337.969-2.045.229-.708.396-1.379.5-2.014.104-.634.156-1.222.156-1.763V5.963c0-.687-.224-1.39-.672-2.107a7.815 7.815 0 0 0-1.703-1.92C23.937 1.374 23.13.91 22.203.546A7.519 7.519 0 0 0 19.438 0c-1.167 0-2.329.286-3.485.859-1.156.572-2.11 1.295-2.86 2.17.105 0 .272.005.5.015a15.141 15.141 0 0 1 1.016.078c.198.02.38.047.547.078.167.031.323.068.469.11a6.147 6.147 0 0 1 3.813-1.28c1.375 0 2.645.452 3.812 1.357C24.417 4.293 25 5.151 25 5.963v4.215c0 .978-.193 2.055-.578 3.23-.386 1.177-.964 2.066-1.735 2.67-.562.437-.812 1.02-.75 1.748 0 .125.021.25.063.375.042.125.094.245.156.359.063.114.13.224.203.328.073.104.162.198.266.28.104.084.219.167.344.25l6.375 3.466c.041.02.078.036.11.047.03.01.062.026.093.047.031.02.068.041.11.062l.124.062c.042.021.078.042.11.063.03.02.067.041.109.062v1.78h-4.031c.187.146.349.333.484.562.136.229.235.437.297.624.063.187.146.458.25.812h3.313c.312 0 .598-.073.859-.219.26-.145.463-.348.61-.608.145-.26.218-.547.218-.859v-2.498c0-.29-.14-.577-.422-.858a3.349 3.349 0 0 0-.86-.64l-.405-.187z"/>
</svg>
