<svg xmlns="http://www.w3.org/2000/svg" viewBox="0 0 37 32"><path fill="#95A6B8" fill-rule="evenodd" d="M32.375 5.714V4.571C32.375 2.046 30.305 0 27.75 0H6.937C3.107 0 0 3.07 0 6.857v18.286C0 28.93 3.106 32 6.938 32h25.437C34.93 32 37 29.954 37 27.429V10.286c0-2.525-2.07-4.572-4.625-4.572zm1.156 21.715a1.15 1.15 0 01-1.156 1.142H6.937c-1.912 0-3.468-1.537-3.468-3.428V6.857c0-1.89 1.556-3.428 3.469-3.428H27.75a1.15 1.15 0 011.156 1.142v2.286H8.094c-.64 0-1.156.512-1.156 1.143s.517 1.143 1.156 1.143h24.281c.637 0 1.156.513 1.156 1.143v17.143zM27.75 16c-1.277 0-2.313 1.024-2.313 2.286s1.036 2.285 2.313 2.285c1.277 0 2.313-1.023 2.313-2.285 0-1.262-1.036-2.286-2.313-2.286z"/></svg>